<svg width="768" height="720" viewBox="0 0 768 720" fill="none" xmlns="http://www.w3.org/2000/svg">
<rect width="768" height="720" fill="#F7F8FA"/>
<rect x="33" y="456" width="40" height="8" rx="4" fill="#5CC78D"/>
<path d="M33.0114 420V408.364H37.6705C38.9545 408.364 39.9186 408.644 40.5625 409.205C41.2102 409.761 41.5341 410.475 41.5341 411.347C41.5341 412.032 41.3352 412.587 40.9375 413.011C40.5398 413.432 40.0379 413.71 39.4318 413.847V413.96C39.875 413.979 40.2898 414.104 40.6761 414.335C41.0663 414.566 41.3826 414.888 41.625 415.301C41.8674 415.714 41.9886 416.208 41.9886 416.784C41.9886 417.402 41.8352 417.953 41.5284 418.438C41.2254 418.922 40.7765 419.305 40.1818 419.585C39.5871 419.862 38.8542 420 37.983 420H33.0114ZM35.4716 417.989H37.4773C38.1667 417.989 38.6667 417.856 38.9773 417.591C39.2917 417.326 39.4489 416.975 39.4489 416.54C39.4489 416.059 39.2765 415.665 38.9318 415.358C38.5909 415.051 38.125 414.898 37.5341 414.898H35.4716V417.989ZM35.4716 413.233H37.2955C37.7992 413.233 38.2178 413.102 38.5511 412.841C38.8845 412.576 39.0511 412.214 39.0511 411.756C39.0511 411.335 38.9015 410.996 38.6023 410.739C38.3068 410.481 37.8864 410.352 37.3409 410.352H35.4716V413.233ZM46.0327 420.165C45.1993 420.165 44.508 419.947 43.9588 419.511C43.4096 419.076 43.1349 418.426 43.1349 417.562C43.1349 416.911 43.2884 416.4 43.5952 416.028C43.902 415.657 44.3035 415.386 44.7997 415.216C45.2997 415.042 45.8376 414.928 46.4134 414.875C47.1709 414.799 47.7126 414.72 48.0384 414.636C48.3641 414.553 48.527 414.371 48.527 414.091V414.057C48.527 413.697 48.4134 413.419 48.1861 413.222C47.9626 413.025 47.6444 412.926 47.2315 412.926C46.7959 412.926 46.4493 413.021 46.1918 413.21C45.9342 413.4 45.7637 413.64 45.6804 413.932L43.4418 413.75C43.6084 412.955 44.0213 412.324 44.6804 411.858C45.3433 411.392 46.1974 411.159 47.2429 411.159C47.8906 411.159 48.4967 411.261 49.0611 411.466C49.6255 411.67 50.08 411.991 50.4247 412.426C50.7732 412.858 50.9474 413.42 50.9474 414.114V420H48.652V418.79H48.5838C48.3717 419.195 48.0535 419.527 47.6293 419.784C47.2088 420.038 46.6766 420.165 46.0327 420.165ZM46.7259 418.494C47.2562 418.494 47.6918 418.341 48.0327 418.034C48.3736 417.723 48.544 417.339 48.544 416.881V415.955C48.4493 416.019 48.3016 416.076 48.1009 416.125C47.9039 416.174 47.6918 416.218 47.4645 416.256C47.241 416.29 47.0402 416.32 46.8622 416.347C46.438 416.407 46.0952 416.527 45.8338 416.705C45.5762 416.883 45.4474 417.142 45.4474 417.483C45.4474 417.816 45.5668 418.068 45.8054 418.239C46.0478 418.409 46.3546 418.494 46.7259 418.494ZM56.7685 420.17C55.8745 420.17 55.1056 419.981 54.4616 419.602C53.8215 419.22 53.3291 418.689 52.9844 418.011C52.6435 417.333 52.473 416.553 52.473 415.67C52.473 414.777 52.6454 413.992 52.9901 413.318C53.3385 412.64 53.8329 412.112 54.473 411.733C55.1132 411.35 55.8745 411.159 56.7571 411.159C57.5185 411.159 58.1851 411.297 58.7571 411.574C59.3329 411.85 59.7855 412.239 60.1151 412.739C60.4484 413.239 60.6321 413.826 60.6662 414.5H58.3821C58.3177 414.064 58.1473 413.714 57.8707 413.449C57.598 413.18 57.2401 413.045 56.7969 413.045C56.2363 413.045 55.7855 413.271 55.4446 413.722C55.1037 414.172 54.9332 414.811 54.9332 415.636C54.9332 416.47 55.1018 417.116 55.4389 417.574C55.7798 418.028 56.2325 418.256 56.7969 418.256C57.2135 418.256 57.5639 418.131 57.848 417.881C58.1321 417.627 58.3101 417.267 58.3821 416.801H60.6662C60.6283 417.468 60.4465 418.055 60.1207 418.562C59.7988 419.07 59.3537 419.466 58.7855 419.75C58.2173 420.03 57.545 420.17 56.7685 420.17ZM66.858 411.273V413.091H65.2159V417.318C65.2159 417.652 65.2917 417.877 65.4432 417.994C65.5947 418.112 65.7917 418.17 66.0341 418.17C66.1477 418.17 66.2614 418.161 66.375 418.142C66.4886 418.119 66.5758 418.102 66.6364 418.091L67.017 419.892C66.8958 419.93 66.7254 419.973 66.5057 420.023C66.286 420.076 66.0189 420.108 65.7045 420.119C64.8258 420.157 64.1193 419.968 63.5852 419.551C63.0549 419.131 62.7917 418.492 62.7955 417.636V413.091H61.6023V411.273H62.7955V409.182H65.2159V411.273H66.858ZM72.2841 420.17C71.4015 420.17 70.6383 419.983 69.9943 419.608C69.3542 419.229 68.8598 418.703 68.5114 418.028C68.1629 417.35 67.9886 416.564 67.9886 415.67C67.9886 414.769 68.1629 413.981 68.5114 413.307C68.8598 412.629 69.3542 412.102 69.9943 411.727C70.6383 411.348 71.4015 411.159 72.2841 411.159C73.1667 411.159 73.928 411.348 74.5682 411.727C75.2121 412.102 75.7083 412.629 76.0568 413.307C76.4053 413.981 76.5795 414.769 76.5795 415.67C76.5795 416.564 76.4053 417.35 76.0568 418.028C75.7083 418.703 75.2121 419.229 74.5682 419.608C73.928 419.983 73.1667 420.17 72.2841 420.17ZM72.2955 418.295C72.8939 418.295 73.3466 418.045 73.6534 417.545C73.964 417.045 74.1193 416.415 74.1193 415.653C74.1193 414.892 73.964 414.261 73.6534 413.761C73.3466 413.258 72.8939 413.006 72.2955 413.006C71.6856 413.006 71.2254 413.258 70.9148 413.761C70.6042 414.261 70.4489 414.892 70.4489 415.653C70.4489 416.415 70.6042 417.045 70.9148 417.545C71.2254 418.045 71.6856 418.295 72.2955 418.295ZM78.1989 420V408.364H82.858C84.142 408.364 85.1061 408.644 85.75 409.205C86.3977 409.761 86.7216 410.475 86.7216 411.347C86.7216 412.032 86.5227 412.587 86.125 413.011C85.7273 413.432 85.2254 413.71 84.6193 413.847V413.96C85.0625 413.979 85.4773 414.104 85.8636 414.335C86.2538 414.566 86.5701 414.888 86.8125 415.301C87.0549 415.714 87.1761 416.208 87.1761 416.784C87.1761 417.402 87.0227 417.953 86.7159 418.438C86.4129 418.922 85.964 419.305 85.3693 419.585C84.7746 419.862 84.0417 420 83.1705 420H78.1989ZM80.6591 417.989H82.6648C83.3542 417.989 83.8542 417.856 84.1648 417.591C84.4792 417.326 84.6364 416.975 84.6364 416.54C84.6364 416.059 84.464 415.665 84.1193 415.358C83.7784 415.051 83.3125 414.898 82.7216 414.898H80.6591V417.989ZM80.6591 413.233H82.483C82.9867 413.233 83.4053 413.102 83.7386 412.841C84.072 412.576 84.2386 412.214 84.2386 411.756C84.2386 411.335 84.089 410.996 83.7898 410.739C83.4943 410.481 83.0739 410.352 82.5284 410.352H80.6591V413.233ZM90.2259 423.256C89.919 423.256 89.6312 423.233 89.3622 423.188C89.0971 423.142 88.8774 423.083 88.7031 423.011L89.2486 421.199C89.6766 421.331 90.0365 421.366 90.3281 421.301C90.6236 421.241 90.8565 421.013 91.027 420.619L91.169 420.25L88.0384 411.273H90.5838L92.3906 417.682H92.4815L94.3054 411.273L96.8679 411.284L93.4759 420.943C93.2334 421.64 92.8565 422.199 92.3452 422.619C91.8338 423.044 91.1274 423.256 90.2259 423.256ZM102.749 411.273V413.091H101.107V417.318C101.107 417.652 101.182 417.877 101.334 417.994C101.485 418.112 101.682 418.17 101.925 418.17C102.038 418.17 102.152 418.161 102.266 418.142C102.379 418.119 102.466 418.102 102.527 418.091L102.908 419.892C102.786 419.93 102.616 419.973 102.396 420.023C102.177 420.076 101.91 420.108 101.595 420.119C100.716 420.157 100.01 419.968 99.4759 419.551C98.9455 419.131 98.6823 418.492 98.6861 417.636V413.091H97.4929V411.273H98.6861V409.182H101.107V411.273H102.749ZM108.209 420.17C107.315 420.17 106.544 419.989 105.896 419.625C105.249 419.258 104.75 418.739 104.402 418.068C104.054 417.394 103.879 416.597 103.879 415.676C103.879 414.778 104.054 413.991 104.402 413.312C104.75 412.634 105.241 412.106 105.874 411.727C106.51 411.348 107.256 411.159 108.112 411.159C108.881 411.159 109.574 411.322 110.192 411.648C110.813 411.973 111.305 412.466 111.669 413.125C112.033 413.78 112.214 414.602 112.214 415.591V416.256H106.271V416.261C106.271 416.913 106.449 417.426 106.805 417.801C107.161 418.176 107.643 418.364 108.249 418.364C108.654 418.364 109.004 418.278 109.3 418.108C109.595 417.938 109.804 417.686 109.925 417.352L112.163 417.5C111.993 418.311 111.561 418.958 110.868 419.443C110.175 419.928 109.288 420.17 108.209 420.17ZM106.271 414.756H109.936C109.932 414.237 109.766 413.809 109.436 413.472C109.107 413.134 108.679 412.966 108.152 412.966C107.614 412.966 107.173 413.14 106.828 413.489C106.483 413.837 106.298 414.259 106.271 414.756Z" fill="#0C242C"/>
<path d="M37.2955 430.364H35.8864L32.9773 432.295V433.727L35.8182 431.841H35.8864V442H37.2955V430.364ZM50.4848 435.557H45.3939V436.807H50.4848V435.557ZM57.6414 442H64.9823V440.75H59.5732V440.659L62.1869 437.864C64.1869 435.722 64.7778 434.722 64.7778 433.432C64.7778 431.636 63.3232 430.205 61.2778 430.205C59.238 430.205 57.6869 431.591 57.6869 433.636H59.0278C59.0278 432.312 59.8857 431.432 61.2323 431.432C62.4937 431.432 63.4596 432.205 63.4596 433.432C63.4596 434.506 62.8289 435.301 61.4823 436.773L57.6414 440.977V442ZM73.5126 436.75C73.5126 435.227 74.4841 434.364 75.808 434.364C77.0694 434.364 77.8307 435.159 77.8307 436.545V442H79.1716V436.455C79.1716 434.21 77.9785 433.159 76.1944 433.159C74.8194 433.159 74.0353 433.733 73.6262 434.636H73.5126V430.364H72.1716V442H73.5126V436.75Z" fill="#0C242C"/>
<rect x="32" y="640" width="704" height="8" rx="4" fill="url(#paint0_linear)"/>
<path d="M44.2784 596.438C43.9545 593.75 41.9205 592.205 39.2273 592.205C36.1534 592.205 33.8068 594.375 33.8068 598.182C33.8068 601.977 36.1136 604.159 39.2273 604.159C42.2102 604.159 44.0114 602.176 44.2784 600.034L41.7898 600.023C41.5568 601.267 40.5795 601.983 39.267 601.983C37.5 601.983 36.3011 600.67 36.3011 598.182C36.3011 595.761 37.483 594.381 39.2841 594.381C40.6307 594.381 41.6023 595.159 41.7898 596.438H44.2784ZM51.5938 600.284C51.5994 601.455 50.7983 602.068 49.929 602.068C49.0142 602.068 48.4233 601.426 48.4176 600.398V595.273H45.9972V600.83C46.0028 602.869 47.196 604.114 48.9517 604.114C50.2642 604.114 51.2074 603.438 51.5994 602.415H51.6903V604H54.0142V595.273H51.5938V600.284ZM55.9503 604H58.3707V599.062C58.3707 597.989 59.1548 597.25 60.223 597.25C60.5582 597.25 61.0185 597.307 61.2457 597.381V595.233C61.0298 595.182 60.7287 595.148 60.4844 595.148C59.5071 595.148 58.706 595.716 58.3878 596.795H58.2969V595.273H55.9503V604ZM62.4972 604H64.9176V599.062C64.9176 597.989 65.7017 597.25 66.7699 597.25C67.1051 597.25 67.5653 597.307 67.7926 597.381V595.233C67.5767 595.182 67.2756 595.148 67.0312 595.148C66.054 595.148 65.2528 595.716 64.9347 596.795H64.8438V595.273H62.4972V604ZM72.6151 604.17C74.7741 604.17 76.2287 603.119 76.5696 601.5L74.331 601.352C74.0866 602.017 73.4616 602.364 72.6548 602.364C71.4446 602.364 70.6776 601.562 70.6776 600.261V600.256H76.6207V599.591C76.6207 596.625 74.8253 595.159 72.5185 595.159C69.9503 595.159 68.2855 596.983 68.2855 599.676C68.2855 602.443 69.9276 604.17 72.6151 604.17ZM70.6776 598.756C70.7287 597.761 71.4844 596.966 72.5582 596.966C73.6094 596.966 74.3366 597.716 74.3423 598.756H70.6776ZM80.6207 598.955C80.6264 597.83 81.2969 597.17 82.2741 597.17C83.2457 597.17 83.831 597.807 83.8253 598.875V604H86.2457V598.443C86.2457 596.409 85.0526 595.159 83.2344 595.159C81.9389 595.159 81.0014 595.795 80.6094 596.812H80.5071V595.273H78.2003V604H80.6207V598.955ZM92.7955 595.273H91.1534V593.182H88.733V595.273H87.5398V597.091H88.733V601.636C88.7216 603.347 89.8864 604.193 91.642 604.119C92.267 604.097 92.7102 603.972 92.9545 603.892L92.5739 602.091C92.4545 602.114 92.1989 602.17 91.9716 602.17C91.4886 602.17 91.1534 601.989 91.1534 601.318V597.091H92.7955V595.273ZM98.1207 604H100.581V600.227H102.649C105.325 600.227 106.882 598.631 106.882 596.307C106.882 593.994 105.354 592.364 102.712 592.364H98.1207V604ZM100.581 598.256V594.375H102.24C103.661 594.375 104.348 595.148 104.348 596.307C104.348 597.46 103.661 598.256 102.251 598.256H100.581ZM108.435 604H110.855V599.062C110.855 597.989 111.639 597.25 112.707 597.25C113.043 597.25 113.503 597.307 113.73 597.381V595.233C113.514 595.182 113.213 595.148 112.969 595.148C111.991 595.148 111.19 595.716 110.872 596.795H110.781V595.273H108.435V604ZM117.22 604.165C118.51 604.165 119.345 603.602 119.771 602.79H119.839V604H122.135V598.114C122.135 596.034 120.374 595.159 118.43 595.159C116.339 595.159 114.964 596.159 114.629 597.75L116.868 597.932C117.033 597.352 117.55 596.926 118.419 596.926C119.243 596.926 119.714 597.341 119.714 598.057V598.091C119.714 598.653 119.118 598.727 117.601 598.875C115.874 599.034 114.322 599.614 114.322 601.562C114.322 603.29 115.555 604.165 117.22 604.165ZM117.913 602.494C117.169 602.494 116.635 602.148 116.635 601.483C116.635 600.801 117.197 600.466 118.05 600.347C118.578 600.273 119.442 600.148 119.732 599.955V600.881C119.732 601.795 118.976 602.494 117.913 602.494ZM127.956 604.17C130.28 604.17 131.74 602.807 131.854 600.801H129.57C129.428 601.733 128.814 602.256 127.984 602.256C126.854 602.256 126.121 601.307 126.121 599.636C126.121 597.989 126.859 597.045 127.984 597.045C128.871 597.045 129.439 597.631 129.57 598.5H131.854C131.751 596.483 130.223 595.159 127.945 595.159C125.297 595.159 123.661 596.994 123.661 599.67C123.661 602.324 125.268 604.17 127.956 604.17ZM138.045 595.273H136.403V593.182H133.983V595.273H132.79V597.091H133.983V601.636C133.972 603.347 135.136 604.193 136.892 604.119C137.517 604.097 137.96 603.972 138.205 603.892L137.824 602.091C137.705 602.114 137.449 602.17 137.222 602.17C136.739 602.17 136.403 601.989 136.403 601.318V597.091H138.045V595.273ZM139.622 604H142.043V595.273H139.622V604ZM140.838 594.148C141.56 594.148 142.151 593.597 142.151 592.92C142.151 592.25 141.56 591.699 140.838 591.699C140.122 591.699 139.531 592.25 139.531 592.92C139.531 593.597 140.122 594.148 140.838 594.148ZM147.925 604.17C150.249 604.17 151.709 602.807 151.822 600.801H149.538C149.396 601.733 148.783 602.256 147.953 602.256C146.822 602.256 146.089 601.307 146.089 599.636C146.089 597.989 146.828 597.045 147.953 597.045C148.839 597.045 149.408 597.631 149.538 598.5H151.822C151.72 596.483 150.192 595.159 147.913 595.159C145.266 595.159 143.629 596.994 143.629 599.67C143.629 602.324 145.237 604.17 147.925 604.17ZM157.349 604.17C159.509 604.17 160.963 603.119 161.304 601.5L159.065 601.352C158.821 602.017 158.196 602.364 157.389 602.364C156.179 602.364 155.412 601.562 155.412 600.261V600.256H161.355V599.591C161.355 596.625 159.56 595.159 157.253 595.159C154.685 595.159 153.02 596.983 153.02 599.676C153.02 602.443 154.662 604.17 157.349 604.17ZM155.412 598.756C155.463 597.761 156.219 596.966 157.293 596.966C158.344 596.966 159.071 597.716 159.077 598.756H155.412Z" fill="#0C242C"/>
<path d="M33.9318 623.614H39.4091V626H40.75V623.614H42.3409V622.364H40.75V614.364H39.0455L33.9318 622.455V623.614ZM39.4091 622.364H35.4545V622.273L39.3182 616.159H39.4091V622.364ZM48.3574 626.159C50.6813 626.159 52.3006 624.801 52.312 622.909C52.3006 621.438 51.3177 620.188 50.062 619.955V619.886C51.1529 619.602 51.8688 618.534 51.8802 617.295C51.8688 615.523 50.3802 614.205 48.3574 614.205C46.312 614.205 44.8234 615.523 44.8347 617.295C44.8234 618.534 45.5393 619.602 46.6529 619.886V619.955C45.3745 620.188 44.3915 621.438 44.4029 622.909C44.3915 624.801 46.0109 626.159 48.3574 626.159ZM48.3574 624.909C46.7609 624.909 45.7779 624.091 45.7893 622.841C45.7779 621.528 46.8631 620.591 48.3574 620.591C49.829 620.591 50.9143 621.528 50.9256 622.841C50.9143 624.091 49.9313 624.909 48.3574 624.909ZM48.3574 619.386C47.0847 619.386 46.187 618.591 46.1984 617.386C46.187 616.205 47.0506 615.432 48.3574 615.432C49.6415 615.432 50.5052 616.205 50.5165 617.386C50.5052 618.591 49.6074 619.386 48.3574 619.386ZM58.0814 623.955H59.3541V620.841H62.4677V619.568H59.3541V616.455H58.0814V619.568H54.9677V620.841H58.0814V623.955ZM71.3801 620.75C71.3801 619.227 72.3516 618.364 73.6755 618.364C74.9369 618.364 75.6982 619.159 75.6982 620.545V626H77.0391V620.455C77.0391 618.21 75.846 617.159 74.0619 617.159C72.6869 617.159 71.9028 617.733 71.4937 618.636H71.3801V614.364H70.0391V626H71.3801V620.75Z" fill="#0C242C"/>
<rect x="33" y="548" width="351.5" height="8" rx="4" fill="url(#paint1_linear)"/>
<path d="M42.7443 500.364H40.2955V507.682H40.1932L35.1705 500.364H33.0114V512H35.4716V504.676H35.5568L40.6193 512H42.7443V500.364ZM48.7088 512.17C50.8679 512.17 52.3224 511.119 52.6634 509.5L50.4247 509.352C50.1804 510.017 49.5554 510.364 48.7486 510.364C47.5384 510.364 46.7713 509.562 46.7713 508.261V508.256H52.7145V507.591C52.7145 504.625 50.919 503.159 48.6122 503.159C46.044 503.159 44.3793 504.983 44.3793 507.676C44.3793 510.443 46.0213 512.17 48.7088 512.17ZM46.7713 506.756C46.8224 505.761 47.5781 504.966 48.652 504.966C49.7031 504.966 50.4304 505.716 50.4361 506.756H46.7713ZM55.9531 512H58.5099L60.0099 506.511H60.1179L61.6179 512H64.1804L66.5497 503.273H64.1065L62.777 509.102H62.7031L61.2713 503.273H58.8679L57.4588 509.136H57.3793L56.027 503.273H53.5781L55.9531 512ZM71.1463 502.392H74.7088V512H77.1406V502.392H80.7031V500.364H71.1463V502.392ZM84.9432 512.17C87.1023 512.17 88.5568 511.119 88.8977 509.5L86.6591 509.352C86.4148 510.017 85.7898 510.364 84.983 510.364C83.7727 510.364 83.0057 509.562 83.0057 508.261V508.256H88.9489V507.591C88.9489 504.625 87.1534 503.159 84.8466 503.159C82.2784 503.159 80.6136 504.983 80.6136 507.676C80.6136 510.443 82.2557 512.17 84.9432 512.17ZM83.0057 506.756C83.0568 505.761 83.8125 504.966 84.8864 504.966C85.9375 504.966 86.6648 505.716 86.6705 506.756H83.0057ZM94.4716 512.17C96.7955 512.17 98.2557 510.807 98.3693 508.801H96.0852C95.9432 509.733 95.3295 510.256 94.5 510.256C93.3693 510.256 92.6364 509.307 92.6364 507.636C92.6364 505.989 93.375 505.045 94.5 505.045C95.3864 505.045 95.9545 505.631 96.0852 506.5H98.3693C98.267 504.483 96.7386 503.159 94.4602 503.159C91.8125 503.159 90.1761 504.994 90.1761 507.67C90.1761 510.324 91.7841 512.17 94.4716 512.17ZM102.339 506.955C102.345 505.83 103.033 505.17 104.021 505.17C105.004 505.17 105.584 505.801 105.578 506.875V512H107.999V506.443C108.004 504.398 106.8 503.159 104.982 503.159C103.658 503.159 102.771 503.784 102.374 504.812H102.271V500.364H99.919V512H102.339V506.955ZM112.324 506.955C112.33 505.83 113 505.17 113.977 505.17C114.949 505.17 115.534 505.807 115.528 506.875V512H117.949V506.443C117.949 504.409 116.756 503.159 114.938 503.159C113.642 503.159 112.705 503.795 112.312 504.812H112.21V503.273H109.903V512H112.324V506.955ZM123.8 512.17C126.447 512.17 128.095 510.358 128.095 507.67C128.095 504.966 126.447 503.159 123.8 503.159C121.152 503.159 119.504 504.966 119.504 507.67C119.504 510.358 121.152 512.17 123.8 512.17ZM123.811 510.295C122.589 510.295 121.964 509.176 121.964 507.653C121.964 506.131 122.589 505.006 123.811 505.006C125.01 505.006 125.635 506.131 125.635 507.653C125.635 509.176 125.01 510.295 123.811 510.295ZM132.089 500.364H129.669V512H132.089V500.364ZM137.972 512.17C140.619 512.17 142.267 510.358 142.267 507.67C142.267 504.966 140.619 503.159 137.972 503.159C135.324 503.159 133.676 504.966 133.676 507.67C133.676 510.358 135.324 512.17 137.972 512.17ZM137.983 510.295C136.761 510.295 136.136 509.176 136.136 507.653C136.136 506.131 136.761 505.006 137.983 505.006C139.182 505.006 139.807 506.131 139.807 507.653C139.807 509.176 139.182 510.295 137.983 510.295ZM147.773 515.398C150.267 515.398 152.04 514.261 152.04 512.085V503.273H149.636V504.739H149.545C149.222 504.028 148.511 503.159 147.051 503.159C145.136 503.159 143.517 504.648 143.517 507.619C143.517 510.523 145.091 511.875 147.057 511.875C148.449 511.875 149.227 511.176 149.545 510.455H149.648V512.051C149.648 513.193 148.881 513.659 147.83 513.659C146.761 513.659 146.222 513.193 146.023 512.722L143.784 513.023C144.074 514.341 145.42 515.398 147.773 515.398ZM147.824 510.057C146.636 510.057 145.989 509.114 145.989 507.608C145.989 506.125 146.625 505.085 147.824 505.085C149 505.085 149.659 506.08 149.659 507.608C149.659 509.148 148.989 510.057 147.824 510.057ZM153.966 512H156.386V503.273H153.966V512ZM155.182 502.148C155.903 502.148 156.494 501.597 156.494 500.92C156.494 500.25 155.903 499.699 155.182 499.699C154.466 499.699 153.875 500.25 153.875 500.92C153.875 501.597 154.466 502.148 155.182 502.148ZM162.303 512.17C164.462 512.17 165.916 511.119 166.257 509.5L164.018 509.352C163.774 510.017 163.149 510.364 162.342 510.364C161.132 510.364 160.365 509.562 160.365 508.261V508.256H166.308V507.591C166.308 504.625 164.513 503.159 162.206 503.159C159.638 503.159 157.973 504.983 157.973 507.676C157.973 510.443 159.615 512.17 162.303 512.17ZM160.365 506.756C160.416 505.761 161.172 504.966 162.246 504.966C163.297 504.966 164.024 505.716 164.03 506.756H160.365ZM175.149 505.761C174.933 504.153 173.638 503.159 171.433 503.159C169.2 503.159 167.729 504.193 167.734 505.875C167.729 507.182 168.553 508.028 170.257 508.369L171.768 508.67C172.53 508.824 172.876 509.102 172.888 509.54C172.876 510.057 172.314 510.426 171.467 510.426C170.604 510.426 170.03 510.057 169.882 509.347L167.501 509.472C167.729 511.142 169.149 512.17 171.462 512.17C173.723 512.17 175.342 511.017 175.348 509.295C175.342 508.034 174.518 507.278 172.825 506.932L171.246 506.614C170.433 506.438 170.132 506.159 170.138 505.739C170.132 505.216 170.723 504.875 171.473 504.875C172.314 504.875 172.814 505.335 172.933 505.898L175.149 505.761Z" fill="#0C242C"/>
<path d="M33.3182 529.341H34.5455C34.5284 528.352 34.9773 527.955 35.5909 527.955C35.9943 527.955 36.2614 528.131 36.8182 528.614C37.6477 529.335 38.2045 529.659 38.9773 529.659C40.1364 529.659 41.2614 528.932 41.2273 527.045H40C40.017 527.949 39.6023 528.432 38.9545 528.432C38.5511 528.432 38.2841 528.256 37.7273 527.773C36.8977 527.051 36.3409 526.727 35.5682 526.727C34.4091 526.727 33.2841 527.455 33.3182 529.341ZM43.3645 534H50.7055V532.75H45.2964V532.659L47.91 529.864C49.91 527.722 50.5009 526.722 50.5009 525.432C50.5009 523.636 49.0464 522.205 47.0009 522.205C44.9611 522.205 43.41 523.591 43.41 525.636H44.7509C44.7509 524.312 45.6089 523.432 46.9555 523.432C48.2168 523.432 49.1827 524.205 49.1827 525.432C49.1827 526.506 48.552 527.301 47.2055 528.773L43.3645 532.977V534ZM52.6893 531.614H58.1666V534H59.5075V531.614H61.0984V530.364H59.5075V522.364H57.803L52.6893 530.455V531.614ZM58.1666 530.364H54.212V530.273L58.0757 524.159H58.1666V530.364ZM69.4113 528.75C69.4113 527.227 70.3829 526.364 71.7068 526.364C72.9681 526.364 73.7295 527.159 73.7295 528.545V534H75.0704V528.455C75.0704 526.21 73.8772 525.159 72.0931 525.159C70.7181 525.159 69.934 525.733 69.5249 526.636H69.4113V522.364H68.0704V534H69.4113V528.75Z" fill="#0C242C"/>
<defs>
<linearGradient id="paint0_linear" x1="716.697" y1="648" x2="32" y2="648" gradientUnits="userSpaceOnUse">
<stop stop-color="#89929F"/>
<stop offset="1" stop-color="#CED3DA"/>
</linearGradient>
<linearGradient id="paint1_linear" x1="374.862" y1="556" x2="33" y2="556" gradientUnits="userSpaceOnUse">
<stop stop-color="#ABB2BC"/>
<stop offset="1" stop-color="#CED3DA"/>
</linearGradient>
</defs>
</svg>
