<svg width="1440" height="640" viewBox="0 0 1440 640" fill="none" xmlns="http://www.w3.org/2000/svg">
<rect width="1440" height="640" fill="#F7F8FA"/>
<path d="M585.838 460.364V472H583.713L578.651 464.676H578.565V472H576.105V460.364H578.264L583.287 467.682H583.389V460.364H585.838ZM591.803 472.17C590.909 472.17 590.138 471.989 589.49 471.625C588.842 471.258 588.344 470.739 587.996 470.068C587.647 469.394 587.473 468.597 587.473 467.676C587.473 466.778 587.647 465.991 587.996 465.312C588.344 464.634 588.835 464.106 589.467 463.727C590.104 463.348 590.85 463.159 591.706 463.159C592.475 463.159 593.168 463.322 593.786 463.648C594.407 463.973 594.899 464.466 595.263 465.125C595.626 465.78 595.808 466.602 595.808 467.591V468.256H589.865V468.261C589.865 468.913 590.043 469.426 590.399 469.801C590.755 470.176 591.236 470.364 591.842 470.364C592.248 470.364 592.598 470.278 592.893 470.108C593.189 469.938 593.397 469.686 593.518 469.352L595.757 469.5C595.587 470.311 595.155 470.958 594.462 471.443C593.768 471.928 592.882 472.17 591.803 472.17ZM589.865 466.756H593.53C593.526 466.237 593.359 465.809 593.03 465.472C592.7 465.134 592.272 464.966 591.746 464.966C591.208 464.966 590.767 465.14 590.422 465.489C590.077 465.837 589.892 466.259 589.865 466.756ZM599.047 472L596.672 463.273H599.121L600.473 469.136H600.553L601.962 463.273H604.365L605.797 469.102H605.871L607.2 463.273H609.643L607.274 472H604.712L603.212 466.511H603.104L601.604 472H599.047ZM614.24 462.392V460.364H623.797V462.392H620.234V472H617.803V462.392H614.24ZM628.037 472.17C627.143 472.17 626.372 471.989 625.724 471.625C625.077 471.258 624.579 470.739 624.23 470.068C623.882 469.394 623.707 468.597 623.707 467.676C623.707 466.778 623.882 465.991 624.23 465.312C624.579 464.634 625.069 464.106 625.702 463.727C626.338 463.348 627.084 463.159 627.94 463.159C628.709 463.159 629.402 463.322 630.02 463.648C630.641 463.973 631.134 464.466 631.497 465.125C631.861 465.78 632.043 466.602 632.043 467.591V468.256H626.099V468.261C626.099 468.913 626.277 469.426 626.634 469.801C626.99 470.176 627.471 470.364 628.077 470.364C628.482 470.364 628.832 470.278 629.128 470.108C629.423 469.938 629.632 469.686 629.753 469.352L631.991 469.5C631.821 470.311 631.389 470.958 630.696 471.443C630.003 471.928 629.116 472.17 628.037 472.17ZM626.099 466.756H629.764C629.76 466.237 629.594 465.809 629.264 465.472C628.935 465.134 628.507 464.966 627.98 464.966C627.442 464.966 627.001 465.14 626.656 465.489C626.312 465.837 626.126 466.259 626.099 466.756ZM637.565 472.17C636.671 472.17 635.902 471.981 635.259 471.602C634.618 471.22 634.126 470.689 633.781 470.011C633.44 469.333 633.27 468.553 633.27 467.67C633.27 466.777 633.442 465.992 633.787 465.318C634.135 464.64 634.63 464.112 635.27 463.733C635.91 463.35 636.671 463.159 637.554 463.159C638.315 463.159 638.982 463.297 639.554 463.574C640.13 463.85 640.582 464.239 640.912 464.739C641.245 465.239 641.429 465.826 641.463 466.5H639.179C639.115 466.064 638.944 465.714 638.668 465.449C638.395 465.18 638.037 465.045 637.594 465.045C637.033 465.045 636.582 465.271 636.241 465.722C635.901 466.172 635.73 466.811 635.73 467.636C635.73 468.47 635.899 469.116 636.236 469.574C636.577 470.028 637.029 470.256 637.594 470.256C638.01 470.256 638.361 470.131 638.645 469.881C638.929 469.627 639.107 469.267 639.179 468.801H641.463C641.425 469.468 641.243 470.055 640.918 470.562C640.596 471.07 640.151 471.466 639.582 471.75C639.014 472.03 638.342 472.17 637.565 472.17ZM645.433 466.955V472H643.013V460.364H645.365V464.812H645.467C645.668 464.297 645.986 463.894 646.422 463.602C646.861 463.307 647.412 463.159 648.075 463.159C648.984 463.159 649.715 463.451 650.268 464.034C650.821 464.617 651.096 465.42 651.092 466.443V472H648.672V466.875C648.676 466.337 648.539 465.919 648.263 465.619C647.99 465.32 647.607 465.17 647.115 465.17C646.623 465.17 646.219 465.328 645.905 465.642C645.594 465.953 645.437 466.39 645.433 466.955ZM655.418 466.955V472H652.997V463.273H655.304V464.812H655.406C655.603 464.305 655.927 463.903 656.378 463.608C656.832 463.309 657.384 463.159 658.031 463.159C658.94 463.159 659.67 463.453 660.219 464.04C660.768 464.623 661.043 465.424 661.043 466.443V472H658.622V466.875C658.626 466.341 658.49 465.924 658.213 465.625C657.937 465.322 657.556 465.17 657.071 465.17C656.582 465.17 656.185 465.328 655.878 465.642C655.575 465.953 655.421 466.39 655.418 466.955ZM666.893 472.17C666.011 472.17 665.248 471.983 664.604 471.608C663.964 471.229 663.469 470.703 663.121 470.028C662.772 469.35 662.598 468.564 662.598 467.67C662.598 466.769 662.772 465.981 663.121 465.307C663.469 464.629 663.964 464.102 664.604 463.727C665.248 463.348 666.011 463.159 666.893 463.159C667.776 463.159 668.537 463.348 669.178 463.727C669.821 464.102 670.318 464.629 670.666 465.307C671.015 465.981 671.189 466.769 671.189 467.67C671.189 468.564 671.015 469.35 670.666 470.028C670.318 470.703 669.821 471.229 669.178 471.608C668.537 471.983 667.776 472.17 666.893 472.17ZM666.905 470.295C667.503 470.295 667.956 470.045 668.263 469.545C668.573 469.045 668.729 468.415 668.729 467.653C668.729 466.892 668.573 466.261 668.263 465.761C667.956 465.258 667.503 465.006 666.905 465.006C666.295 465.006 665.835 465.258 665.524 465.761C665.214 466.261 665.058 466.892 665.058 467.653C665.058 468.415 665.214 469.045 665.524 469.545C665.835 470.045 666.295 470.295 666.905 470.295ZM675.183 460.364V472H672.763V460.364H675.183ZM681.065 472.17C680.183 472.17 679.42 471.983 678.776 471.608C678.135 471.229 677.641 470.703 677.293 470.028C676.944 469.35 676.77 468.564 676.77 467.67C676.77 466.769 676.944 465.981 677.293 465.307C677.641 464.629 678.135 464.102 678.776 463.727C679.42 463.348 680.183 463.159 681.065 463.159C681.948 463.159 682.709 463.348 683.349 463.727C683.993 464.102 684.49 464.629 684.838 465.307C685.187 465.981 685.361 466.769 685.361 467.67C685.361 468.564 685.187 469.35 684.838 470.028C684.49 470.703 683.993 471.229 683.349 471.608C682.709 471.983 681.948 472.17 681.065 472.17ZM681.077 470.295C681.675 470.295 682.128 470.045 682.435 469.545C682.745 469.045 682.901 468.415 682.901 467.653C682.901 466.892 682.745 466.261 682.435 465.761C682.128 465.258 681.675 465.006 681.077 465.006C680.467 465.006 680.007 465.258 679.696 465.761C679.385 466.261 679.23 466.892 679.23 467.653C679.23 468.415 679.385 469.045 679.696 469.545C680.007 470.045 680.467 470.295 681.077 470.295ZM690.866 475.398C689.692 475.398 688.77 475.167 688.099 474.705C687.429 474.242 687.022 473.682 686.878 473.023L689.116 472.722C689.215 472.956 689.406 473.17 689.69 473.364C689.978 473.561 690.389 473.659 690.923 473.659C691.45 473.659 691.884 473.534 692.224 473.284C692.569 473.034 692.741 472.623 692.741 472.051V470.455H692.639C692.48 470.814 692.2 471.142 691.798 471.438C691.397 471.729 690.848 471.875 690.151 471.875C689.495 471.875 688.899 471.722 688.361 471.415C687.827 471.108 687.401 470.64 687.082 470.011C686.768 469.383 686.611 468.585 686.611 467.619C686.611 466.627 686.772 465.801 687.094 465.142C687.42 464.483 687.849 463.989 688.384 463.659C688.921 463.326 689.509 463.159 690.145 463.159C690.634 463.159 691.043 463.242 691.372 463.409C691.702 463.572 691.969 463.775 692.173 464.017C692.378 464.259 692.533 464.5 692.639 464.739H692.73V463.273H695.134V472.085C695.134 472.809 694.95 473.417 694.582 473.909C694.219 474.402 693.717 474.773 693.077 475.023C692.437 475.273 691.7 475.398 690.866 475.398ZM690.918 470.057C691.501 470.057 691.952 469.841 692.27 469.409C692.592 468.977 692.753 468.377 692.753 467.608C692.753 466.843 692.594 466.231 692.276 465.773C691.957 465.314 691.505 465.085 690.918 465.085C690.319 465.085 689.863 465.32 689.548 465.79C689.238 466.259 689.082 466.866 689.082 467.608C689.082 468.362 689.24 468.958 689.554 469.398C689.868 469.837 690.323 470.057 690.918 470.057ZM697.06 472V463.273H699.48V472H697.06ZM698.276 462.148C697.92 462.148 697.613 462.028 697.355 461.79C697.098 461.547 696.969 461.258 696.969 460.92C696.969 460.583 697.098 460.295 697.355 460.057C697.613 459.818 697.92 459.699 698.276 459.699C698.635 459.699 698.944 459.818 699.202 460.057C699.459 460.295 699.588 460.583 699.588 460.92C699.588 461.258 699.459 461.547 699.202 461.79C698.944 462.028 698.635 462.148 698.276 462.148ZM705.396 472.17C704.502 472.17 703.732 471.989 703.084 471.625C702.436 471.258 701.938 470.739 701.589 470.068C701.241 469.394 701.067 468.597 701.067 467.676C701.067 466.778 701.241 465.991 701.589 465.312C701.938 464.634 702.429 464.106 703.061 463.727C703.697 463.348 704.444 463.159 705.3 463.159C706.069 463.159 706.762 463.322 707.379 463.648C708 463.973 708.493 464.466 708.857 465.125C709.22 465.78 709.402 466.602 709.402 467.591V468.256H703.459V468.261C703.459 468.913 703.637 469.426 703.993 469.801C704.349 470.176 704.83 470.364 705.436 470.364C705.841 470.364 706.192 470.278 706.487 470.108C706.783 469.938 706.991 469.686 707.112 469.352L709.351 469.5C709.18 470.311 708.749 470.958 708.055 471.443C707.362 471.928 706.476 472.17 705.396 472.17ZM703.459 466.756H707.124C707.12 466.237 706.953 465.809 706.624 465.472C706.294 465.134 705.866 464.966 705.339 464.966C704.802 464.966 704.36 465.14 704.016 465.489C703.671 465.837 703.485 466.259 703.459 466.756ZM718.243 465.761L716.027 465.898C715.966 465.617 715.813 465.377 715.567 465.176C715.321 464.975 714.987 464.875 714.567 464.875C714.192 464.875 713.874 464.955 713.612 465.114C713.355 465.269 713.228 465.477 713.232 465.739C713.228 465.947 713.309 466.123 713.476 466.267C713.646 466.411 713.934 466.527 714.339 466.614L715.919 466.932C717.597 467.277 718.438 468.064 718.442 469.295C718.442 469.867 718.273 470.369 717.936 470.801C717.603 471.233 717.144 471.57 716.561 471.812C715.978 472.051 715.309 472.17 714.555 472.17C713.4 472.17 712.48 471.93 711.794 471.449C711.108 470.964 710.709 470.305 710.595 469.472L712.976 469.347C713.052 469.703 713.226 469.972 713.499 470.153C713.775 470.335 714.129 470.426 714.561 470.426C714.985 470.426 715.326 470.343 715.584 470.176C715.845 470.009 715.978 469.797 715.982 469.54C715.97 469.108 715.597 468.818 714.862 468.67L713.351 468.369C711.661 468.032 710.821 467.201 710.828 465.875C710.824 465.034 711.16 464.371 711.834 463.886C712.512 463.402 713.41 463.159 714.527 463.159C715.629 463.159 716.497 463.392 717.129 463.858C717.766 464.324 718.137 464.958 718.243 465.761Z" fill="#0C242C"/>
<path d="M676.022 489.341H677.249C677.232 488.352 677.681 487.955 678.295 487.955C678.698 487.955 678.965 488.131 679.522 488.614C680.351 489.335 680.908 489.659 681.681 489.659C682.84 489.659 683.965 488.932 683.931 487.045H682.704C682.721 487.949 682.306 488.432 681.658 488.432C681.255 488.432 680.988 488.256 680.431 487.773C679.601 487.051 679.045 486.727 678.272 486.727C677.113 486.727 675.988 487.455 676.022 489.341ZM686.068 494H693.409V492.75H688V492.659L690.614 489.864C692.614 487.722 693.205 486.722 693.205 485.432C693.205 483.636 691.75 482.205 689.705 482.205C687.665 482.205 686.114 483.591 686.114 485.636H687.455C687.455 484.312 688.313 483.432 689.659 483.432C690.921 483.432 691.886 484.205 691.886 485.432C691.886 486.506 691.256 487.301 689.909 488.773L686.068 492.977V494ZM695.393 491.614H700.87V494H702.211V491.614H703.802V490.364H702.211V482.364H700.507L695.393 490.455V491.614ZM700.87 490.364H696.916V490.273L700.779 484.159H700.87V490.364ZM712.115 488.75C712.115 487.227 713.087 486.364 714.411 486.364C715.672 486.364 716.433 487.159 716.433 488.545V494H717.774V488.455C717.774 486.21 716.581 485.159 714.797 485.159C713.422 485.159 712.638 485.733 712.229 486.636H712.115V482.364H710.774V494H712.115V488.75Z" fill="#0C242C"/>
<path d="M1162.31 484.438H1159.82C1159.73 483.797 1159.45 483.295 1159 482.932C1158.55 482.564 1157.99 482.381 1157.32 482.381C1156.41 482.381 1155.69 482.712 1155.14 483.375C1154.6 484.034 1154.33 484.97 1154.33 486.182C1154.33 487.424 1154.61 488.369 1155.15 489.017C1155.7 489.661 1156.42 489.983 1157.3 489.983C1157.95 489.983 1158.51 489.812 1158.96 489.472C1159.42 489.127 1159.7 488.644 1159.82 488.023L1162.31 488.034C1162.22 488.746 1161.97 489.417 1161.55 490.045C1161.13 490.674 1160.56 491.184 1159.83 491.574C1159.11 491.964 1158.25 492.159 1157.26 492.159C1156.22 492.159 1155.29 491.924 1154.47 491.455C1153.66 490.985 1153.02 490.305 1152.54 489.415C1152.07 488.525 1151.84 487.447 1151.84 486.182C1151.84 484.913 1152.08 483.833 1152.55 482.943C1153.03 482.053 1153.68 481.375 1154.5 480.909C1155.32 480.439 1156.24 480.205 1157.26 480.205C1158.16 480.205 1158.96 480.371 1159.68 480.705C1160.41 481.034 1161 481.515 1161.46 482.148C1161.92 482.777 1162.2 483.54 1162.31 484.438ZM1169.62 488.284V483.273H1172.05V492H1169.72V490.415H1169.63C1169.43 490.926 1169.11 491.337 1168.65 491.648C1168.19 491.958 1167.64 492.114 1166.98 492.114C1166.1 492.114 1165.39 491.822 1164.85 491.239C1164.3 490.652 1164.03 489.848 1164.03 488.83V483.273H1166.45V488.398C1166.45 488.913 1166.59 489.32 1166.86 489.619C1167.14 489.919 1167.5 490.068 1167.96 490.068C1168.4 490.068 1168.78 489.917 1169.12 489.614C1169.46 489.311 1169.63 488.867 1169.62 488.284ZM1173.98 492V483.273H1176.33V484.795H1176.42C1176.58 484.254 1176.85 483.845 1177.22 483.568C1177.6 483.288 1178.03 483.148 1178.52 483.148C1178.78 483.148 1179.04 483.176 1179.28 483.233V485.381C1179.16 485.343 1179.01 485.312 1178.81 485.29C1178.6 485.263 1178.42 485.25 1178.25 485.25C1177.72 485.25 1177.28 485.419 1176.92 485.756C1176.58 486.089 1176.4 486.525 1176.4 487.062V492H1173.98ZM1180.53 492V483.273H1182.88V484.795H1182.97C1183.13 484.254 1183.39 483.845 1183.77 483.568C1184.14 483.288 1184.57 483.148 1185.06 483.148C1185.33 483.148 1185.59 483.176 1185.82 483.233V485.381C1185.71 485.343 1185.55 485.312 1185.35 485.29C1185.15 485.263 1184.97 485.25 1184.8 485.25C1184.27 485.25 1183.82 485.419 1183.47 485.756C1183.12 486.089 1182.95 486.525 1182.95 487.062V492H1180.53ZM1190.65 492.17C1189.75 492.17 1188.98 491.989 1188.33 491.625C1187.69 491.258 1187.19 490.739 1186.84 490.068C1186.49 489.394 1186.32 488.597 1186.32 487.676C1186.32 486.778 1186.49 485.991 1186.84 485.312C1187.19 484.634 1187.68 484.106 1188.31 483.727C1188.95 483.348 1189.69 483.159 1190.55 483.159C1191.32 483.159 1192.01 483.322 1192.63 483.648C1193.25 483.973 1193.74 484.466 1194.11 485.125C1194.47 485.78 1194.65 486.602 1194.65 487.591V488.256H1188.71V488.261C1188.71 488.913 1188.89 489.426 1189.24 489.801C1189.6 490.176 1190.08 490.364 1190.69 490.364C1191.09 490.364 1191.44 490.278 1191.74 490.108C1192.03 489.938 1192.24 489.686 1192.36 489.352L1194.6 489.5C1194.43 490.311 1194 490.958 1193.31 491.443C1192.61 491.928 1191.73 492.17 1190.65 492.17ZM1188.71 486.756H1192.37C1192.37 486.237 1192.2 485.809 1191.87 485.472C1191.54 485.134 1191.12 484.966 1190.59 484.966C1190.05 484.966 1189.61 485.14 1189.27 485.489C1188.92 485.837 1188.74 486.259 1188.71 486.756ZM1198.65 486.955V492H1196.23V483.273H1198.54V484.812H1198.64C1198.84 484.305 1199.16 483.903 1199.61 483.608C1200.07 483.309 1200.62 483.159 1201.27 483.159C1202.17 483.159 1202.9 483.453 1203.45 484.04C1204 484.623 1204.28 485.424 1204.28 486.443V492H1201.86V486.875C1201.86 486.341 1201.72 485.924 1201.45 485.625C1201.17 485.322 1200.79 485.17 1200.31 485.17C1199.82 485.17 1199.42 485.328 1199.11 485.642C1198.81 485.953 1198.66 486.39 1198.65 486.955ZM1210.83 483.273V485.091H1209.18V489.318C1209.18 489.652 1209.26 489.877 1209.41 489.994C1209.56 490.112 1209.76 490.17 1210 490.17C1210.12 490.17 1210.23 490.161 1210.34 490.142C1210.46 490.119 1210.54 490.102 1210.61 490.091L1210.99 491.892C1210.86 491.93 1210.69 491.973 1210.47 492.023C1210.25 492.076 1209.99 492.108 1209.67 492.119C1208.79 492.157 1208.09 491.968 1207.55 491.551C1207.02 491.131 1206.76 490.492 1206.76 489.636V485.091H1205.57V483.273H1206.76V481.182H1209.18V483.273H1210.83ZM1216.15 492V480.364H1220.74C1221.63 480.364 1222.38 480.532 1223 480.869C1223.62 481.203 1224.09 481.667 1224.42 482.261C1224.75 482.852 1224.91 483.534 1224.91 484.307C1224.91 485.08 1224.75 485.761 1224.41 486.352C1224.08 486.939 1223.6 487.4 1222.96 487.733C1222.34 488.062 1221.57 488.227 1220.68 488.227H1218.61V492H1216.15ZM1218.61 486.256H1220.28C1220.99 486.256 1221.51 486.076 1221.86 485.716C1222.21 485.352 1222.38 484.883 1222.38 484.307C1222.38 483.727 1222.21 483.261 1221.86 482.909C1221.51 482.553 1220.98 482.375 1220.27 482.375H1218.61V486.256ZM1226.47 492V483.273H1228.81V484.795H1228.9C1229.06 484.254 1229.33 483.845 1229.7 483.568C1230.08 483.288 1230.51 483.148 1231 483.148C1231.27 483.148 1231.52 483.176 1231.76 483.233V485.381C1231.65 485.343 1231.49 485.312 1231.29 485.29C1231.09 485.263 1230.91 485.25 1230.74 485.25C1230.2 485.25 1229.76 485.419 1229.41 485.756C1229.06 486.089 1228.89 486.525 1228.89 487.062V492H1226.47ZM1235.25 492.165C1234.42 492.165 1233.73 491.947 1233.18 491.511C1232.63 491.076 1232.35 490.426 1232.35 489.562C1232.35 488.911 1232.51 488.4 1232.81 488.028C1233.12 487.657 1233.52 487.386 1234.02 487.216C1234.52 487.042 1235.06 486.928 1235.63 486.875C1236.39 486.799 1236.93 486.72 1237.26 486.636C1237.58 486.553 1237.75 486.371 1237.75 486.091V486.057C1237.75 485.697 1237.63 485.419 1237.4 485.222C1237.18 485.025 1236.86 484.926 1236.45 484.926C1236.01 484.926 1235.67 485.021 1235.41 485.21C1235.15 485.4 1234.98 485.64 1234.9 485.932L1232.66 485.75C1232.83 484.955 1233.24 484.324 1233.9 483.858C1234.56 483.392 1235.42 483.159 1236.46 483.159C1237.11 483.159 1237.72 483.261 1238.28 483.466C1238.84 483.67 1239.3 483.991 1239.64 484.426C1239.99 484.858 1240.17 485.42 1240.17 486.114V492H1237.87V490.79H1237.8C1237.59 491.195 1237.27 491.527 1236.85 491.784C1236.43 492.038 1235.9 492.165 1235.25 492.165ZM1235.94 490.494C1236.47 490.494 1236.91 490.341 1237.25 490.034C1237.59 489.723 1237.76 489.339 1237.76 488.881V487.955C1237.67 488.019 1237.52 488.076 1237.32 488.125C1237.12 488.174 1236.91 488.218 1236.68 488.256C1236.46 488.29 1236.26 488.32 1236.08 488.347C1235.66 488.407 1235.31 488.527 1235.05 488.705C1234.79 488.883 1234.67 489.142 1234.67 489.483C1234.67 489.816 1234.79 490.068 1235.02 490.239C1235.27 490.409 1235.57 490.494 1235.94 490.494ZM1245.99 492.17C1245.09 492.17 1244.32 491.981 1243.68 491.602C1243.04 491.22 1242.55 490.689 1242.2 490.011C1241.86 489.333 1241.69 488.553 1241.69 487.67C1241.69 486.777 1241.86 485.992 1242.21 485.318C1242.56 484.64 1243.05 484.112 1243.69 483.733C1244.33 483.35 1245.09 483.159 1245.98 483.159C1246.74 483.159 1247.4 483.297 1247.98 483.574C1248.55 483.85 1249 484.239 1249.33 484.739C1249.67 485.239 1249.85 485.826 1249.88 486.5H1247.6C1247.54 486.064 1247.37 485.714 1247.09 485.449C1246.82 485.18 1246.46 485.045 1246.02 485.045C1245.46 485.045 1245 485.271 1244.66 485.722C1244.32 486.172 1244.15 486.811 1244.15 487.636C1244.15 488.47 1244.32 489.116 1244.66 489.574C1245 490.028 1245.45 490.256 1246.02 490.256C1246.43 490.256 1246.78 490.131 1247.07 489.881C1247.35 489.627 1247.53 489.267 1247.6 488.801H1249.88C1249.85 489.468 1249.67 490.055 1249.34 490.562C1249.02 491.07 1248.57 491.466 1248 491.75C1247.44 492.03 1246.76 492.17 1245.99 492.17ZM1256.08 483.273V485.091H1254.43V489.318C1254.43 489.652 1254.51 489.877 1254.66 489.994C1254.81 490.112 1255.01 490.17 1255.25 490.17C1255.37 490.17 1255.48 490.161 1255.59 490.142C1255.71 490.119 1255.79 490.102 1255.86 490.091L1256.24 491.892C1256.11 491.93 1255.94 491.973 1255.72 492.023C1255.5 492.076 1255.24 492.108 1254.92 492.119C1254.04 492.157 1253.34 491.968 1252.8 491.551C1252.27 491.131 1252.01 490.492 1252.01 489.636V485.091H1250.82V483.273H1252.01V481.182H1254.43V483.273H1256.08ZM1257.65 492V483.273H1260.07V492H1257.65ZM1258.87 482.148C1258.51 482.148 1258.21 482.028 1257.95 481.79C1257.69 481.547 1257.56 481.258 1257.56 480.92C1257.56 480.583 1257.69 480.295 1257.95 480.057C1258.21 479.818 1258.51 479.699 1258.87 479.699C1259.23 479.699 1259.54 479.818 1259.8 480.057C1260.05 480.295 1260.18 480.583 1260.18 480.92C1260.18 481.258 1260.05 481.547 1259.8 481.79C1259.54 482.028 1259.23 482.148 1258.87 482.148ZM1265.96 492.17C1265.06 492.17 1264.29 491.981 1263.65 491.602C1263.01 491.22 1262.52 490.689 1262.17 490.011C1261.83 489.333 1261.66 488.553 1261.66 487.67C1261.66 486.777 1261.83 485.992 1262.18 485.318C1262.53 484.64 1263.02 484.112 1263.66 483.733C1264.3 483.35 1265.06 483.159 1265.94 483.159C1266.71 483.159 1267.37 483.297 1267.94 483.574C1268.52 483.85 1268.97 484.239 1269.3 484.739C1269.64 485.239 1269.82 485.826 1269.85 486.5H1267.57C1267.51 486.064 1267.33 485.714 1267.06 485.449C1266.79 485.18 1266.43 485.045 1265.98 485.045C1265.42 485.045 1264.97 485.271 1264.63 485.722C1264.29 486.172 1264.12 486.811 1264.12 487.636C1264.12 488.47 1264.29 489.116 1264.63 489.574C1264.97 490.028 1265.42 490.256 1265.98 490.256C1266.4 490.256 1266.75 490.131 1267.04 489.881C1267.32 489.627 1267.5 489.267 1267.57 488.801H1269.85C1269.82 489.468 1269.63 490.055 1269.31 490.562C1268.99 491.07 1268.54 491.466 1267.97 491.75C1267.4 492.03 1266.73 492.17 1265.96 492.17ZM1275.38 492.17C1274.49 492.17 1273.72 491.989 1273.07 491.625C1272.42 491.258 1271.92 490.739 1271.57 490.068C1271.23 489.394 1271.05 488.597 1271.05 487.676C1271.05 486.778 1271.23 485.991 1271.57 485.312C1271.92 484.634 1272.41 484.106 1273.05 483.727C1273.68 483.348 1274.43 483.159 1275.28 483.159C1276.05 483.159 1276.75 483.322 1277.36 483.648C1277.98 483.973 1278.48 484.466 1278.84 485.125C1279.2 485.78 1279.39 486.602 1279.39 487.591V488.256H1273.44V488.261C1273.44 488.913 1273.62 489.426 1273.98 489.801C1274.33 490.176 1274.81 490.364 1275.42 490.364C1275.83 490.364 1276.18 490.278 1276.47 490.108C1276.77 489.938 1276.98 489.686 1277.1 489.352L1279.34 489.5C1279.16 490.311 1278.73 490.958 1278.04 491.443C1277.35 491.928 1276.46 492.17 1275.38 492.17ZM1273.44 486.756H1277.11C1277.1 486.237 1276.94 485.809 1276.61 485.472C1276.28 485.134 1275.85 484.966 1275.32 484.966C1274.79 484.966 1274.34 485.14 1274 485.489C1273.66 485.837 1273.47 486.259 1273.44 486.756Z" fill="#0C242C"/>
<path d="M1235.67 511.614H1241.14V514H1242.49V511.614H1244.08V510.364H1242.49V502.364H1240.78L1235.67 510.455V511.614ZM1241.14 510.364H1237.19V510.273L1241.05 504.159H1241.14V510.364ZM1250.09 514.159C1252.42 514.159 1254.04 512.801 1254.05 510.909C1254.04 509.438 1253.05 508.188 1251.8 507.955V507.886C1252.89 507.602 1253.6 506.534 1253.62 505.295C1253.6 503.523 1252.12 502.205 1250.09 502.205C1248.05 502.205 1246.56 503.523 1246.57 505.295C1246.56 506.534 1247.27 507.602 1248.39 507.886V507.955C1247.11 508.188 1246.13 509.438 1246.14 510.909C1246.13 512.801 1247.75 514.159 1250.09 514.159ZM1250.09 512.909C1248.5 512.909 1247.51 512.091 1247.52 510.841C1247.51 509.528 1248.6 508.591 1250.09 508.591C1251.56 508.591 1252.65 509.528 1252.66 510.841C1252.65 512.091 1251.67 512.909 1250.09 512.909ZM1250.09 507.386C1248.82 507.386 1247.92 506.591 1247.93 505.386C1247.92 504.205 1248.79 503.432 1250.09 503.432C1251.38 503.432 1252.24 504.205 1252.25 505.386C1252.24 506.591 1251.34 507.386 1250.09 507.386ZM1259.82 511.955H1261.09V508.841H1264.2V507.568H1261.09V504.455H1259.82V507.568H1256.7V508.841H1259.82V511.955ZM1273.12 508.75C1273.12 507.227 1274.09 506.364 1275.41 506.364C1276.67 506.364 1277.43 507.159 1277.43 508.545V514H1278.77V508.455C1278.77 506.21 1277.58 505.159 1275.8 505.159C1274.42 505.159 1273.64 505.733 1273.23 506.636H1273.12V502.364H1271.77V514H1273.12V508.75Z" fill="#0C242C"/>
<rect x="160" y="532" width="1120" height="8" rx="4" fill="url(#paint0_linear)"/>
<rect x="160" y="508" width="560" height="8" rx="4" fill="url(#paint1_linear)"/>
<path d="M161.011 444V432.364H165.67C166.955 432.364 167.919 432.644 168.562 433.205C169.21 433.761 169.534 434.475 169.534 435.347C169.534 436.032 169.335 436.587 168.938 437.011C168.54 437.432 168.038 437.71 167.432 437.847V437.96C167.875 437.979 168.29 438.104 168.676 438.335C169.066 438.566 169.383 438.888 169.625 439.301C169.867 439.714 169.989 440.208 169.989 440.784C169.989 441.402 169.835 441.953 169.528 442.438C169.225 442.922 168.777 443.305 168.182 443.585C167.587 443.862 166.854 444 165.983 444H161.011ZM163.472 441.989H165.477C166.167 441.989 166.667 441.856 166.977 441.591C167.292 441.326 167.449 440.975 167.449 440.54C167.449 440.059 167.277 439.665 166.932 439.358C166.591 439.051 166.125 438.898 165.534 438.898H163.472V441.989ZM163.472 437.233H165.295C165.799 437.233 166.218 437.102 166.551 436.841C166.884 436.576 167.051 436.214 167.051 435.756C167.051 435.335 166.902 434.996 166.602 434.739C166.307 434.481 165.886 434.352 165.341 434.352H163.472V437.233ZM174.033 444.165C173.199 444.165 172.508 443.947 171.959 443.511C171.41 443.076 171.135 442.426 171.135 441.562C171.135 440.911 171.288 440.4 171.595 440.028C171.902 439.657 172.304 439.386 172.8 439.216C173.3 439.042 173.838 438.928 174.413 438.875C175.171 438.799 175.713 438.72 176.038 438.636C176.364 438.553 176.527 438.371 176.527 438.091V438.057C176.527 437.697 176.413 437.419 176.186 437.222C175.963 437.025 175.644 436.926 175.232 436.926C174.796 436.926 174.449 437.021 174.192 437.21C173.934 437.4 173.764 437.64 173.68 437.932L171.442 437.75C171.608 436.955 172.021 436.324 172.68 435.858C173.343 435.392 174.197 435.159 175.243 435.159C175.891 435.159 176.497 435.261 177.061 435.466C177.625 435.67 178.08 435.991 178.425 436.426C178.773 436.858 178.947 437.42 178.947 438.114V444H176.652V442.79H176.584C176.372 443.195 176.054 443.527 175.629 443.784C175.209 444.038 174.677 444.165 174.033 444.165ZM174.726 442.494C175.256 442.494 175.692 442.341 176.033 442.034C176.374 441.723 176.544 441.339 176.544 440.881V439.955C176.449 440.019 176.302 440.076 176.101 440.125C175.904 440.174 175.692 440.218 175.464 440.256C175.241 440.29 175.04 440.32 174.862 440.347C174.438 440.407 174.095 440.527 173.834 440.705C173.576 440.883 173.447 441.142 173.447 441.483C173.447 441.816 173.567 442.068 173.805 442.239C174.048 442.409 174.355 442.494 174.726 442.494ZM184.768 444.17C183.875 444.17 183.106 443.981 182.462 443.602C181.821 443.22 181.329 442.689 180.984 442.011C180.643 441.333 180.473 440.553 180.473 439.67C180.473 438.777 180.645 437.992 180.99 437.318C181.339 436.64 181.833 436.112 182.473 435.733C183.113 435.35 183.875 435.159 184.757 435.159C185.518 435.159 186.185 435.297 186.757 435.574C187.333 435.85 187.786 436.239 188.115 436.739C188.448 437.239 188.632 437.826 188.666 438.5H186.382C186.318 438.064 186.147 437.714 185.871 437.449C185.598 437.18 185.24 437.045 184.797 437.045C184.236 437.045 183.786 437.271 183.445 437.722C183.104 438.172 182.933 438.811 182.933 439.636C182.933 440.47 183.102 441.116 183.439 441.574C183.78 442.028 184.232 442.256 184.797 442.256C185.214 442.256 185.564 442.131 185.848 441.881C186.132 441.627 186.31 441.267 186.382 440.801H188.666C188.628 441.468 188.446 442.055 188.121 442.562C187.799 443.07 187.354 443.466 186.786 443.75C186.217 444.03 185.545 444.17 184.768 444.17ZM194.858 435.273V437.091H193.216V441.318C193.216 441.652 193.292 441.877 193.443 441.994C193.595 442.112 193.792 442.17 194.034 442.17C194.148 442.17 194.261 442.161 194.375 442.142C194.489 442.119 194.576 442.102 194.636 442.091L195.017 443.892C194.896 443.93 194.725 443.973 194.506 444.023C194.286 444.076 194.019 444.108 193.705 444.119C192.826 444.157 192.119 443.968 191.585 443.551C191.055 443.131 190.792 442.492 190.795 441.636V437.091H189.602V435.273H190.795V433.182H193.216V435.273H194.858ZM200.284 444.17C199.402 444.17 198.638 443.983 197.994 443.608C197.354 443.229 196.86 442.703 196.511 442.028C196.163 441.35 195.989 440.564 195.989 439.67C195.989 438.769 196.163 437.981 196.511 437.307C196.86 436.629 197.354 436.102 197.994 435.727C198.638 435.348 199.402 435.159 200.284 435.159C201.167 435.159 201.928 435.348 202.568 435.727C203.212 436.102 203.708 436.629 204.057 437.307C204.405 437.981 204.58 438.769 204.58 439.67C204.58 440.564 204.405 441.35 204.057 442.028C203.708 442.703 203.212 443.229 202.568 443.608C201.928 443.983 201.167 444.17 200.284 444.17ZM200.295 442.295C200.894 442.295 201.347 442.045 201.653 441.545C201.964 441.045 202.119 440.415 202.119 439.653C202.119 438.892 201.964 438.261 201.653 437.761C201.347 437.258 200.894 437.006 200.295 437.006C199.686 437.006 199.225 437.258 198.915 437.761C198.604 438.261 198.449 438.892 198.449 439.653C198.449 440.415 198.604 441.045 198.915 441.545C199.225 442.045 199.686 442.295 200.295 442.295ZM206.199 444V432.364H210.858C212.142 432.364 213.106 432.644 213.75 433.205C214.398 433.761 214.722 434.475 214.722 435.347C214.722 436.032 214.523 436.587 214.125 437.011C213.727 437.432 213.225 437.71 212.619 437.847V437.96C213.063 437.979 213.477 438.104 213.864 438.335C214.254 438.566 214.57 438.888 214.812 439.301C215.055 439.714 215.176 440.208 215.176 440.784C215.176 441.402 215.023 441.953 214.716 442.438C214.413 442.922 213.964 443.305 213.369 443.585C212.775 443.862 212.042 444 211.17 444H206.199ZM208.659 441.989H210.665C211.354 441.989 211.854 441.856 212.165 441.591C212.479 441.326 212.636 440.975 212.636 440.54C212.636 440.059 212.464 439.665 212.119 439.358C211.778 439.051 211.312 438.898 210.722 438.898H208.659V441.989ZM208.659 437.233H210.483C210.987 437.233 211.405 437.102 211.739 436.841C212.072 436.576 212.239 436.214 212.239 435.756C212.239 435.335 212.089 434.996 211.79 434.739C211.494 434.481 211.074 434.352 210.528 434.352H208.659V437.233ZM218.226 447.256C217.919 447.256 217.631 447.233 217.362 447.188C217.097 447.142 216.877 447.083 216.703 447.011L217.249 445.199C217.677 445.331 218.036 445.366 218.328 445.301C218.624 445.241 218.857 445.013 219.027 444.619L219.169 444.25L216.038 435.273H218.584L220.391 441.682H220.482L222.305 435.273L224.868 435.284L221.476 444.943C221.233 445.64 220.857 446.199 220.345 446.619C219.834 447.044 219.127 447.256 218.226 447.256ZM230.749 435.273V437.091H229.107V441.318C229.107 441.652 229.182 441.877 229.334 441.994C229.485 442.112 229.682 442.17 229.925 442.17C230.038 442.17 230.152 442.161 230.266 442.142C230.379 442.119 230.466 442.102 230.527 442.091L230.908 443.892C230.786 443.93 230.616 443.973 230.396 444.023C230.177 444.076 229.91 444.108 229.595 444.119C228.716 444.157 228.01 443.968 227.476 443.551C226.946 443.131 226.682 442.492 226.686 441.636V437.091H225.493V435.273H226.686V433.182H229.107V435.273H230.749ZM236.209 444.17C235.315 444.17 234.544 443.989 233.896 443.625C233.249 443.258 232.75 442.739 232.402 442.068C232.054 441.394 231.879 440.597 231.879 439.676C231.879 438.778 232.054 437.991 232.402 437.312C232.75 436.634 233.241 436.106 233.874 435.727C234.51 435.348 235.256 435.159 236.112 435.159C236.881 435.159 237.574 435.322 238.192 435.648C238.813 435.973 239.305 436.466 239.669 437.125C240.033 437.78 240.214 438.602 240.214 439.591V440.256H234.271V440.261C234.271 440.913 234.449 441.426 234.805 441.801C235.161 442.176 235.643 442.364 236.249 442.364C236.654 442.364 237.004 442.278 237.3 442.108C237.595 441.938 237.804 441.686 237.925 441.352L240.163 441.5C239.993 442.311 239.561 442.958 238.868 443.443C238.175 443.928 237.288 444.17 236.209 444.17ZM234.271 438.756H237.936C237.932 438.237 237.766 437.809 237.436 437.472C237.107 437.134 236.679 436.966 236.152 436.966C235.614 436.966 235.173 437.14 234.828 437.489C234.483 437.837 234.298 438.259 234.271 438.756Z" fill="#0C242C"/>
<path d="M165.295 454.364H163.886L160.977 456.295V457.727L163.818 455.841H163.886V466H165.295V454.364ZM178.485 459.557H173.394V460.807H178.485V459.557ZM185.641 466H192.982V464.75H187.573V464.659L190.187 461.864C192.187 459.722 192.778 458.722 192.778 457.432C192.778 455.636 191.323 454.205 189.278 454.205C187.238 454.205 185.687 455.591 185.687 457.636H187.028C187.028 456.312 187.886 455.432 189.232 455.432C190.494 455.432 191.46 456.205 191.46 457.432C191.46 458.506 190.829 459.301 189.482 460.773L185.641 464.977V466ZM201.513 460.75C201.513 459.227 202.484 458.364 203.808 458.364C205.069 458.364 205.831 459.159 205.831 460.545V466H207.172V460.455C207.172 458.21 205.978 457.159 204.194 457.159C202.819 457.159 202.035 457.733 201.626 458.636H201.513V454.364H200.172V466H201.513V460.75Z" fill="#0C242C"/>
<rect x="160" y="484" width="64" height="8" rx="4" fill="#5CC78D"/>
<defs>
<linearGradient id="paint0_linear" x1="1249.29" y1="540" x2="160" y2="540" gradientUnits="userSpaceOnUse">
<stop stop-color="#89929F"/>
<stop offset="1" stop-color="#CED3DA"/>
</linearGradient>
<linearGradient id="paint1_linear" x1="704.645" y1="516" x2="160" y2="516" gradientUnits="userSpaceOnUse">
<stop stop-color="#ABB2BC"/>
<stop offset="1" stop-color="#CED3DA"/>
</linearGradient>
</defs>
</svg>
