<svg width="480" height="322" viewBox="0 0 480 322" fill="none" xmlns="http://www.w3.org/2000/svg">
<path d="M112 1H72C58.7452 1 48 11.7452 48 25V65" stroke="white" stroke-width="2"/>
<path d="M304 320.5L344 320.5C357.255 320.5 368 309.755 368 296.5L368 256.5" stroke="white" stroke-width="2"/>
<path d="M368 65L368 25C368 11.7452 357.255 1 344 0.999999L304 0.999997" stroke="white" stroke-width="2"/>
<path d="M48 256.5L48 296.5C48 309.755 58.7452 320.5 72 320.5L112 320.5" stroke="white" stroke-width="2"/>
<g filter="url(#filter0_d)">
<path d="M8 201H408" stroke="#5CC78D" stroke-width="2"/>
</g>
<path d="M78.7273 61.4773C86.0739 61.4773 90.3864 54.8466 90.3864 43.5455C90.3864 32.2955 86.0398 25.6136 78.7273 25.6136C71.4148 25.6136 67.0682 32.2955 67.0682 43.5455C67.0682 54.8466 71.3807 61.4773 78.7273 61.4773ZM78.7273 58.6136C73.358 58.6136 70.1534 53.108 70.1534 43.5455C70.1534 34 73.375 28.4261 78.7273 28.4261C84.0795 28.4261 87.3011 34 87.3011 43.5455C87.3011 53.108 84.0966 58.6136 78.7273 58.6136ZM108.659 61.4773C115.205 61.4773 119.977 57.25 119.977 51.6591C119.977 47.2273 117.25 43.9716 112.801 43.0852V42.8636C116.466 41.7727 118.784 38.8068 118.784 34.8182C118.784 29.8239 114.864 25.6136 108.727 25.6136C102.881 25.6136 98.2102 29.3636 98.0739 34.8182H101.159C101.261 30.9148 104.636 28.4261 108.693 28.4261C112.903 28.4261 115.682 31.1023 115.682 34.9545C115.682 39.0284 112.426 41.6364 107.909 41.6364H105.864V44.5H107.909C113.432 44.5 116.841 47.4148 116.841 51.6591C116.841 55.6818 113.449 58.6136 108.625 58.6136C104.176 58.6136 100.699 56.0909 100.528 52.2727H97.3068C97.4773 57.7102 102.182 61.4773 108.659 61.4773Z" fill="white"/>
<path d="M284.682 108.119C286.518 108.119 287.597 106.462 287.597 103.636C287.597 100.824 286.51 99.1534 284.682 99.1534C282.854 99.1534 281.767 100.824 281.767 103.636C281.767 106.462 282.845 108.119 284.682 108.119ZM284.682 107.403C283.339 107.403 282.538 106.027 282.538 103.636C282.538 101.25 283.344 99.8565 284.682 99.8565C286.02 99.8565 286.825 101.25 286.825 103.636C286.825 106.027 286.024 107.403 284.682 107.403ZM289.331 108H294.756V107.284H290.439V107.229L292.604 104.812C294.053 103.21 294.483 102.486 294.483 101.518C294.483 100.189 293.435 99.1534 291.973 99.1534C290.499 99.1534 289.403 100.193 289.403 101.638H290.166C290.166 100.602 290.874 99.8565 291.952 99.8565C292.966 99.8565 293.733 100.521 293.733 101.518C293.733 102.345 293.294 102.959 292.182 104.212L289.331 107.416V108ZM299.28 99.1364C297.61 99.1236 296.519 100.436 296.519 102C296.519 103.641 297.725 104.842 299.182 104.842C300.12 104.842 300.951 104.335 301.36 103.568H301.415C301.415 106.023 300.588 107.403 299.161 107.403C298.168 107.403 297.554 106.734 297.401 105.801H296.617C296.779 107.178 297.75 108.119 299.161 108.119C301.172 108.119 302.165 106.108 302.165 103.257C302.165 100.193 300.729 99.1491 299.28 99.1364ZM299.28 99.8523C300.367 99.8523 301.172 100.743 301.27 101.949C301.355 103.095 300.439 104.126 299.28 104.126C298.142 104.126 297.29 103.189 297.29 102C297.29 100.811 298.142 99.8523 299.28 99.8523ZM306.665 108.119C308.327 108.119 309.542 107.088 309.546 105.703C309.542 104.621 308.796 103.67 307.807 103.479V103.432C308.659 103.189 309.23 102.375 309.235 101.438C309.23 100.134 308.118 99.1534 306.665 99.1534C305.199 99.1534 304.091 100.138 304.1 101.438C304.091 102.375 304.667 103.185 305.523 103.432V103.479C304.526 103.675 303.78 104.621 303.784 105.703C303.78 107.088 304.995 108.119 306.665 108.119ZM306.665 107.403C305.417 107.403 304.564 106.675 304.569 105.665C304.564 104.621 305.463 103.837 306.665 103.837C307.858 103.837 308.757 104.621 308.762 105.665C308.757 106.675 307.909 107.403 306.665 107.403ZM306.665 103.155C305.638 103.155 304.867 102.447 304.871 101.484C304.867 100.53 305.621 99.8565 306.665 99.8565C307.701 99.8565 308.455 100.53 308.463 101.484C308.455 102.447 307.684 103.155 306.665 103.155ZM313.868 108.119C315.479 108.119 316.646 106.896 316.651 105.243C316.655 103.555 315.466 102.358 313.928 102.358C313.305 102.358 312.726 102.584 312.342 102.908H312.3L312.649 99.9886H316.293V99.2727H311.98L311.456 103.513L312.253 103.615C312.628 103.304 313.229 103.082 313.817 103.087C314.976 103.091 315.875 103.977 315.879 105.256C315.879 106.487 315.04 107.403 313.868 107.403C312.862 107.403 312.116 106.743 312.065 105.818H311.294C311.332 107.152 312.415 108.119 313.868 108.119ZM322.026 103.278H318.396V103.994H322.026V103.278ZM326.526 99.1364C324.856 99.1236 323.765 100.436 323.765 102C323.765 103.641 324.971 104.842 326.428 104.842C327.366 104.842 328.197 104.335 328.606 103.568H328.661C328.661 106.023 327.835 107.403 326.407 107.403C325.414 107.403 324.8 106.734 324.647 105.801H323.863C324.025 107.178 324.996 108.119 326.407 108.119C328.418 108.119 329.411 106.108 329.411 103.257C329.411 100.193 327.975 99.1491 326.526 99.1364ZM326.526 99.8523C327.613 99.8523 328.418 100.743 328.516 101.949C328.602 103.095 327.685 104.126 326.526 104.126C325.388 104.126 324.536 103.189 324.536 102C324.536 100.811 325.388 99.8523 326.526 99.8523ZM333.766 108.119C335.377 108.119 336.545 106.896 336.549 105.243C336.553 103.555 335.364 102.358 333.826 102.358C333.204 102.358 332.624 102.584 332.241 102.908H332.198L332.548 99.9886H336.191V99.2727H331.879L331.354 103.513L332.151 103.615C332.526 103.304 333.127 103.082 333.715 103.087C334.874 103.091 335.773 103.977 335.778 105.256C335.778 106.487 334.938 107.403 333.766 107.403C332.761 107.403 332.015 106.743 331.964 105.818H331.192C331.231 107.152 332.313 108.119 333.766 108.119ZM338.362 108H343.787V107.284H339.47V107.229L341.635 104.812C343.084 103.21 343.514 102.486 343.514 101.518C343.514 100.189 342.466 99.1534 341.004 99.1534C339.53 99.1534 338.435 100.193 338.435 101.638H339.197C339.197 100.602 339.905 99.8565 340.983 99.8565C341.997 99.8565 342.764 100.521 342.764 101.518C342.764 102.345 342.325 102.959 341.213 104.212L338.362 107.416V108ZM348.435 108.119C350.101 108.132 351.196 106.82 351.196 105.256C351.196 103.615 349.986 102.413 348.533 102.413C347.596 102.413 346.769 102.916 346.355 103.688H346.3C346.304 101.237 347.123 99.8565 348.554 99.8565C349.551 99.8565 350.157 100.521 350.319 101.455H351.103C350.932 100.087 349.965 99.1406 348.554 99.1406C346.543 99.1406 345.55 101.148 345.55 103.999C345.55 107.067 346.986 108.107 348.435 108.119ZM348.435 107.403C347.348 107.403 346.543 106.513 346.449 105.307C346.364 104.156 347.272 103.129 348.435 103.129C349.569 103.129 350.425 104.075 350.425 105.256C350.425 106.445 349.569 107.403 348.435 107.403ZM352.999 108H358.424V107.284H354.107V107.229L356.272 104.812C357.721 103.21 358.151 102.486 358.151 101.518C358.151 100.189 357.103 99.1534 355.641 99.1534C354.167 99.1534 353.071 100.193 353.071 101.638H353.834C353.834 100.602 354.542 99.8565 355.62 99.8565C356.634 99.8565 357.401 100.521 357.401 101.518C357.401 102.345 356.962 102.959 355.85 104.212L352.999 107.416V108ZM363.016 99.2727H362.185L360.123 100.641V101.467L362.168 100.108H362.219V108H363.016V99.2727ZM282.172 124L283.105 121.371H286.77L287.703 124H288.538L285.364 115.273H284.511L281.337 124H282.172ZM283.361 120.655L284.908 116.308H284.967L286.514 120.655H283.361ZM290.034 124H293.141C295.016 124 295.881 123.033 295.881 121.712C295.881 120.386 295.003 119.589 294.155 119.53V119.462C294.935 119.253 295.54 118.648 295.54 117.557C295.54 116.244 294.683 115.273 292.979 115.273H290.034V124ZM290.831 123.284V119.922H293.175C294.347 119.922 295.118 120.714 295.118 121.712C295.118 122.615 294.487 123.284 293.141 123.284H290.831ZM290.831 119.214V115.989H292.979C294.172 115.989 294.777 116.632 294.777 117.557C294.777 118.516 294.082 119.214 293.051 119.214H290.831ZM300.365 124.119C302.031 124.132 303.126 122.82 303.126 121.256C303.126 119.615 301.916 118.413 300.463 118.413C299.525 118.413 298.699 118.916 298.285 119.688H298.23C298.234 117.237 299.052 115.857 300.484 115.857C301.481 115.857 302.086 116.521 302.248 117.455H303.032C302.862 116.087 301.895 115.141 300.484 115.141C298.473 115.141 297.48 117.148 297.48 119.999C297.48 123.067 298.916 124.107 300.365 124.119ZM300.365 123.403C299.278 123.403 298.473 122.513 298.379 121.307C298.294 120.156 299.201 119.129 300.365 119.129C301.498 119.129 302.355 120.075 302.355 121.256C302.355 122.445 301.498 123.403 300.365 123.403ZM307.481 124.119C309.092 124.119 310.26 122.896 310.264 121.243C310.268 119.555 309.079 118.358 307.541 118.358C306.919 118.358 306.339 118.584 305.956 118.908H305.913L306.262 115.989H309.906V115.273H305.593L305.069 119.513L305.866 119.615C306.241 119.304 306.842 119.082 307.43 119.087C308.589 119.091 309.488 119.977 309.493 121.256C309.493 122.487 308.653 123.403 307.481 123.403C306.475 123.403 305.73 122.743 305.679 121.818H304.907C304.946 123.152 306.028 124.119 307.481 124.119ZM311.868 122.125H315.942V124H316.701V122.125H317.86V121.409H316.701V115.273H315.759L311.868 121.477V122.125ZM315.942 121.409H312.759V121.354L315.882 116.359H315.942V121.409ZM322.452 114.864H321.741L318.928 125.312H319.64L322.452 114.864ZM323.737 124H329.162V123.284H324.845V123.229L327.01 120.812C328.459 119.21 328.889 118.486 328.889 117.518C328.889 116.189 327.841 115.153 326.379 115.153C324.905 115.153 323.81 116.193 323.81 117.638H324.572C324.572 116.602 325.28 115.857 326.358 115.857C327.372 115.857 328.139 116.521 328.139 117.518C328.139 118.345 327.7 118.959 326.588 120.212L323.737 123.416V124ZM333.614 124.119C335.225 124.119 336.392 122.896 336.397 121.243C336.401 119.555 335.212 118.358 333.674 118.358C333.051 118.358 332.472 118.584 332.088 118.908H332.046L332.395 115.989H336.039V115.273H331.726L331.202 119.513L331.999 119.615C332.374 119.304 332.975 119.082 333.563 119.087C334.722 119.091 335.621 119.977 335.625 121.256C335.625 122.487 334.786 123.403 333.614 123.403C332.608 123.403 331.863 122.743 331.811 121.818H331.04C331.078 123.152 332.161 124.119 333.614 124.119ZM340.958 124.119C342.625 124.132 343.72 122.82 343.72 121.256C343.72 119.615 342.51 118.413 341.056 118.413C340.119 118.413 339.292 118.916 338.879 119.688H338.824C338.828 117.237 339.646 115.857 341.078 115.857C342.075 115.857 342.68 116.521 342.842 117.455H343.626C343.456 116.087 342.488 115.141 341.078 115.141C339.066 115.141 338.074 117.148 338.074 119.999C338.074 123.067 339.51 124.107 340.958 124.119ZM340.958 123.403C339.872 123.403 339.066 122.513 338.973 121.307C338.887 120.156 339.795 119.129 340.958 119.129C342.092 119.129 342.949 120.075 342.949 121.256C342.949 122.445 342.092 123.403 340.958 123.403ZM345.314 122.125H349.387V124H350.146V122.125H351.305V121.409H350.146V115.273H349.204L345.314 121.477V122.125ZM349.387 121.409H346.204V121.354L349.328 116.359H349.387V121.409Z" fill="white"/>
<path d="M284.878 144.145C286.893 144.145 288.074 142.5 288.074 139.641C288.074 136.803 286.876 135.153 284.878 135.153C282.875 135.153 281.682 136.798 281.678 139.641C281.678 142.496 282.858 144.141 284.878 144.145ZM284.878 143.007C283.697 143.007 282.986 141.822 282.986 139.641C282.99 137.467 283.702 136.27 284.878 136.27C286.05 136.27 286.766 137.467 286.766 139.641C286.766 141.822 286.054 143.007 284.878 143.007ZM290.114 144.081C290.578 144.081 290.966 143.702 290.966 143.229C290.966 142.764 290.578 142.381 290.114 142.381C289.645 142.381 289.262 142.764 289.262 143.229C289.262 143.702 289.645 144.081 290.114 144.081ZM295.396 144.119C297.152 144.119 298.404 142.879 298.4 141.179C298.404 139.491 297.228 138.264 295.639 138.264C294.991 138.264 294.39 138.511 294.049 138.844H293.998L294.275 136.402H297.978V135.273H293.18L292.69 139.67L293.896 139.849C294.224 139.555 294.812 139.355 295.341 139.355C296.376 139.364 297.126 140.139 297.126 141.205C297.126 142.253 296.397 143.011 295.396 143.011C294.552 143.011 293.883 142.474 293.815 141.724H292.537C292.588 143.114 293.794 144.119 295.396 144.119ZM301.785 142.091H302.71L302.629 140.293L304.146 141.268L304.61 140.459L302.999 139.636L304.61 138.814L304.146 138.004L302.629 138.98L302.71 137.182H301.785L301.866 138.98L300.349 138.004L299.884 138.814L301.495 139.636L299.884 140.459L300.349 141.268L301.866 140.293L301.785 142.091ZM306.214 144H311.959V142.871H308.03V142.807L309.764 140.991C311.362 139.376 311.818 138.605 311.818 137.629C311.818 136.227 310.676 135.153 309.031 135.153C307.399 135.153 306.206 136.21 306.206 137.804H307.463C307.459 136.866 308.064 136.253 309.006 136.253C309.892 136.253 310.565 136.798 310.565 137.668C310.565 138.439 310.105 138.993 309.168 139.986L306.214 143.045V144ZM313.591 146.429H314.839V143.041H314.891C315.219 143.693 315.854 144.043 316.557 144.043C317.26 144.043 317.895 143.693 318.219 143.041H318.27V144H319.523V137.455H318.249V141.286C318.249 142.253 317.575 142.926 316.557 142.926C315.538 142.926 314.865 142.261 314.865 141.286V137.455H313.591V146.429Z" fill="white"/>
<path d="M382.446 284.08C383.554 284.08 384.364 283.392 384.366 282.469C384.364 281.747 383.866 281.114 383.207 280.986V280.955C383.776 280.793 384.156 280.25 384.159 279.625C384.156 278.756 383.415 278.102 382.446 278.102C381.469 278.102 380.73 278.759 380.736 279.625C380.73 280.25 381.114 280.79 381.685 280.955V280.986C381.02 281.116 380.523 281.747 380.526 282.469C380.523 283.392 381.332 284.08 382.446 284.08ZM382.446 283.602C381.614 283.602 381.045 283.116 381.048 282.443C381.045 281.747 381.645 281.224 382.446 281.224C383.241 281.224 383.841 281.747 383.844 282.443C383.841 283.116 383.276 283.602 382.446 283.602ZM382.446 280.77C381.761 280.77 381.247 280.298 381.25 279.656C381.247 279.02 381.75 278.571 382.446 278.571C383.136 278.571 383.639 279.02 383.645 279.656C383.639 280.298 383.125 280.77 382.446 280.77ZM385.969 283.128C386.197 283.128 386.379 282.943 386.379 282.719C386.379 282.491 386.197 282.31 385.969 282.31C385.745 282.31 385.56 282.491 385.56 282.719C385.56 282.943 385.745 283.128 385.969 283.128ZM385.969 280.176C386.197 280.176 386.379 279.991 386.379 279.767C386.379 279.54 386.197 279.358 385.969 279.358C385.745 279.358 385.56 279.54 385.56 279.767C385.56 279.991 385.745 280.176 385.969 280.176ZM389.501 284.08C390.726 284.08 391.445 282.974 391.445 281.091C391.445 279.216 390.72 278.102 389.501 278.102C388.283 278.102 387.558 279.216 387.558 281.091C387.558 282.974 388.277 284.08 389.501 284.08ZM389.501 283.602C388.607 283.602 388.072 282.685 388.072 281.091C388.072 279.5 388.609 278.571 389.501 278.571C390.393 278.571 390.93 279.5 390.93 281.091C390.93 282.685 390.396 283.602 389.501 283.602ZM394.408 284.08C395.632 284.08 396.351 282.974 396.351 281.091C396.351 279.216 395.626 278.102 394.408 278.102C393.189 278.102 392.464 279.216 392.464 281.091C392.464 282.974 393.183 284.08 394.408 284.08ZM394.408 283.602C393.513 283.602 392.979 282.685 392.979 281.091C392.979 279.5 393.516 278.571 394.408 278.571C395.3 278.571 395.837 279.5 395.837 281.091C395.837 282.685 395.303 283.602 394.408 283.602ZM397.93 283.128C398.158 283.128 398.339 282.943 398.339 282.719C398.339 282.491 398.158 282.31 397.93 282.31C397.706 282.31 397.521 282.491 397.521 282.719C397.521 282.943 397.706 283.128 397.93 283.128ZM397.93 280.176C398.158 280.176 398.339 279.991 398.339 279.767C398.339 279.54 398.158 279.358 397.93 279.358C397.706 279.358 397.521 279.54 397.521 279.767C397.521 279.991 397.706 280.176 397.93 280.176ZM399.516 282.75H402.232V284H402.738V282.75H403.511V282.273H402.738V278.182H402.11L399.516 282.318V282.75ZM402.232 282.273H400.11V282.236L402.192 278.906H402.232V282.273ZM406.413 278.091C405.3 278.082 404.572 278.957 404.572 280C404.572 281.094 405.376 281.895 406.348 281.895C406.973 281.895 407.527 281.557 407.8 281.045H407.837C407.837 282.682 407.286 283.602 406.334 283.602C405.672 283.602 405.263 283.156 405.161 282.534H404.638C404.746 283.452 405.393 284.08 406.334 284.08C407.675 284.08 408.337 282.739 408.337 280.838C408.337 278.795 407.379 278.099 406.413 278.091ZM406.413 278.568C407.138 278.568 407.675 279.162 407.74 279.966C407.797 280.73 407.186 281.418 406.413 281.418C405.655 281.418 405.087 280.793 405.087 280C405.087 279.207 405.655 278.568 406.413 278.568ZM411.922 284L412.544 282.247H414.987L415.609 284H416.166L414.05 278.182H413.482L411.365 284H411.922ZM412.714 281.77L413.746 278.872H413.786L414.817 281.77H412.714ZM417.163 278.182V284H417.663V279.304H417.709L419.672 284H420.155L422.118 279.304H422.163V284H422.663V278.182H422.05L419.939 283.25H419.888L417.777 278.182H417.163ZM428.244 277.909H427.77L425.895 284.875H426.369L428.244 277.909ZM431.476 284H432.007V281.327H434.578V280.849H432.007V278.659H434.842V278.182H431.476V284ZM437.502 284.091C438.377 284.091 438.965 283.616 439.164 283.068L438.684 282.912C438.516 283.304 438.121 283.628 437.502 283.628C436.61 283.628 436.045 282.977 436.022 281.969H439.272V281.719C439.272 280.261 438.371 279.577 437.425 279.577C436.295 279.577 435.513 280.523 435.513 281.844C435.513 283.168 436.281 284.091 437.502 284.091ZM436.025 281.523C436.079 280.71 436.627 280.037 437.425 280.037C438.207 280.037 438.755 280.682 438.755 281.523H436.025ZM440.491 284H440.983V283.19H441.045C441.222 283.591 441.591 284.091 442.386 284.091C443.457 284.091 444.182 283.185 444.182 281.83C444.182 280.486 443.455 279.577 442.378 279.577C441.58 279.577 441.219 280.077 441.045 280.469H441V278.182H440.491V284ZM440.991 281.821C440.991 280.776 441.472 280.037 442.324 280.037C443.199 280.037 443.673 280.815 443.673 281.821C443.673 282.838 443.193 283.628 442.324 283.628C441.477 283.628 440.991 282.875 440.991 281.821ZM447.523 284H451.139V283.523H448.261V283.486L449.705 281.875C450.67 280.807 450.957 280.324 450.957 279.679C450.957 278.793 450.259 278.102 449.284 278.102C448.301 278.102 447.571 278.795 447.571 279.759H448.08C448.08 279.068 448.551 278.571 449.27 278.571C449.946 278.571 450.457 279.014 450.457 279.679C450.457 280.23 450.165 280.639 449.423 281.474L447.523 283.611V284ZM454.156 278.091C453.042 278.082 452.315 278.957 452.315 280C452.315 281.094 453.119 281.895 454.09 281.895C454.715 281.895 455.269 281.557 455.542 281.045H455.579C455.579 282.682 455.028 283.602 454.076 283.602C453.414 283.602 453.005 283.156 452.903 282.534H452.38C452.488 283.452 453.136 284.08 454.076 284.08C455.417 284.08 456.079 282.739 456.079 280.838C456.079 278.795 455.121 278.099 454.156 278.091ZM454.156 278.568C454.88 278.568 455.417 279.162 455.482 279.966C455.539 280.73 454.928 281.418 454.156 281.418C453.397 281.418 452.829 280.793 452.829 280C452.829 279.207 453.397 278.568 454.156 278.568ZM457.899 283.205H457.348L457.308 283.523C457.206 284.293 457.053 285.037 456.979 285.42H457.368C457.504 285.02 457.749 284.122 457.848 283.509L457.899 283.205ZM461.468 284H465.085V283.523H462.207V283.486L463.65 281.875C464.616 280.807 464.903 280.324 464.903 279.679C464.903 278.793 464.204 278.102 463.229 278.102C462.246 278.102 461.516 278.795 461.516 279.759H462.025C462.025 279.068 462.496 278.571 463.215 278.571C463.891 278.571 464.403 279.014 464.403 279.679C464.403 280.23 464.11 280.639 463.369 281.474L461.468 283.611V284ZM468.158 284.08C469.382 284.08 470.101 282.974 470.101 281.091C470.101 279.216 469.376 278.102 468.158 278.102C466.939 278.102 466.214 279.216 466.214 281.091C466.214 282.974 466.933 284.08 468.158 284.08ZM468.158 283.602C467.263 283.602 466.729 282.685 466.729 281.091C466.729 279.5 467.266 278.571 468.158 278.571C469.05 278.571 469.587 279.5 469.587 281.091C469.587 282.685 469.053 283.602 468.158 283.602ZM471.257 284H474.874V283.523H471.996V283.486L473.439 281.875C474.405 280.807 474.692 280.324 474.692 279.679C474.692 278.793 473.993 278.102 473.018 278.102C472.036 278.102 471.305 278.795 471.305 279.759H471.814C471.814 279.068 472.286 278.571 473.004 278.571C473.68 278.571 474.192 279.014 474.192 279.679C474.192 280.23 473.899 280.639 473.158 281.474L471.257 283.611V284ZM477.947 284.08C479.171 284.08 479.89 282.974 479.89 281.091C479.89 279.216 479.165 278.102 477.947 278.102C476.728 278.102 476.004 279.216 476.004 281.091C476.004 282.974 476.722 284.08 477.947 284.08ZM477.947 283.602C477.052 283.602 476.518 282.685 476.518 281.091C476.518 279.5 477.055 278.571 477.947 278.571C478.839 278.571 479.376 279.5 479.376 281.091C479.376 282.685 478.842 283.602 477.947 283.602ZM380.773 300H382.844C384.094 300 384.67 299.355 384.67 298.474C384.67 297.591 384.085 297.06 383.52 297.02V296.974C384.04 296.835 384.443 296.432 384.443 295.705C384.443 294.83 383.872 294.182 382.736 294.182H380.773V300ZM381.304 299.523V297.281H382.866C383.648 297.281 384.162 297.81 384.162 298.474C384.162 299.077 383.741 299.523 382.844 299.523H381.304ZM381.304 296.81V294.659H382.736C383.531 294.659 383.935 295.088 383.935 295.705C383.935 296.344 383.472 296.81 382.784 296.81H381.304ZM387.066 300.099C387.793 300.099 388.237 299.696 388.418 299.31H388.45V300H388.955V297.037C388.955 295.866 388.075 295.577 387.407 295.577C386.739 295.577 386.052 295.841 385.756 296.554L386.237 296.727C386.396 296.352 386.79 296.031 387.421 296.031C388.083 296.031 388.45 296.395 388.45 296.991V297.094C388.45 297.423 388.04 297.429 387.308 297.52C386.322 297.642 385.631 297.918 385.631 298.781C385.631 299.622 386.273 300.099 387.066 300.099ZM387.134 299.636C386.563 299.636 386.137 299.332 386.137 298.804C386.137 298.276 386.569 298.054 387.308 297.963C387.665 297.92 388.302 297.841 388.45 297.696V298.327C388.45 299.043 387.941 299.636 387.134 299.636ZM392.005 300.091C392.914 300.091 393.553 299.517 393.67 298.727H393.158C393.042 299.284 392.585 299.628 392.005 299.628C391.15 299.628 390.585 298.884 390.585 297.821C390.585 296.764 391.167 296.037 392.005 296.037C392.627 296.037 393.048 296.438 393.156 296.932H393.667C393.548 296.122 392.871 295.577 391.996 295.577C390.854 295.577 390.076 296.526 390.076 297.838C390.076 299.139 390.832 300.091 392.005 300.091ZM396.472 295.636H395.549V294.591H395.04V295.636H394.39V296.077H395.04V298.98C395.04 299.693 395.603 300.065 396.163 300.065C396.373 300.065 396.515 300.026 396.612 299.989L396.504 299.531C396.433 299.551 396.342 299.571 396.208 299.571C395.864 299.571 395.549 299.409 395.549 298.861V296.077H396.472V295.636ZM399.27 300.091C400.401 300.091 401.19 299.168 401.19 297.838C401.19 296.5 400.401 295.577 399.27 295.577C398.139 295.577 397.349 296.5 397.349 297.838C397.349 299.168 398.139 300.091 399.27 300.091ZM399.27 299.628C398.364 299.628 397.858 298.815 397.858 297.838C397.858 296.861 398.364 296.037 399.27 296.037C400.176 296.037 400.682 296.861 400.682 297.838C400.682 298.815 400.176 299.628 399.27 299.628ZM402.406 300H404.477C405.727 300 406.303 299.355 406.303 298.474C406.303 297.591 405.718 297.06 405.153 297.02V296.974C405.673 296.835 406.076 296.432 406.076 295.705C406.076 294.83 405.505 294.182 404.369 294.182H402.406V300ZM402.937 299.523V297.281H404.499C405.281 297.281 405.795 297.81 405.795 298.474C405.795 299.077 405.374 299.523 404.477 299.523H402.937ZM402.937 296.81V294.659H404.369C405.164 294.659 405.567 295.088 405.567 295.705C405.567 296.344 405.104 296.81 404.417 296.81H402.937ZM407.832 301.634C408.378 301.634 408.778 301.321 409.011 300.69L410.861 295.645L410.31 295.636L409.014 299.332H408.974L407.679 295.636H407.131L408.736 300.043L408.577 300.486C408.338 301.142 407.994 301.259 407.48 301.094L407.344 301.543C407.446 301.588 407.634 301.634 407.832 301.634ZM413.566 295.636H412.643V294.591H412.134V295.636H411.484V296.077H412.134V298.98C412.134 299.693 412.697 300.065 413.256 300.065C413.467 300.065 413.609 300.026 413.705 299.989L413.597 299.531C413.526 299.551 413.435 299.571 413.302 299.571C412.958 299.571 412.643 299.409 412.643 298.861V296.077H413.566V295.636ZM416.432 300.091C417.307 300.091 417.895 299.616 418.094 299.068L417.614 298.912C417.446 299.304 417.051 299.628 416.432 299.628C415.54 299.628 414.974 298.977 414.952 297.969H418.202V297.719C418.202 296.261 417.301 295.577 416.355 295.577C415.224 295.577 414.443 296.523 414.443 297.844C414.443 299.168 415.21 300.091 416.432 300.091ZM414.955 297.523C415.009 296.71 415.557 296.037 416.355 296.037C417.136 296.037 417.685 296.682 417.685 297.523H414.955ZM421.671 300H424.975V299.523H422.202V294.182H421.671V300ZM427.285 300.099C428.012 300.099 428.455 299.696 428.637 299.31H428.668V300H429.174V297.037C429.174 295.866 428.293 295.577 427.626 295.577C426.958 295.577 426.271 295.841 425.975 296.554L426.455 296.727C426.614 296.352 427.009 296.031 427.64 296.031C428.302 296.031 428.668 296.395 428.668 296.991V297.094C428.668 297.423 428.259 297.429 427.526 297.52C426.54 297.642 425.85 297.918 425.85 298.781C425.85 299.622 426.492 300.099 427.285 300.099ZM427.353 299.636C426.782 299.636 426.356 299.332 426.356 298.804C426.356 298.276 426.788 298.054 427.526 297.963C427.884 297.92 428.521 297.841 428.668 297.696V298.327C428.668 299.043 428.16 299.636 427.353 299.636ZM430.624 300H431.116V299.19H431.178C431.354 299.591 431.724 300.091 432.519 300.091C433.59 300.091 434.315 299.185 434.315 297.83C434.315 296.486 433.587 295.577 432.511 295.577C431.712 295.577 431.352 296.077 431.178 296.469H431.133V294.182H430.624V300ZM431.124 297.821C431.124 296.776 431.604 296.037 432.457 296.037C433.332 296.037 433.806 296.815 433.806 297.821C433.806 298.838 433.326 299.628 432.457 299.628C431.61 299.628 431.124 298.875 431.124 297.821ZM382.557 309.909H382.082L380.207 316.875H380.682L382.557 309.909ZM385.322 309.909H384.848L382.973 316.875H383.447L385.322 309.909ZM389.085 310.182H388.554V316H389.085V310.182ZM391.033 313.273C391.033 312.511 391.533 312.043 392.22 312.043C392.891 312.043 393.322 312.491 393.322 313.205V316H393.828V313.173C393.828 312.139 393.229 311.58 392.348 311.58C391.709 311.58 391.268 311.875 391.064 312.321H391.018V311.636H390.527V316H391.033V313.273ZM397.515 316H398.046V313.776H399.401C400.631 313.776 401.268 312.994 401.268 311.977C401.268 310.96 400.631 310.182 399.393 310.182H397.515V316ZM398.046 313.298V310.659H399.379C400.299 310.659 400.745 311.213 400.745 311.977C400.745 312.739 400.299 313.298 399.387 313.298H398.046ZM402.41 316H402.915V313.182C402.915 312.534 403.413 312.065 404.094 312.065C404.228 312.065 404.353 312.088 404.398 312.094V311.58C404.33 311.577 404.214 311.571 404.131 311.571C403.583 311.571 403.114 311.866 402.938 312.307H402.901V311.636H402.41V316ZM406.825 316.091C407.955 316.091 408.745 315.168 408.745 313.838C408.745 312.5 407.955 311.577 406.825 311.577C405.694 311.577 404.904 312.5 404.904 313.838C404.904 315.168 405.694 316.091 406.825 316.091ZM406.825 315.628C405.918 315.628 405.413 314.815 405.413 313.838C405.413 312.861 405.918 312.037 406.825 312.037C407.731 312.037 408.237 312.861 408.237 313.838C408.237 314.815 407.731 315.628 406.825 315.628ZM411.52 317.727C412.554 317.727 413.321 317.222 413.321 316.114V311.636H412.827V312.469H412.776C412.597 312.077 412.236 311.577 411.435 311.577C410.355 311.577 409.631 312.48 409.631 313.807C409.631 315.145 410.381 315.955 411.426 315.955C412.21 315.955 412.594 315.5 412.767 315.099H412.812V316.082C412.812 316.895 412.293 317.273 411.52 317.273C410.773 317.273 410.415 316.912 410.23 316.58L409.815 316.852C410.071 317.352 410.628 317.727 411.52 317.727ZM411.486 315.491C410.619 315.491 410.139 314.798 410.139 313.798C410.139 312.815 410.611 312.037 411.486 312.037C412.341 312.037 412.821 312.776 412.821 313.798C412.821 314.852 412.327 315.491 411.486 315.491ZM414.66 316H415.165V313.182C415.165 312.534 415.663 312.065 416.344 312.065C416.478 312.065 416.603 312.088 416.648 312.094V311.58C416.58 311.577 416.464 311.571 416.381 311.571C415.833 311.571 415.364 311.866 415.188 312.307H415.151V311.636H414.66V316ZM419.143 316.091C420.018 316.091 420.606 315.616 420.805 315.068L420.325 314.912C420.157 315.304 419.762 315.628 419.143 315.628C418.251 315.628 417.685 314.977 417.663 313.969H420.913V313.719C420.913 312.261 420.012 311.577 419.066 311.577C417.935 311.577 417.154 312.523 417.154 313.844C417.154 315.168 417.921 316.091 419.143 316.091ZM417.665 313.523C417.719 312.71 418.268 312.037 419.066 312.037C419.847 312.037 420.396 312.682 420.396 313.523H417.665ZM424.959 312.594C424.746 311.963 424.28 311.577 423.482 311.577C422.601 311.577 421.962 312.08 421.962 312.798C421.962 313.384 422.317 313.781 423.075 313.963L423.788 314.134C424.268 314.247 424.499 314.494 424.499 314.844C424.499 315.298 424.064 315.636 423.393 315.636C422.797 315.636 422.425 315.366 422.303 314.849L421.817 314.969C421.97 315.696 422.547 316.091 423.402 316.091C424.362 316.091 425.021 315.562 425.021 314.821C425.021 314.239 424.655 313.849 423.925 313.67L423.266 313.509C422.723 313.372 422.47 313.153 422.47 312.776C422.47 312.332 422.893 312.023 423.482 312.023C424.07 312.023 424.359 312.332 424.496 312.724L424.959 312.594ZM429.06 312.594C428.847 311.963 428.381 311.577 427.583 311.577C426.702 311.577 426.063 312.08 426.063 312.798C426.063 313.384 426.418 313.781 427.177 313.963L427.89 314.134C428.37 314.247 428.6 314.494 428.6 314.844C428.6 315.298 428.165 315.636 427.495 315.636C426.898 315.636 426.526 315.366 426.404 314.849L425.918 314.969C426.072 315.696 426.648 316.091 427.504 316.091C428.464 316.091 429.123 315.562 429.123 314.821C429.123 314.239 428.756 313.849 428.026 313.67L427.367 313.509C426.825 313.372 426.572 313.153 426.572 312.776C426.572 312.332 426.995 312.023 427.583 312.023C428.171 312.023 428.461 312.332 428.597 312.724L429.06 312.594ZM430.634 316.043C430.861 316.043 431.043 315.858 431.043 315.634C431.043 315.406 430.861 315.224 430.634 315.224C430.409 315.224 430.224 315.406 430.224 315.634C430.224 315.858 430.409 316.043 430.634 316.043ZM432.782 316.043C433.009 316.043 433.191 315.858 433.191 315.634C433.191 315.406 433.009 315.224 432.782 315.224C432.558 315.224 432.373 315.406 432.373 315.634C432.373 315.858 432.558 316.043 432.782 316.043ZM434.93 316.043C435.158 316.043 435.339 315.858 435.339 315.634C435.339 315.406 435.158 315.224 434.93 315.224C434.706 315.224 434.521 315.406 434.521 315.634C434.521 315.858 434.706 316.043 434.93 316.043Z" fill="white"/>
<defs>
<filter id="filter0_d" x="0" y="192" width="416" height="18" filterUnits="userSpaceOnUse" color-interpolation-filters="sRGB">
<feFlood flood-opacity="0" result="BackgroundImageFix"/>
<feColorMatrix in="SourceAlpha" type="matrix" values="0 0 0 0 0 0 0 0 0 0 0 0 0 0 0 0 0 0 127 0"/>
<feOffset/>
<feGaussianBlur stdDeviation="4"/>
<feColorMatrix type="matrix" values="0 0 0 0 0.360784 0 0 0 0 0.780392 0 0 0 0 0.552941 0 0 0 1 0"/>
<feBlend mode="normal" in2="BackgroundImageFix" result="effect1_dropShadow"/>
<feBlend mode="normal" in="SourceGraphic" in2="effect1_dropShadow" result="shape"/>
</filter>
</defs>
</svg>
