<svg width="24" height="24" viewBox="0 0 24 24" fill="none" xmlns="http://www.w3.org/2000/svg">
<path fill-rule="evenodd" clip-rule="evenodd" d="M24 21.8182H18.6957V14.1482C18.6957 12.1406 17.866 10.7701 16.0414 10.7701C14.6458 10.7701 13.8697 11.695 13.5085 12.5863C13.373 12.9062 13.3942 13.3519 13.3942 13.7975V21.8182H8.13924C8.13924 21.8182 8.20697 8.2316 8.13924 6.99658H13.3942V9.32272C13.7046 8.30564 15.3838 6.85407 18.0635 6.85407C21.388 6.85407 24 8.98602 24 13.5768V21.8182ZM2.82502 5.14265H2.79116C1.09784 5.14265 0 4.00961 0 2.57341C0 1.10928 1.13029 0 2.85748 0C4.58325 0 5.6444 1.10649 5.67827 2.56924C5.67827 4.00543 4.58325 5.14265 2.82502 5.14265ZM0.605347 6.99658H5.28316V21.8182H0.605347V6.99658Z" fill="#4381BB"/>
</svg>
