<svg width="135" height="48" viewBox="0 0 135 48" fill="none" xmlns="http://www.w3.org/2000/svg">
<path fill-rule="evenodd" clip-rule="evenodd" d="M71.2823 5.50244L47.0754 0H6.98276C3.14224 0 0 3.16098 0 7.02439V29.2098C0 33.5415 3.84052 36.8195 8.08836 36.1171L69.2457 26.1073C72.0388 25.639 74.3082 23.5317 74.9483 20.7805L76.5194 13.9317C77.3922 10.1268 75.0065 6.32195 71.2823 5.50244ZM15.0129 22.8293H8.03017V6.43902H14.4892C17.1078 6.43902 19.2608 8.37073 19.2608 11.0049C19.2608 12.4098 18.6207 13.5805 17.6315 14.3415C19.028 15.0439 19.9009 16.3902 19.9009 18.1463C19.9009 20.8976 17.7478 22.8293 15.0129 22.8293ZM34.0991 22.8293H31.597V21.1317C30.7241 22.361 29.3276 23.122 27.5237 23.122C24.3815 23.122 21.7047 20.4293 21.7047 16.9756C21.7047 13.4634 24.3233 10.8293 27.5237 10.8293C29.3276 10.8293 30.7241 11.5902 31.597 12.8195V11.122H34.0991V22.8293ZM42.5948 23.1805C39.1034 23.1805 36.4267 20.4878 36.4267 17.0341C36.4267 13.522 39.0453 10.8878 42.5948 10.8878C44.8642 10.8878 46.8427 12.0585 47.7737 13.9317L45.6207 15.2195C45.097 14.1073 43.9914 13.4049 42.5948 13.4049C40.5582 13.4049 38.9871 14.9854 38.9871 17.0927C38.9871 19.2 40.5582 20.7805 42.5948 20.7805C43.9914 20.7805 45.1552 20.0781 45.6789 18.9659L47.8319 20.1951C46.8427 21.9512 44.8642 23.1805 42.5948 23.1805ZM56.6185 13.5805H53.7091V19.2C53.7091 20.6943 54.6627 20.665 56.515 20.6081L56.6185 20.6049V22.8293C52.778 23.2976 51.2069 22.2439 51.2069 19.2V13.5805H49.0539V11.122H51.2069V8.60488L53.7091 7.8439V11.122H56.6185V13.5805ZM64.125 23.1805C60.75 23.1805 57.9569 20.4878 57.9569 17.0341C57.9569 13.522 60.6918 10.8878 64.125 10.8878C67.5582 10.8878 70.2931 13.5805 70.2931 17.0341C70.2349 20.4878 67.5 23.1805 64.125 23.1805ZM128.017 0H63.194C68.4311 1.17073 73.7845 1.7561 79.138 1.7561H128.017C130.927 1.7561 133.254 4.09756 133.254 7.02439V29.3854C133.254 32.3122 130.927 34.6537 128.017 34.6537C127.785 34.6537 127.552 34.6537 127.261 34.5951L93.1617 29.8537C79.4289 28.039 68.5475 29.8537 68.5475 29.8537C76.694 29.9122 84.8406 30.4976 92.9289 31.6098L127.028 36.3512C127.377 36.4098 127.668 36.4098 128.017 36.4098C131.8 36.4098 135 33.3073 135 29.3854V7.02439C135 3.16098 131.858 0 128.017 0ZM24.2652 38.4001C24.2652 38.0488 24.5561 37.8147 24.9053 37.8147C25.2544 37.8147 25.5453 38.1074 25.5453 38.4001C25.5453 38.7513 25.2544 38.9854 24.9053 38.9854C24.4979 38.9854 24.2652 38.7513 24.2652 38.4001ZM24.4397 39.9805H25.3126V45.7171H24.4397V39.9805ZM22.1121 40.7415H23.3341V40.0391H22.1121V38.6342H21.2393V40.0391H20.3664V40.8H21.2393V44.3708C21.2393 45.3659 22.0539 45.8342 22.8104 45.8342C23.1013 45.8342 23.3341 45.7756 23.4505 45.7171L23.2759 44.8976C23.2236 44.8976 23.1713 44.9094 23.1138 44.9224L23.1137 44.9224C23.0431 44.9384 22.9647 44.9561 22.8686 44.9561C22.4612 44.9561 22.1121 44.8391 22.1121 44.0781V40.7415ZM9.07765 44.0781C9.07765 42.7317 10.2414 42.4976 11.2889 42.3805C11.3894 42.3693 11.4841 42.3591 11.5731 42.3496L11.5741 42.3495C12.411 42.2596 12.7436 42.224 12.7436 41.8537V41.7952C12.7436 41.0342 12.3363 40.6244 11.5216 40.6244C10.707 40.6244 10.2414 41.0927 10.0087 41.5025L9.19403 41.2098C9.65955 40.1561 10.6488 39.8635 11.4634 39.8635C12.2199 39.8635 13.5583 40.0976 13.5583 41.9122V45.7171H12.8018V44.9561H12.7436C12.569 45.3074 12.0453 45.8927 11.0561 45.8927C9.9505 45.8342 9.07765 45.1903 9.07765 44.0781ZM12.8018 43.6098V42.7903C12.657 42.9359 11.9522 43.0413 11.5166 43.1064L11.5164 43.1064L11.5159 43.1065C11.4264 43.1199 11.3484 43.1315 11.2889 43.1415C10.5906 43.2586 10.0087 43.4342 10.0087 44.1366C10.0087 44.722 10.5324 45.0732 11.2307 45.0732C12.2199 45.0732 12.8018 44.3708 12.8018 43.6098ZM15.8859 45.7171H15.013V39.9805H15.8859V40.8586H15.9441C16.235 40.2732 16.7587 39.8635 17.6316 39.8635C18.7954 39.8635 19.5518 40.5659 19.5518 42.0293V45.6586H18.679V42.1464C18.679 41.2683 18.2135 40.683 17.3406 40.683C16.526 40.683 15.8859 41.2683 15.8859 42.2635V45.7171ZM27.5238 39.9805H26.651V45.7171H27.5238V42.1464C27.5238 41.2683 28.1057 40.683 28.804 40.683C29.4441 40.683 29.9096 41.1513 29.9096 41.7952V45.7171H30.7824V41.9708C30.7824 41.2098 31.2479 40.683 32.0626 40.683C32.7027 40.683 33.2264 40.9757 33.2264 41.8537V45.7171H34.0992V41.8537C34.0992 40.5074 33.401 39.8635 32.3535 39.8635C31.5389 39.8635 30.957 40.2732 30.666 40.8586H30.6079C30.3169 40.2147 29.8514 39.8635 29.0949 39.8635C28.3966 39.8635 27.8148 40.2732 27.582 40.8586H27.5238V39.9805ZM35.3212 38.4001C35.3212 38.0488 35.6121 37.8147 35.9613 37.8147C36.3104 37.8147 36.6014 38.1074 36.6014 38.4001C36.6014 38.7513 36.3104 38.9854 35.9613 38.9854C35.6121 38.9854 35.3212 38.7513 35.3212 38.4001ZM35.4958 39.9805H36.3686V45.7171H35.4958V39.9805ZM39.9764 39.8635C38.4635 39.8635 37.416 41.0927 37.416 42.8488C37.416 44.6049 38.4053 45.8342 39.9764 45.8927C41.2566 45.8927 42.0712 45.0732 42.2458 44.0781H41.3729C41.1984 44.722 40.6747 45.0732 39.9764 45.0732C38.9872 45.0732 38.2889 44.1952 38.2889 42.8488C38.2889 41.561 38.929 40.683 39.9764 40.683C40.791 40.683 41.2566 41.1513 41.3729 41.6781H42.2458C42.0712 40.5659 41.1984 39.8635 39.9764 39.8635ZM43.3513 39.9806H44.166V40.8586H44.2242C44.4569 40.2732 45.0388 39.922 45.7371 39.922H46.2026V40.8001C46.1832 40.8001 46.1444 40.7936 46.0927 40.7849C45.9893 40.7675 45.8341 40.7415 45.6789 40.7415C44.8643 40.7415 44.2242 41.3269 44.2242 42.0879V45.7171H43.3513V39.9806ZM49.1121 39.8635C47.541 39.8635 46.4936 41.0342 46.4936 42.8488C46.4936 44.6634 47.541 45.8342 49.1121 45.8342C50.6832 45.8342 51.7306 44.6049 51.7306 42.8488C51.7306 41.0342 50.6832 39.8635 49.1121 39.8635ZM49.1121 40.683C50.2759 40.683 50.7996 41.6781 50.7996 42.8488C50.7996 44.0195 50.2759 45.0147 49.1121 45.0147C47.9483 45.0147 47.4246 44.0195 47.4246 42.8488C47.4246 41.7366 47.9483 40.683 49.1121 40.683ZM52.8363 38.0488H53.7091V40.8586H53.7673C53.7765 40.8431 53.7862 40.8265 53.7965 40.809C53.9808 40.4937 54.3494 39.8634 55.3966 39.8634C56.8514 39.8634 57.8406 41.0342 57.8406 42.8488C57.8406 44.6634 56.8514 45.8342 55.3966 45.8342C54.428 45.8342 54.04 45.2951 53.8022 44.9646C53.7686 44.9179 53.738 44.8753 53.7091 44.8391H53.5927V45.7171H52.7199V38.0488H52.8363ZM55.3384 45.0147C56.444 45.0147 57.0259 44.0195 57.0259 42.7903C57.0259 41.561 56.5022 40.6244 55.3384 40.6244C54.291 40.6244 53.7091 41.5025 53.7091 42.7903C53.7091 44.1366 54.291 45.0147 55.3384 45.0147ZM59.4117 37.8147C59.0625 37.8147 58.7716 38.0488 58.7716 38.4001C58.7716 38.7513 59.0625 38.9854 59.4117 38.9854C59.7608 38.9854 60.0518 38.7513 60.0518 38.4001C60.0518 38.1074 59.7608 37.8147 59.4117 37.8147ZM59.8772 39.9805H59.0044V45.7171H59.8772V39.9805ZM60.9246 44.0781C60.9246 42.7317 62.0884 42.4976 63.1359 42.3805C63.2368 42.3692 63.3319 42.359 63.4211 42.3495C64.258 42.2596 64.5906 42.224 64.5906 41.8537V41.7952C64.5906 41.0342 64.1833 40.6244 63.3686 40.6244C62.554 40.6244 62.0884 41.0927 61.8557 41.5025L61.041 41.2098C61.5065 40.1561 62.4958 39.8635 63.3104 39.8635C64.0669 39.8635 65.4053 40.0976 65.4053 41.9122V45.7171H64.5324V45.0601C64.3141 45.4117 63.7999 45.8927 62.9031 45.8927C61.7975 45.8342 60.9246 45.1903 60.9246 44.0781ZM64.6488 43.6098V42.7903C64.504 42.9359 63.7992 43.0413 63.3636 43.1064L63.3633 43.1064L63.3619 43.1066L63.3603 43.1069L63.3236 43.1124L63.2288 43.1267C63.1944 43.132 63.1631 43.1369 63.1359 43.1415C62.4376 43.2586 61.8557 43.4342 61.8557 44.1366C61.8557 44.722 62.3794 45.0732 63.0777 45.0732C64.0669 45.0732 64.6488 44.3708 64.6488 43.6098ZM66.86 45.7171H67.7328V38.0488H66.86V45.7171ZM73.7264 38.4001C73.7264 38.0488 74.0173 37.8147 74.3665 37.8147C74.7156 37.8147 75.0065 38.1074 75.0065 38.4001C75.0065 38.7513 74.7156 38.9854 74.3665 38.9854C74.0173 38.9854 73.7264 38.7513 73.7264 38.4001ZM73.901 39.9805H74.7738V45.7171H73.901V39.9805ZM76.1122 45.7171H76.985V42.2635C76.985 41.2683 77.6251 40.683 78.4398 40.683C79.2544 40.683 79.7781 41.2683 79.7781 42.1464V45.6586H80.651V42.0293C80.651 40.5659 79.8945 39.8635 78.7307 39.8635C77.8579 39.8635 77.3342 40.2732 77.0432 40.8586H76.985V39.9805H76.1122V45.7171ZM84.4915 40.7415H83.2695V44.0781C83.2695 44.8391 83.6186 44.9561 84.0259 44.9561C84.122 44.9561 84.2005 44.9384 84.271 44.9224C84.3286 44.9094 84.381 44.8976 84.4333 44.8976L84.6078 45.7171C84.4914 45.7756 84.2587 45.8342 83.9678 45.8342C83.2113 45.8342 82.3966 45.3659 82.3966 44.3708V40.8H81.5238V40.0391H82.3966V38.6342H83.2695V40.0391H84.4915V40.7415ZM87.8082 39.922C86.2953 39.922 85.2479 41.1513 85.2479 42.9074C85.2479 44.6635 86.2371 45.8342 87.9828 45.8342C89.1466 45.8342 89.9613 45.2488 90.2522 44.3708L89.3794 44.1367C89.1466 44.722 88.6229 45.0147 87.9246 45.0147C86.8772 45.0147 86.1789 44.3708 86.1207 43.1415H90.2522V42.7903C90.2522 40.683 88.972 39.922 87.8082 39.922ZM87.8082 40.683C88.7975 40.683 89.3794 41.3854 89.3794 42.3806H86.1207C86.1789 41.5025 86.819 40.683 87.8082 40.683ZM92.2306 45.7171H91.3578V38.0488H92.2306V45.7171ZM93.5691 45.7171H94.4419V38.0488H93.5691V45.7171ZM95.6057 38.4001C95.6057 38.0488 95.8967 37.8147 96.2458 37.8147C96.5949 37.8147 96.8859 38.1074 96.8859 38.4001C96.8859 38.7513 96.5949 38.9854 96.2458 38.9854C95.8967 38.9854 95.6057 38.7513 95.6057 38.4001ZM95.7803 39.9805H96.6531V45.7171H95.7803V39.9805ZM98.6898 46.361L97.9915 46.8293C98.3406 47.4147 99.0389 48.0001 100.377 48.0001C101.716 48.0001 102.821 47.3562 102.821 45.8927V39.9806H101.948V40.9171H101.832C101.803 40.8809 101.773 40.8383 101.739 40.7916C101.501 40.4611 101.113 39.922 100.144 39.922C98.6898 39.922 97.7005 41.0927 97.7005 42.8488C97.7005 44.6635 98.7479 45.6586 100.144 45.6586C101.249 45.6586 101.62 45.0253 101.804 44.7108L101.832 44.6635H101.89V45.8342C101.89 46.8293 101.25 47.2391 100.319 47.2391C99.3613 47.2391 98.9874 46.7496 98.7524 46.4421C98.7305 46.4133 98.7097 46.3861 98.6898 46.361ZM100.261 40.683C101.308 40.683 101.89 41.561 101.89 42.7903C101.89 44.0781 101.308 44.8391 100.261 44.8391C99.1553 44.8391 98.5734 43.961 98.5734 42.7903C98.5734 41.6196 99.1553 40.683 100.261 40.683ZM103.869 42.9074C103.869 41.1513 104.916 39.922 106.429 39.922C107.593 39.922 108.873 40.683 108.873 42.7903V43.1415H104.741C104.8 44.3708 105.498 45.0147 106.545 45.0147C107.244 45.0147 107.767 44.722 108 44.1367L108.873 44.3708C108.582 45.2488 107.767 45.8342 106.604 45.8342C104.858 45.8342 103.869 44.6635 103.869 42.9074ZM108 42.3806C108 41.3854 107.418 40.683 106.429 40.683C105.44 40.683 104.8 41.5025 104.741 42.3806H108ZM109.979 45.7171H110.851V42.2635C110.851 41.2683 111.491 40.683 112.306 40.683C113.121 40.683 113.644 41.2683 113.644 42.1464V45.6586H114.517V42.0293C114.517 40.5659 113.761 39.8635 112.597 39.8635C111.724 39.8635 111.2 40.2732 110.91 40.8586H110.851V39.9805H109.979V45.7171ZM115.565 42.8488C115.565 41.0927 116.612 39.8635 118.125 39.8635C119.347 39.8635 120.22 40.5659 120.394 41.6781H119.522C119.405 41.1513 118.94 40.683 118.125 40.683C117.078 40.683 116.438 41.561 116.438 42.8488C116.438 44.1952 117.136 45.0732 118.125 45.0732C118.823 45.0732 119.347 44.722 119.522 44.0781H120.394C120.22 45.0732 119.405 45.8927 118.125 45.8927C116.554 45.8342 115.565 44.6049 115.565 42.8488ZM123.711 39.922C122.198 39.922 121.151 41.1513 121.151 42.9074C121.151 44.6635 122.14 45.8342 123.886 45.8342C125.05 45.8342 125.864 45.2488 126.155 44.3708L125.282 44.1367C125.05 44.722 124.526 45.0147 123.828 45.0147C122.78 45.0147 122.082 44.3708 122.024 43.1415H126.155V42.7903C126.155 40.683 124.875 39.922 123.711 39.922ZM123.711 40.683C124.701 40.683 125.282 41.3854 125.282 42.3806H122.024C122.082 41.5025 122.722 40.683 123.711 40.683ZM24.2069 16.9756C24.2069 14.8098 25.778 13.2293 27.8729 13.2293C29.9677 13.2293 31.597 14.8098 31.5388 16.9756C31.5388 19.1415 29.9677 20.722 27.8729 20.722C25.778 20.722 24.2069 19.1415 24.2069 16.9756ZM10.7069 15.7463H15.0129C16.2931 15.7463 17.2241 16.7414 17.2241 18.0292C17.2241 19.3171 16.2931 20.3122 15.0129 20.3122H10.7069V15.7463ZM64.125 13.2878C62.0884 13.2878 60.5172 14.8683 60.5172 16.9756C60.5172 19.083 62.0884 20.6634 64.125 20.6634C66.1616 20.6634 67.7328 19.083 67.7328 16.9756C67.7328 14.8683 66.1616 13.2878 64.125 13.2878ZM14.4892 8.95607C15.653 8.95607 16.584 9.89265 16.584 11.1219C16.584 12.3512 15.7112 13.2878 14.4892 13.2878H10.7069V8.95607H14.4892ZM92.2889 18.1464C92.2889 20.839 90.0776 22.8293 87.4009 22.8293H80.4182V6.43904H86.8772C89.4958 6.43904 91.6488 8.37075 91.6488 11.0049C91.6488 12.4098 91.0087 13.5805 90.0195 14.3415C91.3578 15.1025 92.2889 16.3903 92.2889 18.1464ZM83.0949 9.01465V13.3464H86.8772C88.041 13.3464 88.972 12.4098 88.972 11.1805C88.972 9.95124 88.041 9.01465 86.8772 9.01465H83.0949ZM89.6121 18.0293C89.6121 16.7415 88.6811 15.7464 87.4009 15.7464H83.0949V20.3122H87.4009C88.6811 20.3122 89.6121 19.3171 89.6121 18.0293ZM100.61 23.1805L105.091 11.122H102.414L99.4462 19.6098L95.9548 11.122H93.2199L98.1078 22.6537L97.9914 22.8878C97.4096 24.4098 96.5367 25.2878 94.9074 25.1708V27.5122C97.5841 27.6293 99.5044 26.1659 100.61 23.1805ZM110.91 13.5805V19.2C110.91 20.6944 111.863 20.665 113.715 20.6081L113.819 20.6049V22.8293C109.979 23.2976 108.407 22.2439 108.407 19.2V13.5805H106.254V11.122H108.407V8.60489L110.91 7.84392V11.122H113.819V13.5805H110.91ZM124.526 19.3756C123.944 20.1952 122.897 20.8391 121.5 20.8391C119.638 20.8391 118.183 19.9025 117.776 18.1464H127.028C127.086 17.7952 127.144 17.4439 127.144 17.0927C127.144 13.6976 124.817 10.8878 121.326 10.8878C117.66 10.8878 115.157 13.5805 115.157 17.0342C115.157 20.5464 117.66 23.1805 121.5 23.1805C123.828 23.1805 125.573 22.1854 126.621 20.6049L124.526 19.3756ZM121.267 13.1708C122.78 13.1708 124.235 14.0488 124.584 16.0391H117.776C118.125 14.283 119.405 13.1708 121.267 13.1708Z" fill="white"/>
</svg>
