<svg width="123" height="44" viewBox="0 0 123 44" fill="none" xmlns="http://www.w3.org/2000/svg">
<path fill-rule="evenodd" clip-rule="evenodd" d="M64.9461 5.0439L42.8909 0H6.36207C2.86293 0 0 2.89756 0 6.43902V26.7756C0 30.7463 3.49914 33.7512 7.3694 33.1073L63.0905 23.9317C65.6353 23.5024 67.703 21.5707 68.2862 19.0488L69.7177 12.7707C70.5129 9.28293 68.3392 5.79512 64.9461 5.0439ZM13.6784 20.9268H7.31638V5.90244H13.2013C15.5871 5.90244 17.5487 7.67317 17.5487 10.0878C17.5487 11.3756 16.9655 12.4488 16.0642 13.1463C17.3366 13.7902 18.1319 15.0244 18.1319 16.6341C18.1319 19.1561 16.1703 20.9268 13.6784 20.9268ZM31.0681 20.9268H28.7884V19.3707C27.9931 20.4976 26.7207 21.1951 25.0772 21.1951C22.2142 21.1951 19.7754 18.7268 19.7754 15.561C19.7754 12.3415 22.1612 9.92683 25.0772 9.92683C26.7207 9.92683 27.9931 10.6244 28.7884 11.7512V10.1951H31.0681V20.9268ZM38.8086 21.2488C35.6276 21.2488 33.1888 18.7805 33.1888 15.6146C33.1888 12.3951 35.5746 9.98049 38.8086 9.98049C40.8763 9.98049 42.6789 11.0537 43.5272 12.7707L41.5655 13.9512C41.0884 12.9317 40.081 12.2878 38.8086 12.2878C36.953 12.2878 35.5216 13.7366 35.5216 15.6683C35.5216 17.6 36.953 19.0488 38.8086 19.0488C40.081 19.0488 41.1414 18.4049 41.6185 17.3854L43.5802 18.5122C42.6789 20.122 40.8763 21.2488 38.8086 21.2488ZM51.5858 12.4488H48.9349V17.6C48.9349 18.9698 49.8038 18.9429 51.4914 18.8907L51.5858 18.8878V20.9268C48.0866 21.3561 46.6552 20.3902 46.6552 17.6V12.4488H44.6935V10.1951H46.6552V7.8878L48.9349 7.19024V10.1951H51.5858V12.4488ZM58.425 21.2488C55.35 21.2488 52.8052 18.7805 52.8052 15.6146C52.8052 12.3951 55.297 9.98049 58.425 9.98049C61.553 9.98049 64.0448 12.4488 64.0448 15.6146C63.9918 18.7805 61.5 21.2488 58.425 21.2488ZM116.638 0H57.5768C62.3483 1.07317 67.2259 1.60976 72.1035 1.60976H116.638C119.289 1.60976 121.41 3.7561 121.41 6.43902V26.9366C121.41 29.6195 119.289 31.7659 116.638 31.7659C116.426 31.7659 116.214 31.7659 115.949 31.7122L84.8807 27.3659C72.3686 25.7024 62.4544 27.3659 62.4544 27.3659C69.8768 27.4195 77.2992 27.9561 84.6686 28.9756L115.737 33.322C116.055 33.3756 116.32 33.3756 116.638 33.3756C120.084 33.3756 123 30.5317 123 26.9366V6.43902C123 2.89756 120.137 0 116.638 0ZM22.1083 35.2C22.1083 34.8781 22.3733 34.6635 22.6915 34.6635C23.0096 34.6635 23.2746 34.9317 23.2746 35.2C23.2746 35.522 23.0096 35.7366 22.6915 35.7366C22.3203 35.7366 22.1083 35.522 22.1083 35.2ZM22.2673 36.6488H23.0626V41.9074H22.2673V36.6488ZM20.1466 37.3464H21.26V36.7025H20.1466V35.4147H19.3513V36.7025H18.5561V37.4H19.3513V40.6732C19.3513 41.5854 20.0936 42.0147 20.7828 42.0147C21.0479 42.0147 21.26 41.961 21.366 41.9073L21.2069 41.1561C21.1593 41.1561 21.1116 41.167 21.0591 41.1789C20.9949 41.1935 20.9234 41.2098 20.8358 41.2098C20.4647 41.2098 20.1466 41.1025 20.1466 40.4049V37.3464ZM8.27075 40.4049C8.27075 39.1708 9.3311 38.9561 10.2854 38.8488C10.3773 38.8385 10.4639 38.8291 10.5452 38.8203L10.5453 38.8203C11.3078 38.738 11.6108 38.7053 11.6108 38.3659V38.3122C11.6108 37.6147 11.2397 37.2391 10.4975 37.2391C9.75523 37.2391 9.3311 37.6683 9.11903 38.0439L8.37679 37.7756C8.80092 36.8098 9.70222 36.5415 10.4445 36.5415C11.1337 36.5415 12.3531 36.7561 12.3531 38.4195V41.9074H11.6639V41.2098H11.6108C11.4518 41.5317 10.9746 42.0683 10.0733 42.0683C9.06601 42.0147 8.27075 41.4244 8.27075 40.4049ZM11.6639 39.9756V39.2244C11.532 39.3579 10.8899 39.4545 10.493 39.5142L10.4929 39.5142C10.4111 39.5265 10.3398 39.5372 10.2854 39.5464C9.6492 39.6537 9.11903 39.8147 9.11903 40.4586C9.11903 40.9952 9.59618 41.3171 10.2324 41.3171C11.1337 41.3171 11.6639 40.6732 11.6639 39.9756ZM14.4738 41.9074H13.6785V36.6488H14.4738V37.4537H14.5268C14.7919 36.9171 15.2691 36.5415 16.0643 36.5415C17.1247 36.5415 17.8139 37.1854 17.8139 38.5269V41.8537H17.0186V38.6342C17.0186 37.8293 16.5945 37.2927 15.7992 37.2927C15.057 37.2927 14.4738 37.8293 14.4738 38.7415V41.9074ZM25.0772 36.6488H24.282V41.9074H25.0772V38.6342C25.0772 37.8293 25.6074 37.2927 26.2436 37.2927C26.8268 37.2927 27.251 37.722 27.251 38.3122V41.9074H28.0462V38.4732C28.0462 37.7756 28.4703 37.2927 29.2126 37.2927C29.7958 37.2927 30.2729 37.561 30.2729 38.3659V41.9074H31.0682V38.3659C31.0682 37.1317 30.432 36.5415 29.4777 36.5415C28.7354 36.5415 28.2053 36.9171 27.9402 37.4537H27.8872C27.6221 36.8634 27.1979 36.5415 26.5087 36.5415C25.8725 36.5415 25.3423 36.9171 25.1303 37.4537H25.0772V36.6488ZM32.1815 35.2C32.1815 34.8781 32.4466 34.6635 32.7647 34.6635C33.0828 34.6635 33.3479 34.9317 33.3479 35.2C33.3479 35.522 33.0828 35.7366 32.7647 35.7366C32.4466 35.7366 32.1815 35.522 32.1815 35.2ZM32.3406 36.6488H33.1358V41.9074H32.3406V36.6488ZM36.4229 36.5415C35.0445 36.5415 34.0902 37.6683 34.0902 39.2781C34.0902 40.8878 34.9915 42.0147 36.4229 42.0683C37.5893 42.0683 38.3316 41.3171 38.4906 40.4049H37.6954C37.5363 40.9952 37.0591 41.3171 36.4229 41.3171C35.5216 41.3171 34.8854 40.5122 34.8854 39.2781C34.8854 38.0976 35.4686 37.2927 36.4229 37.2927C37.1652 37.2927 37.5893 37.722 37.6954 38.2049H38.4906C38.3316 37.1854 37.5363 36.5415 36.4229 36.5415ZM39.4979 36.6488H40.2401V37.4537H40.2931C40.5052 36.9171 41.0354 36.5952 41.6716 36.5952H42.0957V37.4001C42.0781 37.4001 42.0427 37.3941 41.9956 37.3861C41.9013 37.3702 41.76 37.3464 41.6186 37.3464C40.8763 37.3464 40.2931 37.883 40.2931 38.5805V41.9074H39.4979V36.6488ZM44.7466 36.5415C43.3151 36.5415 42.3608 37.6147 42.3608 39.2781C42.3608 40.9415 43.3151 42.0147 44.7466 42.0147C46.1781 42.0147 47.1324 40.8878 47.1324 39.2781C47.1324 37.6147 46.1781 36.5415 44.7466 36.5415ZM44.7466 37.2927C45.8069 37.2927 46.2841 38.2049 46.2841 39.2781C46.2841 40.3512 45.8069 41.2634 44.7466 41.2634C43.6862 41.2634 43.2091 40.3512 43.2091 39.2781C43.2091 38.2586 43.6862 37.2927 44.7466 37.2927ZM48.1397 34.8781H48.935V37.4537H48.988L49.0146 37.4082C49.1825 37.1192 49.5183 36.5415 50.4725 36.5415C51.7979 36.5415 52.6992 37.6147 52.6992 39.2781C52.6992 40.9415 51.7979 42.0147 50.4725 42.0147C49.59 42.0147 49.2365 41.5205 49.0198 41.2176C48.9892 41.1747 48.9613 41.1357 48.935 41.1025H48.8289V41.9073H48.0337V34.8781H48.1397ZM50.4195 41.2634C51.4268 41.2634 51.957 40.3512 51.957 39.2244C51.957 38.0976 51.4798 37.239 50.4195 37.239C49.4651 37.239 48.935 38.0439 48.935 39.2244C48.935 40.4586 49.4651 41.2634 50.4195 41.2634ZM54.1306 34.6635C53.8125 34.6635 53.5475 34.8781 53.5475 35.2C53.5475 35.522 53.8125 35.7366 54.1306 35.7366C54.4487 35.7366 54.7138 35.522 54.7138 35.2C54.7138 34.9317 54.4487 34.6635 54.1306 34.6635ZM54.5548 36.6488H53.7595V41.9074H54.5548V36.6488ZM55.5091 40.4049C55.5091 39.1708 56.5695 38.9561 57.5238 38.8488C57.6158 38.8385 57.7024 38.8291 57.7837 38.8203C58.5462 38.738 58.8492 38.7053 58.8492 38.3659V38.3122C58.8492 37.6147 58.4781 37.2391 57.7358 37.2391C56.9936 37.2391 56.5695 37.6683 56.3574 38.0439L55.6152 37.7756C56.0393 36.8098 56.9406 36.5415 57.6828 36.5415C58.3721 36.5415 59.5915 36.7561 59.5915 38.4195V41.9074H58.7962V41.3051C58.5973 41.6273 58.1288 42.0683 57.3117 42.0683C56.3044 42.0147 55.5091 41.4244 55.5091 40.4049ZM58.9022 39.9756V39.2244C58.7704 39.3579 58.1282 39.4545 57.7313 39.5142L57.7313 39.5142C57.6495 39.5265 57.5781 39.5372 57.5238 39.5464C56.8876 39.6537 56.3574 39.8147 56.3574 40.4586C56.3574 40.9952 56.8346 41.3171 57.4708 41.3171C58.3721 41.3171 58.9022 40.6732 58.9022 39.9756ZM60.9168 41.9073H61.7121V34.8781H60.9168V41.9073ZM67.1729 35.2C67.1729 34.8781 67.438 34.6635 67.7561 34.6635C68.0742 34.6635 68.3393 34.9317 68.3393 35.2C68.3393 35.522 68.0742 35.7366 67.7561 35.7366C67.438 35.7366 67.1729 35.522 67.1729 35.2ZM67.332 36.6488H68.1272V41.9074H67.332V36.6488ZM69.3466 41.9074H70.1419V38.7415C70.1419 37.8293 70.7251 37.2927 71.4673 37.2927C72.2096 37.2927 72.6867 37.8293 72.6867 38.6342V41.8537H73.482V38.5269C73.482 37.1854 72.7928 36.5415 71.7324 36.5415C70.9372 36.5415 70.46 36.9171 70.1949 37.4537H70.1419V36.6488H69.3466V41.9074ZM76.9811 37.3464H75.8677V40.4049C75.8677 41.1025 76.1858 41.2098 76.557 41.2098C76.6445 41.2098 76.716 41.1935 76.7803 41.1789C76.8328 41.167 76.8804 41.1561 76.9281 41.1561L77.0871 41.9073C76.9811 41.961 76.769 42.0147 76.504 42.0147C75.8147 42.0147 75.0725 41.5854 75.0725 40.6732V37.4H74.2772V36.7025H75.0725V35.4147H75.8677V36.7025H76.9811V37.3464ZM80.0031 36.5952C78.6246 36.5952 77.6703 37.722 77.6703 39.3318C77.6703 40.9415 78.5716 42.0147 80.1621 42.0147C81.2225 42.0147 81.9647 41.4781 82.2298 40.6732L81.4345 40.4586C81.2225 40.9952 80.7453 41.2635 80.1091 41.2635C79.1548 41.2635 78.5186 40.6732 78.4656 39.5464H82.2298V39.2244C82.2298 37.2927 81.0634 36.5952 80.0031 36.5952ZM80.0031 37.2927C80.9044 37.2927 81.4345 37.9366 81.4345 38.8488H78.4656C78.5186 38.044 79.1018 37.2927 80.0031 37.2927ZM84.0324 41.9073H83.2371V34.8781H84.0324V41.9073ZM85.2518 41.9073H86.0471V34.8781H85.2518V41.9073ZM87.1074 35.2C87.1074 34.8781 87.3725 34.6635 87.6906 34.6635C88.0087 34.6635 88.2738 34.9317 88.2738 35.2C88.2738 35.522 88.0087 35.7366 87.6906 35.7366C87.3725 35.7366 87.1074 35.522 87.1074 35.2ZM87.2665 36.6488H88.0617V41.9074H87.2665V36.6488ZM89.9173 42.4976L89.2811 42.9269C89.5992 43.4635 90.2354 44 91.4548 44C92.6742 44 93.6815 43.4098 93.6815 42.0683V36.6488H92.8863V37.5074H92.7803C92.7541 37.4742 92.7263 37.4354 92.6957 37.3927L92.6955 37.3924L92.6954 37.3923C92.4788 37.0894 92.1253 36.5952 91.2428 36.5952C89.9173 36.5952 89.016 37.6683 89.016 39.2781C89.016 40.9415 89.9704 41.8537 91.2428 41.8537C92.2495 41.8537 92.5872 41.2732 92.7549 40.9849L92.7803 40.9415H92.8333V42.0147C92.8333 42.9269 92.2501 43.3025 91.4018 43.3025C90.5292 43.3025 90.1885 42.8538 89.9744 42.5719C89.9544 42.5455 89.9355 42.5206 89.9173 42.4976ZM91.3488 37.2927C92.3031 37.2927 92.8333 38.0976 92.8333 39.2244C92.8333 40.4049 92.3031 41.1025 91.3488 41.1025C90.3415 41.1025 89.8113 40.2976 89.8113 39.2244C89.8113 38.1513 90.3415 37.2927 91.3488 37.2927ZM94.6358 39.3318C94.6358 37.722 95.5901 36.5952 96.9686 36.5952C98.0289 36.5952 99.1953 37.2927 99.1953 39.2244V39.5464H95.4311C95.4841 40.6732 96.1203 41.2635 97.0746 41.2635C97.7108 41.2635 98.188 40.9952 98.4 40.4586L99.1953 40.6732C98.9302 41.4781 98.188 42.0147 97.1276 42.0147C95.5371 42.0147 94.6358 40.9415 94.6358 39.3318ZM98.4 38.8488C98.4 37.9366 97.8699 37.2927 96.9686 37.2927C96.0673 37.2927 95.4841 38.044 95.4311 38.8488H98.4ZM100.203 41.9074H100.998V38.7415C100.998 37.8293 101.581 37.2927 102.323 37.2927C103.066 37.2927 103.543 37.8293 103.543 38.6342V41.8537H104.338V38.5269C104.338 37.1854 103.649 36.5415 102.588 36.5415C101.793 36.5415 101.316 36.9171 101.051 37.4537H100.998V36.6488H100.203V41.9074ZM105.292 39.2781C105.292 37.6683 106.247 36.5415 107.625 36.5415C108.738 36.5415 109.534 37.1854 109.693 38.2049H108.897C108.791 37.722 108.367 37.2927 107.625 37.2927C106.671 37.2927 106.088 38.0976 106.088 39.2781C106.088 40.5122 106.724 41.3171 107.625 41.3171C108.261 41.3171 108.738 40.9952 108.897 40.4049H109.693C109.534 41.3171 108.791 42.0683 107.625 42.0683C106.194 42.0147 105.292 40.8878 105.292 39.2781ZM112.715 36.5952C111.336 36.5952 110.382 37.722 110.382 39.3318C110.382 40.9415 111.283 42.0147 112.874 42.0147C113.934 42.0147 114.676 41.4781 114.941 40.6732L114.146 40.4586C113.934 40.9952 113.457 41.2635 112.821 41.2635C111.866 41.2635 111.23 40.6732 111.177 39.5464H114.941V39.2244C114.941 37.2927 113.775 36.5952 112.715 36.5952ZM112.715 37.2927C113.616 37.2927 114.146 37.9366 114.146 38.8488H111.177C111.23 38.044 111.813 37.2927 112.715 37.2927ZM22.0552 15.561C22.0552 13.5756 23.4867 12.1268 25.3953 12.1268C27.3039 12.1268 28.7884 13.5756 28.7354 15.561C28.7354 17.5464 27.3039 18.9951 25.3953 18.9951C23.4867 18.9951 22.0552 17.5464 22.0552 15.561ZM9.75515 14.4341H13.6784C14.8448 14.4341 15.6931 15.3463 15.6931 16.5268C15.6931 17.7073 14.8448 18.6195 13.6784 18.6195H9.75515V14.4341ZM58.425 12.1805C56.5694 12.1805 55.1379 13.6293 55.1379 15.561C55.1379 17.4927 56.5694 18.9415 58.425 18.9415C60.2806 18.9415 61.7121 17.4927 61.7121 15.561C61.7121 13.6293 60.2806 12.1805 58.425 12.1805ZM13.2013 8.20973C14.2616 8.20973 15.1099 9.06827 15.1099 10.1951C15.1099 11.3219 14.3146 12.1805 13.2013 12.1805H9.75515V8.20973H13.2013ZM84.0854 16.6342C84.0854 19.1025 82.0707 20.9269 79.632 20.9269H73.2699V5.90247H79.1548C81.5406 5.90247 83.5022 7.6732 83.5022 10.0878C83.5022 11.3756 82.919 12.4488 82.0177 13.1464C83.2371 13.8439 84.0854 15.0244 84.0854 16.6342ZM75.7087 8.26344V12.2342H79.1548C80.2151 12.2342 81.0634 11.3756 81.0634 10.2488C81.0634 9.12198 80.2151 8.26344 79.1548 8.26344H75.7087ZM81.6466 16.5269C81.6466 15.3464 80.7983 14.4342 79.632 14.4342H75.7087V18.6195H79.632C80.7983 18.6195 81.6466 17.7073 81.6466 16.5269ZM91.6669 21.2488L95.7492 10.1952H93.3104L90.6065 17.9756L87.4255 10.1952H84.9337L89.3871 20.7659L89.2811 20.9805C88.7509 22.3756 87.9557 23.1805 86.4712 23.0732V25.2195C88.91 25.3269 90.6595 23.9854 91.6669 21.2488ZM101.051 12.4488V17.6C101.051 18.9698 101.92 18.9429 103.607 18.8907L103.702 18.8878V20.9268C100.203 21.3561 98.7712 20.3903 98.7712 17.6V12.4488H96.8095V10.1951H98.7712V7.88782L101.051 7.19026V10.1951H103.702V12.4488H101.051ZM113.457 17.761C112.927 18.5122 111.972 19.1025 110.7 19.1025C109.004 19.1025 107.678 18.2439 107.307 16.6342H115.737C115.79 16.3122 115.843 15.9903 115.843 15.6683C115.843 12.5561 113.722 9.98052 110.541 9.98052C107.201 9.98052 104.921 12.4488 104.921 15.6147C104.921 18.8342 107.201 21.2488 110.7 21.2488C112.821 21.2488 114.411 20.3366 115.366 18.8878L113.457 17.761ZM110.488 12.0732C111.866 12.0732 113.192 12.8781 113.51 14.7025H107.307C107.625 13.0927 108.791 12.0732 110.488 12.0732Z" fill="#0C242C"/>
</svg>
