<svg width="768" height="1480" viewBox="0 0 768 1480" fill="none" xmlns="http://www.w3.org/2000/svg">
<g opacity="0.4" filter="url(#filter0_f)">
<ellipse cx="383.5" cy="789.039" rx="210.223" ry="231.125" transform="rotate(105 383.5 789.039)" stroke="url(#paint0_linear)" stroke-width="27"/>
</g>
<circle cx="383.502" cy="789.084" r="222.045" fill="#0C242C"/>
<circle cx="383.502" cy="789.084" r="222.045" fill="url(#paint1_radial)"/>
<circle cx="383.502" cy="789.084" r="216.045" transform="rotate(90 383.502 789.084)" stroke="url(#paint2_linear)" stroke-width="12"/>
<path d="M628.836 895.945C612.687 931.757 588.903 963.605 559.152 989.26C529.4 1014.91 494.399 1033.75 456.601 1044.46C418.803 1055.16 379.122 1057.48 340.336 1051.24C301.55 1044.99 264.598 1030.35 232.068 1008.32" stroke="#0EBDF1" stroke-linecap="round" stroke-linejoin="round" stroke-dasharray="2 4"/>
<g filter="url(#filter1_d)">
<circle cx="383.159" cy="1054.16" r="8" transform="rotate(-90 383.159 1054.16)" fill="white"/>
<circle cx="383.159" cy="1054.16" r="8" transform="rotate(-90 383.159 1054.16)" stroke="#0EBDF1" stroke-width="5"/>
</g>
<g filter="url(#filter2_d)">
<circle cx="534.16" cy="1009.16" r="8" transform="rotate(-90 534.16 1009.16)" fill="white"/>
<circle cx="534.16" cy="1009.16" r="8" transform="rotate(-90 534.16 1009.16)" stroke="#0EBDF1" stroke-width="5"/>
</g>
<g filter="url(#filter3_d)">
<circle cx="232.16" cy="1009.16" r="8" transform="rotate(-90 232.16 1009.16)" fill="white"/>
<circle cx="232.16" cy="1009.16" r="8" transform="rotate(-90 232.16 1009.16)" stroke="#0EBDF1" stroke-width="5"/>
</g>
<g filter="url(#filter4_d)">
<circle cx="632.16" cy="895.159" r="8" transform="rotate(-90 632.16 895.159)" fill="white"/>
<circle cx="632.16" cy="895.159" r="8" transform="rotate(-90 632.16 895.159)" stroke="#0EBDF1" stroke-width="5"/>
</g>
<path d="M138.771 677.562C155.956 640.591 181.305 608 212.909 582.245C244.514 556.49 281.55 538.24 321.228 528.872C360.907 519.503 402.194 519.258 441.981 528.157C481.768 537.055 519.018 554.865 550.925 580.244" stroke="#5CC78D" stroke-linecap="round" stroke-linejoin="round" stroke-dasharray="2 4"/>
<g filter="url(#filter5_d)">
<circle cx="406.16" cy="524.159" r="8" transform="rotate(90 406.16 524.159)" fill="white"/>
<circle cx="406.16" cy="524.159" r="8" transform="rotate(90 406.16 524.159)" stroke="#5CC78D" stroke-width="5"/>
</g>
<g filter="url(#filter6_d)">
<circle cx="550.16" cy="580.159" r="8" transform="rotate(90 550.16 580.159)" fill="white"/>
<circle cx="550.16" cy="580.159" r="8" transform="rotate(90 550.16 580.159)" stroke="#5CC78D" stroke-width="5"/>
</g>
<g filter="url(#filter7_d)">
<circle cx="246.16" cy="560.159" r="8" transform="rotate(90 246.16 560.159)" fill="white"/>
<circle cx="246.16" cy="560.159" r="8" transform="rotate(90 246.16 560.159)" stroke="#5CC78D" stroke-width="5"/>
</g>
<g filter="url(#filter8_d)">
<circle cx="142.16" cy="676.159" r="8" transform="rotate(90 142.16 676.159)" fill="white"/>
<circle cx="142.16" cy="676.159" r="8" transform="rotate(90 142.16 676.159)" stroke="#5CC78D" stroke-width="5"/>
</g>
<path d="M246.757 209H256.7C261.928 209 264.712 206.273 264.712 202.568C264.712 199.125 262.246 197.045 259.598 196.92V196.693C262.018 196.148 263.803 194.432 263.803 191.693C263.803 188.205 261.212 185.727 256.075 185.727H246.757V209ZM251.678 204.977V198.795H255.803C258.166 198.795 259.632 200.159 259.632 202.08C259.632 203.83 258.439 204.977 255.689 204.977H251.678ZM251.678 195.466V189.705H255.416C257.598 189.705 258.837 190.83 258.837 192.511C258.837 194.352 257.337 195.466 255.325 195.466H251.678ZM267.822 209H272.663V191.545H267.822V209ZM270.254 189.295C271.697 189.295 272.879 188.193 272.879 186.841C272.879 185.5 271.697 184.398 270.254 184.398C268.822 184.398 267.641 185.5 267.641 186.841C267.641 188.193 268.822 189.295 270.254 189.295ZM284.428 209.341C289.723 209.341 293.018 205.716 293.018 200.341C293.018 194.932 289.723 191.318 284.428 191.318C279.132 191.318 275.837 194.932 275.837 200.341C275.837 205.716 279.132 209.341 284.428 209.341ZM284.45 205.591C282.007 205.591 280.757 203.352 280.757 200.307C280.757 197.261 282.007 195.011 284.45 195.011C286.848 195.011 288.098 197.261 288.098 200.307C288.098 203.352 286.848 205.591 284.45 205.591ZM301.007 185.727H296.166V209H301.007V185.727ZM312.771 209.341C318.067 209.341 321.362 205.716 321.362 200.341C321.362 194.932 318.067 191.318 312.771 191.318C307.476 191.318 304.18 194.932 304.18 200.341C304.18 205.716 307.476 209.341 312.771 209.341ZM312.794 205.591C310.351 205.591 309.101 203.352 309.101 200.307C309.101 197.261 310.351 195.011 312.794 195.011C315.192 195.011 316.442 197.261 316.442 200.307C316.442 203.352 315.192 205.591 312.794 205.591ZM332.374 215.795C337.362 215.795 340.908 213.523 340.908 209.17V191.545H336.101V194.477H335.919C335.271 193.057 333.851 191.318 330.93 191.318C327.101 191.318 323.862 194.295 323.862 200.239C323.862 206.045 327.01 208.75 330.942 208.75C333.726 208.75 335.283 207.352 335.919 205.909H336.124V209.102C336.124 211.386 334.589 212.318 332.487 212.318C330.351 212.318 329.271 211.386 328.874 210.443L324.396 211.045C324.976 213.682 327.669 215.795 332.374 215.795ZM332.476 205.114C330.101 205.114 328.805 203.227 328.805 200.216C328.805 197.25 330.078 195.17 332.476 195.17C334.828 195.17 336.146 197.159 336.146 200.216C336.146 203.295 334.805 205.114 332.476 205.114ZM344.76 209H349.601V191.545H344.76V209ZM347.192 189.295C348.635 189.295 349.817 188.193 349.817 186.841C349.817 185.5 348.635 184.398 347.192 184.398C345.76 184.398 344.578 185.5 344.578 186.841C344.578 188.193 345.76 189.295 347.192 189.295ZM361.365 209.341C366.013 209.341 368.933 206.614 369.161 202.602H364.592C364.308 204.466 363.081 205.511 361.422 205.511C359.161 205.511 357.695 203.614 357.695 200.273C357.695 196.977 359.172 195.091 361.422 195.091C363.195 195.091 364.331 196.261 364.592 198H369.161C368.956 193.966 365.899 191.318 361.342 191.318C356.047 191.318 352.774 194.989 352.774 200.341C352.774 205.648 355.99 209.341 361.365 209.341ZM377.237 209.33C379.817 209.33 381.487 208.205 382.339 206.58H382.476V209H387.067V197.227C387.067 193.068 383.544 191.318 379.658 191.318C375.476 191.318 372.726 193.318 372.055 196.5L376.533 196.864C376.862 195.705 377.896 194.852 379.635 194.852C381.283 194.852 382.226 195.682 382.226 197.114V197.182C382.226 198.307 381.033 198.455 377.999 198.75C374.544 199.068 371.442 200.227 371.442 204.125C371.442 207.58 373.908 209.33 377.237 209.33ZM378.624 205.989C377.135 205.989 376.067 205.295 376.067 203.966C376.067 202.602 377.192 201.932 378.896 201.693C379.953 201.545 381.68 201.295 382.26 200.909V202.761C382.26 204.591 380.749 205.989 378.624 205.989ZM395.663 185.727H390.822V209H395.663V185.727ZM419.663 192.42H424.379C424.311 188.273 420.902 185.409 415.72 185.409C410.618 185.409 406.879 188.227 406.902 192.455C406.891 195.886 409.311 197.852 413.243 198.795L415.777 199.432C418.311 200.045 419.72 200.773 419.732 202.341C419.72 204.045 418.107 205.205 415.607 205.205C413.05 205.205 411.209 204.023 411.05 201.693H406.288C406.413 206.727 410.016 209.33 415.663 209.33C421.345 209.33 424.686 206.614 424.697 202.352C424.686 198.477 421.766 196.42 417.72 195.511L415.629 195.011C413.607 194.545 411.913 193.795 411.947 192.125C411.947 190.625 413.277 189.523 415.686 189.523C418.038 189.523 419.482 190.591 419.663 192.42ZM430.905 215.511C434.507 215.511 436.428 213.682 437.405 210.886L444.189 191.568L439.064 191.545L435.416 204.364H435.234L431.621 191.545H426.53L432.791 209.5L432.507 210.239C431.825 211.818 430.655 211.932 428.95 211.398L427.859 215.023C428.553 215.307 429.678 215.511 430.905 215.511ZM461.189 196.523C460.757 193.307 458.166 191.318 453.757 191.318C449.291 191.318 446.348 193.386 446.359 196.75C446.348 199.364 447.996 201.057 451.405 201.739L454.428 202.341C455.95 202.648 456.643 203.205 456.666 204.08C456.643 205.114 455.518 205.852 453.825 205.852C452.098 205.852 450.95 205.114 450.655 203.693L445.893 203.943C446.348 207.284 449.189 209.341 453.814 209.341C458.337 209.341 461.575 207.034 461.587 203.591C461.575 201.068 459.928 199.557 456.541 198.864L453.382 198.227C451.757 197.875 451.155 197.318 451.166 196.477C451.155 195.432 452.337 194.75 453.837 194.75C455.518 194.75 456.518 195.67 456.757 196.795L461.189 196.523ZM473.919 191.545H470.635V187.364H465.794V191.545H463.408V195.182H465.794V204.273C465.771 207.693 468.101 209.386 471.612 209.239C472.862 209.193 473.749 208.943 474.237 208.784L473.476 205.182C473.237 205.227 472.726 205.341 472.271 205.341C471.305 205.341 470.635 204.977 470.635 203.636V195.182H473.919V191.545ZM484.839 209.341C489.158 209.341 492.067 207.239 492.749 204L488.271 203.705C487.783 205.034 486.533 205.727 484.919 205.727C482.499 205.727 480.964 204.125 480.964 201.523V201.511H492.851V200.182C492.851 194.25 489.26 191.318 484.646 191.318C479.51 191.318 476.18 194.966 476.18 200.352C476.18 205.886 479.464 209.341 484.839 209.341ZM480.964 198.511C481.067 196.523 482.578 194.932 484.726 194.932C486.828 194.932 488.283 196.432 488.294 198.511H480.964ZM496.01 209H500.851V198.523C500.851 196.591 502.078 195.307 503.692 195.307C505.283 195.307 506.351 196.398 506.351 198.114V209H511.044V198.341C511.044 196.534 512.078 195.307 513.839 195.307C515.385 195.307 516.544 196.273 516.544 198.216V209H521.374V197.261C521.374 193.477 519.124 191.318 515.874 191.318C513.317 191.318 511.328 192.625 510.612 194.625H510.43C509.874 192.602 508.089 191.318 505.692 191.318C503.339 191.318 501.555 192.568 500.828 194.625H500.624V191.545H496.01V209Z" fill="#5CC78D"/>
<path d="M285.409 283H289.614C292.364 283 293.5 281.659 293.5 279.909C293.5 278.068 292.227 277.068 291.159 277V276.886C292.159 276.614 293.045 275.955 293.045 274.455C293.045 272.75 291.909 271.364 289.477 271.364H285.409V283ZM286.818 281.75V277.705H289.682C291.205 277.705 292.159 278.727 292.159 279.909C292.159 280.932 291.455 281.75 289.614 281.75H286.818ZM286.818 276.477V272.614H289.477C291.023 272.614 291.705 273.432 291.705 274.455C291.705 275.682 290.705 276.477 289.432 276.477H286.818ZM298.362 283.205C299.884 283.205 300.68 282.386 300.953 281.818H301.021V283H302.362V277.25C302.362 274.477 300.248 274.159 299.134 274.159C297.816 274.159 296.316 274.614 295.634 276.205L296.907 276.659C297.203 276.023 297.901 275.341 299.18 275.341C300.413 275.341 301.021 275.994 301.021 277.114V277.159C301.021 277.807 300.362 277.75 298.771 277.955C297.151 278.165 295.384 278.523 295.384 280.523C295.384 282.227 296.703 283.205 298.362 283.205ZM298.566 282C297.498 282 296.725 281.523 296.725 280.591C296.725 279.568 297.657 279.25 298.703 279.114C299.271 279.045 300.794 278.886 301.021 278.614V279.841C301.021 280.932 300.157 282 298.566 282ZM308.515 283.182C310.446 283.182 311.719 282 311.946 280.455H310.606C310.356 281.409 309.56 281.977 308.515 281.977C306.924 281.977 305.901 280.659 305.901 278.636C305.901 276.659 306.946 275.364 308.515 275.364C309.696 275.364 310.401 276.091 310.606 276.886H311.946C311.719 275.25 310.333 274.159 308.492 274.159C306.128 274.159 304.56 276.023 304.56 278.682C304.56 281.295 306.06 283.182 308.515 283.182ZM317.862 274.273H315.998V272.182H314.658V274.273H313.339V275.409H314.658V280.864C314.658 282.386 315.885 283.114 317.021 283.114C317.521 283.114 317.839 283.023 318.021 282.955L317.748 281.75C317.635 281.773 317.453 281.818 317.158 281.818C316.567 281.818 315.998 281.636 315.998 280.5V275.409H317.862V274.273ZM323.604 283.182C325.377 283.182 326.673 282.295 327.082 280.977L325.786 280.614C325.445 281.523 324.656 281.977 323.604 281.977C322.031 281.977 320.945 280.96 320.883 279.091H327.218V278.523C327.218 275.273 325.286 274.159 323.468 274.159C321.104 274.159 319.536 276.023 319.536 278.705C319.536 281.386 321.082 283.182 323.604 283.182ZM320.883 277.932C320.974 276.574 321.934 275.364 323.468 275.364C324.923 275.364 325.854 276.455 325.854 277.932H320.883ZM329.418 283H330.759V277.477C330.759 276.295 331.691 275.432 332.963 275.432C333.321 275.432 333.691 275.5 333.782 275.523V274.159C333.628 274.148 333.276 274.136 333.077 274.136C332.032 274.136 331.122 274.727 330.804 275.591H330.713V274.273H329.418V283ZM335.531 283H336.872V274.273H335.531V283ZM336.213 272.818C336.736 272.818 337.167 272.409 337.167 271.909C337.167 271.409 336.736 271 336.213 271C335.69 271 335.258 271.409 335.258 271.909C335.258 272.409 335.69 272.818 336.213 272.818ZM342.056 283.205C343.579 283.205 344.374 282.386 344.647 281.818H344.715V283H346.056V277.25C346.056 274.477 343.942 274.159 342.829 274.159C341.511 274.159 340.011 274.614 339.329 276.205L340.602 276.659C340.897 276.023 341.596 275.341 342.874 275.341C344.107 275.341 344.715 275.994 344.715 277.114V277.159C344.715 277.807 344.056 277.75 342.465 277.955C340.846 278.165 339.079 278.523 339.079 280.523C339.079 282.227 340.397 283.205 342.056 283.205ZM342.261 282C341.192 282 340.42 281.523 340.42 280.591C340.42 279.568 341.352 279.25 342.397 279.114C342.965 279.045 344.488 278.886 344.715 278.614V279.841C344.715 280.932 343.852 282 342.261 282ZM350.004 271.364H348.664V283H350.004V271.364ZM360.939 283.182C362.712 283.182 364.008 282.295 364.417 280.977L363.121 280.614C362.78 281.523 361.991 281.977 360.939 281.977C359.366 281.977 358.28 280.96 358.218 279.091H364.553V278.523C364.553 275.273 362.621 274.159 360.803 274.159C358.439 274.159 356.871 276.023 356.871 278.705C356.871 281.386 358.417 283.182 360.939 283.182ZM358.218 277.932C358.309 276.574 359.269 275.364 360.803 275.364C362.258 275.364 363.189 276.455 363.189 277.932H358.218ZM367.519 274.273H365.973L368.746 278.636L365.973 283H367.519L369.609 279.614L371.7 283H373.246L370.428 278.636L373.246 274.273H371.7L369.609 277.841L367.519 274.273ZM379.115 274.273H377.251V272.182H375.91V274.273H374.592V275.409H375.91V280.864C375.91 282.386 377.137 283.114 378.274 283.114C378.774 283.114 379.092 283.023 379.274 282.955L379.001 281.75C378.887 281.773 378.706 281.818 378.41 281.818C377.819 281.818 377.251 281.636 377.251 280.5V275.409H379.115V274.273ZM381.292 283H382.633V277.477C382.633 276.295 383.564 275.432 384.837 275.432C385.195 275.432 385.564 275.5 385.655 275.523V274.159C385.502 274.148 385.15 274.136 384.951 274.136C383.905 274.136 382.996 274.727 382.678 275.591H382.587V274.273H381.292V283ZM389.973 283.205C391.496 283.205 392.291 282.386 392.564 281.818H392.632V283H393.973V277.25C393.973 274.477 391.859 274.159 390.746 274.159C389.427 274.159 387.927 274.614 387.246 276.205L388.518 276.659C388.814 276.023 389.513 275.341 390.791 275.341C392.024 275.341 392.632 275.994 392.632 277.114V277.159C392.632 277.807 391.973 277.75 390.382 277.955C388.763 278.165 386.996 278.523 386.996 280.523C386.996 282.227 388.314 283.205 389.973 283.205ZM390.177 282C389.109 282 388.337 281.523 388.337 280.591C388.337 279.568 389.268 279.25 390.314 279.114C390.882 279.045 392.405 278.886 392.632 278.614V279.841C392.632 280.932 391.768 282 390.177 282ZM400.126 283.182C402.058 283.182 403.33 282 403.558 280.455H402.217C401.967 281.409 401.171 281.977 400.126 281.977C398.535 281.977 397.512 280.659 397.512 278.636C397.512 276.659 398.558 275.364 400.126 275.364C401.308 275.364 402.012 276.091 402.217 276.886H403.558C403.33 275.25 401.944 274.159 400.103 274.159C397.739 274.159 396.171 276.023 396.171 278.682C396.171 281.295 397.671 283.182 400.126 283.182ZM409.473 274.273H407.61V272.182H406.269V274.273H404.951V275.409H406.269V280.864C406.269 282.386 407.496 283.114 408.632 283.114C409.132 283.114 409.451 283.023 409.632 282.955L409.36 281.75C409.246 281.773 409.064 281.818 408.769 281.818C408.178 281.818 407.61 281.636 407.61 280.5V275.409H409.473V274.273ZM411.65 283H412.991V274.273H411.65V283ZM412.332 272.818C412.855 272.818 413.287 272.409 413.287 271.909C413.287 271.409 412.855 271 412.332 271C411.809 271 411.378 271.409 411.378 271.909C411.378 272.409 411.809 272.818 412.332 272.818ZM419.153 283.182C421.516 283.182 423.107 281.386 423.107 278.682C423.107 275.955 421.516 274.159 419.153 274.159C416.789 274.159 415.198 275.955 415.198 278.682C415.198 281.386 416.789 283.182 419.153 283.182ZM419.153 281.977C417.357 281.977 416.539 280.432 416.539 278.682C416.539 276.932 417.357 275.364 419.153 275.364C420.948 275.364 421.766 276.932 421.766 278.682C421.766 280.432 420.948 281.977 419.153 281.977ZM426.655 277.75C426.655 276.227 427.598 275.364 428.882 275.364C430.127 275.364 430.882 276.176 430.882 277.545V283H432.223V277.455C432.223 275.227 431.036 274.159 429.269 274.159C427.951 274.159 427.132 274.75 426.723 275.636H426.61V274.273H425.314V283H426.655V277.75Z" fill="white"/>
<rect x="242" y="275" width="12" height="4" rx="2" fill="#5CC78D"/>
<rect x="242" y="331" width="12" height="4" rx="2" fill="#5CC78D"/>
<path d="M285.409 327.364V339H286.727V330.159H286.841L290.477 339H291.75L295.386 330.159H295.5V339H296.818V327.364H295.136L291.182 337.023H291.045L287.091 327.364H285.409ZM303.281 339.182C305.053 339.182 306.349 338.295 306.758 336.977L305.463 336.614C305.122 337.523 304.332 337.977 303.281 337.977C301.707 337.977 300.622 336.96 300.559 335.091H306.894V334.523C306.894 331.273 304.963 330.159 303.144 330.159C300.781 330.159 299.213 332.023 299.213 334.705C299.213 337.386 300.758 339.182 303.281 339.182ZM300.559 333.932C300.65 332.574 301.61 331.364 303.144 331.364C304.599 331.364 305.531 332.455 305.531 333.932H300.559ZM312.89 330.273H311.026V328.182H309.685V330.273H308.367V331.409H309.685V336.864C309.685 338.386 310.912 339.114 312.049 339.114C312.549 339.114 312.867 339.023 313.049 338.955L312.776 337.75C312.662 337.773 312.481 337.818 312.185 337.818C311.594 337.818 311.026 337.636 311.026 336.5V331.409H312.89V330.273ZM317.635 339.205C319.158 339.205 319.953 338.386 320.226 337.818H320.294V339H321.635V333.25C321.635 330.477 319.521 330.159 318.408 330.159C317.089 330.159 315.589 330.614 314.908 332.205L316.18 332.659C316.476 332.023 317.175 331.341 318.453 331.341C319.686 331.341 320.294 331.994 320.294 333.114V333.159C320.294 333.807 319.635 333.75 318.044 333.955C316.425 334.165 314.658 334.523 314.658 336.523C314.658 338.227 315.976 339.205 317.635 339.205ZM317.839 338C316.771 338 315.998 337.523 315.998 336.591C315.998 335.568 316.93 335.25 317.976 335.114C318.544 335.045 320.067 334.886 320.294 334.614V335.841C320.294 336.932 319.43 338 317.839 338ZM324.424 339H325.72V337.659H325.879C326.174 338.136 326.742 339.182 328.424 339.182C330.606 339.182 332.129 337.432 332.129 334.659C332.129 331.909 330.606 330.159 328.401 330.159C326.697 330.159 326.174 331.205 325.879 331.659H325.765V327.364H324.424V339ZM325.742 334.636C325.742 332.682 326.606 331.364 328.242 331.364C329.947 331.364 330.788 332.795 330.788 334.636C330.788 336.5 329.924 337.977 328.242 337.977C326.629 337.977 325.742 336.614 325.742 334.636ZM337.885 339.182C340.249 339.182 341.84 337.386 341.84 334.682C341.84 331.955 340.249 330.159 337.885 330.159C335.522 330.159 333.931 331.955 333.931 334.682C333.931 337.386 335.522 339.182 337.885 339.182ZM337.885 337.977C336.09 337.977 335.272 336.432 335.272 334.682C335.272 332.932 336.09 331.364 337.885 331.364C339.681 331.364 340.499 332.932 340.499 334.682C340.499 336.432 339.681 337.977 337.885 337.977ZM345.388 327.364H344.047V339H345.388V327.364ZM348.004 339H349.344V330.273H348.004V339ZM348.685 328.818C349.208 328.818 349.64 328.409 349.64 327.909C349.64 327.409 349.208 327 348.685 327C348.163 327 347.731 327.409 347.731 327.909C347.731 328.409 348.163 328.818 348.685 328.818ZM355.506 339.182C357.438 339.182 358.71 338 358.938 336.455H357.597C357.347 337.409 356.551 337.977 355.506 337.977C353.915 337.977 352.892 336.659 352.892 334.636C352.892 332.659 353.938 331.364 355.506 331.364C356.688 331.364 357.392 332.091 357.597 332.886H358.938C358.71 331.25 357.324 330.159 355.483 330.159C353.119 330.159 351.551 332.023 351.551 334.682C351.551 337.295 353.051 339.182 355.506 339.182ZM368.286 339.205C369.809 339.205 370.604 338.386 370.877 337.818H370.945V339H372.286V333.25C372.286 330.477 370.172 330.159 369.059 330.159C367.741 330.159 366.241 330.614 365.559 332.205L366.832 332.659C367.127 332.023 367.826 331.341 369.104 331.341C370.337 331.341 370.945 331.994 370.945 333.114V333.159C370.945 333.807 370.286 333.75 368.695 333.955C367.076 334.165 365.309 334.523 365.309 336.523C365.309 338.227 366.627 339.205 368.286 339.205ZM368.491 338C367.422 338 366.65 337.523 366.65 336.591C366.65 335.568 367.582 335.25 368.627 335.114C369.195 335.045 370.718 334.886 370.945 334.614V335.841C370.945 336.932 370.082 338 368.491 338ZM378.439 339.182C380.371 339.182 381.644 338 381.871 336.455H380.53C380.28 337.409 379.484 337.977 378.439 337.977C376.848 337.977 375.825 336.659 375.825 334.636C375.825 332.659 376.871 331.364 378.439 331.364C379.621 331.364 380.325 332.091 380.53 332.886H381.871C381.644 331.25 380.257 330.159 378.416 330.159C376.053 330.159 374.484 332.023 374.484 334.682C374.484 337.295 375.984 339.182 378.439 339.182ZM387.786 330.273H385.923V328.182H384.582V330.273H383.264V331.409H384.582V336.864C384.582 338.386 385.809 339.114 386.946 339.114C387.446 339.114 387.764 339.023 387.946 338.955L387.673 337.75C387.559 337.773 387.377 337.818 387.082 337.818C386.491 337.818 385.923 337.636 385.923 336.5V331.409H387.786V330.273ZM389.964 339H391.304V330.273H389.964V339ZM390.645 328.818C391.168 328.818 391.6 328.409 391.6 327.909C391.6 327.409 391.168 327 390.645 327C390.123 327 389.691 327.409 389.691 327.909C389.691 328.409 390.123 328.818 390.645 328.818ZM401.057 330.273H399.602L397.193 337.227H397.102L394.693 330.273H393.239L396.466 339H397.829L401.057 330.273ZM405.289 339.205C406.812 339.205 407.607 338.386 407.88 337.818H407.948V339H409.289V333.25C409.289 330.477 407.176 330.159 406.062 330.159C404.744 330.159 403.244 330.614 402.562 332.205L403.835 332.659C404.13 332.023 404.829 331.341 406.107 331.341C407.34 331.341 407.948 331.994 407.948 333.114V333.159C407.948 333.807 407.289 333.75 405.698 333.955C404.079 334.165 402.312 334.523 402.312 336.523C402.312 338.227 403.63 339.205 405.289 339.205ZM405.494 338C404.426 338 403.653 337.523 403.653 336.591C403.653 335.568 404.585 335.25 405.63 335.114C406.198 335.045 407.721 334.886 407.948 334.614V335.841C407.948 336.932 407.085 338 405.494 338ZM415.692 330.273H413.828V328.182H412.488V330.273H411.169V331.409H412.488V336.864C412.488 338.386 413.715 339.114 414.851 339.114C415.351 339.114 415.669 339.023 415.851 338.955L415.578 337.75C415.465 337.773 415.283 337.818 414.988 337.818C414.397 337.818 413.828 337.636 413.828 336.5V331.409H415.692V330.273ZM417.869 339H419.21V330.273H417.869V339ZM418.551 328.818C419.074 328.818 419.506 328.409 419.506 327.909C419.506 327.409 419.074 327 418.551 327C418.028 327 417.596 327.409 417.596 327.909C417.596 328.409 418.028 328.818 418.551 328.818ZM425.371 339.182C427.735 339.182 429.326 337.386 429.326 334.682C429.326 331.955 427.735 330.159 425.371 330.159C423.008 330.159 421.417 331.955 421.417 334.682C421.417 337.386 423.008 339.182 425.371 339.182ZM425.371 337.977C423.576 337.977 422.758 336.432 422.758 334.682C422.758 332.932 423.576 331.364 425.371 331.364C427.167 331.364 427.985 332.932 427.985 334.682C427.985 336.432 427.167 337.977 425.371 337.977ZM432.874 333.75C432.874 332.227 433.817 331.364 435.101 331.364C436.345 331.364 437.101 332.176 437.101 333.545V339H438.442V333.455C438.442 331.227 437.254 330.159 435.487 330.159C434.169 330.159 433.351 330.75 432.942 331.636H432.828V330.273H431.533V339H432.874V333.75Z" fill="white"/>
<rect x="242" y="387" width="12" height="4" rx="2" fill="#5CC78D"/>
<path d="M293.364 387H294.818C294.386 384.75 292.5 383.205 290.045 383.205C287.062 383.205 284.955 385.5 284.955 389.182C284.955 392.864 287.045 395.159 290.136 395.159C292.909 395.159 294.886 393.312 294.886 390.432V389.182H290.455V390.432H293.523C293.483 392.523 292.108 393.841 290.136 393.841C287.977 393.841 286.318 392.205 286.318 389.182C286.318 386.159 287.977 384.523 290.045 384.523C291.727 384.523 292.869 385.472 293.364 387ZM297.278 395H298.619V389.477C298.619 388.295 299.551 387.432 300.823 387.432C301.181 387.432 301.551 387.5 301.642 387.523V386.159C301.488 386.148 301.136 386.136 300.937 386.136C299.892 386.136 298.982 386.727 298.664 387.591H298.573V386.273H297.278V395ZM306.671 395.182C309.034 395.182 310.625 393.386 310.625 390.682C310.625 387.955 309.034 386.159 306.671 386.159C304.307 386.159 302.716 387.955 302.716 390.682C302.716 393.386 304.307 395.182 306.671 395.182ZM306.671 393.977C304.875 393.977 304.057 392.432 304.057 390.682C304.057 388.932 304.875 387.364 306.671 387.364C308.466 387.364 309.284 388.932 309.284 390.682C309.284 392.432 308.466 393.977 306.671 393.977ZM314.513 395H315.831L317.74 388.295H317.876L319.785 395H321.104L323.763 386.273H322.354L320.467 392.932H320.376L318.535 386.273H317.104L315.24 392.955H315.149L313.263 386.273H311.854L314.513 395ZM329.491 386.273H327.627V384.182H326.286V386.273H324.968V387.409H326.286V392.864C326.286 394.386 327.514 395.114 328.65 395.114C329.15 395.114 329.468 395.023 329.65 394.955L329.377 393.75C329.264 393.773 329.082 393.818 328.786 393.818C328.195 393.818 327.627 393.636 327.627 392.5V387.409H329.491V386.273ZM333.196 389.75C333.196 388.227 334.168 387.364 335.492 387.364C336.753 387.364 337.514 388.159 337.514 389.545V395H338.855V389.455C338.855 387.21 337.662 386.159 335.878 386.159C334.503 386.159 333.719 386.733 333.31 387.636H333.196V383.364H331.855V395H333.196V389.75ZM346.129 398.273H347.469V393.659H347.583C347.879 394.136 348.447 395.182 350.129 395.182C352.31 395.182 353.833 393.432 353.833 390.659C353.833 387.909 352.31 386.159 350.106 386.159C348.401 386.159 347.879 387.205 347.583 387.659H347.424V386.273H346.129V398.273ZM347.447 390.636C347.447 388.682 348.31 387.364 349.947 387.364C351.651 387.364 352.492 388.795 352.492 390.636C352.492 392.5 351.629 393.977 349.947 393.977C348.333 393.977 347.447 392.614 347.447 390.636ZM356.039 395H357.379V389.477C357.379 388.295 358.311 387.432 359.584 387.432C359.942 387.432 360.311 387.5 360.402 387.523V386.159C360.249 386.148 359.896 386.136 359.698 386.136C358.652 386.136 357.743 386.727 357.425 387.591H357.334V386.273H356.039V395ZM365.431 395.182C367.795 395.182 369.386 393.386 369.386 390.682C369.386 387.955 367.795 386.159 365.431 386.159C363.068 386.159 361.477 387.955 361.477 390.682C361.477 393.386 363.068 395.182 365.431 395.182ZM365.431 393.977C363.636 393.977 362.818 392.432 362.818 390.682C362.818 388.932 363.636 387.364 365.431 387.364C367.227 387.364 368.045 388.932 368.045 390.682C368.045 392.432 367.227 393.977 365.431 393.977ZM371.593 395H372.934V389.545C372.934 388.267 373.866 387.364 374.911 387.364C375.928 387.364 376.638 388.028 376.638 389.023V395H378.002V389.318C378.002 388.193 378.707 387.364 379.934 387.364C380.888 387.364 381.707 387.869 381.707 389.159V395H383.047V389.159C383.047 387.108 381.945 386.159 380.388 386.159C379.138 386.159 378.224 386.733 377.775 387.636H377.684C377.252 386.705 376.491 386.159 375.343 386.159C374.207 386.159 373.366 386.705 373.002 387.636H372.888V386.273H371.593V395ZM389.205 395.182C391.568 395.182 393.159 393.386 393.159 390.682C393.159 387.955 391.568 386.159 389.205 386.159C386.841 386.159 385.25 387.955 385.25 390.682C385.25 393.386 386.841 395.182 389.205 395.182ZM389.205 393.977C387.409 393.977 386.591 392.432 386.591 390.682C386.591 388.932 387.409 387.364 389.205 387.364C391 387.364 391.818 388.932 391.818 390.682C391.818 392.432 391 393.977 389.205 393.977ZM399.161 386.273H397.298V384.182H395.957V386.273H394.639V387.409H395.957V392.864C395.957 394.386 397.184 395.114 398.321 395.114C398.821 395.114 399.139 395.023 399.321 394.955L399.048 393.75C398.934 393.773 398.752 393.818 398.457 393.818C397.866 393.818 397.298 393.636 397.298 392.5V387.409H399.161V386.273ZM401.339 395H402.679V386.273H401.339V395ZM402.02 384.818C402.543 384.818 402.975 384.409 402.975 383.909C402.975 383.409 402.543 383 402.02 383C401.498 383 401.066 383.409 401.066 383.909C401.066 384.409 401.498 384.818 402.02 384.818ZM408.841 395.182C411.204 395.182 412.795 393.386 412.795 390.682C412.795 387.955 411.204 386.159 408.841 386.159C406.477 386.159 404.886 387.955 404.886 390.682C404.886 393.386 406.477 395.182 408.841 395.182ZM408.841 393.977C407.045 393.977 406.227 392.432 406.227 390.682C406.227 388.932 407.045 387.364 408.841 387.364C410.636 387.364 411.454 388.932 411.454 390.682C411.454 392.432 410.636 393.977 408.841 393.977ZM416.343 389.75C416.343 388.227 417.286 387.364 418.57 387.364C419.815 387.364 420.57 388.176 420.57 389.545V395H421.911V389.455C421.911 387.227 420.724 386.159 418.957 386.159C417.639 386.159 416.82 386.75 416.411 387.636H416.298V386.273H415.002V395H416.343V389.75Z" fill="white"/>
<rect x="242" y="443" width="12" height="4" rx="2" fill="#5CC78D"/>
<path d="M285.409 451H286.818V445.795H291.864V444.545H286.818V440.614H292.386V439.364H285.409V451ZM296.119 439.364H294.778V451H296.119V439.364ZM304.235 447.432C304.235 449.068 302.985 449.818 301.985 449.818C300.871 449.818 300.076 449 300.076 447.727V442.273H298.735V447.818C298.735 450.045 299.917 451.114 301.553 451.114C302.871 451.114 303.735 450.409 304.144 449.523H304.235V451H305.576V442.273H304.235V447.432ZM311.737 451.182C314.101 451.182 315.692 449.386 315.692 446.682C315.692 443.955 314.101 442.159 311.737 442.159C309.373 442.159 307.783 443.955 307.783 446.682C307.783 449.386 309.373 451.182 311.737 451.182ZM311.737 449.977C309.942 449.977 309.123 448.432 309.123 446.682C309.123 444.932 309.942 443.364 311.737 443.364C313.533 443.364 314.351 444.932 314.351 446.682C314.351 448.432 313.533 449.977 311.737 449.977ZM317.899 451H319.239V445.477C319.239 444.295 320.171 443.432 321.444 443.432C321.802 443.432 322.171 443.5 322.262 443.523V442.159C322.109 442.148 321.756 442.136 321.558 442.136C320.512 442.136 319.603 442.727 319.285 443.591H319.194V442.273H317.899V451ZM327.405 451.182C329.178 451.182 330.473 450.295 330.882 448.977L329.587 448.614C329.246 449.523 328.456 449.977 327.405 449.977C325.831 449.977 324.746 448.96 324.684 447.091H331.019V446.523C331.019 443.273 329.087 442.159 327.269 442.159C324.905 442.159 323.337 444.023 323.337 446.705C323.337 449.386 324.882 451.182 327.405 451.182ZM324.684 445.932C324.774 444.574 325.735 443.364 327.269 443.364C328.723 443.364 329.655 444.455 329.655 445.932H324.684ZM339.4 444.227C338.98 442.989 338.037 442.159 336.309 442.159C334.469 442.159 333.105 443.205 333.105 444.682C333.105 445.886 333.821 446.693 335.423 447.068L336.878 447.409C337.758 447.614 338.173 448.034 338.173 448.636C338.173 449.386 337.378 450 336.128 450C335.031 450 334.344 449.528 334.105 448.591L332.832 448.909C333.145 450.392 334.366 451.182 336.15 451.182C338.179 451.182 339.559 450.074 339.559 448.568C339.559 447.352 338.798 446.585 337.241 446.205L335.946 445.886C334.912 445.631 334.446 445.284 334.446 444.614C334.446 443.864 335.241 443.318 336.309 443.318C337.48 443.318 337.963 443.966 338.196 444.568L339.4 444.227ZM345.283 451.182C347.215 451.182 348.488 450 348.715 448.455H347.374C347.124 449.409 346.329 449.977 345.283 449.977C343.692 449.977 342.67 448.659 342.67 446.636C342.67 444.659 343.715 443.364 345.283 443.364C346.465 443.364 347.17 444.091 347.374 444.886H348.715C348.488 443.25 347.102 442.159 345.261 442.159C342.897 442.159 341.329 444.023 341.329 446.682C341.329 449.295 342.829 451.182 345.283 451.182ZM354.494 451.182C356.267 451.182 357.563 450.295 357.972 448.977L356.676 448.614C356.335 449.523 355.546 449.977 354.494 449.977C352.921 449.977 351.835 448.96 351.773 447.091H358.108V446.523C358.108 443.273 356.176 442.159 354.358 442.159C351.994 442.159 350.426 444.023 350.426 446.705C350.426 449.386 351.972 451.182 354.494 451.182ZM351.773 445.932C351.864 444.574 352.824 443.364 354.358 443.364C355.813 443.364 356.744 444.455 356.744 445.932H351.773ZM361.649 445.75C361.649 444.227 362.592 443.364 363.876 443.364C365.12 443.364 365.876 444.176 365.876 445.545V451H367.217V445.455C367.217 443.227 366.029 442.159 364.262 442.159C362.944 442.159 362.126 442.75 361.717 443.636H361.603V442.273H360.308V451H361.649V445.75ZM373.623 442.273H371.759V440.182H370.418V442.273H369.1V443.409H370.418V448.864C370.418 450.386 371.645 451.114 372.782 451.114C373.282 451.114 373.6 451.023 373.782 450.955L373.509 449.75C373.395 449.773 373.214 449.818 372.918 449.818C372.327 449.818 371.759 449.636 371.759 448.5V443.409H373.623V442.273ZM386.642 444.227C386.221 442.989 385.278 442.159 383.551 442.159C381.71 442.159 380.346 443.205 380.346 444.682C380.346 445.886 381.062 446.693 382.664 447.068L384.119 447.409C385 447.614 385.414 448.034 385.414 448.636C385.414 449.386 384.619 450 383.369 450C382.272 450 381.585 449.528 381.346 448.591L380.073 448.909C380.386 450.392 381.607 451.182 383.392 451.182C385.42 451.182 386.801 450.074 386.801 448.568C386.801 447.352 386.039 446.585 384.482 446.205L383.187 445.886C382.153 445.631 381.687 445.284 381.687 444.614C381.687 443.864 382.482 443.318 383.551 443.318C384.721 443.318 385.204 443.966 385.437 444.568L386.642 444.227ZM392.775 442.273H390.911V440.182H389.57V442.273H388.252V443.409H389.57V448.864C389.57 450.386 390.797 451.114 391.934 451.114C392.434 451.114 392.752 451.023 392.934 450.955L392.661 449.75C392.547 449.773 392.366 449.818 392.07 449.818C391.479 449.818 390.911 449.636 390.911 448.5V443.409H392.775V442.273ZM397.52 451.205C399.043 451.205 399.838 450.386 400.111 449.818H400.179V451H401.52V445.25C401.52 442.477 399.406 442.159 398.293 442.159C396.974 442.159 395.474 442.614 394.793 444.205L396.065 444.659C396.361 444.023 397.06 443.341 398.338 443.341C399.571 443.341 400.179 443.994 400.179 445.114V445.159C400.179 445.807 399.52 445.75 397.929 445.955C396.31 446.165 394.543 446.523 394.543 448.523C394.543 450.227 395.861 451.205 397.52 451.205ZM397.724 450C396.656 450 395.883 449.523 395.883 448.591C395.883 447.568 396.815 447.25 397.861 447.114C398.429 447.045 399.952 446.886 400.179 446.614V447.841C400.179 448.932 399.315 450 397.724 450ZM404.127 451H405.468V442.273H404.127V451ZM404.809 440.818C405.332 440.818 405.764 440.409 405.764 439.909C405.764 439.409 405.332 439 404.809 439C404.286 439 403.855 439.409 403.855 439.909C403.855 440.409 404.286 440.818 404.809 440.818ZM409.425 445.75C409.425 444.227 410.368 443.364 411.652 443.364C412.897 443.364 413.652 444.176 413.652 445.545V451H414.993V445.455C414.993 443.227 413.806 442.159 412.039 442.159C410.721 442.159 409.902 442.75 409.493 443.636H409.38V442.273H408.084V451H409.425V445.75ZM417.604 451H418.944V442.273H417.604V451ZM418.285 440.818C418.808 440.818 419.24 440.409 419.24 439.909C419.24 439.409 418.808 439 418.285 439C417.763 439 417.331 439.409 417.331 439.909C417.331 440.409 417.763 440.818 418.285 440.818ZM422.901 445.75C422.901 444.227 423.844 443.364 425.129 443.364C426.373 443.364 427.129 444.176 427.129 445.545V451H428.469V445.455C428.469 443.227 427.282 442.159 425.515 442.159C424.197 442.159 423.379 442.75 422.969 443.636H422.856V442.273H421.56V451H422.901V445.75ZM434.602 454.455C436.693 454.455 438.375 453.5 438.375 451.25V442.273H437.08V443.659H436.943C436.648 443.205 436.102 442.159 434.398 442.159C432.193 442.159 430.671 443.909 430.671 446.591C430.671 449.318 432.262 450.864 434.375 450.864C436.08 450.864 436.625 449.864 436.921 449.386H437.034V451.159C437.034 452.614 436.012 453.273 434.602 453.273C433.017 453.273 432.46 452.438 432.102 451.955L431.034 452.705C431.58 453.619 432.654 454.455 434.602 454.455ZM434.557 449.659C432.875 449.659 432.012 448.386 432.012 446.568C432.012 444.795 432.852 443.364 434.557 443.364C436.193 443.364 437.057 444.682 437.057 446.568C437.057 448.5 436.171 449.659 434.557 449.659Z" fill="white"/>
<path d="M264.538 1130.42H269.254C269.186 1126.27 265.777 1123.41 260.595 1123.41C255.493 1123.41 251.754 1126.23 251.777 1130.45C251.766 1133.89 254.186 1135.85 258.118 1136.8L260.652 1137.43C263.186 1138.05 264.595 1138.77 264.607 1140.34C264.595 1142.05 262.982 1143.2 260.482 1143.2C257.925 1143.2 256.084 1142.02 255.925 1139.69H251.163C251.288 1144.73 254.891 1147.33 260.538 1147.33C266.22 1147.33 269.561 1144.61 269.572 1140.35C269.561 1136.48 266.641 1134.42 262.595 1133.51L260.504 1133.01C258.482 1132.55 256.788 1131.8 256.822 1130.12C256.822 1128.62 258.152 1127.52 260.561 1127.52C262.913 1127.52 264.357 1128.59 264.538 1130.42ZM280.678 1147.34C285.973 1147.34 289.268 1143.72 289.268 1138.34C289.268 1132.93 285.973 1129.32 280.678 1129.32C275.382 1129.32 272.087 1132.93 272.087 1138.34C272.087 1143.72 275.382 1147.34 280.678 1147.34ZM280.7 1143.59C278.257 1143.59 277.007 1141.35 277.007 1138.31C277.007 1135.26 278.257 1133.01 280.7 1133.01C283.098 1133.01 284.348 1135.26 284.348 1138.31C284.348 1141.35 283.098 1143.59 280.7 1143.59ZM301.803 1129.55H298.337V1128.38C298.337 1127.19 298.814 1126.5 300.234 1126.5C300.814 1126.5 301.405 1126.62 301.791 1126.75L302.643 1123.11C302.041 1122.93 300.712 1122.64 299.223 1122.64C295.939 1122.64 293.496 1124.49 293.496 1128.28V1129.55H291.03V1133.18H293.496V1147H298.337V1133.18H301.803V1129.55ZM314.044 1129.55H310.76V1125.36H305.919V1129.55H303.533V1133.18H305.919V1142.27C305.896 1145.69 308.226 1147.39 311.737 1147.24C312.987 1147.19 313.874 1146.94 314.362 1146.78L313.601 1143.18C313.362 1143.23 312.851 1143.34 312.396 1143.34C311.43 1143.34 310.76 1142.98 310.76 1141.64V1133.18H314.044V1129.55ZM320.641 1147H325.754L328.754 1136.02H328.97L331.97 1147H337.095L341.834 1129.55H336.947L334.288 1141.2H334.141L331.277 1129.55H326.47L323.652 1141.27H323.493L320.788 1129.55H315.891L320.641 1147ZM349.393 1147.33C351.973 1147.33 353.643 1146.2 354.496 1144.58H354.632V1147H359.223V1135.23C359.223 1131.07 355.7 1129.32 351.814 1129.32C347.632 1129.32 344.882 1131.32 344.212 1134.5L348.689 1134.86C349.018 1133.7 350.053 1132.85 351.791 1132.85C353.439 1132.85 354.382 1133.68 354.382 1135.11V1135.18C354.382 1136.31 353.189 1136.45 350.155 1136.75C346.7 1137.07 343.598 1138.23 343.598 1142.12C343.598 1145.58 346.064 1147.33 349.393 1147.33ZM350.78 1143.99C349.291 1143.99 348.223 1143.3 348.223 1141.97C348.223 1140.6 349.348 1139.93 351.053 1139.69C352.109 1139.55 353.837 1139.3 354.416 1138.91V1140.76C354.416 1142.59 352.905 1143.99 350.78 1143.99ZM362.979 1147H367.82V1137.12C367.82 1134.98 369.388 1133.5 371.524 1133.5C372.195 1133.5 373.115 1133.61 373.57 1133.76V1129.47C373.138 1129.36 372.536 1129.3 372.047 1129.3C370.092 1129.3 368.49 1130.43 367.854 1132.59H367.672V1129.55H362.979V1147ZM383.214 1147.34C387.533 1147.34 390.442 1145.24 391.124 1142L386.646 1141.7C386.158 1143.03 384.908 1143.73 383.294 1143.73C380.874 1143.73 379.339 1142.12 379.339 1139.52V1139.51H391.226V1138.18C391.226 1132.25 387.635 1129.32 383.021 1129.32C377.885 1129.32 374.555 1132.97 374.555 1138.35C374.555 1143.89 377.839 1147.34 383.214 1147.34ZM379.339 1136.51C379.442 1134.52 380.953 1132.93 383.101 1132.93C385.203 1132.93 386.658 1134.43 386.669 1136.51H379.339ZM414.507 1130.42H419.223C419.155 1126.27 415.746 1123.41 410.564 1123.41C405.462 1123.41 401.723 1126.23 401.746 1130.45C401.734 1133.89 404.155 1135.85 408.087 1136.8L410.621 1137.43C413.155 1138.05 414.564 1138.77 414.575 1140.34C414.564 1142.05 412.95 1143.2 410.45 1143.2C407.893 1143.2 406.053 1142.02 405.893 1139.69H401.132C401.257 1144.73 404.859 1147.33 410.507 1147.33C416.189 1147.33 419.53 1144.61 419.541 1140.35C419.53 1136.48 416.609 1134.42 412.564 1133.51L410.473 1133.01C408.45 1132.55 406.757 1131.8 406.791 1130.12C406.791 1128.62 408.121 1127.52 410.53 1127.52C412.882 1127.52 414.325 1128.59 414.507 1130.42ZM425.749 1153.51C429.351 1153.51 431.271 1151.68 432.249 1148.89L439.033 1129.57L433.908 1129.55L430.26 1142.36H430.078L426.464 1129.55H421.374L427.635 1147.5L427.351 1148.24C426.669 1149.82 425.499 1149.93 423.794 1149.4L422.703 1153.02C423.396 1153.31 424.521 1153.51 425.749 1153.51ZM456.033 1134.52C455.601 1131.31 453.01 1129.32 448.601 1129.32C444.135 1129.32 441.192 1131.39 441.203 1134.75C441.192 1137.36 442.839 1139.06 446.249 1139.74L449.271 1140.34C450.794 1140.65 451.487 1141.2 451.51 1142.08C451.487 1143.11 450.362 1143.85 448.669 1143.85C446.942 1143.85 445.794 1143.11 445.499 1141.69L440.737 1141.94C441.192 1145.28 444.033 1147.34 448.658 1147.34C453.18 1147.34 456.419 1145.03 456.43 1141.59C456.419 1139.07 454.771 1137.56 451.385 1136.86L448.226 1136.23C446.601 1135.88 445.999 1135.32 446.01 1134.48C445.999 1133.43 447.18 1132.75 448.68 1132.75C450.362 1132.75 451.362 1133.67 451.601 1134.8L456.033 1134.52ZM468.763 1129.55H465.479V1125.36H460.638V1129.55H458.251V1133.18H460.638V1142.27C460.615 1145.69 462.945 1147.39 466.456 1147.24C467.706 1147.19 468.592 1146.94 469.081 1146.78L468.32 1143.18C468.081 1143.23 467.57 1143.34 467.115 1143.34C466.149 1143.34 465.479 1142.98 465.479 1141.64V1133.18H468.763V1129.55ZM479.683 1147.34C484.001 1147.34 486.911 1145.24 487.592 1142L483.115 1141.7C482.626 1143.03 481.376 1143.73 479.763 1143.73C477.342 1143.73 475.808 1142.12 475.808 1139.52V1139.51H487.695V1138.18C487.695 1132.25 484.104 1129.32 479.49 1129.32C474.354 1129.32 471.024 1132.97 471.024 1138.35C471.024 1143.89 474.308 1147.34 479.683 1147.34ZM475.808 1136.51C475.911 1134.52 477.422 1132.93 479.57 1132.93C481.672 1132.93 483.126 1134.43 483.138 1136.51H475.808ZM490.854 1147H495.695V1136.52C495.695 1134.59 496.922 1133.31 498.536 1133.31C500.126 1133.31 501.195 1134.4 501.195 1136.11V1147H505.888V1136.34C505.888 1134.53 506.922 1133.31 508.683 1133.31C510.229 1133.31 511.388 1134.27 511.388 1136.22V1147H516.217V1135.26C516.217 1131.48 513.967 1129.32 510.717 1129.32C508.161 1129.32 506.172 1130.62 505.456 1132.62H505.274C504.717 1130.6 502.933 1129.32 500.536 1129.32C498.183 1129.32 496.399 1130.57 495.672 1132.62H495.467V1129.55H490.854V1147Z" fill="#0EBDF1"/>
<rect x="242" y="1359" width="12" height="4" rx="2" fill="#0EBDF1"/>
<path d="M285.409 1367H286.818V1362.45H289.364C289.466 1362.45 289.562 1362.45 289.659 1362.45L292.114 1367H293.75L291.119 1362.19C292.602 1361.69 293.295 1360.48 293.295 1358.93C293.295 1356.88 292.068 1355.36 289.341 1355.36H285.409V1367ZM286.818 1361.18V1356.61H289.295C291.182 1356.61 291.909 1357.53 291.909 1358.93C291.909 1360.33 291.182 1361.18 289.318 1361.18H286.818ZM299.187 1367.18C300.96 1367.18 302.255 1366.3 302.664 1364.98L301.369 1364.61C301.028 1365.52 300.238 1365.98 299.187 1365.98C297.613 1365.98 296.528 1364.96 296.465 1363.09H302.801V1362.52C302.801 1359.27 300.869 1358.16 299.051 1358.16C296.687 1358.16 295.119 1360.02 295.119 1362.7C295.119 1365.39 296.664 1367.18 299.187 1367.18ZM296.465 1361.93C296.556 1360.57 297.517 1359.36 299.051 1359.36C300.505 1359.36 301.437 1360.45 301.437 1361.93H296.465ZM305 1370.27H306.341V1365.66H306.455C306.75 1366.14 307.319 1367.18 309 1367.18C311.182 1367.18 312.705 1365.43 312.705 1362.66C312.705 1359.91 311.182 1358.16 308.978 1358.16C307.273 1358.16 306.75 1359.2 306.455 1359.66H306.296V1358.27H305V1370.27ZM306.319 1362.64C306.319 1360.68 307.182 1359.36 308.819 1359.36C310.523 1359.36 311.364 1360.8 311.364 1362.64C311.364 1364.5 310.5 1365.98 308.819 1365.98C307.205 1365.98 306.319 1364.61 306.319 1362.64ZM318.456 1367.18C320.819 1367.18 322.41 1365.39 322.41 1362.68C322.41 1359.95 320.819 1358.16 318.456 1358.16C316.092 1358.16 314.501 1359.95 314.501 1362.68C314.501 1365.39 316.092 1367.18 318.456 1367.18ZM318.456 1365.98C316.66 1365.98 315.842 1364.43 315.842 1362.68C315.842 1360.93 316.66 1359.36 318.456 1359.36C320.251 1359.36 321.069 1360.93 321.069 1362.68C321.069 1364.43 320.251 1365.98 318.456 1365.98ZM324.617 1367H325.958V1361.48C325.958 1360.3 326.89 1359.43 328.163 1359.43C328.521 1359.43 328.89 1359.5 328.981 1359.52V1358.16C328.827 1358.15 328.475 1358.14 328.276 1358.14C327.231 1358.14 326.322 1358.73 326.004 1359.59H325.913V1358.27H324.617V1367ZM335.073 1358.27H333.209V1356.18H331.868V1358.27H330.55V1359.41H331.868V1364.86C331.868 1366.39 333.095 1367.11 334.232 1367.11C334.732 1367.11 335.05 1367.02 335.232 1366.95L334.959 1365.75C334.845 1365.77 334.664 1365.82 334.368 1365.82C333.777 1365.82 333.209 1365.64 333.209 1364.5V1359.41H335.073V1358.27ZM337.25 1367H338.591V1358.27H337.25V1367ZM337.932 1356.82C338.454 1356.82 338.886 1356.41 338.886 1355.91C338.886 1355.41 338.454 1355 337.932 1355C337.409 1355 336.977 1355.41 336.977 1355.91C336.977 1356.41 337.409 1356.82 337.932 1356.82ZM342.548 1361.75C342.548 1360.23 343.491 1359.36 344.775 1359.36C346.019 1359.36 346.775 1360.18 346.775 1361.55V1367H348.116V1361.45C348.116 1359.23 346.928 1358.16 345.161 1358.16C343.843 1358.16 343.025 1358.75 342.616 1359.64H342.502V1358.27H341.207V1367H342.548V1361.75ZM354.249 1370.45C356.34 1370.45 358.021 1369.5 358.021 1367.25V1358.27H356.726V1359.66H356.59C356.294 1359.2 355.749 1358.16 354.044 1358.16C351.84 1358.16 350.317 1359.91 350.317 1362.59C350.317 1365.32 351.908 1366.86 354.021 1366.86C355.726 1366.86 356.271 1365.86 356.567 1365.39H356.681V1367.16C356.681 1368.61 355.658 1369.27 354.249 1369.27C352.664 1369.27 352.107 1368.44 351.749 1367.95L350.681 1368.7C351.226 1369.62 352.3 1370.45 354.249 1370.45ZM354.203 1365.66C352.521 1365.66 351.658 1364.39 351.658 1362.57C351.658 1360.8 352.499 1359.36 354.203 1359.36C355.84 1359.36 356.703 1360.68 356.703 1362.57C356.703 1364.5 355.817 1365.66 354.203 1365.66Z" fill="white"/>
<rect x="242" y="1303" width="12" height="4" rx="2" fill="#0EBDF1"/>
<path d="M293.364 1303H294.818C294.386 1300.75 292.5 1299.2 290.045 1299.2C287.062 1299.2 284.955 1301.5 284.955 1305.18C284.955 1308.86 287.045 1311.16 290.136 1311.16C292.909 1311.16 294.886 1309.31 294.886 1306.43V1305.18H290.455V1306.43H293.523C293.483 1308.52 292.108 1309.84 290.136 1309.84C287.977 1309.84 286.318 1308.2 286.318 1305.18C286.318 1302.16 287.977 1300.52 290.045 1300.52C291.727 1300.52 292.869 1301.47 293.364 1303ZM300.823 1311.18C303.187 1311.18 304.778 1309.39 304.778 1306.68C304.778 1303.95 303.187 1302.16 300.823 1302.16C298.46 1302.16 296.869 1303.95 296.869 1306.68C296.869 1309.39 298.46 1311.18 300.823 1311.18ZM300.823 1309.98C299.028 1309.98 298.21 1308.43 298.21 1306.68C298.21 1304.93 299.028 1303.36 300.823 1303.36C302.619 1303.36 303.437 1304.93 303.437 1306.68C303.437 1308.43 302.619 1309.98 300.823 1309.98ZM308.326 1299.36H306.985V1311H308.326V1299.36ZM314.237 1311.18C315.919 1311.18 316.487 1310.14 316.783 1309.66H316.942V1311H318.237V1299.36H316.896V1303.66H316.783C316.487 1303.2 315.964 1302.16 314.26 1302.16C312.055 1302.16 310.533 1303.91 310.533 1306.66C310.533 1309.43 312.055 1311.18 314.237 1311.18ZM314.419 1309.98C312.737 1309.98 311.873 1308.5 311.873 1306.64C311.873 1304.8 312.714 1303.36 314.419 1303.36C316.055 1303.36 316.919 1304.68 316.919 1306.64C316.919 1308.61 316.033 1309.98 314.419 1309.98ZM331.881 1304.23C331.461 1302.99 330.517 1302.16 328.79 1302.16C326.949 1302.16 325.586 1303.2 325.586 1304.68C325.586 1305.89 326.301 1306.69 327.904 1307.07L329.358 1307.41C330.239 1307.61 330.654 1308.03 330.654 1308.64C330.654 1309.39 329.858 1310 328.608 1310C327.512 1310 326.824 1309.53 326.586 1308.59L325.313 1308.91C325.625 1310.39 326.847 1311.18 328.631 1311.18C330.659 1311.18 332.04 1310.07 332.04 1308.57C332.04 1307.35 331.279 1306.59 329.722 1306.2L328.426 1305.89C327.392 1305.63 326.926 1305.28 326.926 1304.61C326.926 1303.86 327.722 1303.32 328.79 1303.32C329.961 1303.32 330.443 1303.97 330.676 1304.57L331.881 1304.23ZM338.014 1302.27H336.15V1300.18H334.809V1302.27H333.491V1303.41H334.809V1308.86C334.809 1310.39 336.037 1311.11 337.173 1311.11C337.673 1311.11 337.991 1311.02 338.173 1310.95L337.9 1309.75C337.787 1309.77 337.605 1309.82 337.309 1309.82C336.719 1309.82 336.15 1309.64 336.15 1308.5V1303.41H338.014V1302.27ZM342.759 1311.2C344.282 1311.2 345.077 1310.39 345.35 1309.82H345.418V1311H346.759V1305.25C346.759 1302.48 344.646 1302.16 343.532 1302.16C342.214 1302.16 340.714 1302.61 340.032 1304.2L341.305 1304.66C341.6 1304.02 342.299 1303.34 343.577 1303.34C344.81 1303.34 345.418 1303.99 345.418 1305.11V1305.16C345.418 1305.81 344.759 1305.75 343.168 1305.95C341.549 1306.16 339.782 1306.52 339.782 1308.52C339.782 1310.23 341.1 1311.2 342.759 1311.2ZM342.964 1310C341.896 1310 341.123 1309.52 341.123 1308.59C341.123 1307.57 342.055 1307.25 343.1 1307.11C343.668 1307.05 345.191 1306.89 345.418 1306.61V1307.84C345.418 1308.93 344.555 1310 342.964 1310ZM350.708 1305.75C350.708 1304.23 351.651 1303.36 352.935 1303.36C354.179 1303.36 354.935 1304.18 354.935 1305.55V1311H356.276V1305.45C356.276 1303.23 355.088 1302.16 353.321 1302.16C352.003 1302.16 351.185 1302.75 350.776 1303.64H350.662V1302.27H349.367V1311H350.708V1305.75ZM362.181 1311.18C363.863 1311.18 364.431 1310.14 364.727 1309.66H364.886V1311H366.181V1299.36H364.841V1303.66H364.727C364.431 1303.2 363.909 1302.16 362.204 1302.16C360 1302.16 358.477 1303.91 358.477 1306.66C358.477 1309.43 360 1311.18 362.181 1311.18ZM362.363 1309.98C360.681 1309.98 359.818 1308.5 359.818 1306.64C359.818 1304.8 360.659 1303.36 362.363 1303.36C364 1303.36 364.863 1304.68 364.863 1306.64C364.863 1308.61 363.977 1309.98 362.363 1309.98ZM371.552 1311.2C373.074 1311.2 373.87 1310.39 374.143 1309.82H374.211V1311H375.552V1305.25C375.552 1302.48 373.438 1302.16 372.324 1302.16C371.006 1302.16 369.506 1302.61 368.824 1304.2L370.097 1304.66C370.393 1304.02 371.091 1303.34 372.37 1303.34C373.603 1303.34 374.211 1303.99 374.211 1305.11V1305.16C374.211 1305.81 373.552 1305.75 371.961 1305.95C370.341 1306.16 368.574 1306.52 368.574 1308.52C368.574 1310.23 369.893 1311.2 371.552 1311.2ZM371.756 1310C370.688 1310 369.915 1309.52 369.915 1308.59C369.915 1307.57 370.847 1307.25 371.893 1307.11C372.461 1307.05 373.984 1306.89 374.211 1306.61V1307.84C374.211 1308.93 373.347 1310 371.756 1310ZM378.159 1311H379.5V1305.48C379.5 1304.3 380.432 1303.43 381.705 1303.43C382.063 1303.43 382.432 1303.5 382.523 1303.52V1302.16C382.369 1302.15 382.017 1302.14 381.818 1302.14C380.773 1302.14 379.864 1302.73 379.546 1303.59H379.455V1302.27H378.159V1311ZM387.302 1311.18C388.984 1311.18 389.552 1310.14 389.848 1309.66H390.007V1311H391.302V1299.36H389.961V1303.66H389.848C389.552 1303.2 389.029 1302.16 387.325 1302.16C385.12 1302.16 383.598 1303.91 383.598 1306.66C383.598 1309.43 385.12 1311.18 387.302 1311.18ZM387.484 1309.98C385.802 1309.98 384.938 1308.5 384.938 1306.64C384.938 1304.8 385.779 1303.36 387.484 1303.36C389.12 1303.36 389.984 1304.68 389.984 1306.64C389.984 1308.61 389.098 1309.98 387.484 1309.98ZM402.31 1311.18C404.241 1311.18 405.514 1310 405.741 1308.45H404.401C404.151 1309.41 403.355 1309.98 402.31 1309.98C400.719 1309.98 399.696 1308.66 399.696 1306.64C399.696 1304.66 400.741 1303.36 402.31 1303.36C403.491 1303.36 404.196 1304.09 404.401 1304.89H405.741C405.514 1303.25 404.128 1302.16 402.287 1302.16C399.923 1302.16 398.355 1304.02 398.355 1306.68C398.355 1309.3 399.855 1311.18 402.31 1311.18ZM411.407 1311.18C413.771 1311.18 415.362 1309.39 415.362 1306.68C415.362 1303.95 413.771 1302.16 411.407 1302.16C409.043 1302.16 407.453 1303.95 407.453 1306.68C407.453 1309.39 409.043 1311.18 411.407 1311.18ZM411.407 1309.98C409.612 1309.98 408.793 1308.43 408.793 1306.68C408.793 1304.93 409.612 1303.36 411.407 1303.36C413.203 1303.36 414.021 1304.93 414.021 1306.68C414.021 1308.43 413.203 1309.98 411.407 1309.98ZM417.569 1311H418.909V1305.48C418.909 1304.3 419.841 1303.43 421.114 1303.43C421.472 1303.43 421.841 1303.5 421.932 1303.52V1302.16C421.779 1302.15 421.426 1302.14 421.228 1302.14C420.182 1302.14 419.273 1302.73 418.955 1303.59H418.864V1302.27H417.569V1311ZM423.682 1311H425.023V1305.48C425.023 1304.3 425.954 1303.43 427.227 1303.43C427.585 1303.43 427.954 1303.5 428.045 1303.52V1302.16C427.892 1302.15 427.54 1302.14 427.341 1302.14C426.295 1302.14 425.386 1302.73 425.068 1303.59H424.977V1302.27H423.682V1311ZM433.188 1311.18C434.961 1311.18 436.256 1310.3 436.666 1308.98L435.37 1308.61C435.029 1309.52 434.239 1309.98 433.188 1309.98C431.614 1309.98 430.529 1308.96 430.467 1307.09H436.802V1306.52C436.802 1303.27 434.87 1302.16 433.052 1302.16C430.688 1302.16 429.12 1304.02 429.12 1306.7C429.12 1309.39 430.666 1311.18 433.188 1311.18ZM430.467 1305.93C430.558 1304.57 431.518 1303.36 433.052 1303.36C434.506 1303.36 435.438 1304.45 435.438 1305.93H430.467ZM440.343 1299.36H439.002V1311H440.343V1299.36ZM445.527 1311.2C447.049 1311.2 447.845 1310.39 448.118 1309.82H448.186V1311H449.527V1305.25C449.527 1302.48 447.413 1302.16 446.299 1302.16C444.981 1302.16 443.481 1302.61 442.799 1304.2L444.072 1304.66C444.368 1304.02 445.066 1303.34 446.345 1303.34C447.578 1303.34 448.186 1303.99 448.186 1305.11V1305.16C448.186 1305.81 447.527 1305.75 445.936 1305.95C444.316 1306.16 442.549 1306.52 442.549 1308.52C442.549 1310.23 443.868 1311.2 445.527 1311.2ZM445.731 1310C444.663 1310 443.89 1309.52 443.89 1308.59C443.89 1307.57 444.822 1307.25 445.868 1307.11C446.436 1307.05 447.959 1306.89 448.186 1306.61V1307.84C448.186 1308.93 447.322 1310 445.731 1310ZM455.93 1302.27H454.066V1300.18H452.725V1302.27H451.407V1303.41H452.725V1308.86C452.725 1310.39 453.952 1311.11 455.089 1311.11C455.589 1311.11 455.907 1311.02 456.089 1310.95L455.816 1309.75C455.702 1309.77 455.521 1309.82 455.225 1309.82C454.634 1309.82 454.066 1309.64 454.066 1308.5V1303.41H455.93V1302.27ZM458.107 1311H459.448V1302.27H458.107V1311ZM458.788 1300.82C459.311 1300.82 459.743 1300.41 459.743 1299.91C459.743 1299.41 459.311 1299 458.788 1299C458.266 1299 457.834 1299.41 457.834 1299.91C457.834 1300.41 458.266 1300.82 458.788 1300.82ZM465.609 1311.18C467.973 1311.18 469.564 1309.39 469.564 1306.68C469.564 1303.95 467.973 1302.16 465.609 1302.16C463.245 1302.16 461.654 1303.95 461.654 1306.68C461.654 1309.39 463.245 1311.18 465.609 1311.18ZM465.609 1309.98C463.814 1309.98 462.995 1308.43 462.995 1306.68C462.995 1304.93 463.814 1303.36 465.609 1303.36C467.404 1303.36 468.223 1304.93 468.223 1306.68C468.223 1308.43 467.404 1309.98 465.609 1309.98ZM473.111 1305.75C473.111 1304.23 474.054 1303.36 475.339 1303.36C476.583 1303.36 477.339 1304.18 477.339 1305.55V1311H478.679V1305.45C478.679 1303.23 477.492 1302.16 475.725 1302.16C474.407 1302.16 473.589 1302.75 473.179 1303.64H473.066V1302.27H471.77V1311H473.111V1305.75Z" fill="white"/>
<rect x="242" y="1247" width="12" height="4" rx="2" fill="#0EBDF1"/>
<path d="M285.886 1255L287.057 1251.7H291.761L292.932 1255H294.409L290.136 1243.36H288.682L284.409 1255H285.886ZM287.5 1250.45L289.364 1245.2H289.455L291.318 1250.45H287.5ZM297.541 1249.75C297.541 1248.23 298.484 1247.36 299.768 1247.36C301.012 1247.36 301.768 1248.18 301.768 1249.55V1255H303.109V1249.45C303.109 1247.23 301.921 1246.16 300.154 1246.16C298.836 1246.16 298.018 1246.75 297.609 1247.64H297.495V1246.27H296.2V1255H297.541V1249.75ZM308.287 1255.2C309.81 1255.2 310.606 1254.39 310.878 1253.82H310.946V1255H312.287V1249.25C312.287 1246.48 310.174 1246.16 309.06 1246.16C307.742 1246.16 306.242 1246.61 305.56 1248.2L306.833 1248.66C307.128 1248.02 307.827 1247.34 309.106 1247.34C310.338 1247.34 310.946 1247.99 310.946 1249.11V1249.16C310.946 1249.81 310.287 1249.75 308.696 1249.95C307.077 1250.16 305.31 1250.52 305.31 1252.52C305.31 1254.23 306.628 1255.2 308.287 1255.2ZM308.492 1254C307.424 1254 306.651 1253.52 306.651 1252.59C306.651 1251.57 307.583 1251.25 308.628 1251.11C309.196 1251.05 310.719 1250.89 310.946 1250.61V1251.84C310.946 1252.93 310.083 1254 308.492 1254ZM316.236 1243.36H314.895V1255H316.236V1243.36ZM319.715 1258.25C320.926 1258.25 321.783 1257.61 322.283 1256.27L325.999 1246.3L324.533 1246.27L322.124 1253.23H322.033L319.624 1246.27H318.17L321.397 1255.05L321.147 1255.73C320.67 1257.03 320.056 1257.16 319.079 1256.91L318.738 1258.09C318.874 1258.16 319.261 1258.25 319.715 1258.25ZM334.115 1248.23C333.695 1246.99 332.752 1246.16 331.024 1246.16C329.184 1246.16 327.82 1247.2 327.82 1248.68C327.82 1249.89 328.536 1250.69 330.138 1251.07L331.593 1251.41C332.473 1251.61 332.888 1252.03 332.888 1252.64C332.888 1253.39 332.093 1254 330.843 1254C329.746 1254 329.059 1253.53 328.82 1252.59L327.547 1252.91C327.86 1254.39 329.081 1255.18 330.865 1255.18C332.894 1255.18 334.274 1254.07 334.274 1252.57C334.274 1251.35 333.513 1250.59 331.956 1250.2L330.661 1249.89C329.627 1249.63 329.161 1249.28 329.161 1248.61C329.161 1247.86 329.956 1247.32 331.024 1247.32C332.195 1247.32 332.678 1247.97 332.911 1248.57L334.115 1248.23ZM336.453 1255H337.794V1246.27H336.453V1255ZM337.135 1244.82C337.657 1244.82 338.089 1244.41 338.089 1243.91C338.089 1243.41 337.657 1243 337.135 1243C336.612 1243 336.18 1243.41 336.18 1243.91C336.18 1244.41 336.612 1244.82 337.135 1244.82ZM346.592 1248.23C346.171 1246.99 345.228 1246.16 343.501 1246.16C341.66 1246.16 340.296 1247.2 340.296 1248.68C340.296 1249.89 341.012 1250.69 342.614 1251.07L344.069 1251.41C344.95 1251.61 345.364 1252.03 345.364 1252.64C345.364 1253.39 344.569 1254 343.319 1254C342.222 1254 341.535 1253.53 341.296 1252.59L340.023 1252.91C340.336 1254.39 341.557 1255.18 343.342 1255.18C345.37 1255.18 346.751 1254.07 346.751 1252.57C346.751 1251.35 345.989 1250.59 344.432 1250.2L343.137 1249.89C342.103 1249.63 341.637 1249.28 341.637 1248.61C341.637 1247.86 342.432 1247.32 343.501 1247.32C344.671 1247.32 345.154 1247.97 345.387 1248.57L346.592 1248.23Z" fill="white"/>
<rect x="242" y="1191" width="12" height="4" rx="2" fill="#0EBDF1"/>
<path d="M289 1199C292.545 1199 294.545 1196.8 294.545 1193.16C294.545 1189.55 292.545 1187.36 289.159 1187.36H285.409V1199H289ZM286.818 1197.75V1188.61H289.068C291.795 1188.61 293.182 1190.34 293.182 1193.16C293.182 1196 291.795 1197.75 288.909 1197.75H286.818ZM300.546 1199.18C302.319 1199.18 303.615 1198.3 304.024 1196.98L302.728 1196.61C302.387 1197.52 301.597 1197.98 300.546 1197.98C298.972 1197.98 297.887 1196.96 297.825 1195.09H304.16V1194.52C304.16 1191.27 302.228 1190.16 300.41 1190.16C298.046 1190.16 296.478 1192.02 296.478 1194.7C296.478 1197.39 298.024 1199.18 300.546 1199.18ZM297.825 1193.93C297.916 1192.57 298.876 1191.36 300.41 1191.36C301.865 1191.36 302.796 1192.45 302.796 1193.93H297.825ZM310.155 1190.27H308.292V1188.18H306.951V1190.27H305.632V1191.41H306.951V1196.86C306.951 1198.39 308.178 1199.11 309.314 1199.11C309.814 1199.11 310.132 1199.02 310.314 1198.95L310.042 1197.75C309.928 1197.77 309.746 1197.82 309.451 1197.82C308.86 1197.82 308.292 1197.64 308.292 1196.5V1191.41H310.155V1190.27ZM315.898 1199.18C317.67 1199.18 318.966 1198.3 319.375 1196.98L318.079 1196.61C317.739 1197.52 316.949 1197.98 315.898 1197.98C314.324 1197.98 313.239 1196.96 313.176 1195.09H319.511V1194.52C319.511 1191.27 317.579 1190.16 315.761 1190.16C313.398 1190.16 311.829 1192.02 311.829 1194.7C311.829 1197.39 313.375 1199.18 315.898 1199.18ZM313.176 1193.93C313.267 1192.57 314.227 1191.36 315.761 1191.36C317.216 1191.36 318.148 1192.45 318.148 1193.93H313.176ZM325.256 1199.18C327.188 1199.18 328.461 1198 328.688 1196.45H327.347C327.097 1197.41 326.302 1197.98 325.256 1197.98C323.666 1197.98 322.643 1196.66 322.643 1194.64C322.643 1192.66 323.688 1191.36 325.256 1191.36C326.438 1191.36 327.143 1192.09 327.347 1192.89H328.688C328.461 1191.25 327.075 1190.16 325.234 1190.16C322.87 1190.16 321.302 1192.02 321.302 1194.68C321.302 1197.3 322.802 1199.18 325.256 1199.18ZM334.604 1190.27H332.74V1188.18H331.399V1190.27H330.081V1191.41H331.399V1196.86C331.399 1198.39 332.627 1199.11 333.763 1199.11C334.263 1199.11 334.581 1199.02 334.763 1198.95L334.49 1197.75C334.377 1197.77 334.195 1197.82 333.899 1197.82C333.309 1197.82 332.74 1197.64 332.74 1196.5V1191.41H334.604V1190.27ZM336.781 1199H338.122V1190.27H336.781V1199ZM337.463 1188.82C337.986 1188.82 338.417 1188.41 338.417 1187.91C338.417 1187.41 337.986 1187 337.463 1187C336.94 1187 336.508 1187.41 336.508 1187.91C336.508 1188.41 336.94 1188.82 337.463 1188.82ZM344.283 1199.18C346.647 1199.18 348.238 1197.39 348.238 1194.68C348.238 1191.95 346.647 1190.16 344.283 1190.16C341.92 1190.16 340.329 1191.95 340.329 1194.68C340.329 1197.39 341.92 1199.18 344.283 1199.18ZM344.283 1197.98C342.488 1197.98 341.67 1196.43 341.67 1194.68C341.67 1192.93 342.488 1191.36 344.283 1191.36C346.079 1191.36 346.897 1192.93 346.897 1194.68C346.897 1196.43 346.079 1197.98 344.283 1197.98ZM351.786 1193.75C351.786 1192.23 352.729 1191.36 354.013 1191.36C355.257 1191.36 356.013 1192.18 356.013 1193.55V1199H357.354V1193.45C357.354 1191.23 356.166 1190.16 354.399 1190.16C353.081 1190.16 352.263 1190.75 351.854 1191.64H351.74V1190.27H350.445V1199H351.786V1193.75Z" fill="white"/>
<path d="M281.683 715.131H288.756C288.654 708.909 283.54 704.614 275.768 704.614C268.114 704.614 262.506 708.841 262.54 715.182C262.523 720.33 266.154 723.278 272.052 724.693L275.853 725.648C279.654 726.568 281.768 727.659 281.785 730.011C281.768 732.568 279.347 734.307 275.597 734.307C271.762 734.307 269.001 732.534 268.762 729.04H261.62C261.808 736.591 267.211 740.494 275.683 740.494C284.205 740.494 289.217 736.42 289.234 730.028C289.217 724.216 284.836 721.131 278.768 719.767L275.631 719.017C272.597 718.318 270.058 717.193 270.109 714.688C270.109 712.438 272.103 710.784 275.717 710.784C279.245 710.784 281.41 712.386 281.683 715.131ZM294.062 740H301.323V713.818H294.062V740ZM297.71 710.443C299.874 710.443 301.647 708.79 301.647 706.761C301.647 704.75 299.874 703.097 297.71 703.097C295.562 703.097 293.789 704.75 293.789 706.761C293.789 708.79 295.562 710.443 297.71 710.443ZM314.401 724.864C314.418 721.489 316.43 719.511 319.362 719.511C322.276 719.511 324.032 721.42 324.015 724.625V740H331.276V723.33C331.276 717.227 327.697 713.477 322.242 713.477C318.356 713.477 315.543 715.386 314.367 718.438H314.06V713.818H307.14V740H314.401V724.864ZM348.795 750.193C356.278 750.193 361.596 746.784 361.596 740.256V713.818H354.386V718.216H354.113C353.141 716.085 351.011 713.477 346.63 713.477C340.886 713.477 336.028 717.943 336.028 726.858C336.028 735.568 340.749 739.625 346.647 739.625C350.823 739.625 353.158 737.528 354.113 735.364H354.42V740.153C354.42 743.58 352.119 744.977 348.965 744.977C345.761 744.977 344.141 743.58 343.545 742.165L336.829 743.068C337.698 747.023 341.738 750.193 348.795 750.193ZM348.948 734.17C345.386 734.17 343.442 731.341 343.442 726.824C343.442 722.375 345.352 719.256 348.948 719.256C352.477 719.256 354.454 722.239 354.454 726.824C354.454 731.443 352.442 734.17 348.948 734.17ZM374.636 705.091H367.374V740H374.636V705.091ZM392.384 740.511C398.862 740.511 403.225 737.358 404.248 732.5L397.532 732.057C396.799 734.051 394.924 735.091 392.504 735.091C388.873 735.091 386.572 732.688 386.572 728.784V728.767H404.401V726.773C404.401 717.875 399.015 713.477 392.094 713.477C384.39 713.477 379.396 718.949 379.396 727.028C379.396 735.33 384.322 740.511 392.384 740.511ZM386.572 724.267C386.725 721.284 388.992 718.898 392.214 718.898C395.367 718.898 397.549 721.148 397.566 724.267H386.572ZM451.187 717.312C450.215 709.25 444.113 704.614 436.033 704.614C426.812 704.614 419.772 711.125 419.772 722.545C419.772 733.932 426.692 740.477 436.033 740.477C444.982 740.477 450.386 734.528 451.187 728.102L443.721 728.068C443.022 731.801 440.09 733.949 436.153 733.949C430.852 733.949 427.255 730.011 427.255 722.545C427.255 715.284 430.8 711.142 436.204 711.142C440.244 711.142 443.158 713.477 443.721 717.312H451.187ZM468.275 740.511C474.752 740.511 479.116 737.358 480.138 732.5L473.423 732.057C472.69 734.051 470.815 735.091 468.394 735.091C464.763 735.091 462.462 732.688 462.462 728.784V728.767H480.292V726.773C480.292 717.875 474.906 713.477 467.985 713.477C460.281 713.477 455.286 718.949 455.286 727.028C455.286 735.33 460.212 740.511 468.275 740.511ZM462.462 724.267C462.616 721.284 464.883 718.898 468.104 718.898C471.258 718.898 473.44 721.148 473.457 724.267H462.462ZM492.292 705.091H485.031V740H492.292V705.091ZM505.37 705.091H498.109V740H505.37V705.091Z" fill="white"/>
<path opacity="0.6" d="M308.629 784C308.058 780.787 305.433 778.307 301.717 778.307C297.311 778.307 294.175 781.81 294.175 787.273C294.175 792.736 297.311 796.239 301.717 796.239C305.433 796.239 308.058 793.75 308.629 790.545H307.027C306.541 792.94 304.453 794.739 301.717 794.739C298.411 794.739 295.717 792.122 295.717 787.273C295.717 782.44 298.411 779.807 301.717 779.807C304.453 779.807 306.541 781.614 307.027 784H308.629ZM317.146 796.273C320.538 796.273 322.907 793.503 322.907 789.514C322.907 785.5 320.538 782.73 317.146 782.73C313.754 782.73 311.384 785.5 311.384 789.514C311.384 793.503 313.754 796.273 317.146 796.273ZM317.146 794.884C314.427 794.884 312.91 792.446 312.91 789.514C312.91 786.582 314.427 784.111 317.146 784.111C319.864 784.111 321.381 786.582 321.381 789.514C321.381 792.446 319.864 794.884 317.146 794.884ZM326.237 796H327.754V787.614C327.754 785.577 329.109 784.128 330.925 784.128C332.714 784.128 333.754 785.321 333.754 787.094V796H335.305V787.384C335.305 785.5 336.43 784.128 338.425 784.128C340.155 784.128 341.305 785.168 341.305 787.23V796H342.822V787.23C342.822 784.298 341.314 782.739 338.885 782.739C336.976 782.739 335.595 783.668 335.007 785.116H334.896C334.317 783.634 333.166 782.739 331.359 782.739C329.646 782.739 328.368 783.565 327.848 784.92H327.712V782.909H326.237V796ZM346.813 800.909H348.339V793.571H348.475C348.995 794.773 350.12 796.273 352.498 796.273C355.702 796.273 357.884 793.545 357.884 789.489C357.884 785.449 355.711 782.73 352.472 782.73C350.069 782.73 349.004 784.23 348.475 785.406H348.288V782.909H346.813V800.909ZM348.313 789.463C348.313 786.327 349.754 784.111 352.31 784.111C354.944 784.111 356.359 786.446 356.359 789.463C356.359 792.514 354.918 794.884 352.31 794.884C349.779 794.884 348.313 792.625 348.313 789.463ZM369.524 790.997C369.524 793.401 367.717 794.696 365.945 794.696C364.053 794.696 362.723 793.341 362.723 791.295V782.909H361.206V791.389C361.206 794.491 362.996 796.17 365.51 796.17C367.428 796.17 368.791 795.173 369.405 793.827H369.524V796H371.041V782.909H369.524V790.997ZM380.214 782.909H377.444V779.773H375.918V782.909H373.967V784.23H375.918V792.94C375.918 795.08 377.606 796.196 379.285 796.196C379.915 796.196 380.342 796.077 380.631 795.966L380.308 794.594C380.094 794.653 379.822 794.713 379.421 794.713C378.39 794.713 377.444 794.227 377.444 792.582V784.23H380.214V782.909ZM388.811 796.273C391.436 796.273 393.2 794.849 393.797 793.205L392.357 792.736C391.854 793.912 390.669 794.884 388.811 794.884C386.135 794.884 384.439 792.932 384.371 789.906H394.121V789.156C394.121 784.784 391.419 782.73 388.581 782.73C385.189 782.73 382.845 785.568 382.845 789.531C382.845 793.503 385.146 796.273 388.811 796.273ZM384.379 788.568C384.541 786.131 386.186 784.111 388.581 784.111C390.925 784.111 392.57 786.045 392.57 788.568H384.379ZM397.464 796H398.981V787.545C398.981 785.602 400.472 784.196 402.518 784.196C402.918 784.196 403.293 784.264 403.43 784.281V782.739C403.225 782.73 402.876 782.713 402.629 782.713C400.984 782.713 399.577 783.599 399.049 784.92H398.938V782.909H397.464V796ZM422.902 782.909H421.257L417.371 793.997H417.251L413.365 782.909H411.72L416.501 796H418.121L422.902 782.909ZM425.887 796H427.413V782.909H425.887V796ZM426.663 780.659C427.285 780.659 427.805 780.165 427.805 779.568C427.805 778.972 427.285 778.477 426.663 778.477C426.04 778.477 425.529 778.972 425.529 779.568C425.529 780.165 426.04 780.659 426.663 780.659ZM440.22 785.781C439.581 783.889 438.183 782.73 435.788 782.73C433.146 782.73 431.229 784.239 431.229 786.395C431.229 788.151 432.294 789.344 434.57 789.889L436.709 790.401C438.149 790.741 438.839 791.483 438.839 792.531C438.839 793.895 437.536 794.909 435.524 794.909C433.734 794.909 432.618 794.099 432.251 792.548L430.794 792.906C431.254 795.088 432.984 796.273 435.55 796.273C438.43 796.273 440.408 794.688 440.408 792.463C440.408 790.716 439.308 789.548 437.118 789.011L435.141 788.526C433.513 788.116 432.754 787.46 432.754 786.327C432.754 784.997 434.024 784.068 435.788 784.068C437.553 784.068 438.422 784.997 438.831 786.173L440.22 785.781ZM443.746 796H445.272V782.909H443.746V796ZM444.522 780.659C445.144 780.659 445.664 780.165 445.664 779.568C445.664 778.972 445.144 778.477 444.522 778.477C443.9 778.477 443.388 778.972 443.388 779.568C443.388 780.165 443.9 780.659 444.522 780.659ZM454.372 796.273C457.764 796.273 460.134 793.503 460.134 789.514C460.134 785.5 457.764 782.73 454.372 782.73C450.98 782.73 448.611 785.5 448.611 789.514C448.611 793.503 450.98 796.273 454.372 796.273ZM454.372 794.884C451.653 794.884 450.136 792.446 450.136 789.514C450.136 786.582 451.653 784.111 454.372 784.111C457.091 784.111 458.608 786.582 458.608 789.514C458.608 792.446 457.091 794.884 454.372 794.884ZM464.981 787.818C464.981 785.534 466.481 784.128 468.543 784.128C470.555 784.128 471.85 785.474 471.85 787.614V796H473.367V787.52C473.367 784.418 471.569 782.739 468.927 782.739C467.009 782.739 465.688 783.625 465.075 784.963H464.938V782.909H463.464V796H464.981V787.818Z" fill="white"/>
<path opacity="0.6" d="M287.131 829.545V847H288.631V832.912H288.767L294.656 847H296.105L301.994 832.912H302.131V847H303.631V829.545H301.79L295.457 844.75H295.304L288.972 829.545H287.131ZM313.249 847.273C315.874 847.273 317.638 845.849 318.234 844.205L316.794 843.736C316.291 844.912 315.107 845.884 313.249 845.884C310.572 845.884 308.876 843.932 308.808 840.906H318.558V840.156C318.558 835.784 315.857 833.73 313.018 833.73C309.626 833.73 307.283 836.568 307.283 840.531C307.283 844.503 309.584 847.273 313.249 847.273ZM308.817 839.568C308.979 837.131 310.624 835.111 313.018 835.111C315.362 835.111 317.007 837.045 317.007 839.568H308.817ZM327.058 833.909H324.288V830.773H322.762V833.909H320.81V835.23H322.762V843.94C322.762 846.08 324.45 847.196 326.129 847.196C326.759 847.196 327.185 847.077 327.475 846.966L327.151 845.594C326.938 845.653 326.665 845.713 326.265 845.713C325.234 845.713 324.288 845.227 324.288 843.582V835.23H327.058V833.909ZM334.159 847.298C336.341 847.298 337.67 846.088 338.216 844.929H338.31V847H339.827V838.111C339.827 834.599 337.185 833.73 335.182 833.73C333.179 833.73 331.116 834.523 330.23 836.662L331.67 837.182C332.148 836.057 333.332 835.094 335.224 835.094C337.21 835.094 338.31 836.185 338.31 837.974V838.281C338.31 839.27 337.082 839.287 334.884 839.56C331.926 839.926 329.855 840.753 329.855 843.344C329.855 845.866 331.781 847.298 334.159 847.298ZM334.364 845.909C332.651 845.909 331.372 844.997 331.372 843.412C331.372 841.827 332.668 841.162 334.884 840.889C335.957 840.761 337.866 840.523 338.31 840.088V841.98C338.31 844.128 336.784 845.909 334.364 845.909ZM344.178 847H345.652V844.571H345.839C346.368 845.773 347.476 847.273 349.862 847.273C353.075 847.273 355.249 844.554 355.249 840.489C355.249 836.457 353.067 833.73 349.837 833.73C347.442 833.73 346.359 835.23 345.839 836.406H345.703V829.545H344.178V847ZM345.678 840.463C345.678 837.327 347.118 835.111 349.675 835.111C352.3 835.111 353.723 837.446 353.723 840.463C353.723 843.514 352.283 845.884 349.675 845.884C347.135 845.884 345.678 843.625 345.678 840.463ZM363.669 847.273C367.061 847.273 369.43 844.503 369.43 840.514C369.43 836.5 367.061 833.73 363.669 833.73C360.277 833.73 357.908 836.5 357.908 840.514C357.908 844.503 360.277 847.273 363.669 847.273ZM363.669 845.884C360.95 845.884 359.433 843.446 359.433 840.514C359.433 837.582 360.95 835.111 363.669 835.111C366.388 835.111 367.905 837.582 367.905 840.514C367.905 843.446 366.388 845.884 363.669 845.884ZM374.278 829.545H372.761V847H374.278V829.545ZM378.309 847H379.835V833.909H378.309V847ZM379.085 831.659C379.707 831.659 380.227 831.165 380.227 830.568C380.227 829.972 379.707 829.477 379.085 829.477C378.462 829.477 377.951 829.972 377.951 830.568C377.951 831.165 378.462 831.659 379.085 831.659ZM388.96 847.273C391.688 847.273 393.605 845.551 393.955 843.182H392.42C392.071 844.852 390.699 845.884 388.96 845.884C386.395 845.884 384.699 843.651 384.699 840.463C384.699 837.293 386.446 835.111 388.96 835.111C390.827 835.111 392.088 836.312 392.412 837.795H393.946C393.588 835.366 391.56 833.73 388.935 833.73C385.509 833.73 383.173 836.577 383.173 840.514C383.173 844.418 385.44 847.273 388.96 847.273ZM407.612 847.298C409.794 847.298 411.124 846.088 411.669 844.929H411.763V847H413.28V838.111C413.28 834.599 410.638 833.73 408.635 833.73C406.632 833.73 404.57 834.523 403.683 836.662L405.124 837.182C405.601 836.057 406.786 835.094 408.678 835.094C410.663 835.094 411.763 836.185 411.763 837.974V838.281C411.763 839.27 410.536 839.287 408.337 839.56C405.379 839.926 403.308 840.753 403.308 843.344C403.308 845.866 405.234 847.298 407.612 847.298ZM407.817 845.909C406.104 845.909 404.825 844.997 404.825 843.412C404.825 841.827 406.121 841.162 408.337 840.889C409.411 840.761 411.32 840.523 411.763 840.088V841.98C411.763 844.128 410.237 845.909 407.817 845.909ZM422.429 847.273C425.156 847.273 427.074 845.551 427.423 843.182H425.889C425.54 844.852 424.168 845.884 422.429 845.884C419.864 845.884 418.168 843.651 418.168 840.463C418.168 837.293 419.915 835.111 422.429 835.111C424.295 835.111 425.557 836.312 425.881 837.795H427.415C427.057 835.366 425.028 833.73 422.403 833.73C418.977 833.73 416.642 836.577 416.642 840.514C416.642 844.418 418.909 847.273 422.429 847.273ZM435.831 833.909H433.061V830.773H431.536V833.909H429.584V835.23H431.536V843.94C431.536 846.08 433.223 847.196 434.902 847.196C435.533 847.196 435.959 847.077 436.249 846.966L435.925 845.594C435.712 845.653 435.439 845.713 435.038 845.713C434.007 845.713 433.061 845.227 433.061 843.582V835.23H435.831V833.909ZM439.293 847H440.819V833.909H439.293V847ZM440.069 831.659C440.691 831.659 441.211 831.165 441.211 830.568C441.211 829.972 440.691 829.477 440.069 829.477C439.447 829.477 438.935 829.972 438.935 830.568C438.935 831.165 439.447 831.659 440.069 831.659ZM454.964 833.909H453.32L449.433 844.997H449.314L445.428 833.909H443.783L448.564 847H450.183L454.964 833.909ZM457.95 847H459.475V833.909H457.95V847ZM458.725 831.659C459.347 831.659 459.867 831.165 459.867 830.568C459.867 829.972 459.347 829.477 458.725 829.477C458.103 829.477 457.592 829.972 457.592 830.568C457.592 831.165 458.103 831.659 458.725 831.659ZM468.643 833.909H465.874V830.773H464.348V833.909H462.396V835.23H464.348V843.94C464.348 846.08 466.036 847.196 467.714 847.196C468.345 847.196 468.771 847.077 469.061 846.966L468.737 845.594C468.524 845.653 468.251 845.713 467.851 845.713C466.82 845.713 465.874 845.227 465.874 843.582V835.23H468.643V833.909ZM473.146 851.901C474.782 851.901 475.984 850.963 476.683 849.071L482.231 833.935L480.577 833.909L476.691 844.997H476.572L472.685 833.909H471.04L475.856 847.128L475.379 848.457C474.663 850.426 473.631 850.776 472.089 850.281L471.68 851.628C471.987 851.764 472.549 851.901 473.146 851.901ZM326.354 879H327.871V870.614C327.871 868.577 329.227 867.128 331.042 867.128C332.832 867.128 333.871 868.321 333.871 870.094V879H335.423V870.384C335.423 868.5 336.548 867.128 338.542 867.128C340.272 867.128 341.423 868.168 341.423 870.23V879H342.94V870.23C342.94 867.298 341.431 865.739 339.002 865.739C337.093 865.739 335.712 866.668 335.124 868.116H335.013C334.434 866.634 333.283 865.739 331.477 865.739C329.763 865.739 328.485 866.565 327.965 867.92H327.829V865.909H326.354V879ZM352.044 879.273C355.436 879.273 357.805 876.503 357.805 872.514C357.805 868.5 355.436 865.73 352.044 865.73C348.652 865.73 346.283 868.5 346.283 872.514C346.283 876.503 348.652 879.273 352.044 879.273ZM352.044 877.884C349.325 877.884 347.808 875.446 347.808 872.514C347.808 869.582 349.325 867.111 352.044 867.111C354.763 867.111 356.28 869.582 356.28 872.514C356.28 875.446 354.763 877.884 352.044 877.884ZM362.653 870.818C362.653 868.534 364.153 867.128 366.215 867.128C368.227 867.128 369.522 868.474 369.522 870.614V879H371.039V870.52C371.039 867.418 369.241 865.739 366.599 865.739C364.681 865.739 363.36 866.625 362.746 867.963H362.61V865.909H361.136V879H362.653V870.818ZM375.051 879H376.577V865.909H375.051V879ZM375.827 863.659C376.449 863.659 376.969 863.165 376.969 862.568C376.969 861.972 376.449 861.477 375.827 861.477C375.205 861.477 374.693 861.972 374.693 862.568C374.693 863.165 375.205 863.659 375.827 863.659ZM385.745 865.909H382.975V862.773H381.45V865.909H379.498V867.23H381.45V875.94C381.45 878.08 383.137 879.196 384.816 879.196C385.447 879.196 385.873 879.077 386.163 878.966L385.839 877.594C385.626 877.653 385.353 877.713 384.952 877.713C383.921 877.713 382.975 877.227 382.975 875.582V867.23H385.745V865.909ZM394.138 879.273C397.53 879.273 399.899 876.503 399.899 872.514C399.899 868.5 397.53 865.73 394.138 865.73C390.746 865.73 388.376 868.5 388.376 872.514C388.376 876.503 390.746 879.273 394.138 879.273ZM394.138 877.884C391.419 877.884 389.902 875.446 389.902 872.514C389.902 869.582 391.419 867.111 394.138 867.111C396.857 867.111 398.374 869.582 398.374 872.514C398.374 875.446 396.857 877.884 394.138 877.884ZM403.229 879H404.746V870.545C404.746 868.602 406.238 867.196 408.283 867.196C408.684 867.196 409.059 867.264 409.195 867.281V865.739C408.991 865.73 408.641 865.713 408.394 865.713C406.749 865.713 405.343 866.599 404.815 867.92H404.704V865.909H403.229V879ZM411.801 879H413.327V865.909H411.801V879ZM412.577 863.659C413.199 863.659 413.719 863.165 413.719 862.568C413.719 861.972 413.199 861.477 412.577 861.477C411.955 861.477 411.443 861.972 411.443 862.568C411.443 863.165 411.955 863.659 412.577 863.659ZM418.856 870.818C418.856 868.534 420.356 867.128 422.418 867.128C424.43 867.128 425.725 868.474 425.725 870.614V879H427.242V870.52C427.242 867.418 425.444 865.739 422.802 865.739C420.884 865.739 419.563 866.625 418.95 867.963H418.813V865.909H417.339V879H418.856V870.818ZM436.232 884.182C439.334 884.182 441.635 882.665 441.635 879.341V865.909H440.152V868.406H439.999C439.462 867.23 438.379 865.73 435.976 865.73C432.737 865.73 430.564 868.44 430.564 872.42C430.564 876.435 432.814 878.864 435.95 878.864C438.303 878.864 439.453 877.5 439.973 876.298H440.109V879.247C440.109 881.685 438.55 882.818 436.232 882.818C433.99 882.818 432.916 881.736 432.362 880.739L431.118 881.557C431.885 883.057 433.555 884.182 436.232 884.182ZM436.129 877.474C433.53 877.474 432.089 875.395 432.089 872.395C432.089 869.446 433.504 867.111 436.129 867.111C438.695 867.111 440.135 869.327 440.135 872.395C440.135 875.557 438.652 877.474 436.129 877.474Z" fill="white"/>
<defs>
<filter id="filter0_f" x="98.1313" y="521.823" width="570.737" height="534.433" filterUnits="userSpaceOnUse" color-interpolation-filters="sRGB">
<feFlood flood-opacity="0" result="BackgroundImageFix"/>
<feBlend mode="normal" in="SourceGraphic" in2="BackgroundImageFix" result="shape"/>
<feGaussianBlur stdDeviation="21" result="effect1_foregroundBlur"/>
</filter>
<filter id="filter1_d" x="364.659" y="1035.66" width="37" height="37" filterUnits="userSpaceOnUse" color-interpolation-filters="sRGB">
<feFlood flood-opacity="0" result="BackgroundImageFix"/>
<feColorMatrix in="SourceAlpha" type="matrix" values="0 0 0 0 0 0 0 0 0 0 0 0 0 0 0 0 0 0 127 0"/>
<feOffset/>
<feGaussianBlur stdDeviation="4"/>
<feColorMatrix type="matrix" values="0 0 0 0 0.054902 0 0 0 0 0.741176 0 0 0 0 0.945098 0 0 0 0.8 0"/>
<feBlend mode="normal" in2="BackgroundImageFix" result="effect1_dropShadow"/>
<feBlend mode="normal" in="SourceGraphic" in2="effect1_dropShadow" result="shape"/>
</filter>
<filter id="filter2_d" x="515.66" y="990.659" width="37" height="37" filterUnits="userSpaceOnUse" color-interpolation-filters="sRGB">
<feFlood flood-opacity="0" result="BackgroundImageFix"/>
<feColorMatrix in="SourceAlpha" type="matrix" values="0 0 0 0 0 0 0 0 0 0 0 0 0 0 0 0 0 0 127 0"/>
<feOffset/>
<feGaussianBlur stdDeviation="4"/>
<feColorMatrix type="matrix" values="0 0 0 0 0.054902 0 0 0 0 0.741176 0 0 0 0 0.945098 0 0 0 0.8 0"/>
<feBlend mode="normal" in2="BackgroundImageFix" result="effect1_dropShadow"/>
<feBlend mode="normal" in="SourceGraphic" in2="effect1_dropShadow" result="shape"/>
</filter>
<filter id="filter3_d" x="213.66" y="990.659" width="37" height="37" filterUnits="userSpaceOnUse" color-interpolation-filters="sRGB">
<feFlood flood-opacity="0" result="BackgroundImageFix"/>
<feColorMatrix in="SourceAlpha" type="matrix" values="0 0 0 0 0 0 0 0 0 0 0 0 0 0 0 0 0 0 127 0"/>
<feOffset/>
<feGaussianBlur stdDeviation="4"/>
<feColorMatrix type="matrix" values="0 0 0 0 0.054902 0 0 0 0 0.741176 0 0 0 0 0.945098 0 0 0 0.8 0"/>
<feBlend mode="normal" in2="BackgroundImageFix" result="effect1_dropShadow"/>
<feBlend mode="normal" in="SourceGraphic" in2="effect1_dropShadow" result="shape"/>
</filter>
<filter id="filter4_d" x="613.66" y="876.659" width="37" height="37" filterUnits="userSpaceOnUse" color-interpolation-filters="sRGB">
<feFlood flood-opacity="0" result="BackgroundImageFix"/>
<feColorMatrix in="SourceAlpha" type="matrix" values="0 0 0 0 0 0 0 0 0 0 0 0 0 0 0 0 0 0 127 0"/>
<feOffset/>
<feGaussianBlur stdDeviation="4"/>
<feColorMatrix type="matrix" values="0 0 0 0 0.054902 0 0 0 0 0.741176 0 0 0 0 0.945098 0 0 0 0.8 0"/>
<feBlend mode="normal" in2="BackgroundImageFix" result="effect1_dropShadow"/>
<feBlend mode="normal" in="SourceGraphic" in2="effect1_dropShadow" result="shape"/>
</filter>
<filter id="filter5_d" x="387.66" y="505.659" width="37" height="37" filterUnits="userSpaceOnUse" color-interpolation-filters="sRGB">
<feFlood flood-opacity="0" result="BackgroundImageFix"/>
<feColorMatrix in="SourceAlpha" type="matrix" values="0 0 0 0 0 0 0 0 0 0 0 0 0 0 0 0 0 0 127 0"/>
<feOffset/>
<feGaussianBlur stdDeviation="4"/>
<feColorMatrix type="matrix" values="0 0 0 0 0.360784 0 0 0 0 0.780392 0 0 0 0 0.552941 0 0 0 1 0"/>
<feBlend mode="normal" in2="BackgroundImageFix" result="effect1_dropShadow"/>
<feBlend mode="normal" in="SourceGraphic" in2="effect1_dropShadow" result="shape"/>
</filter>
<filter id="filter6_d" x="531.66" y="561.659" width="37" height="37" filterUnits="userSpaceOnUse" color-interpolation-filters="sRGB">
<feFlood flood-opacity="0" result="BackgroundImageFix"/>
<feColorMatrix in="SourceAlpha" type="matrix" values="0 0 0 0 0 0 0 0 0 0 0 0 0 0 0 0 0 0 127 0"/>
<feOffset/>
<feGaussianBlur stdDeviation="4"/>
<feColorMatrix type="matrix" values="0 0 0 0 0.360784 0 0 0 0 0.780392 0 0 0 0 0.552941 0 0 0 1 0"/>
<feBlend mode="normal" in2="BackgroundImageFix" result="effect1_dropShadow"/>
<feBlend mode="normal" in="SourceGraphic" in2="effect1_dropShadow" result="shape"/>
</filter>
<filter id="filter7_d" x="227.66" y="541.659" width="37" height="37" filterUnits="userSpaceOnUse" color-interpolation-filters="sRGB">
<feFlood flood-opacity="0" result="BackgroundImageFix"/>
<feColorMatrix in="SourceAlpha" type="matrix" values="0 0 0 0 0 0 0 0 0 0 0 0 0 0 0 0 0 0 127 0"/>
<feOffset/>
<feGaussianBlur stdDeviation="4"/>
<feColorMatrix type="matrix" values="0 0 0 0 0.360784 0 0 0 0 0.780392 0 0 0 0 0.552941 0 0 0 1 0"/>
<feBlend mode="normal" in2="BackgroundImageFix" result="effect1_dropShadow"/>
<feBlend mode="normal" in="SourceGraphic" in2="effect1_dropShadow" result="shape"/>
</filter>
<filter id="filter8_d" x="123.66" y="657.659" width="37" height="37" filterUnits="userSpaceOnUse" color-interpolation-filters="sRGB">
<feFlood flood-opacity="0" result="BackgroundImageFix"/>
<feColorMatrix in="SourceAlpha" type="matrix" values="0 0 0 0 0 0 0 0 0 0 0 0 0 0 0 0 0 0 127 0"/>
<feOffset/>
<feGaussianBlur stdDeviation="4"/>
<feColorMatrix type="matrix" values="0 0 0 0 0.360784 0 0 0 0 0.780392 0 0 0 0 0.552941 0 0 0 1 0"/>
<feBlend mode="normal" in2="BackgroundImageFix" result="effect1_dropShadow"/>
<feBlend mode="normal" in="SourceGraphic" in2="effect1_dropShadow" result="shape"/>
</filter>
<linearGradient id="paint0_linear" x1="593.723" y1="789.039" x2="173.277" y2="789.039" gradientUnits="userSpaceOnUse">
<stop stop-color="#0EBDF1"/>
<stop offset="1" stop-color="#5CC78D"/>
</linearGradient>
<radialGradient id="paint1_radial" cx="0" cy="0" r="1" gradientUnits="userSpaceOnUse" gradientTransform="translate(383.502 567.039) rotate(90) scale(444.091 277.557)">
<stop stop-color="#0EBDF1" stop-opacity="0.2"/>
<stop offset="1" stop-color="#FF26C2" stop-opacity="0"/>
</radialGradient>
<linearGradient id="paint2_linear" x1="605.547" y1="789.084" x2="161.456" y2="789.084" gradientUnits="userSpaceOnUse">
<stop stop-color="#0EBDF1"/>
<stop offset="1" stop-color="#5CC78D"/>
</linearGradient>
</defs>
</svg>
