<svg width="1083" height="587" viewBox="0 0 1083 587" fill="none" xmlns="http://www.w3.org/2000/svg">
<g clip-path="url(#clip0)">
<g opacity="0.4" filter="url(#filter0_f)">
<ellipse cx="547.88" cy="291.659" rx="210.223" ry="231.125" transform="rotate(15 547.88 291.659)" stroke="url(#paint0_linear)" stroke-width="27"/>
</g>
<circle cx="547.925" cy="291.658" r="222.045" fill="#0C242C"/>
<circle cx="547.925" cy="291.658" r="222.045" fill="url(#paint1_radial)"/>
<circle cx="547.925" cy="291.658" r="216.045" stroke="url(#paint2_linear)" stroke-width="12"/>
<path d="M654.786 46.3235C690.598 62.4727 722.446 86.256 748.101 116.008C773.755 145.759 792.595 180.76 803.3 218.558C814.006 256.356 816.318 296.038 810.076 334.823C803.834 373.609 789.187 410.561 767.162 443.092" stroke="#0EBDF1" stroke-linecap="round" stroke-linejoin="round" stroke-dasharray="2 4"/>
<g filter="url(#filter1_d)">
<circle cx="813" cy="292.002" r="8" transform="rotate(-180 813 292.002)" fill="white"/>
<circle cx="813" cy="292.002" r="8" transform="rotate(-180 813 292.002)" stroke="#0EBDF1" stroke-width="5"/>
</g>
<g filter="url(#filter2_d)">
<circle cx="768" cy="141" r="8" transform="rotate(-180 768 141)" fill="white"/>
<circle cx="768" cy="141" r="8" transform="rotate(-180 768 141)" stroke="#0EBDF1" stroke-width="5"/>
</g>
<g filter="url(#filter3_d)">
<circle cx="768" cy="443" r="8" transform="rotate(-180 768 443)" fill="white"/>
<circle cx="768" cy="443" r="8" transform="rotate(-180 768 443)" stroke="#0EBDF1" stroke-width="5"/>
</g>
<g filter="url(#filter4_d)">
<circle cx="654" cy="43" r="8" transform="rotate(-180 654 43)" fill="white"/>
<circle cx="654" cy="43" r="8" transform="rotate(-180 654 43)" stroke="#0EBDF1" stroke-width="5"/>
</g>
<path d="M436.402 536.389C399.431 519.204 366.841 493.855 341.086 462.25C315.33 430.646 297.081 393.61 287.712 353.931C278.343 314.252 278.099 272.965 286.998 233.178C295.896 193.391 313.706 156.142 339.085 124.235" stroke="#5CC78D" stroke-linecap="round" stroke-linejoin="round" stroke-dasharray="2 4"/>
<g filter="url(#filter5_d)">
<circle cx="283" cy="269" r="8" fill="white"/>
<circle cx="283" cy="269" r="8" stroke="#5CC78D" stroke-width="5"/>
</g>
<g filter="url(#filter6_d)">
<circle cx="339" cy="125" r="8" fill="white"/>
<circle cx="339" cy="125" r="8" stroke="#5CC78D" stroke-width="5"/>
</g>
<g filter="url(#filter7_d)">
<circle cx="319" cy="429" r="8" fill="white"/>
<circle cx="319" cy="429" r="8" stroke="#5CC78D" stroke-width="5"/>
</g>
<g filter="url(#filter8_d)">
<circle cx="435" cy="533" r="8" fill="white"/>
<circle cx="435" cy="533" r="8" stroke="#5CC78D" stroke-width="5"/>
</g>
<path d="M190.521 43H200.464C205.691 43 208.475 40.2727 208.475 36.5682C208.475 33.125 206.009 31.0455 203.361 30.9205V30.6932C205.782 30.1477 207.566 28.4318 207.566 25.6932C207.566 22.2045 204.975 19.7273 199.839 19.7273H190.521V43ZM195.441 38.9773V32.7955H199.566C201.93 32.7955 203.396 34.1591 203.396 36.0795C203.396 37.8295 202.202 38.9773 199.452 38.9773H195.441ZM195.441 29.4659V23.7045H199.18C201.361 23.7045 202.6 24.8295 202.6 26.5114C202.6 28.3523 201.1 29.4659 199.089 29.4659H195.441ZM211.586 43H216.427V25.5455H211.586V43ZM214.018 23.2955C215.461 23.2955 216.643 22.1932 216.643 20.8409C216.643 19.5 215.461 18.3977 214.018 18.3977C212.586 18.3977 211.404 19.5 211.404 20.8409C211.404 22.1932 212.586 23.2955 214.018 23.2955ZM228.191 43.3409C233.486 43.3409 236.782 39.7159 236.782 34.3409C236.782 28.9318 233.486 25.3182 228.191 25.3182C222.896 25.3182 219.6 28.9318 219.6 34.3409C219.6 39.7159 222.896 43.3409 228.191 43.3409ZM228.214 39.5909C225.771 39.5909 224.521 37.3523 224.521 34.3068C224.521 31.2614 225.771 29.0114 228.214 29.0114C230.611 29.0114 231.861 31.2614 231.861 34.3068C231.861 37.3523 230.611 39.5909 228.214 39.5909ZM244.771 19.7273H239.93V43H244.771V19.7273ZM256.535 43.3409C261.83 43.3409 265.126 39.7159 265.126 34.3409C265.126 28.9318 261.83 25.3182 256.535 25.3182C251.239 25.3182 247.944 28.9318 247.944 34.3409C247.944 39.7159 251.239 43.3409 256.535 43.3409ZM256.557 39.5909C254.114 39.5909 252.864 37.3523 252.864 34.3068C252.864 31.2614 254.114 29.0114 256.557 29.0114C258.955 29.0114 260.205 31.2614 260.205 34.3068C260.205 37.3523 258.955 39.5909 256.557 39.5909ZM276.137 49.7955C281.126 49.7955 284.671 47.5227 284.671 43.1705V25.5455H279.864V28.4773H279.682C279.035 27.0568 277.614 25.3182 274.694 25.3182C270.864 25.3182 267.626 28.2955 267.626 34.2386C267.626 40.0455 270.773 42.75 274.705 42.75C277.489 42.75 279.046 41.3523 279.682 39.9091H279.887V43.1023C279.887 45.3864 278.353 46.3182 276.251 46.3182C274.114 46.3182 273.035 45.3864 272.637 44.4432L268.16 45.0455C268.739 47.6818 271.432 49.7955 276.137 49.7955ZM276.239 39.1136C273.864 39.1136 272.569 37.2273 272.569 34.2159C272.569 31.25 273.842 29.1705 276.239 29.1705C278.592 29.1705 279.91 31.1591 279.91 34.2159C279.91 37.2955 278.569 39.1136 276.239 39.1136ZM288.523 43H293.364V25.5455H288.523V43ZM290.955 23.2955C292.398 23.2955 293.58 22.1932 293.58 20.8409C293.58 19.5 292.398 18.3977 290.955 18.3977C289.523 18.3977 288.342 19.5 288.342 20.8409C288.342 22.1932 289.523 23.2955 290.955 23.2955ZM305.128 43.3409C309.776 43.3409 312.697 40.6136 312.924 36.6023H308.356C308.072 38.4659 306.844 39.5114 305.185 39.5114C302.924 39.5114 301.458 37.6136 301.458 34.2727C301.458 30.9773 302.935 29.0909 305.185 29.0909C306.958 29.0909 308.094 30.2614 308.356 32H312.924C312.719 27.9659 309.663 25.3182 305.106 25.3182C299.81 25.3182 296.538 28.9886 296.538 34.3409C296.538 39.6477 299.753 43.3409 305.128 43.3409ZM321.001 43.3295C323.58 43.3295 325.251 42.2045 326.103 40.5795H326.239V43H330.83V31.2273C330.83 27.0682 327.307 25.3182 323.421 25.3182C319.239 25.3182 316.489 27.3182 315.819 30.5L320.296 30.8636C320.626 29.7045 321.66 28.8523 323.398 28.8523C325.046 28.8523 325.989 29.6818 325.989 31.1136V31.1818C325.989 32.3068 324.796 32.4545 321.762 32.75C318.307 33.0682 315.205 34.2273 315.205 38.125C315.205 41.5795 317.671 43.3295 321.001 43.3295ZM322.387 39.9886C320.898 39.9886 319.83 39.2955 319.83 37.9659C319.83 36.6023 320.955 35.9318 322.66 35.6932C323.717 35.5455 325.444 35.2955 326.023 34.9091V36.7614C326.023 38.5909 324.512 39.9886 322.387 39.9886ZM339.427 19.7273H334.586V43H339.427V19.7273ZM237.771 62.4205H242.486C242.418 58.2727 239.009 55.4091 233.827 55.4091C228.725 55.4091 224.986 58.2273 225.009 62.4545C224.998 65.8864 227.418 67.8523 231.35 68.7955L233.884 69.4318C236.418 70.0455 237.827 70.7727 237.839 72.3409C237.827 74.0455 236.214 75.2045 233.714 75.2045C231.157 75.2045 229.316 74.0227 229.157 71.6932H224.396C224.521 76.7273 228.123 79.3295 233.771 79.3295C239.452 79.3295 242.793 76.6136 242.805 72.3523C242.793 68.4773 239.873 66.4205 235.827 65.5114L233.736 65.0114C231.714 64.5455 230.021 63.7955 230.055 62.125C230.055 60.625 231.384 59.5227 233.793 59.5227C236.146 59.5227 237.589 60.5909 237.771 62.4205ZM249.012 85.5114C252.614 85.5114 254.535 83.6818 255.512 80.8864L262.296 61.5682L257.171 61.5455L253.523 74.3636H253.342L249.728 61.5455H244.637L250.898 79.5L250.614 80.2386C249.932 81.8182 248.762 81.9318 247.057 81.3977L245.967 85.0227C246.66 85.3068 247.785 85.5114 249.012 85.5114ZM279.296 66.5227C278.864 63.3068 276.273 61.3182 271.864 61.3182C267.398 61.3182 264.455 63.3864 264.467 66.75C264.455 69.3636 266.103 71.0568 269.512 71.7386L272.535 72.3409C274.057 72.6477 274.751 73.2045 274.773 74.0795C274.751 75.1136 273.626 75.8523 271.932 75.8523C270.205 75.8523 269.057 75.1136 268.762 73.6932L264.001 73.9432C264.455 77.2841 267.296 79.3409 271.921 79.3409C276.444 79.3409 279.682 77.0341 279.694 73.5909C279.682 71.0682 278.035 69.5568 274.648 68.8636L271.489 68.2273C269.864 67.875 269.262 67.3182 269.273 66.4773C269.262 65.4318 270.444 64.75 271.944 64.75C273.626 64.75 274.626 65.6705 274.864 66.7955L279.296 66.5227ZM292.026 61.5455H288.742V57.3636H283.901V61.5455H281.515V65.1818H283.901V74.2727C283.878 77.6932 286.208 79.3864 289.719 79.2386C290.969 79.1932 291.856 78.9432 292.344 78.7841L291.583 75.1818C291.344 75.2273 290.833 75.3409 290.378 75.3409C289.413 75.3409 288.742 74.9773 288.742 73.6364V65.1818H292.026V61.5455ZM302.947 79.3409C307.265 79.3409 310.174 77.2386 310.856 74L306.378 73.7045C305.89 75.0341 304.64 75.7273 303.026 75.7273C300.606 75.7273 299.072 74.125 299.072 71.5227V71.5114H310.958V70.1818C310.958 64.25 307.367 61.3182 302.753 61.3182C297.617 61.3182 294.288 64.9659 294.288 70.3523C294.288 75.8864 297.572 79.3409 302.947 79.3409ZM299.072 68.5114C299.174 66.5227 300.685 64.9318 302.833 64.9318C304.935 64.9318 306.39 66.4318 306.401 68.5114H299.072ZM314.117 79H318.958V68.5227C318.958 66.5909 320.185 65.3068 321.799 65.3068C323.39 65.3068 324.458 66.3977 324.458 68.1136V79H329.151V68.3409C329.151 66.5341 330.185 65.3068 331.947 65.3068C333.492 65.3068 334.651 66.2727 334.651 68.2159V79H339.481V67.2614C339.481 63.4773 337.231 61.3182 333.981 61.3182C331.424 61.3182 329.435 62.625 328.719 64.625H328.538C327.981 62.6023 326.197 61.3182 323.799 61.3182C321.447 61.3182 319.663 62.5682 318.935 64.625H318.731V61.5455H314.117V79Z" fill="#5CC78D"/>
<path d="M132.963 127H137.167C139.917 127 141.054 125.659 141.054 123.909C141.054 122.068 139.781 121.068 138.713 121V120.886C139.713 120.614 140.599 119.955 140.599 118.455C140.599 116.75 139.463 115.364 137.031 115.364H132.963V127ZM134.372 125.75V121.705H137.236C138.758 121.705 139.713 122.727 139.713 123.909C139.713 124.932 139.008 125.75 137.167 125.75H134.372ZM134.372 120.477V116.614H137.031C138.576 116.614 139.258 117.432 139.258 118.455C139.258 119.682 138.258 120.477 136.986 120.477H134.372ZM145.915 127.205C147.438 127.205 148.234 126.386 148.506 125.818H148.575V127H149.915V121.25C149.915 118.477 147.802 118.159 146.688 118.159C145.37 118.159 143.87 118.614 143.188 120.205L144.461 120.659C144.756 120.023 145.455 119.341 146.734 119.341C147.967 119.341 148.575 119.994 148.575 121.114V121.159C148.575 121.807 147.915 121.75 146.325 121.955C144.705 122.165 142.938 122.523 142.938 124.523C142.938 126.227 144.256 127.205 145.915 127.205ZM146.12 126C145.052 126 144.279 125.523 144.279 124.591C144.279 123.568 145.211 123.25 146.256 123.114C146.825 123.045 148.347 122.886 148.575 122.614V123.841C148.575 124.932 147.711 126 146.12 126ZM156.068 127.182C158 127.182 159.273 126 159.5 124.455H158.159C157.909 125.409 157.114 125.977 156.068 125.977C154.477 125.977 153.455 124.659 153.455 122.636C153.455 120.659 154.5 119.364 156.068 119.364C157.25 119.364 157.955 120.091 158.159 120.886H159.5C159.273 119.25 157.887 118.159 156.046 118.159C153.682 118.159 152.114 120.023 152.114 122.682C152.114 125.295 153.614 127.182 156.068 127.182ZM165.416 118.273H163.552V116.182H162.211V118.273H160.893V119.409H162.211V124.864C162.211 126.386 163.439 127.114 164.575 127.114C165.075 127.114 165.393 127.023 165.575 126.955L165.302 125.75C165.189 125.773 165.007 125.818 164.711 125.818C164.12 125.818 163.552 125.636 163.552 124.5V119.409H165.416V118.273ZM171.158 127.182C172.931 127.182 174.226 126.295 174.636 124.977L173.34 124.614C172.999 125.523 172.209 125.977 171.158 125.977C169.584 125.977 168.499 124.96 168.437 123.091H174.772V122.523C174.772 119.273 172.84 118.159 171.022 118.159C168.658 118.159 167.09 120.023 167.09 122.705C167.09 125.386 168.636 127.182 171.158 127.182ZM168.437 121.932C168.528 120.574 169.488 119.364 171.022 119.364C172.476 119.364 173.408 120.455 173.408 121.932H168.437ZM176.972 127H178.313V121.477C178.313 120.295 179.244 119.432 180.517 119.432C180.875 119.432 181.244 119.5 181.335 119.523V118.159C181.182 118.148 180.83 118.136 180.631 118.136C179.585 118.136 178.676 118.727 178.358 119.591H178.267V118.273H176.972V127ZM183.085 127H184.426V118.273H183.085V127ZM183.767 116.818C184.289 116.818 184.721 116.409 184.721 115.909C184.721 115.409 184.289 115 183.767 115C183.244 115 182.812 115.409 182.812 115.909C182.812 116.409 183.244 116.818 183.767 116.818ZM189.61 127.205C191.133 127.205 191.928 126.386 192.201 125.818H192.269V127H193.61V121.25C193.61 118.477 191.496 118.159 190.383 118.159C189.064 118.159 187.564 118.614 186.883 120.205L188.155 120.659C188.451 120.023 189.15 119.341 190.428 119.341C191.661 119.341 192.269 119.994 192.269 121.114V121.159C192.269 121.807 191.61 121.75 190.019 121.955C188.4 122.165 186.633 122.523 186.633 124.523C186.633 126.227 187.951 127.205 189.61 127.205ZM189.814 126C188.746 126 187.973 125.523 187.973 124.591C187.973 123.568 188.905 123.25 189.951 123.114C190.519 123.045 192.042 122.886 192.269 122.614V123.841C192.269 124.932 191.405 126 189.814 126ZM197.558 115.364H196.217V127H197.558V115.364ZM208.493 127.182C210.266 127.182 211.561 126.295 211.971 124.977L210.675 124.614C210.334 125.523 209.544 125.977 208.493 125.977C206.919 125.977 205.834 124.96 205.772 123.091H212.107V122.523C212.107 119.273 210.175 118.159 208.357 118.159C205.993 118.159 204.425 120.023 204.425 122.705C204.425 125.386 205.971 127.182 208.493 127.182ZM205.772 121.932C205.863 120.574 206.823 119.364 208.357 119.364C209.811 119.364 210.743 120.455 210.743 121.932H205.772ZM215.072 118.273H213.527L216.3 122.636L213.527 127H215.072L217.163 123.614L219.254 127H220.8L217.981 122.636L220.8 118.273H219.254L217.163 121.841L215.072 118.273ZM226.668 118.273H224.805V116.182H223.464V118.273H222.146V119.409H223.464V124.864C223.464 126.386 224.691 127.114 225.827 127.114C226.327 127.114 226.646 127.023 226.827 126.955L226.555 125.75C226.441 125.773 226.259 125.818 225.964 125.818C225.373 125.818 224.805 125.636 224.805 124.5V119.409H226.668V118.273ZM228.845 127H230.186V121.477C230.186 120.295 231.118 119.432 232.391 119.432C232.749 119.432 233.118 119.5 233.209 119.523V118.159C233.056 118.148 232.703 118.136 232.504 118.136C231.459 118.136 230.55 118.727 230.232 119.591H230.141V118.273H228.845V127ZM237.527 127.205C239.049 127.205 239.845 126.386 240.118 125.818H240.186V127H241.527V121.25C241.527 118.477 239.413 118.159 238.299 118.159C236.981 118.159 235.481 118.614 234.799 120.205L236.072 120.659C236.368 120.023 237.066 119.341 238.345 119.341C239.578 119.341 240.186 119.994 240.186 121.114V121.159C240.186 121.807 239.527 121.75 237.936 121.955C236.316 122.165 234.549 122.523 234.549 124.523C234.549 126.227 235.868 127.205 237.527 127.205ZM237.731 126C236.663 126 235.89 125.523 235.89 124.591C235.89 123.568 236.822 123.25 237.868 123.114C238.436 123.045 239.959 122.886 240.186 122.614V123.841C240.186 124.932 239.322 126 237.731 126ZM247.68 127.182C249.611 127.182 250.884 126 251.111 124.455H249.771C249.521 125.409 248.725 125.977 247.68 125.977C246.089 125.977 245.066 124.659 245.066 122.636C245.066 120.659 246.111 119.364 247.68 119.364C248.861 119.364 249.566 120.091 249.771 120.886H251.111C250.884 119.25 249.498 118.159 247.657 118.159C245.293 118.159 243.725 120.023 243.725 122.682C243.725 125.295 245.225 127.182 247.68 127.182ZM257.027 118.273H255.163V116.182H253.823V118.273H252.504V119.409H253.823V124.864C253.823 126.386 255.05 127.114 256.186 127.114C256.686 127.114 257.004 127.023 257.186 126.955L256.913 125.75C256.8 125.773 256.618 125.818 256.323 125.818C255.732 125.818 255.163 125.636 255.163 124.5V119.409H257.027V118.273ZM259.204 127H260.545V118.273H259.204V127ZM259.886 116.818C260.409 116.818 260.841 116.409 260.841 115.909C260.841 115.409 260.409 115 259.886 115C259.363 115 258.931 115.409 258.931 115.909C258.931 116.409 259.363 116.818 259.886 116.818ZM266.706 127.182C269.07 127.182 270.661 125.386 270.661 122.682C270.661 119.955 269.07 118.159 266.706 118.159C264.343 118.159 262.752 119.955 262.752 122.682C262.752 125.386 264.343 127.182 266.706 127.182ZM266.706 125.977C264.911 125.977 264.093 124.432 264.093 122.682C264.093 120.932 264.911 119.364 266.706 119.364C268.502 119.364 269.32 120.932 269.32 122.682C269.32 124.432 268.502 125.977 266.706 125.977ZM274.209 121.75C274.209 120.227 275.152 119.364 276.436 119.364C277.68 119.364 278.436 120.176 278.436 121.545V127H279.777V121.455C279.777 119.227 278.589 118.159 276.822 118.159C275.504 118.159 274.686 118.75 274.277 119.636H274.163V118.273H272.868V127H274.209V121.75Z" fill="white"/>
<path d="M70.7441 259.364V271H72.0623V262.159H72.1759L75.8123 271H77.085L80.7214 262.159H80.835V271H82.1532V259.364H80.4714L76.5168 269.023H76.3805L72.4259 259.364H70.7441ZM88.6157 271.182C90.3885 271.182 91.6839 270.295 92.093 268.977L90.7976 268.614C90.4567 269.523 89.6669 269.977 88.6157 269.977C87.0419 269.977 85.9567 268.96 85.8942 267.091H92.2294V266.523C92.2294 263.273 90.2976 262.159 88.4794 262.159C86.1157 262.159 84.5476 264.023 84.5476 266.705C84.5476 269.386 86.093 271.182 88.6157 271.182ZM85.8942 265.932C85.9851 264.574 86.9453 263.364 88.4794 263.364C89.9339 263.364 90.8657 264.455 90.8657 265.932H85.8942ZM98.2246 262.273H96.361V260.182H95.0201V262.273H93.7019V263.409H95.0201V268.864C95.0201 270.386 96.2473 271.114 97.3837 271.114C97.8837 271.114 98.2019 271.023 98.3837 270.955L98.111 269.75C97.9973 269.773 97.8155 269.818 97.5201 269.818C96.9292 269.818 96.361 269.636 96.361 268.5V263.409H98.2246V262.273ZM102.97 271.205C104.493 271.205 105.288 270.386 105.561 269.818H105.629V271H106.97V265.25C106.97 262.477 104.856 262.159 103.743 262.159C102.424 262.159 100.924 262.614 100.243 264.205L101.515 264.659C101.811 264.023 102.51 263.341 103.788 263.341C105.021 263.341 105.629 263.994 105.629 265.114V265.159C105.629 265.807 104.97 265.75 103.379 265.955C101.76 266.165 99.9926 266.523 99.9926 268.523C99.9926 270.227 101.311 271.205 102.97 271.205ZM103.174 270C102.106 270 101.333 269.523 101.333 268.591C101.333 267.568 102.265 267.25 103.311 267.114C103.879 267.045 105.402 266.886 105.629 266.614V267.841C105.629 268.932 104.765 270 103.174 270ZM109.759 271H111.055V269.659H111.214C111.509 270.136 112.077 271.182 113.759 271.182C115.941 271.182 117.464 269.432 117.464 266.659C117.464 263.909 115.941 262.159 113.736 262.159C112.032 262.159 111.509 263.205 111.214 263.659H111.1V259.364H109.759V271ZM111.077 266.636C111.077 264.682 111.941 263.364 113.577 263.364C115.282 263.364 116.123 264.795 116.123 266.636C116.123 268.5 115.259 269.977 113.577 269.977C111.964 269.977 111.077 268.614 111.077 266.636ZM123.22 271.182C125.584 271.182 127.175 269.386 127.175 266.682C127.175 263.955 125.584 262.159 123.22 262.159C120.857 262.159 119.266 263.955 119.266 266.682C119.266 269.386 120.857 271.182 123.22 271.182ZM123.22 269.977C121.425 269.977 120.607 268.432 120.607 266.682C120.607 264.932 121.425 263.364 123.22 263.364C125.016 263.364 125.834 264.932 125.834 266.682C125.834 268.432 125.016 269.977 123.22 269.977ZM130.723 259.364H129.382V271H130.723V259.364ZM133.339 271H134.679V262.273H133.339V271ZM134.02 260.818C134.543 260.818 134.975 260.409 134.975 259.909C134.975 259.409 134.543 259 134.02 259C133.498 259 133.066 259.409 133.066 259.909C133.066 260.409 133.498 260.818 134.02 260.818ZM140.841 271.182C142.773 271.182 144.045 270 144.273 268.455H142.932C142.682 269.409 141.886 269.977 140.841 269.977C139.25 269.977 138.227 268.659 138.227 266.636C138.227 264.659 139.273 263.364 140.841 263.364C142.023 263.364 142.727 264.091 142.932 264.886H144.273C144.045 263.25 142.659 262.159 140.818 262.159C138.454 262.159 136.886 264.023 136.886 266.682C136.886 269.295 138.386 271.182 140.841 271.182ZM153.621 271.205C155.144 271.205 155.939 270.386 156.212 269.818H156.28V271H157.621V265.25C157.621 262.477 155.507 262.159 154.394 262.159C153.076 262.159 151.576 262.614 150.894 264.205L152.167 264.659C152.462 264.023 153.161 263.341 154.439 263.341C155.672 263.341 156.28 263.994 156.28 265.114V265.159C156.28 265.807 155.621 265.75 154.03 265.955C152.411 266.165 150.644 266.523 150.644 268.523C150.644 270.227 151.962 271.205 153.621 271.205ZM153.826 270C152.757 270 151.985 269.523 151.985 268.591C151.985 267.568 152.917 267.25 153.962 267.114C154.53 267.045 156.053 266.886 156.28 266.614V267.841C156.28 268.932 155.417 270 153.826 270ZM163.774 271.182C165.706 271.182 166.979 270 167.206 268.455H165.865C165.615 269.409 164.819 269.977 163.774 269.977C162.183 269.977 161.16 268.659 161.16 266.636C161.16 264.659 162.206 263.364 163.774 263.364C164.956 263.364 165.66 264.091 165.865 264.886H167.206C166.979 263.25 165.592 262.159 163.751 262.159C161.388 262.159 159.819 264.023 159.819 266.682C159.819 269.295 161.319 271.182 163.774 271.182ZM173.121 262.273H171.258V260.182H169.917V262.273H168.599V263.409H169.917V268.864C169.917 270.386 171.144 271.114 172.281 271.114C172.781 271.114 173.099 271.023 173.281 270.955L173.008 269.75C172.894 269.773 172.712 269.818 172.417 269.818C171.826 269.818 171.258 269.636 171.258 268.5V263.409H173.121V262.273ZM175.299 271H176.639V262.273H175.299V271ZM175.98 260.818C176.503 260.818 176.935 260.409 176.935 259.909C176.935 259.409 176.503 259 175.98 259C175.458 259 175.026 259.409 175.026 259.909C175.026 260.409 175.458 260.818 175.98 260.818ZM186.392 262.273H184.937L182.528 269.227H182.437L180.028 262.273H178.574L181.801 271H183.164L186.392 262.273ZM190.624 271.205C192.147 271.205 192.942 270.386 193.215 269.818H193.283V271H194.624V265.25C194.624 262.477 192.511 262.159 191.397 262.159C190.079 262.159 188.579 262.614 187.897 264.205L189.17 264.659C189.465 264.023 190.164 263.341 191.442 263.341C192.675 263.341 193.283 263.994 193.283 265.114V265.159C193.283 265.807 192.624 265.75 191.033 265.955C189.414 266.165 187.647 266.523 187.647 268.523C187.647 270.227 188.965 271.205 190.624 271.205ZM190.829 270C189.761 270 188.988 269.523 188.988 268.591C188.988 267.568 189.92 267.25 190.965 267.114C191.533 267.045 193.056 266.886 193.283 266.614V267.841C193.283 268.932 192.42 270 190.829 270ZM201.027 262.273H199.163V260.182H197.823V262.273H196.504V263.409H197.823V268.864C197.823 270.386 199.05 271.114 200.186 271.114C200.686 271.114 201.004 271.023 201.186 270.955L200.913 269.75C200.8 269.773 200.618 269.818 200.323 269.818C199.732 269.818 199.163 269.636 199.163 268.5V263.409H201.027V262.273ZM203.204 271H204.545V262.273H203.204V271ZM203.886 260.818C204.409 260.818 204.841 260.409 204.841 259.909C204.841 259.409 204.409 259 203.886 259C203.363 259 202.931 259.409 202.931 259.909C202.931 260.409 203.363 260.818 203.886 260.818ZM210.706 271.182C213.07 271.182 214.661 269.386 214.661 266.682C214.661 263.955 213.07 262.159 210.706 262.159C208.343 262.159 206.752 263.955 206.752 266.682C206.752 269.386 208.343 271.182 210.706 271.182ZM210.706 269.977C208.911 269.977 208.093 268.432 208.093 266.682C208.093 264.932 208.911 263.364 210.706 263.364C212.502 263.364 213.32 264.932 213.32 266.682C213.32 268.432 212.502 269.977 210.706 269.977ZM218.209 265.75C218.209 264.227 219.152 263.364 220.436 263.364C221.68 263.364 222.436 264.176 222.436 265.545V271H223.777V265.455C223.777 263.227 222.589 262.159 220.822 262.159C219.504 262.159 218.686 262.75 218.277 263.636H218.163V262.273H216.868V271H218.209V265.75Z" fill="white"/>
<path d="M131.229 425H132.684C132.252 422.75 130.366 421.205 127.911 421.205C124.928 421.205 122.82 423.5 122.82 427.182C122.82 430.864 124.911 433.159 128.002 433.159C130.775 433.159 132.752 431.312 132.752 428.432V427.182H128.32V428.432H131.388C131.349 430.523 129.974 431.841 128.002 431.841C125.843 431.841 124.184 430.205 124.184 427.182C124.184 424.159 125.843 422.523 127.911 422.523C129.593 422.523 130.735 423.472 131.229 425ZM135.144 433H136.484V427.477C136.484 426.295 137.416 425.432 138.689 425.432C139.047 425.432 139.416 425.5 139.507 425.523V424.159C139.354 424.148 139.001 424.136 138.803 424.136C137.757 424.136 136.848 424.727 136.53 425.591H136.439V424.273H135.144V433ZM144.536 433.182C146.9 433.182 148.491 431.386 148.491 428.682C148.491 425.955 146.9 424.159 144.536 424.159C142.173 424.159 140.582 425.955 140.582 428.682C140.582 431.386 142.173 433.182 144.536 433.182ZM144.536 431.977C142.741 431.977 141.923 430.432 141.923 428.682C141.923 426.932 142.741 425.364 144.536 425.364C146.332 425.364 147.15 426.932 147.15 428.682C147.15 430.432 146.332 431.977 144.536 431.977ZM152.378 433H153.696L155.606 426.295H155.742L157.651 433H158.969L161.628 424.273H160.219L158.333 430.932H158.242L156.401 424.273H154.969L153.106 430.955H153.015L151.128 424.273H149.719L152.378 433ZM167.356 424.273H165.493V422.182H164.152V424.273H162.834V425.409H164.152V430.864C164.152 432.386 165.379 433.114 166.516 433.114C167.016 433.114 167.334 433.023 167.516 432.955L167.243 431.75C167.129 431.773 166.947 431.818 166.652 431.818C166.061 431.818 165.493 431.636 165.493 430.5V425.409H167.356V424.273ZM171.062 427.75C171.062 426.227 172.034 425.364 173.357 425.364C174.619 425.364 175.38 426.159 175.38 427.545V433H176.721V427.455C176.721 425.21 175.528 424.159 173.744 424.159C172.369 424.159 171.585 424.733 171.176 425.636H171.062V421.364H169.721V433H171.062V427.75ZM183.994 436.273H185.335V431.659H185.449C185.744 432.136 186.312 433.182 187.994 433.182C190.176 433.182 191.699 431.432 191.699 428.659C191.699 425.909 190.176 424.159 187.971 424.159C186.267 424.159 185.744 425.205 185.449 425.659H185.29V424.273H183.994V436.273ZM185.312 428.636C185.312 426.682 186.176 425.364 187.812 425.364C189.517 425.364 190.358 426.795 190.358 428.636C190.358 430.5 189.494 431.977 187.812 431.977C186.199 431.977 185.312 430.614 185.312 428.636ZM193.904 433H195.245V427.477C195.245 426.295 196.177 425.432 197.45 425.432C197.808 425.432 198.177 425.5 198.268 425.523V424.159C198.114 424.148 197.762 424.136 197.563 424.136C196.518 424.136 195.609 424.727 195.291 425.591H195.2V424.273H193.904V433ZM203.297 433.182C205.661 433.182 207.252 431.386 207.252 428.682C207.252 425.955 205.661 424.159 203.297 424.159C200.933 424.159 199.343 425.955 199.343 428.682C199.343 431.386 200.933 433.182 203.297 433.182ZM203.297 431.977C201.502 431.977 200.683 430.432 200.683 428.682C200.683 426.932 201.502 425.364 203.297 425.364C205.093 425.364 205.911 426.932 205.911 428.682C205.911 430.432 205.093 431.977 203.297 431.977ZM209.459 433H210.799V427.545C210.799 426.267 211.731 425.364 212.777 425.364C213.794 425.364 214.504 426.028 214.504 427.023V433H215.868V427.318C215.868 426.193 216.572 425.364 217.799 425.364C218.754 425.364 219.572 425.869 219.572 427.159V433H220.913V427.159C220.913 425.108 219.811 424.159 218.254 424.159C217.004 424.159 216.089 424.733 215.64 425.636H215.549C215.118 424.705 214.356 424.159 213.209 424.159C212.072 424.159 211.231 424.705 210.868 425.636H210.754V424.273H209.459V433ZM227.07 433.182C229.434 433.182 231.025 431.386 231.025 428.682C231.025 425.955 229.434 424.159 227.07 424.159C224.707 424.159 223.116 425.955 223.116 428.682C223.116 431.386 224.707 433.182 227.07 433.182ZM227.07 431.977C225.275 431.977 224.457 430.432 224.457 428.682C224.457 426.932 225.275 425.364 227.07 425.364C228.866 425.364 229.684 426.932 229.684 428.682C229.684 430.432 228.866 431.977 227.07 431.977ZM237.027 424.273H235.163V422.182H233.823V424.273H232.504V425.409H233.823V430.864C233.823 432.386 235.05 433.114 236.186 433.114C236.686 433.114 237.004 433.023 237.186 432.955L236.913 431.75C236.8 431.773 236.618 431.818 236.323 431.818C235.732 431.818 235.163 431.636 235.163 430.5V425.409H237.027V424.273ZM239.204 433H240.545V424.273H239.204V433ZM239.886 422.818C240.409 422.818 240.841 422.409 240.841 421.909C240.841 421.409 240.409 421 239.886 421C239.363 421 238.931 421.409 238.931 421.909C238.931 422.409 239.363 422.818 239.886 422.818ZM246.706 433.182C249.07 433.182 250.661 431.386 250.661 428.682C250.661 425.955 249.07 424.159 246.706 424.159C244.343 424.159 242.752 425.955 242.752 428.682C242.752 431.386 244.343 433.182 246.706 433.182ZM246.706 431.977C244.911 431.977 244.093 430.432 244.093 428.682C244.093 426.932 244.911 425.364 246.706 425.364C248.502 425.364 249.32 426.932 249.32 428.682C249.32 430.432 248.502 431.977 246.706 431.977ZM254.209 427.75C254.209 426.227 255.152 425.364 256.436 425.364C257.68 425.364 258.436 426.176 258.436 427.545V433H259.777V427.455C259.777 425.227 258.589 424.159 256.822 424.159C255.504 424.159 254.686 424.75 254.277 425.636H254.163V424.273H252.868V433H254.209V427.75Z" fill="white"/>
<path d="M206.807 535H208.216V529.795H213.261V528.545H208.216V524.614H213.784V523.364H206.807V535ZM217.516 523.364H216.175V535H217.516V523.364ZM225.632 531.432C225.632 533.068 224.382 533.818 223.382 533.818C222.269 533.818 221.473 533 221.473 531.727V526.273H220.132V531.818C220.132 534.045 221.314 535.114 222.95 535.114C224.269 535.114 225.132 534.409 225.541 533.523H225.632V535H226.973V526.273H225.632V531.432ZM233.135 535.182C235.498 535.182 237.089 533.386 237.089 530.682C237.089 527.955 235.498 526.159 233.135 526.159C230.771 526.159 229.18 527.955 229.18 530.682C229.18 533.386 230.771 535.182 233.135 535.182ZM233.135 533.977C231.339 533.977 230.521 532.432 230.521 530.682C230.521 528.932 231.339 527.364 233.135 527.364C234.93 527.364 235.748 528.932 235.748 530.682C235.748 532.432 234.93 533.977 233.135 533.977ZM239.296 535H240.637V529.477C240.637 528.295 241.569 527.432 242.841 527.432C243.199 527.432 243.569 527.5 243.66 527.523V526.159C243.506 526.148 243.154 526.136 242.955 526.136C241.91 526.136 241.001 526.727 240.682 527.591H240.591V526.273H239.296V535ZM248.803 535.182C250.575 535.182 251.871 534.295 252.28 532.977L250.984 532.614C250.644 533.523 249.854 533.977 248.803 533.977C247.229 533.977 246.144 532.96 246.081 531.091H252.416V530.523C252.416 527.273 250.484 526.159 248.666 526.159C246.303 526.159 244.734 528.023 244.734 530.705C244.734 533.386 246.28 535.182 248.803 535.182ZM246.081 529.932C246.172 528.574 247.132 527.364 248.666 527.364C250.121 527.364 251.053 528.455 251.053 529.932H246.081ZM260.798 528.227C260.377 526.989 259.434 526.159 257.707 526.159C255.866 526.159 254.502 527.205 254.502 528.682C254.502 529.886 255.218 530.693 256.821 531.068L258.275 531.409C259.156 531.614 259.571 532.034 259.571 532.636C259.571 533.386 258.775 534 257.525 534C256.429 534 255.741 533.528 255.502 532.591L254.23 532.909C254.542 534.392 255.764 535.182 257.548 535.182C259.576 535.182 260.957 534.074 260.957 532.568C260.957 531.352 260.196 530.585 258.639 530.205L257.343 529.886C256.309 529.631 255.843 529.284 255.843 528.614C255.843 527.864 256.639 527.318 257.707 527.318C258.877 527.318 259.36 527.966 259.593 528.568L260.798 528.227ZM266.681 535.182C268.613 535.182 269.885 534 270.113 532.455H268.772C268.522 533.409 267.726 533.977 266.681 533.977C265.09 533.977 264.067 532.659 264.067 530.636C264.067 528.659 265.113 527.364 266.681 527.364C267.863 527.364 268.567 528.091 268.772 528.886H270.113C269.885 527.25 268.499 526.159 266.658 526.159C264.294 526.159 262.726 528.023 262.726 530.682C262.726 533.295 264.226 535.182 266.681 535.182ZM275.892 535.182C277.665 535.182 278.96 534.295 279.369 532.977L278.074 532.614C277.733 533.523 276.943 533.977 275.892 533.977C274.318 533.977 273.233 532.96 273.17 531.091H279.506V530.523C279.506 527.273 277.574 526.159 275.756 526.159C273.392 526.159 271.824 528.023 271.824 530.705C271.824 533.386 273.369 535.182 275.892 535.182ZM273.17 529.932C273.261 528.574 274.222 527.364 275.756 527.364C277.21 527.364 278.142 528.455 278.142 529.932H273.17ZM283.046 529.75C283.046 528.227 283.989 527.364 285.274 527.364C286.518 527.364 287.274 528.176 287.274 529.545V535H288.614V529.455C288.614 527.227 287.427 526.159 285.66 526.159C284.342 526.159 283.524 526.75 283.114 527.636H283.001V526.273H281.705V535H283.046V529.75ZM295.02 526.273H293.157V524.182H291.816V526.273H290.498V527.409H291.816V532.864C291.816 534.386 293.043 535.114 294.179 535.114C294.679 535.114 294.998 535.023 295.179 534.955L294.907 533.75C294.793 533.773 294.611 533.818 294.316 533.818C293.725 533.818 293.157 533.636 293.157 532.5V527.409H295.02V526.273ZM308.039 528.227C307.619 526.989 306.675 526.159 304.948 526.159C303.107 526.159 301.744 527.205 301.744 528.682C301.744 529.886 302.46 530.693 304.062 531.068L305.516 531.409C306.397 531.614 306.812 532.034 306.812 532.636C306.812 533.386 306.016 534 304.766 534C303.67 534 302.982 533.528 302.744 532.591L301.471 532.909C301.783 534.392 303.005 535.182 304.789 535.182C306.818 535.182 308.198 534.074 308.198 532.568C308.198 531.352 307.437 530.585 305.88 530.205L304.585 529.886C303.55 529.631 303.085 529.284 303.085 528.614C303.085 527.864 303.88 527.318 304.948 527.318C306.119 527.318 306.602 527.966 306.835 528.568L308.039 528.227ZM314.172 526.273H312.308V524.182H310.968V526.273H309.649V527.409H310.968V532.864C310.968 534.386 312.195 535.114 313.331 535.114C313.831 535.114 314.149 535.023 314.331 534.955L314.058 533.75C313.945 533.773 313.763 533.818 313.468 533.818C312.877 533.818 312.308 533.636 312.308 532.5V527.409H314.172V526.273ZM318.917 535.205C320.44 535.205 321.236 534.386 321.508 533.818H321.576V535H322.917V529.25C322.917 526.477 320.804 526.159 319.69 526.159C318.372 526.159 316.872 526.614 316.19 528.205L317.463 528.659C317.758 528.023 318.457 527.341 319.736 527.341C320.968 527.341 321.576 527.994 321.576 529.114V529.159C321.576 529.807 320.917 529.75 319.326 529.955C317.707 530.165 315.94 530.523 315.94 532.523C315.94 534.227 317.258 535.205 318.917 535.205ZM319.122 534C318.054 534 317.281 533.523 317.281 532.591C317.281 531.568 318.213 531.25 319.258 531.114C319.826 531.045 321.349 530.886 321.576 530.614V531.841C321.576 532.932 320.713 534 319.122 534ZM325.525 535H326.866V526.273H325.525V535ZM326.207 524.818C326.729 524.818 327.161 524.409 327.161 523.909C327.161 523.409 326.729 523 326.207 523C325.684 523 325.252 523.409 325.252 523.909C325.252 524.409 325.684 524.818 326.207 524.818ZM330.823 529.75C330.823 528.227 331.766 527.364 333.05 527.364C334.294 527.364 335.05 528.176 335.05 529.545V535H336.391V529.455C336.391 527.227 335.203 526.159 333.436 526.159C332.118 526.159 331.3 526.75 330.891 527.636H330.777V526.273H329.482V535H330.823V529.75ZM339.001 535H340.342V526.273H339.001V535ZM339.683 524.818C340.206 524.818 340.637 524.409 340.637 523.909C340.637 523.409 340.206 523 339.683 523C339.16 523 338.728 523.409 338.728 523.909C338.728 524.409 339.16 524.818 339.683 524.818ZM344.299 529.75C344.299 528.227 345.242 527.364 346.526 527.364C347.77 527.364 348.526 528.176 348.526 529.545V535H349.867V529.455C349.867 527.227 348.68 526.159 346.912 526.159C345.594 526.159 344.776 526.75 344.367 527.636H344.253V526.273H342.958V535H344.299V529.75ZM356 538.455C358.091 538.455 359.773 537.5 359.773 535.25V526.273H358.477V527.659H358.341C358.045 527.205 357.5 526.159 355.795 526.159C353.591 526.159 352.068 527.909 352.068 530.591C352.068 533.318 353.659 534.864 355.773 534.864C357.477 534.864 358.023 533.864 358.318 533.386H358.432V535.159C358.432 536.614 357.409 537.273 356 537.273C354.415 537.273 353.858 536.438 353.5 535.955L352.432 536.705C352.977 537.619 354.051 538.455 356 538.455ZM355.955 533.659C354.273 533.659 353.409 532.386 353.409 530.568C353.409 528.795 354.25 527.364 355.955 527.364C357.591 527.364 358.455 528.682 358.455 530.568C358.455 532.5 357.568 533.659 355.955 533.659Z" fill="white"/>
<path d="M765.648 503.42H770.364C770.295 499.273 766.886 496.409 761.705 496.409C756.602 496.409 752.864 499.227 752.886 503.455C752.875 506.886 755.295 508.852 759.227 509.795L761.761 510.432C764.295 511.045 765.705 511.773 765.716 513.341C765.705 515.045 764.091 516.205 761.591 516.205C759.034 516.205 757.193 515.023 757.034 512.693H752.273C752.398 517.727 756 520.33 761.648 520.33C767.33 520.33 770.67 517.614 770.682 513.352C770.67 509.477 767.75 507.42 763.705 506.511L761.614 506.011C759.591 505.545 757.898 504.795 757.932 503.125C757.932 501.625 759.261 500.523 761.67 500.523C764.023 500.523 765.466 501.591 765.648 503.42ZM781.787 520.341C787.082 520.341 790.378 516.716 790.378 511.341C790.378 505.932 787.082 502.318 781.787 502.318C776.491 502.318 773.196 505.932 773.196 511.341C773.196 516.716 776.491 520.341 781.787 520.341ZM781.81 516.591C779.366 516.591 778.116 514.352 778.116 511.307C778.116 508.261 779.366 506.011 781.81 506.011C784.207 506.011 785.457 508.261 785.457 511.307C785.457 514.352 784.207 516.591 781.81 516.591ZM802.912 502.545H799.446V501.375C799.446 500.193 799.923 499.5 801.344 499.5C801.923 499.5 802.514 499.625 802.901 499.75L803.753 496.114C803.151 495.932 801.821 495.636 800.332 495.636C797.048 495.636 794.605 497.489 794.605 501.284V502.545H792.139V506.182H794.605V520H799.446V506.182H802.912V502.545ZM815.153 502.545H811.869V498.364H807.028V502.545H804.642V506.182H807.028V515.273C807.006 518.693 809.335 520.386 812.847 520.239C814.097 520.193 814.983 519.943 815.472 519.784L814.71 516.182C814.472 516.227 813.96 516.341 813.506 516.341C812.54 516.341 811.869 515.977 811.869 514.636V506.182H815.153V502.545ZM821.75 520H826.864L829.864 509.023H830.08L833.08 520H838.205L842.943 502.545H838.057L835.398 514.205H835.25L832.386 502.545H827.58L824.761 514.273H824.602L821.898 502.545H817L821.75 520ZM850.503 520.33C853.082 520.33 854.753 519.205 855.605 517.58H855.741V520H860.332V508.227C860.332 504.068 856.81 502.318 852.923 502.318C848.741 502.318 845.991 504.318 845.321 507.5L849.798 507.864C850.128 506.705 851.162 505.852 852.901 505.852C854.548 505.852 855.491 506.682 855.491 508.114V508.182C855.491 509.307 854.298 509.455 851.264 509.75C847.81 510.068 844.707 511.227 844.707 515.125C844.707 518.58 847.173 520.33 850.503 520.33ZM851.889 516.989C850.401 516.989 849.332 516.295 849.332 514.966C849.332 513.602 850.457 512.932 852.162 512.693C853.219 512.545 854.946 512.295 855.526 511.909V513.761C855.526 515.591 854.014 516.989 851.889 516.989ZM864.088 520H868.929V510.125C868.929 507.977 870.497 506.5 872.634 506.5C873.304 506.5 874.224 506.614 874.679 506.761V502.466C874.247 502.364 873.645 502.295 873.156 502.295C871.202 502.295 869.599 503.432 868.963 505.591H868.781V502.545H864.088V520ZM884.324 520.341C888.642 520.341 891.551 518.239 892.233 515L887.756 514.705C887.267 516.034 886.017 516.727 884.403 516.727C881.983 516.727 880.449 515.125 880.449 512.523V512.511H892.335V511.182C892.335 505.25 888.744 502.318 884.131 502.318C878.994 502.318 875.665 505.966 875.665 511.352C875.665 516.886 878.949 520.341 884.324 520.341ZM880.449 509.511C880.551 507.523 882.062 505.932 884.21 505.932C886.312 505.932 887.767 507.432 887.778 509.511H880.449ZM765.648 539.42H770.364C770.295 535.273 766.886 532.409 761.705 532.409C756.602 532.409 752.864 535.227 752.886 539.455C752.875 542.886 755.295 544.852 759.227 545.795L761.761 546.432C764.295 547.045 765.705 547.773 765.716 549.341C765.705 551.045 764.091 552.205 761.591 552.205C759.034 552.205 757.193 551.023 757.034 548.693H752.273C752.398 553.727 756 556.33 761.648 556.33C767.33 556.33 770.67 553.614 770.682 549.352C770.67 545.477 767.75 543.42 763.705 542.511L761.614 542.011C759.591 541.545 757.898 540.795 757.932 539.125C757.932 537.625 759.261 536.523 761.67 536.523C764.023 536.523 765.466 537.591 765.648 539.42ZM776.889 562.511C780.491 562.511 782.412 560.682 783.389 557.886L790.173 538.568L785.048 538.545L781.401 551.364H781.219L777.605 538.545H772.514L778.776 556.5L778.491 557.239C777.81 558.818 776.639 558.932 774.935 558.398L773.844 562.023C774.537 562.307 775.662 562.511 776.889 562.511ZM807.173 543.523C806.741 540.307 804.151 538.318 799.741 538.318C795.276 538.318 792.332 540.386 792.344 543.75C792.332 546.364 793.98 548.057 797.389 548.739L800.412 549.341C801.935 549.648 802.628 550.205 802.651 551.08C802.628 552.114 801.503 552.852 799.81 552.852C798.082 552.852 796.935 552.114 796.639 550.693L791.878 550.943C792.332 554.284 795.173 556.341 799.798 556.341C804.321 556.341 807.56 554.034 807.571 550.591C807.56 548.068 805.912 546.557 802.526 545.864L799.366 545.227C797.741 544.875 797.139 544.318 797.151 543.477C797.139 542.432 798.321 541.75 799.821 541.75C801.503 541.75 802.503 542.67 802.741 543.795L807.173 543.523ZM819.903 538.545H816.619V534.364H811.778V538.545H809.392V542.182H811.778V551.273C811.756 554.693 814.085 556.386 817.597 556.239C818.847 556.193 819.733 555.943 820.222 555.784L819.46 552.182C819.222 552.227 818.71 552.341 818.256 552.341C817.29 552.341 816.619 551.977 816.619 550.636V542.182H819.903V538.545ZM830.824 556.341C835.142 556.341 838.051 554.239 838.733 551L834.256 550.705C833.767 552.034 832.517 552.727 830.903 552.727C828.483 552.727 826.949 551.125 826.949 548.523V548.511H838.835V547.182C838.835 541.25 835.244 538.318 830.631 538.318C825.494 538.318 822.165 541.966 822.165 547.352C822.165 552.886 825.449 556.341 830.824 556.341ZM826.949 545.511C827.051 543.523 828.562 541.932 830.71 541.932C832.812 541.932 834.267 543.432 834.278 545.511H826.949ZM841.994 556H846.835V545.523C846.835 543.591 848.062 542.307 849.676 542.307C851.267 542.307 852.335 543.398 852.335 545.114V556H857.028V545.341C857.028 543.534 858.062 542.307 859.824 542.307C861.369 542.307 862.528 543.273 862.528 545.216V556H867.358V544.261C867.358 540.477 865.108 538.318 861.858 538.318C859.301 538.318 857.312 539.625 856.597 541.625H856.415C855.858 539.602 854.074 538.318 851.676 538.318C849.324 538.318 847.54 539.568 846.812 541.625H846.608V538.545H841.994V556Z" fill="#0EBDF1"/>
<path d="M805.409 443H806.818V438.455H809.364C809.466 438.455 809.562 438.455 809.659 438.449L812.114 443H813.75L811.119 438.193C812.602 437.688 813.295 436.477 813.295 434.932C813.295 432.875 812.068 431.364 809.341 431.364H805.409V443ZM806.818 437.182V432.614H809.295C811.182 432.614 811.909 433.534 811.909 434.932C811.909 436.33 811.182 437.182 809.318 437.182H806.818ZM819.187 443.182C820.96 443.182 822.255 442.295 822.664 440.977L821.369 440.614C821.028 441.523 820.238 441.977 819.187 441.977C817.613 441.977 816.528 440.96 816.465 439.091H822.801V438.523C822.801 435.273 820.869 434.159 819.051 434.159C816.687 434.159 815.119 436.023 815.119 438.705C815.119 441.386 816.664 443.182 819.187 443.182ZM816.465 437.932C816.556 436.574 817.517 435.364 819.051 435.364C820.505 435.364 821.437 436.455 821.437 437.932H816.465ZM825 446.273H826.341V441.659H826.455C826.75 442.136 827.319 443.182 829 443.182C831.182 443.182 832.705 441.432 832.705 438.659C832.705 435.909 831.182 434.159 828.978 434.159C827.273 434.159 826.75 435.205 826.455 435.659H826.296V434.273H825V446.273ZM826.319 438.636C826.319 436.682 827.182 435.364 828.819 435.364C830.523 435.364 831.364 436.795 831.364 438.636C831.364 440.5 830.5 441.977 828.819 441.977C827.205 441.977 826.319 440.614 826.319 438.636ZM838.456 443.182C840.819 443.182 842.41 441.386 842.41 438.682C842.41 435.955 840.819 434.159 838.456 434.159C836.092 434.159 834.501 435.955 834.501 438.682C834.501 441.386 836.092 443.182 838.456 443.182ZM838.456 441.977C836.66 441.977 835.842 440.432 835.842 438.682C835.842 436.932 836.66 435.364 838.456 435.364C840.251 435.364 841.069 436.932 841.069 438.682C841.069 440.432 840.251 441.977 838.456 441.977ZM844.617 443H845.958V437.477C845.958 436.295 846.89 435.432 848.163 435.432C848.521 435.432 848.89 435.5 848.981 435.523V434.159C848.827 434.148 848.475 434.136 848.276 434.136C847.231 434.136 846.322 434.727 846.004 435.591H845.913V434.273H844.617V443ZM855.073 434.273H853.209V432.182H851.868V434.273H850.55V435.409H851.868V440.864C851.868 442.386 853.095 443.114 854.232 443.114C854.732 443.114 855.05 443.023 855.232 442.955L854.959 441.75C854.845 441.773 854.664 441.818 854.368 441.818C853.777 441.818 853.209 441.636 853.209 440.5V435.409H855.073V434.273ZM857.25 443H858.591V434.273H857.25V443ZM857.932 432.818C858.454 432.818 858.886 432.409 858.886 431.909C858.886 431.409 858.454 431 857.932 431C857.409 431 856.977 431.409 856.977 431.909C856.977 432.409 857.409 432.818 857.932 432.818ZM862.548 437.75C862.548 436.227 863.491 435.364 864.775 435.364C866.019 435.364 866.775 436.176 866.775 437.545V443H868.116V437.455C868.116 435.227 866.928 434.159 865.161 434.159C863.843 434.159 863.025 434.75 862.616 435.636H862.502V434.273H861.207V443H862.548V437.75ZM874.249 446.455C876.34 446.455 878.021 445.5 878.021 443.25V434.273H876.726V435.659H876.59C876.294 435.205 875.749 434.159 874.044 434.159C871.84 434.159 870.317 435.909 870.317 438.591C870.317 441.318 871.908 442.864 874.021 442.864C875.726 442.864 876.271 441.864 876.567 441.386H876.681V443.159C876.681 444.614 875.658 445.273 874.249 445.273C872.664 445.273 872.107 444.438 871.749 443.955L870.681 444.705C871.226 445.619 872.3 446.455 874.249 446.455ZM874.203 441.659C872.521 441.659 871.658 440.386 871.658 438.568C871.658 436.795 872.499 435.364 874.203 435.364C875.84 435.364 876.703 436.682 876.703 438.568C876.703 440.5 875.817 441.659 874.203 441.659Z" fill="white"/>
<path d="M858.364 286H859.818C859.386 283.75 857.5 282.205 855.045 282.205C852.062 282.205 849.955 284.5 849.955 288.182C849.955 291.864 852.045 294.159 855.136 294.159C857.909 294.159 859.886 292.312 859.886 289.432V288.182H855.455V289.432H858.523C858.483 291.523 857.108 292.841 855.136 292.841C852.977 292.841 851.318 291.205 851.318 288.182C851.318 285.159 852.977 283.523 855.045 283.523C856.727 283.523 857.869 284.472 858.364 286ZM865.823 294.182C868.187 294.182 869.778 292.386 869.778 289.682C869.778 286.955 868.187 285.159 865.823 285.159C863.46 285.159 861.869 286.955 861.869 289.682C861.869 292.386 863.46 294.182 865.823 294.182ZM865.823 292.977C864.028 292.977 863.21 291.432 863.21 289.682C863.21 287.932 864.028 286.364 865.823 286.364C867.619 286.364 868.437 287.932 868.437 289.682C868.437 291.432 867.619 292.977 865.823 292.977ZM873.326 282.364H871.985V294H873.326V282.364ZM879.237 294.182C880.919 294.182 881.487 293.136 881.783 292.659H881.942V294H883.237V282.364H881.896V286.659H881.783C881.487 286.205 880.964 285.159 879.26 285.159C877.055 285.159 875.533 286.909 875.533 289.659C875.533 292.432 877.055 294.182 879.237 294.182ZM879.419 292.977C877.737 292.977 876.873 291.5 876.873 289.636C876.873 287.795 877.714 286.364 879.419 286.364C881.055 286.364 881.919 287.682 881.919 289.636C881.919 291.614 881.033 292.977 879.419 292.977ZM896.881 287.227C896.461 285.989 895.517 285.159 893.79 285.159C891.949 285.159 890.586 286.205 890.586 287.682C890.586 288.886 891.301 289.693 892.904 290.068L894.358 290.409C895.239 290.614 895.654 291.034 895.654 291.636C895.654 292.386 894.858 293 893.608 293C892.512 293 891.824 292.528 891.586 291.591L890.313 291.909C890.625 293.392 891.847 294.182 893.631 294.182C895.659 294.182 897.04 293.074 897.04 291.568C897.04 290.352 896.279 289.585 894.722 289.205L893.426 288.886C892.392 288.631 891.926 288.284 891.926 287.614C891.926 286.864 892.722 286.318 893.79 286.318C894.961 286.318 895.443 286.966 895.676 287.568L896.881 287.227ZM903.014 285.273H901.15V283.182H899.809V285.273H898.491V286.409H899.809V291.864C899.809 293.386 901.037 294.114 902.173 294.114C902.673 294.114 902.991 294.023 903.173 293.955L902.9 292.75C902.787 292.773 902.605 292.818 902.309 292.818C901.719 292.818 901.15 292.636 901.15 291.5V286.409H903.014V285.273ZM907.759 294.205C909.282 294.205 910.077 293.386 910.35 292.818H910.418V294H911.759V288.25C911.759 285.477 909.646 285.159 908.532 285.159C907.214 285.159 905.714 285.614 905.032 287.205L906.305 287.659C906.6 287.023 907.299 286.341 908.577 286.341C909.81 286.341 910.418 286.994 910.418 288.114V288.159C910.418 288.807 909.759 288.75 908.168 288.955C906.549 289.165 904.782 289.523 904.782 291.523C904.782 293.227 906.1 294.205 907.759 294.205ZM907.964 293C906.896 293 906.123 292.523 906.123 291.591C906.123 290.568 907.055 290.25 908.1 290.114C908.668 290.045 910.191 289.886 910.418 289.614V290.841C910.418 291.932 909.555 293 907.964 293ZM915.708 288.75C915.708 287.227 916.651 286.364 917.935 286.364C919.179 286.364 919.935 287.176 919.935 288.545V294H921.276V288.455C921.276 286.227 920.088 285.159 918.321 285.159C917.003 285.159 916.185 285.75 915.776 286.636H915.662V285.273H914.367V294H915.708V288.75ZM927.181 294.182C928.863 294.182 929.431 293.136 929.727 292.659H929.886V294H931.181V282.364H929.841V286.659H929.727C929.431 286.205 928.909 285.159 927.204 285.159C925 285.159 923.477 286.909 923.477 289.659C923.477 292.432 925 294.182 927.181 294.182ZM927.363 292.977C925.681 292.977 924.818 291.5 924.818 289.636C924.818 287.795 925.659 286.364 927.363 286.364C929 286.364 929.863 287.682 929.863 289.636C929.863 291.614 928.977 292.977 927.363 292.977ZM936.552 294.205C938.074 294.205 938.87 293.386 939.143 292.818H939.211V294H940.552V288.25C940.552 285.477 938.438 285.159 937.324 285.159C936.006 285.159 934.506 285.614 933.824 287.205L935.097 287.659C935.393 287.023 936.091 286.341 937.37 286.341C938.603 286.341 939.211 286.994 939.211 288.114V288.159C939.211 288.807 938.552 288.75 936.961 288.955C935.341 289.165 933.574 289.523 933.574 291.523C933.574 293.227 934.893 294.205 936.552 294.205ZM936.756 293C935.688 293 934.915 292.523 934.915 291.591C934.915 290.568 935.847 290.25 936.893 290.114C937.461 290.045 938.984 289.886 939.211 289.614V290.841C939.211 291.932 938.347 293 936.756 293ZM943.159 294H944.5V288.477C944.5 287.295 945.432 286.432 946.705 286.432C947.063 286.432 947.432 286.5 947.523 286.523V285.159C947.369 285.148 947.017 285.136 946.818 285.136C945.773 285.136 944.864 285.727 944.546 286.591H944.455V285.273H943.159V294ZM952.302 294.182C953.984 294.182 954.552 293.136 954.848 292.659H955.007V294H956.302V282.364H954.961V286.659H954.848C954.552 286.205 954.029 285.159 952.325 285.159C950.12 285.159 948.598 286.909 948.598 289.659C948.598 292.432 950.12 294.182 952.302 294.182ZM952.484 292.977C950.802 292.977 949.938 291.5 949.938 289.636C949.938 287.795 950.779 286.364 952.484 286.364C954.12 286.364 954.984 287.682 954.984 289.636C954.984 291.614 954.098 292.977 952.484 292.977ZM967.31 294.182C969.241 294.182 970.514 293 970.741 291.455H969.401C969.151 292.409 968.355 292.977 967.31 292.977C965.719 292.977 964.696 291.659 964.696 289.636C964.696 287.659 965.741 286.364 967.31 286.364C968.491 286.364 969.196 287.091 969.401 287.886H970.741C970.514 286.25 969.128 285.159 967.287 285.159C964.923 285.159 963.355 287.023 963.355 289.682C963.355 292.295 964.855 294.182 967.31 294.182ZM976.407 294.182C978.771 294.182 980.362 292.386 980.362 289.682C980.362 286.955 978.771 285.159 976.407 285.159C974.043 285.159 972.453 286.955 972.453 289.682C972.453 292.386 974.043 294.182 976.407 294.182ZM976.407 292.977C974.612 292.977 973.793 291.432 973.793 289.682C973.793 287.932 974.612 286.364 976.407 286.364C978.203 286.364 979.021 287.932 979.021 289.682C979.021 291.432 978.203 292.977 976.407 292.977ZM982.569 294H983.909V288.477C983.909 287.295 984.841 286.432 986.114 286.432C986.472 286.432 986.841 286.5 986.932 286.523V285.159C986.779 285.148 986.426 285.136 986.228 285.136C985.182 285.136 984.273 285.727 983.955 286.591H983.864V285.273H982.569V294ZM988.682 294H990.023V288.477C990.023 287.295 990.954 286.432 992.227 286.432C992.585 286.432 992.954 286.5 993.045 286.523V285.159C992.892 285.148 992.54 285.136 992.341 285.136C991.295 285.136 990.386 285.727 990.068 286.591H989.977V285.273H988.682V294ZM998.188 294.182C999.961 294.182 1001.26 293.295 1001.67 291.977L1000.37 291.614C1000.03 292.523 999.239 292.977 998.188 292.977C996.614 292.977 995.529 291.96 995.467 290.091H1001.8V289.523C1001.8 286.273 999.87 285.159 998.052 285.159C995.688 285.159 994.12 287.023 994.12 289.705C994.12 292.386 995.666 294.182 998.188 294.182ZM995.467 288.932C995.558 287.574 996.518 286.364 998.052 286.364C999.506 286.364 1000.44 287.455 1000.44 288.932H995.467ZM1005.34 282.364H1004V294H1005.34V282.364ZM1010.53 294.205C1012.05 294.205 1012.84 293.386 1013.12 292.818H1013.19V294H1014.53V288.25C1014.53 285.477 1012.41 285.159 1011.3 285.159C1009.98 285.159 1008.48 285.614 1007.8 287.205L1009.07 287.659C1009.37 287.023 1010.07 286.341 1011.34 286.341C1012.58 286.341 1013.19 286.994 1013.19 288.114V288.159C1013.19 288.807 1012.53 288.75 1010.94 288.955C1009.32 289.165 1007.55 289.523 1007.55 291.523C1007.55 293.227 1008.87 294.205 1010.53 294.205ZM1010.73 293C1009.66 293 1008.89 292.523 1008.89 291.591C1008.89 290.568 1009.82 290.25 1010.87 290.114C1011.44 290.045 1012.96 289.886 1013.19 289.614V290.841C1013.19 291.932 1012.32 293 1010.73 293ZM1020.93 285.273H1019.07V283.182H1017.73V285.273H1016.41V286.409H1017.73V291.864C1017.73 293.386 1018.95 294.114 1020.09 294.114C1020.59 294.114 1020.91 294.023 1021.09 293.955L1020.82 292.75C1020.7 292.773 1020.52 292.818 1020.23 292.818C1019.63 292.818 1019.07 292.636 1019.07 291.5V286.409H1020.93V285.273ZM1023.11 294H1024.45V285.273H1023.11V294ZM1023.79 283.818C1024.31 283.818 1024.74 283.409 1024.74 282.909C1024.74 282.409 1024.31 282 1023.79 282C1023.27 282 1022.83 282.409 1022.83 282.909C1022.83 283.409 1023.27 283.818 1023.79 283.818ZM1030.61 294.182C1032.97 294.182 1034.56 292.386 1034.56 289.682C1034.56 286.955 1032.97 285.159 1030.61 285.159C1028.25 285.159 1026.65 286.955 1026.65 289.682C1026.65 292.386 1028.25 294.182 1030.61 294.182ZM1030.61 292.977C1028.81 292.977 1028 291.432 1028 289.682C1028 287.932 1028.81 286.364 1030.61 286.364C1032.4 286.364 1033.22 287.932 1033.22 289.682C1033.22 291.432 1032.4 292.977 1030.61 292.977ZM1038.11 288.75C1038.11 287.227 1039.05 286.364 1040.34 286.364C1041.58 286.364 1042.34 287.176 1042.34 288.545V294H1043.68V288.455C1043.68 286.227 1042.49 285.159 1040.72 285.159C1039.41 285.159 1038.59 285.75 1038.18 286.636H1038.07V285.273H1036.77V294H1038.11V288.75Z" fill="white"/>
<path d="M805.886 143L807.057 139.705H811.761L812.932 143H814.409L810.136 131.364H808.682L804.409 143H805.886ZM807.5 138.455L809.364 133.205H809.455L811.318 138.455H807.5ZM817.541 137.75C817.541 136.227 818.484 135.364 819.768 135.364C821.012 135.364 821.768 136.176 821.768 137.545V143H823.109V137.455C823.109 135.227 821.921 134.159 820.154 134.159C818.836 134.159 818.018 134.75 817.609 135.636H817.495V134.273H816.2V143H817.541V137.75ZM828.287 143.205C829.81 143.205 830.606 142.386 830.878 141.818H830.946V143H832.287V137.25C832.287 134.477 830.174 134.159 829.06 134.159C827.742 134.159 826.242 134.614 825.56 136.205L826.833 136.659C827.128 136.023 827.827 135.341 829.106 135.341C830.338 135.341 830.946 135.994 830.946 137.114V137.159C830.946 137.807 830.287 137.75 828.696 137.955C827.077 138.165 825.31 138.523 825.31 140.523C825.31 142.227 826.628 143.205 828.287 143.205ZM828.492 142C827.424 142 826.651 141.523 826.651 140.591C826.651 139.568 827.583 139.25 828.628 139.114C829.196 139.045 830.719 138.886 830.946 138.614V139.841C830.946 140.932 830.083 142 828.492 142ZM836.236 131.364H834.895V143H836.236V131.364ZM839.715 146.25C840.926 146.25 841.783 145.608 842.283 144.273L845.999 134.295L844.533 134.273L842.124 141.227H842.033L839.624 134.273H838.17L841.397 143.045L841.147 143.727C840.67 145.034 840.056 145.159 839.079 144.909L838.738 146.091C838.874 146.159 839.261 146.25 839.715 146.25ZM854.115 136.227C853.695 134.989 852.752 134.159 851.024 134.159C849.184 134.159 847.82 135.205 847.82 136.682C847.82 137.886 848.536 138.693 850.138 139.068L851.593 139.409C852.473 139.614 852.888 140.034 852.888 140.636C852.888 141.386 852.093 142 850.843 142C849.746 142 849.059 141.528 848.82 140.591L847.547 140.909C847.86 142.392 849.081 143.182 850.865 143.182C852.894 143.182 854.274 142.074 854.274 140.568C854.274 139.352 853.513 138.585 851.956 138.205L850.661 137.886C849.627 137.631 849.161 137.284 849.161 136.614C849.161 135.864 849.956 135.318 851.024 135.318C852.195 135.318 852.678 135.966 852.911 136.568L854.115 136.227ZM856.453 143H857.794V134.273H856.453V143ZM857.135 132.818C857.657 132.818 858.089 132.409 858.089 131.909C858.089 131.409 857.657 131 857.135 131C856.612 131 856.18 131.409 856.18 131.909C856.18 132.409 856.612 132.818 857.135 132.818ZM866.592 136.227C866.171 134.989 865.228 134.159 863.501 134.159C861.66 134.159 860.296 135.205 860.296 136.682C860.296 137.886 861.012 138.693 862.614 139.068L864.069 139.409C864.95 139.614 865.364 140.034 865.364 140.636C865.364 141.386 864.569 142 863.319 142C862.222 142 861.535 141.528 861.296 140.591L860.023 140.909C860.336 142.392 861.557 143.182 863.342 143.182C865.37 143.182 866.751 142.074 866.751 140.568C866.751 139.352 865.989 138.585 864.432 138.205L863.137 137.886C862.103 137.631 861.637 137.284 861.637 136.614C861.637 135.864 862.432 135.318 863.501 135.318C864.671 135.318 865.154 135.966 865.387 136.568L866.592 136.227Z" fill="white"/>
<path d="M711 45C714.545 45 716.545 42.7955 716.545 39.1591C716.545 35.5455 714.545 33.3636 711.159 33.3636H707.409V45H711ZM708.818 43.75V34.6136H711.068C713.795 34.6136 715.182 36.3409 715.182 39.1591C715.182 42 713.795 43.75 710.909 43.75H708.818ZM722.546 45.1818C724.319 45.1818 725.615 44.2955 726.024 42.9773L724.728 42.6136C724.387 43.5227 723.597 43.9773 722.546 43.9773C720.972 43.9773 719.887 42.9602 719.825 41.0909H726.16V40.5227C726.16 37.2727 724.228 36.1591 722.41 36.1591C720.046 36.1591 718.478 38.0227 718.478 40.7045C718.478 43.3864 720.024 45.1818 722.546 45.1818ZM719.825 39.9318C719.916 38.5739 720.876 37.3636 722.41 37.3636C723.865 37.3636 724.796 38.4545 724.796 39.9318H719.825ZM732.155 36.2727H730.292V34.1818H728.951V36.2727H727.632V37.4091H728.951V42.8636C728.951 44.3864 730.178 45.1136 731.314 45.1136C731.814 45.1136 732.132 45.0227 732.314 44.9545L732.042 43.75C731.928 43.7727 731.746 43.8182 731.451 43.8182C730.86 43.8182 730.292 43.6364 730.292 42.5V37.4091H732.155V36.2727ZM737.898 45.1818C739.67 45.1818 740.966 44.2955 741.375 42.9773L740.079 42.6136C739.739 43.5227 738.949 43.9773 737.898 43.9773C736.324 43.9773 735.239 42.9602 735.176 41.0909H741.511V40.5227C741.511 37.2727 739.579 36.1591 737.761 36.1591C735.398 36.1591 733.829 38.0227 733.829 40.7045C733.829 43.3864 735.375 45.1818 737.898 45.1818ZM735.176 39.9318C735.267 38.5739 736.227 37.3636 737.761 37.3636C739.216 37.3636 740.148 38.4545 740.148 39.9318H735.176ZM747.256 45.1818C749.188 45.1818 750.461 44 750.688 42.4545H749.347C749.097 43.4091 748.302 43.9773 747.256 43.9773C745.666 43.9773 744.643 42.6591 744.643 40.6364C744.643 38.6591 745.688 37.3636 747.256 37.3636C748.438 37.3636 749.143 38.0909 749.347 38.8864H750.688C750.461 37.25 749.075 36.1591 747.234 36.1591C744.87 36.1591 743.302 38.0227 743.302 40.6818C743.302 43.2955 744.802 45.1818 747.256 45.1818ZM756.604 36.2727H754.74V34.1818H753.399V36.2727H752.081V37.4091H753.399V42.8636C753.399 44.3864 754.627 45.1136 755.763 45.1136C756.263 45.1136 756.581 45.0227 756.763 44.9545L756.49 43.75C756.377 43.7727 756.195 43.8182 755.899 43.8182C755.309 43.8182 754.74 43.6364 754.74 42.5V37.4091H756.604V36.2727ZM758.781 45H760.122V36.2727H758.781V45ZM759.463 34.8182C759.986 34.8182 760.417 34.4091 760.417 33.9091C760.417 33.4091 759.986 33 759.463 33C758.94 33 758.508 33.4091 758.508 33.9091C758.508 34.4091 758.94 34.8182 759.463 34.8182ZM766.283 45.1818C768.647 45.1818 770.238 43.3864 770.238 40.6818C770.238 37.9545 768.647 36.1591 766.283 36.1591C763.92 36.1591 762.329 37.9545 762.329 40.6818C762.329 43.3864 763.92 45.1818 766.283 45.1818ZM766.283 43.9773C764.488 43.9773 763.67 42.4318 763.67 40.6818C763.67 38.9318 764.488 37.3636 766.283 37.3636C768.079 37.3636 768.897 38.9318 768.897 40.6818C768.897 42.4318 768.079 43.9773 766.283 43.9773ZM773.786 39.75C773.786 38.2273 774.729 37.3636 776.013 37.3636C777.257 37.3636 778.013 38.1761 778.013 39.5455V45H779.354V39.4545C779.354 37.2273 778.166 36.1591 776.399 36.1591C775.081 36.1591 774.263 36.75 773.854 37.6364H773.74V36.2727H772.445V45H773.786V39.75Z" fill="white"/>
<path d="M439.183 226.131H446.256C446.154 219.909 441.04 215.614 433.268 215.614C425.614 215.614 420.006 219.841 420.04 226.182C420.023 231.33 423.654 234.278 429.552 235.693L433.353 236.648C437.154 237.568 439.268 238.659 439.285 241.011C439.268 243.568 436.847 245.307 433.097 245.307C429.262 245.307 426.501 243.534 426.262 240.04H419.12C419.308 247.591 424.711 251.494 433.183 251.494C441.705 251.494 446.717 247.42 446.734 241.028C446.717 235.216 442.336 232.131 436.268 230.767L433.131 230.017C430.097 229.318 427.558 228.193 427.609 225.688C427.609 223.438 429.603 221.784 433.217 221.784C436.745 221.784 438.91 223.386 439.183 226.131ZM451.562 251H458.823V224.818H451.562V251ZM455.21 221.443C457.374 221.443 459.147 219.79 459.147 217.761C459.147 215.75 457.374 214.097 455.21 214.097C453.062 214.097 451.289 215.75 451.289 217.761C451.289 219.79 453.062 221.443 455.21 221.443ZM471.901 235.864C471.918 232.489 473.93 230.511 476.862 230.511C479.776 230.511 481.532 232.42 481.515 235.625V251H488.776V234.33C488.776 228.227 485.197 224.477 479.742 224.477C475.856 224.477 473.043 226.386 471.867 229.438H471.56V224.818H464.64V251H471.901V235.864ZM506.295 261.193C513.778 261.193 519.096 257.784 519.096 251.256V224.818H511.886V229.216H511.613C510.641 227.085 508.511 224.477 504.13 224.477C498.386 224.477 493.528 228.943 493.528 237.858C493.528 246.568 498.249 250.625 504.147 250.625C508.323 250.625 510.658 248.528 511.613 246.364H511.92V251.153C511.92 254.58 509.619 255.977 506.465 255.977C503.261 255.977 501.641 254.58 501.045 253.165L494.329 254.068C495.198 258.023 499.238 261.193 506.295 261.193ZM506.448 245.17C502.886 245.17 500.942 242.341 500.942 237.824C500.942 233.375 502.852 230.256 506.448 230.256C509.977 230.256 511.954 233.239 511.954 237.824C511.954 242.443 509.942 245.17 506.448 245.17ZM532.136 216.091H524.874V251H532.136V216.091ZM549.884 251.511C556.362 251.511 560.725 248.358 561.748 243.5L555.032 243.057C554.299 245.051 552.424 246.091 550.004 246.091C546.373 246.091 544.072 243.688 544.072 239.784V239.767H561.901V237.773C561.901 228.875 556.515 224.477 549.594 224.477C541.89 224.477 536.896 229.949 536.896 238.028C536.896 246.33 541.822 251.511 549.884 251.511ZM544.072 235.267C544.225 232.284 546.492 229.898 549.714 229.898C552.867 229.898 555.049 232.148 555.066 235.267H544.072ZM608.687 228.312C607.715 220.25 601.613 215.614 593.533 215.614C584.312 215.614 577.272 222.125 577.272 233.545C577.272 244.932 584.192 251.477 593.533 251.477C602.482 251.477 607.886 245.528 608.687 239.102L601.221 239.068C600.522 242.801 597.59 244.949 593.653 244.949C588.352 244.949 584.755 241.011 584.755 233.545C584.755 226.284 588.3 222.142 593.704 222.142C597.744 222.142 600.658 224.477 601.221 228.312H608.687ZM625.775 251.511C632.252 251.511 636.616 248.358 637.638 243.5L630.923 243.057C630.19 245.051 628.315 246.091 625.894 246.091C622.263 246.091 619.962 243.688 619.962 239.784V239.767H637.792V237.773C637.792 228.875 632.406 224.477 625.485 224.477C617.781 224.477 612.786 229.949 612.786 238.028C612.786 246.33 617.712 251.511 625.775 251.511ZM619.962 235.267C620.116 232.284 622.383 229.898 625.604 229.898C628.758 229.898 630.94 232.148 630.957 235.267H619.962ZM649.792 216.091H642.531V251H649.792V216.091ZM662.87 216.091H655.609V251H662.87V216.091Z" fill="white"/>
<path opacity="0.6" d="M466.129 295.059C465.558 291.846 462.933 289.366 459.217 289.366C454.811 289.366 451.675 292.868 451.675 298.332C451.675 303.795 454.811 307.297 459.217 307.297C462.933 307.297 465.558 304.809 466.129 301.604H464.527C464.041 303.999 461.953 305.797 459.217 305.797C455.911 305.797 453.217 303.181 453.217 298.332C453.217 293.499 455.911 290.866 459.217 290.866C461.953 290.866 464.041 292.672 464.527 295.059H466.129ZM474.646 307.332C478.038 307.332 480.407 304.562 480.407 300.573C480.407 296.559 478.038 293.789 474.646 293.789C471.254 293.789 468.884 296.559 468.884 300.573C468.884 304.562 471.254 307.332 474.646 307.332ZM474.646 305.942C471.927 305.942 470.41 303.505 470.41 300.573C470.41 297.641 471.927 295.17 474.646 295.17C477.364 295.17 478.881 297.641 478.881 300.573C478.881 303.505 477.364 305.942 474.646 305.942ZM483.737 307.059H485.254V298.672C485.254 296.636 486.609 295.187 488.425 295.187C490.214 295.187 491.254 296.38 491.254 298.153V307.059H492.805V298.442C492.805 296.559 493.93 295.187 495.925 295.187C497.655 295.187 498.805 296.226 498.805 298.289V307.059H500.322V298.289C500.322 295.357 498.814 293.797 496.385 293.797C494.476 293.797 493.095 294.726 492.507 296.175H492.396C491.817 294.692 490.666 293.797 488.859 293.797C487.146 293.797 485.868 294.624 485.348 295.979H485.212V293.968H483.737V307.059ZM504.313 311.968H505.839V304.63H505.975C506.495 305.832 507.62 307.332 509.998 307.332C513.202 307.332 515.384 304.604 515.384 300.547C515.384 296.508 513.211 293.789 509.972 293.789C507.569 293.789 506.504 295.289 505.975 296.465H505.788V293.968H504.313V311.968ZM505.813 300.522C505.813 297.386 507.254 295.17 509.81 295.17C512.444 295.17 513.859 297.505 513.859 300.522C513.859 303.573 512.418 305.942 509.81 305.942C507.279 305.942 505.813 303.684 505.813 300.522ZM527.024 302.056C527.024 304.459 525.217 305.755 523.445 305.755C521.553 305.755 520.223 304.4 520.223 302.354V293.968H518.706V302.448C518.706 305.55 520.496 307.229 523.01 307.229C524.928 307.229 526.291 306.232 526.905 304.886H527.024V307.059H528.541V293.968H527.024V302.056ZM537.714 293.968H534.944V290.832H533.418V293.968H531.467V295.289H533.418V303.999C533.418 306.138 535.106 307.255 536.785 307.255C537.415 307.255 537.842 307.136 538.131 307.025L537.808 305.653C537.594 305.712 537.322 305.772 536.921 305.772C535.89 305.772 534.944 305.286 534.944 303.641V295.289H537.714V293.968ZM546.311 307.332C548.936 307.332 550.7 305.908 551.297 304.263L549.857 303.795C549.354 304.971 548.169 305.942 546.311 305.942C543.635 305.942 541.939 303.991 541.871 300.965H551.621V300.215C551.621 295.843 548.919 293.789 546.081 293.789C542.689 293.789 540.345 296.627 540.345 300.59C540.345 304.562 542.646 307.332 546.311 307.332ZM541.879 299.627C542.041 297.19 543.686 295.17 546.081 295.17C548.425 295.17 550.07 297.104 550.07 299.627H541.879ZM554.964 307.059H556.481V298.604C556.481 296.661 557.972 295.255 560.018 295.255C560.418 295.255 560.793 295.323 560.93 295.34V293.797C560.725 293.789 560.376 293.772 560.129 293.772C558.484 293.772 557.077 294.658 556.549 295.979H556.438V293.968H554.964V307.059ZM580.402 293.968H578.757L574.871 305.056H574.751L570.865 293.968H569.22L574.001 307.059H575.621L580.402 293.968ZM583.387 307.059H584.913V293.968H583.387V307.059ZM584.163 291.718C584.785 291.718 585.305 291.224 585.305 290.627C585.305 290.03 584.785 289.536 584.163 289.536C583.54 289.536 583.029 290.03 583.029 290.627C583.029 291.224 583.54 291.718 584.163 291.718ZM597.72 296.84C597.081 294.948 595.683 293.789 593.288 293.789C590.646 293.789 588.729 295.297 588.729 297.454C588.729 299.209 589.794 300.403 592.07 300.948L594.209 301.459C595.649 301.8 596.339 302.542 596.339 303.59C596.339 304.954 595.036 305.968 593.024 305.968C591.234 305.968 590.118 305.158 589.751 303.607L588.294 303.965C588.754 306.147 590.484 307.332 593.05 307.332C595.93 307.332 597.908 305.746 597.908 303.522C597.908 301.775 596.808 300.607 594.618 300.07L592.641 299.584C591.013 299.175 590.254 298.519 590.254 297.386C590.254 296.056 591.524 295.127 593.288 295.127C595.053 295.127 595.922 296.056 596.331 297.232L597.72 296.84ZM601.246 307.059H602.772V293.968H601.246V307.059ZM602.022 291.718C602.644 291.718 603.164 291.224 603.164 290.627C603.164 290.03 602.644 289.536 602.022 289.536C601.4 289.536 600.888 290.03 600.888 290.627C600.888 291.224 601.4 291.718 602.022 291.718ZM611.872 307.332C615.264 307.332 617.634 304.562 617.634 300.573C617.634 296.559 615.264 293.789 611.872 293.789C608.48 293.789 606.111 296.559 606.111 300.573C606.111 304.562 608.48 307.332 611.872 307.332ZM611.872 305.942C609.153 305.942 607.636 303.505 607.636 300.573C607.636 297.641 609.153 295.17 611.872 295.17C614.591 295.17 616.108 297.641 616.108 300.573C616.108 303.505 614.591 305.942 611.872 305.942ZM622.481 298.877C622.481 296.593 623.981 295.187 626.043 295.187C628.055 295.187 629.35 296.533 629.35 298.672V307.059H630.867V298.579C630.867 295.476 629.069 293.797 626.427 293.797C624.509 293.797 623.188 294.684 622.575 296.022H622.438V293.968H620.964V307.059H622.481V298.877Z" fill="white"/>
<path opacity="0.6" d="M444.631 340.31V357.765H446.131V343.677H446.267L452.156 357.765H453.605L459.494 343.677H459.631V357.765H461.131V340.31H459.29L452.957 355.515H452.804L446.472 340.31H444.631ZM470.749 358.037C473.374 358.037 475.138 356.614 475.734 354.969L474.294 354.5C473.791 355.677 472.607 356.648 470.749 356.648C468.072 356.648 466.376 354.696 466.308 351.671H476.058V350.921C476.058 346.549 473.357 344.495 470.518 344.495C467.126 344.495 464.783 347.333 464.783 351.296C464.783 355.267 467.084 358.037 470.749 358.037ZM466.317 350.333C466.479 347.895 468.124 345.875 470.518 345.875C472.862 345.875 474.507 347.81 474.507 350.333H466.317ZM484.558 344.674H481.788V341.537H480.262V344.674H478.31V345.995H480.262V354.705C480.262 356.844 481.95 357.961 483.629 357.961C484.259 357.961 484.685 357.841 484.975 357.731L484.651 356.358C484.438 356.418 484.165 356.478 483.765 356.478C482.734 356.478 481.788 355.992 481.788 354.347V345.995H484.558V344.674ZM491.659 358.063C493.841 358.063 495.17 356.853 495.716 355.694H495.81V357.765H497.327V348.875C497.327 345.364 494.685 344.495 492.682 344.495C490.679 344.495 488.616 345.287 487.73 347.427L489.17 347.946C489.648 346.821 490.832 345.858 492.724 345.858C494.71 345.858 495.81 346.949 495.81 348.739V349.046C495.81 350.035 494.582 350.052 492.384 350.324C489.426 350.691 487.355 351.517 487.355 354.108C487.355 356.631 489.281 358.063 491.659 358.063ZM491.864 356.674C490.151 356.674 488.872 355.762 488.872 354.177C488.872 352.591 490.168 351.927 492.384 351.654C493.457 351.526 495.366 351.287 495.81 350.853V352.745C495.81 354.892 494.284 356.674 491.864 356.674ZM501.678 357.765H503.152V355.336H503.339C503.868 356.537 504.976 358.037 507.362 358.037C510.575 358.037 512.749 355.319 512.749 351.253C512.749 347.222 510.567 344.495 507.337 344.495C504.942 344.495 503.859 345.995 503.339 347.171H503.203V340.31H501.678V357.765ZM503.178 351.228C503.178 348.091 504.618 345.875 507.175 345.875C509.8 345.875 511.223 348.211 511.223 351.228C511.223 354.279 509.783 356.648 507.175 356.648C504.635 356.648 503.178 354.39 503.178 351.228ZM521.169 358.037C524.561 358.037 526.93 355.267 526.93 351.279C526.93 347.265 524.561 344.495 521.169 344.495C517.777 344.495 515.408 347.265 515.408 351.279C515.408 355.267 517.777 358.037 521.169 358.037ZM521.169 356.648C518.45 356.648 516.933 354.211 516.933 351.279C516.933 348.347 518.45 345.875 521.169 345.875C523.888 345.875 525.405 348.347 525.405 351.279C525.405 354.211 523.888 356.648 521.169 356.648ZM531.778 340.31H530.261V357.765H531.778V340.31ZM535.809 357.765H537.335V344.674H535.809V357.765ZM536.585 342.424C537.207 342.424 537.727 341.929 537.727 341.333C537.727 340.736 537.207 340.242 536.585 340.242C535.962 340.242 535.451 340.736 535.451 341.333C535.451 341.929 535.962 342.424 536.585 342.424ZM546.46 358.037C549.188 358.037 551.105 356.316 551.455 353.946H549.92C549.571 355.617 548.199 356.648 546.46 356.648C543.895 356.648 542.199 354.415 542.199 351.228C542.199 348.057 543.946 345.875 546.46 345.875C548.327 345.875 549.588 347.077 549.912 348.56H551.446C551.088 346.131 549.06 344.495 546.435 344.495C543.009 344.495 540.673 347.341 540.673 351.279C540.673 355.182 542.94 358.037 546.46 358.037ZM565.112 358.063C567.294 358.063 568.624 356.853 569.169 355.694H569.263V357.765H570.78V348.875C570.78 345.364 568.138 344.495 566.135 344.495C564.132 344.495 562.07 345.287 561.183 347.427L562.624 347.946C563.101 346.821 564.286 345.858 566.178 345.858C568.163 345.858 569.263 346.949 569.263 348.739V349.046C569.263 350.035 568.036 350.052 565.837 350.324C562.879 350.691 560.808 351.517 560.808 354.108C560.808 356.631 562.734 358.063 565.112 358.063ZM565.317 356.674C563.604 356.674 562.325 355.762 562.325 354.177C562.325 352.591 563.621 351.927 565.837 351.654C566.911 351.526 568.82 351.287 569.263 350.853V352.745C569.263 354.892 567.737 356.674 565.317 356.674ZM579.929 358.037C582.656 358.037 584.574 356.316 584.923 353.946H583.389C583.04 355.617 581.668 356.648 579.929 356.648C577.364 356.648 575.668 354.415 575.668 351.228C575.668 348.057 577.415 345.875 579.929 345.875C581.795 345.875 583.057 347.077 583.381 348.56H584.915C584.557 346.131 582.528 344.495 579.903 344.495C576.477 344.495 574.142 347.341 574.142 351.279C574.142 355.182 576.409 358.037 579.929 358.037ZM593.331 344.674H590.561V341.537H589.036V344.674H587.084V345.995H589.036V354.705C589.036 356.844 590.723 357.961 592.402 357.961C593.033 357.961 593.459 357.841 593.749 357.731L593.425 356.358C593.212 356.418 592.939 356.478 592.538 356.478C591.507 356.478 590.561 355.992 590.561 354.347V345.995H593.331V344.674ZM596.793 357.765H598.319V344.674H596.793V357.765ZM597.569 342.424C598.191 342.424 598.711 341.929 598.711 341.333C598.711 340.736 598.191 340.242 597.569 340.242C596.947 340.242 596.435 340.736 596.435 341.333C596.435 341.929 596.947 342.424 597.569 342.424ZM612.464 344.674H610.82L606.933 355.762H606.814L602.928 344.674H601.283L606.064 357.765H607.683L612.464 344.674ZM615.45 357.765H616.975V344.674H615.45V357.765ZM616.225 342.424C616.847 342.424 617.367 341.929 617.367 341.333C617.367 340.736 616.847 340.242 616.225 340.242C615.603 340.242 615.092 340.736 615.092 341.333C615.092 341.929 615.603 342.424 616.225 342.424ZM626.143 344.674H623.374V341.537H621.848V344.674H619.896V345.995H621.848V354.705C621.848 356.844 623.536 357.961 625.214 357.961C625.845 357.961 626.271 357.841 626.561 357.731L626.237 356.358C626.024 356.418 625.751 356.478 625.351 356.478C624.32 356.478 623.374 355.992 623.374 354.347V345.995H626.143V344.674ZM630.646 362.665C632.282 362.665 633.484 361.728 634.183 359.836L639.731 344.699L638.077 344.674L634.191 355.762H634.072L630.185 344.674H628.54L633.356 357.892L632.879 359.222C632.163 361.191 631.131 361.54 629.589 361.046L629.18 362.392C629.487 362.529 630.049 362.665 630.646 362.665ZM483.854 389.765H485.371V381.378C485.371 379.341 486.727 377.892 488.542 377.892C490.332 377.892 491.371 379.086 491.371 380.858V389.765H492.923V381.148C492.923 379.265 494.048 377.892 496.042 377.892C497.772 377.892 498.923 378.932 498.923 380.995V389.765H500.44V380.995C500.44 378.063 498.931 376.503 496.502 376.503C494.593 376.503 493.212 377.432 492.624 378.881H492.513C491.934 377.398 490.783 376.503 488.977 376.503C487.263 376.503 485.985 377.33 485.465 378.685H485.329V376.674H483.854V389.765ZM509.544 390.037C512.936 390.037 515.305 387.267 515.305 383.279C515.305 379.265 512.936 376.495 509.544 376.495C506.152 376.495 503.783 379.265 503.783 383.279C503.783 387.267 506.152 390.037 509.544 390.037ZM509.544 388.648C506.825 388.648 505.308 386.211 505.308 383.279C505.308 380.347 506.825 377.875 509.544 377.875C512.263 377.875 513.78 380.347 513.78 383.279C513.78 386.211 512.263 388.648 509.544 388.648ZM520.153 381.583C520.153 379.299 521.653 377.892 523.715 377.892C525.727 377.892 527.022 379.239 527.022 381.378V389.765H528.539V381.285C528.539 378.182 526.741 376.503 524.099 376.503C522.181 376.503 520.86 377.39 520.246 378.728H520.11V376.674H518.636V389.765H520.153V381.583ZM532.551 389.765H534.077V376.674H532.551V389.765ZM533.327 374.424C533.949 374.424 534.469 373.929 534.469 373.333C534.469 372.736 533.949 372.242 533.327 372.242C532.705 372.242 532.193 372.736 532.193 373.333C532.193 373.929 532.705 374.424 533.327 374.424ZM543.245 376.674H540.475V373.537H538.95V376.674H536.998V377.995H538.95V386.705C538.95 388.844 540.637 389.961 542.316 389.961C542.947 389.961 543.373 389.841 543.663 389.731L543.339 388.358C543.126 388.418 542.853 388.478 542.452 388.478C541.421 388.478 540.475 387.992 540.475 386.347V377.995H543.245V376.674ZM551.638 390.037C555.03 390.037 557.399 387.267 557.399 383.279C557.399 379.265 555.03 376.495 551.638 376.495C548.246 376.495 545.876 379.265 545.876 383.279C545.876 387.267 548.246 390.037 551.638 390.037ZM551.638 388.648C548.919 388.648 547.402 386.211 547.402 383.279C547.402 380.347 548.919 377.875 551.638 377.875C554.357 377.875 555.874 380.347 555.874 383.279C555.874 386.211 554.357 388.648 551.638 388.648ZM560.729 389.765H562.246V381.31C562.246 379.367 563.738 377.961 565.783 377.961C566.184 377.961 566.559 378.029 566.695 378.046V376.503C566.491 376.495 566.141 376.478 565.894 376.478C564.249 376.478 562.843 377.364 562.315 378.685H562.204V376.674H560.729V389.765ZM569.301 389.765H570.827V376.674H569.301V389.765ZM570.077 374.424C570.699 374.424 571.219 373.929 571.219 373.333C571.219 372.736 570.699 372.242 570.077 372.242C569.455 372.242 568.943 372.736 568.943 373.333C568.943 373.929 569.455 374.424 570.077 374.424ZM576.356 381.583C576.356 379.299 577.856 377.892 579.918 377.892C581.93 377.892 583.225 379.239 583.225 381.378V389.765H584.742V381.285C584.742 378.182 582.944 376.503 580.302 376.503C578.384 376.503 577.063 377.39 576.45 378.728H576.313V376.674H574.839V389.765H576.356V381.583ZM593.732 394.946C596.834 394.946 599.135 393.429 599.135 390.106V376.674H597.652V379.171H597.499C596.962 377.995 595.879 376.495 593.476 376.495C590.237 376.495 588.064 379.205 588.064 383.185C588.064 387.199 590.314 389.628 593.45 389.628C595.803 389.628 596.953 388.265 597.473 387.063H597.609V390.012C597.609 392.449 596.05 393.583 593.732 393.583C591.49 393.583 590.416 392.5 589.862 391.503L588.618 392.321C589.385 393.821 591.055 394.946 593.732 394.946ZM593.629 388.239C591.03 388.239 589.589 386.16 589.589 383.16C589.589 380.211 591.004 377.875 593.629 377.875C596.195 377.875 597.635 380.091 597.635 383.16C597.635 386.321 596.152 388.239 593.629 388.239Z" fill="white"/>
</g>
<defs>
<filter id="filter0_f" x="226.466" y="-44.5339" width="642.828" height="672.387" filterUnits="userSpaceOnUse" color-interpolation-filters="sRGB">
<feFlood flood-opacity="0" result="BackgroundImageFix"/>
<feBlend mode="normal" in="SourceGraphic" in2="BackgroundImageFix" result="shape"/>
<feGaussianBlur stdDeviation="21" result="effect1_foregroundBlur"/>
</filter>
<filter id="filter1_d" x="794.5" y="273.502" width="37" height="37" filterUnits="userSpaceOnUse" color-interpolation-filters="sRGB">
<feFlood flood-opacity="0" result="BackgroundImageFix"/>
<feColorMatrix in="SourceAlpha" type="matrix" values="0 0 0 0 0 0 0 0 0 0 0 0 0 0 0 0 0 0 127 0"/>
<feOffset/>
<feGaussianBlur stdDeviation="4"/>
<feColorMatrix type="matrix" values="0 0 0 0 0.054902 0 0 0 0 0.741176 0 0 0 0 0.945098 0 0 0 0.8 0"/>
<feBlend mode="normal" in2="BackgroundImageFix" result="effect1_dropShadow"/>
<feBlend mode="normal" in="SourceGraphic" in2="effect1_dropShadow" result="shape"/>
</filter>
<filter id="filter2_d" x="749.5" y="122.5" width="37" height="37" filterUnits="userSpaceOnUse" color-interpolation-filters="sRGB">
<feFlood flood-opacity="0" result="BackgroundImageFix"/>
<feColorMatrix in="SourceAlpha" type="matrix" values="0 0 0 0 0 0 0 0 0 0 0 0 0 0 0 0 0 0 127 0"/>
<feOffset/>
<feGaussianBlur stdDeviation="4"/>
<feColorMatrix type="matrix" values="0 0 0 0 0.054902 0 0 0 0 0.741176 0 0 0 0 0.945098 0 0 0 0.8 0"/>
<feBlend mode="normal" in2="BackgroundImageFix" result="effect1_dropShadow"/>
<feBlend mode="normal" in="SourceGraphic" in2="effect1_dropShadow" result="shape"/>
</filter>
<filter id="filter3_d" x="749.5" y="424.5" width="37" height="37" filterUnits="userSpaceOnUse" color-interpolation-filters="sRGB">
<feFlood flood-opacity="0" result="BackgroundImageFix"/>
<feColorMatrix in="SourceAlpha" type="matrix" values="0 0 0 0 0 0 0 0 0 0 0 0 0 0 0 0 0 0 127 0"/>
<feOffset/>
<feGaussianBlur stdDeviation="4"/>
<feColorMatrix type="matrix" values="0 0 0 0 0.054902 0 0 0 0 0.741176 0 0 0 0 0.945098 0 0 0 0.8 0"/>
<feBlend mode="normal" in2="BackgroundImageFix" result="effect1_dropShadow"/>
<feBlend mode="normal" in="SourceGraphic" in2="effect1_dropShadow" result="shape"/>
</filter>
<filter id="filter4_d" x="635.5" y="24.5" width="37" height="37" filterUnits="userSpaceOnUse" color-interpolation-filters="sRGB">
<feFlood flood-opacity="0" result="BackgroundImageFix"/>
<feColorMatrix in="SourceAlpha" type="matrix" values="0 0 0 0 0 0 0 0 0 0 0 0 0 0 0 0 0 0 127 0"/>
<feOffset/>
<feGaussianBlur stdDeviation="4"/>
<feColorMatrix type="matrix" values="0 0 0 0 0.054902 0 0 0 0 0.741176 0 0 0 0 0.945098 0 0 0 0.8 0"/>
<feBlend mode="normal" in2="BackgroundImageFix" result="effect1_dropShadow"/>
<feBlend mode="normal" in="SourceGraphic" in2="effect1_dropShadow" result="shape"/>
</filter>
<filter id="filter5_d" x="264.5" y="250.5" width="37" height="37" filterUnits="userSpaceOnUse" color-interpolation-filters="sRGB">
<feFlood flood-opacity="0" result="BackgroundImageFix"/>
<feColorMatrix in="SourceAlpha" type="matrix" values="0 0 0 0 0 0 0 0 0 0 0 0 0 0 0 0 0 0 127 0"/>
<feOffset/>
<feGaussianBlur stdDeviation="4"/>
<feColorMatrix type="matrix" values="0 0 0 0 0.360784 0 0 0 0 0.780392 0 0 0 0 0.552941 0 0 0 1 0"/>
<feBlend mode="normal" in2="BackgroundImageFix" result="effect1_dropShadow"/>
<feBlend mode="normal" in="SourceGraphic" in2="effect1_dropShadow" result="shape"/>
</filter>
<filter id="filter6_d" x="320.5" y="106.5" width="37" height="37" filterUnits="userSpaceOnUse" color-interpolation-filters="sRGB">
<feFlood flood-opacity="0" result="BackgroundImageFix"/>
<feColorMatrix in="SourceAlpha" type="matrix" values="0 0 0 0 0 0 0 0 0 0 0 0 0 0 0 0 0 0 127 0"/>
<feOffset/>
<feGaussianBlur stdDeviation="4"/>
<feColorMatrix type="matrix" values="0 0 0 0 0.360784 0 0 0 0 0.780392 0 0 0 0 0.552941 0 0 0 1 0"/>
<feBlend mode="normal" in2="BackgroundImageFix" result="effect1_dropShadow"/>
<feBlend mode="normal" in="SourceGraphic" in2="effect1_dropShadow" result="shape"/>
</filter>
<filter id="filter7_d" x="300.5" y="410.5" width="37" height="37" filterUnits="userSpaceOnUse" color-interpolation-filters="sRGB">
<feFlood flood-opacity="0" result="BackgroundImageFix"/>
<feColorMatrix in="SourceAlpha" type="matrix" values="0 0 0 0 0 0 0 0 0 0 0 0 0 0 0 0 0 0 127 0"/>
<feOffset/>
<feGaussianBlur stdDeviation="4"/>
<feColorMatrix type="matrix" values="0 0 0 0 0.360784 0 0 0 0 0.780392 0 0 0 0 0.552941 0 0 0 1 0"/>
<feBlend mode="normal" in2="BackgroundImageFix" result="effect1_dropShadow"/>
<feBlend mode="normal" in="SourceGraphic" in2="effect1_dropShadow" result="shape"/>
</filter>
<filter id="filter8_d" x="416.5" y="514.5" width="37" height="37" filterUnits="userSpaceOnUse" color-interpolation-filters="sRGB">
<feFlood flood-opacity="0" result="BackgroundImageFix"/>
<feColorMatrix in="SourceAlpha" type="matrix" values="0 0 0 0 0 0 0 0 0 0 0 0 0 0 0 0 0 0 127 0"/>
<feOffset/>
<feGaussianBlur stdDeviation="4"/>
<feColorMatrix type="matrix" values="0 0 0 0 0.360784 0 0 0 0 0.780392 0 0 0 0 0.552941 0 0 0 1 0"/>
<feBlend mode="normal" in2="BackgroundImageFix" result="effect1_dropShadow"/>
<feBlend mode="normal" in="SourceGraphic" in2="effect1_dropShadow" result="shape"/>
</filter>
<linearGradient id="paint0_linear" x1="758.103" y1="291.659" x2="337.656" y2="291.659" gradientUnits="userSpaceOnUse">
<stop stop-color="#0EBDF1"/>
<stop offset="1" stop-color="#5CC78D"/>
</linearGradient>
<radialGradient id="paint1_radial" cx="0" cy="0" r="1" gradientUnits="userSpaceOnUse" gradientTransform="translate(547.925 69.6123) rotate(90) scale(444.091 277.557)">
<stop stop-color="#0EBDF1" stop-opacity="0.2"/>
<stop offset="1" stop-color="#FF26C2" stop-opacity="0"/>
</radialGradient>
<linearGradient id="paint2_linear" x1="769.971" y1="291.658" x2="325.88" y2="291.658" gradientUnits="userSpaceOnUse">
<stop stop-color="#0EBDF1"/>
<stop offset="1" stop-color="#5CC78D"/>
</linearGradient>
<clipPath id="clip0">
<rect width="1083" height="587" fill="white"/>
</clipPath>
</defs>
</svg>
