<svg width="673" height="1190" viewBox="0 0 673 1190" fill="none" xmlns="http://www.w3.org/2000/svg">
<g opacity="0.4" filter="url(#filter0_f)">
<ellipse cx="336.5" cy="606.039" rx="210.223" ry="231.125" transform="rotate(105 336.5 606.039)" stroke="url(#paint0_linear)" stroke-width="27"/>
</g>
<circle cx="336.501" cy="606.084" r="222.045" fill="#0C242C"/>
<circle cx="336.501" cy="606.084" r="222.045" fill="url(#paint1_radial)"/>
<circle cx="336.501" cy="606.084" r="216.045" transform="rotate(90 336.501 606.084)" stroke="url(#paint2_linear)" stroke-width="12"/>
<path d="M581.835 712.945C565.686 748.757 541.903 780.605 512.151 806.26C482.4 831.914 447.399 850.754 409.601 861.459C371.803 872.165 332.121 874.478 293.336 868.235C254.55 861.993 217.598 847.346 185.067 825.322" stroke="#0EBDF1" stroke-linecap="round" stroke-linejoin="round" stroke-dasharray="2 4"/>
<g filter="url(#filter1_d)">
<circle cx="336.159" cy="871.159" r="8" transform="rotate(-90 336.159 871.159)" fill="white"/>
<circle cx="336.159" cy="871.159" r="8" transform="rotate(-90 336.159 871.159)" stroke="#0EBDF1" stroke-width="5"/>
</g>
<g filter="url(#filter2_d)">
<circle cx="487.159" cy="826.159" r="8" transform="rotate(-90 487.159 826.159)" fill="white"/>
<circle cx="487.159" cy="826.159" r="8" transform="rotate(-90 487.159 826.159)" stroke="#0EBDF1" stroke-width="5"/>
</g>
<g filter="url(#filter3_d)">
<circle cx="185.159" cy="826.159" r="8" transform="rotate(-90 185.159 826.159)" fill="white"/>
<circle cx="185.159" cy="826.159" r="8" transform="rotate(-90 185.159 826.159)" stroke="#0EBDF1" stroke-width="5"/>
</g>
<g filter="url(#filter4_d)">
<circle cx="585.159" cy="712.159" r="8" transform="rotate(-90 585.159 712.159)" fill="white"/>
<circle cx="585.159" cy="712.159" r="8" transform="rotate(-90 585.159 712.159)" stroke="#0EBDF1" stroke-width="5"/>
</g>
<path d="M91.7704 494.562C108.955 457.591 134.305 425 165.909 399.245C197.513 373.49 234.549 355.24 274.228 345.872C313.907 336.503 355.194 336.258 394.981 345.157C434.768 354.055 472.017 371.865 503.925 397.244" stroke="#5CC78D" stroke-linecap="round" stroke-linejoin="round" stroke-dasharray="2 4"/>
<g filter="url(#filter5_d)">
<circle cx="359.159" cy="341.159" r="8" transform="rotate(90 359.159 341.159)" fill="white"/>
<circle cx="359.159" cy="341.159" r="8" transform="rotate(90 359.159 341.159)" stroke="#5CC78D" stroke-width="5"/>
</g>
<g filter="url(#filter6_d)">
<circle cx="503.159" cy="397.159" r="8" transform="rotate(90 503.159 397.159)" fill="white"/>
<circle cx="503.159" cy="397.159" r="8" transform="rotate(90 503.159 397.159)" stroke="#5CC78D" stroke-width="5"/>
</g>
<g filter="url(#filter7_d)">
<circle cx="199.159" cy="377.159" r="8" transform="rotate(90 199.159 377.159)" fill="white"/>
<circle cx="199.159" cy="377.159" r="8" transform="rotate(90 199.159 377.159)" stroke="#5CC78D" stroke-width="5"/>
</g>
<g filter="url(#filter8_d)">
<circle cx="95.1592" cy="493.159" r="8" transform="rotate(90 95.1592 493.159)" fill="white"/>
<circle cx="95.1592" cy="493.159" r="8" transform="rotate(90 95.1592 493.159)" stroke="#5CC78D" stroke-width="5"/>
</g>
<path d="M234.068 23H241.525C245.446 23 247.534 20.9545 247.534 18.1761C247.534 15.5938 245.684 14.0341 243.699 13.9403V13.7699C245.514 13.3608 246.852 12.0739 246.852 10.0199C246.852 7.40341 244.909 5.54545 241.056 5.54545H234.068V23ZM237.758 19.983V15.3466H240.852C242.625 15.3466 243.724 16.3693 243.724 17.8097C243.724 19.1222 242.829 19.983 240.767 19.983H237.758ZM237.758 12.8494V8.52841H240.562C242.199 8.52841 243.127 9.37216 243.127 10.6335C243.127 12.0142 242.002 12.8494 240.494 12.8494H237.758ZM249.867 23H253.498V9.90909H249.867V23ZM251.691 8.22159C252.773 8.22159 253.659 7.39489 253.659 6.38068C253.659 5.375 252.773 4.54829 251.691 4.54829C250.617 4.54829 249.73 5.375 249.73 6.38068C249.73 7.39489 250.617 8.22159 251.691 8.22159ZM262.321 23.2557C266.292 23.2557 268.764 20.5369 268.764 16.5057C268.764 12.4489 266.292 9.73864 262.321 9.73864C258.349 9.73864 255.877 12.4489 255.877 16.5057C255.877 20.5369 258.349 23.2557 262.321 23.2557ZM262.338 20.4432C260.505 20.4432 259.568 18.7642 259.568 16.4801C259.568 14.196 260.505 12.5085 262.338 12.5085C264.136 12.5085 265.074 14.196 265.074 16.4801C265.074 18.7642 264.136 20.4432 262.338 20.4432ZM274.755 5.54545H271.125V23H274.755V5.54545ZM283.578 23.2557C287.55 23.2557 290.022 20.5369 290.022 16.5057C290.022 12.4489 287.55 9.73864 283.578 9.73864C279.607 9.73864 277.135 12.4489 277.135 16.5057C277.135 20.5369 279.607 23.2557 283.578 23.2557ZM283.596 20.4432C281.763 20.4432 280.826 18.7642 280.826 16.4801C280.826 14.196 281.763 12.5085 283.596 12.5085C285.394 12.5085 286.331 14.196 286.331 16.4801C286.331 18.7642 285.394 20.4432 283.596 20.4432ZM298.28 28.1818C302.022 28.1818 304.681 26.4773 304.681 23.1278V9.90909H301.076V12.108H300.939C300.453 11.0426 299.388 9.73864 297.198 9.73864C294.326 9.73864 291.897 11.9716 291.897 16.429C291.897 20.7841 294.257 22.8125 297.206 22.8125C299.294 22.8125 300.462 21.7642 300.939 20.6818H301.093V23.0767C301.093 24.875 299.942 25.5739 298.365 25.5739C296.763 25.5739 295.953 24.875 295.655 24.0824L292.297 24.5341C292.732 26.5966 294.752 28.1818 298.28 28.1818ZM298.357 20.0852C296.576 20.0852 295.604 18.6705 295.604 16.4119C295.604 14.1875 296.559 12.6278 298.357 12.6278C300.121 12.6278 301.11 14.1193 301.11 16.4119C301.11 18.7216 300.104 20.0852 298.357 20.0852ZM307.57 23H311.201V9.90909H307.57V23ZM309.394 8.22159C310.476 8.22159 311.363 7.39489 311.363 6.38068C311.363 5.375 310.476 4.54829 309.394 4.54829C308.32 4.54829 307.434 5.375 307.434 6.38068C307.434 7.39489 308.32 8.22159 309.394 8.22159ZM320.024 23.2557C323.51 23.2557 325.7 21.2102 325.87 18.2017H322.444C322.231 19.5994 321.311 20.3835 320.066 20.3835C318.37 20.3835 317.271 18.9602 317.271 16.4545C317.271 13.983 318.379 12.5682 320.066 12.5682C321.396 12.5682 322.248 13.446 322.444 14.75H325.87C325.717 11.7244 323.424 9.73864 320.007 9.73864C316.035 9.73864 313.581 12.4915 313.581 16.5057C313.581 20.4858 315.993 23.2557 320.024 23.2557ZM331.928 23.2472C333.863 23.2472 335.115 22.4034 335.755 21.1847H335.857V23H339.3V14.1705C339.3 11.0511 336.658 9.73864 333.743 9.73864C330.607 9.73864 328.544 11.2386 328.042 13.625L331.4 13.8977C331.647 13.0284 332.422 12.3892 333.726 12.3892C334.962 12.3892 335.669 13.0114 335.669 14.0852V14.1364C335.669 14.9801 334.775 15.0909 332.499 15.3125C329.908 15.5511 327.581 16.4205 327.581 19.3438C327.581 21.9347 329.431 23.2472 331.928 23.2472ZM332.968 20.7415C331.851 20.7415 331.05 20.2216 331.05 19.2244C331.05 18.2017 331.894 17.6989 333.172 17.5199C333.965 17.4091 335.26 17.2216 335.695 16.9318V18.321C335.695 19.6932 334.561 20.7415 332.968 20.7415ZM345.748 5.54545H342.117V23H345.748V5.54545ZM363.748 10.5653H367.284C367.233 7.45454 364.676 5.30682 360.79 5.30682C356.963 5.30682 354.159 7.42045 354.176 10.5909C354.168 13.1648 355.983 14.6392 358.932 15.3466L360.833 15.8239C362.733 16.2841 363.79 16.8295 363.799 18.0057C363.79 19.2841 362.58 20.1534 360.705 20.1534C358.787 20.1534 357.407 19.267 357.287 17.5199H353.716C353.81 21.2955 356.512 23.2472 360.748 23.2472C365.009 23.2472 367.515 21.2102 367.523 18.0142C367.515 15.108 365.324 13.5653 362.29 12.8835L360.722 12.5085C359.205 12.1591 357.935 11.5966 357.961 10.3438C357.961 9.21875 358.958 8.39204 360.765 8.39204C362.529 8.39204 363.611 9.19318 363.748 10.5653ZM372.179 27.9091C374.88 27.9091 376.312 26.5284 377.054 24.4148L382.142 9.92614L378.298 9.90909L375.562 19.5227H375.426L372.716 9.90909H368.897L373.593 23.375L373.38 23.929C372.903 25.1562 371.991 25.2159 370.713 24.8239L369.895 27.5341C370.414 27.7557 371.258 27.9091 372.179 27.9091ZM394.892 13.642C394.568 11.2301 392.625 9.73864 389.318 9.73864C385.968 9.73864 383.761 11.2898 383.77 13.8125C383.761 15.7727 384.997 17.0426 387.554 17.554L389.821 18.0057C390.963 18.2358 391.483 18.6534 391.5 19.3097C391.483 20.0852 390.639 20.6392 389.369 20.6392C388.074 20.6392 387.213 20.0852 386.991 19.0199L383.42 19.2074C383.761 21.7131 385.892 23.2557 389.36 23.2557C392.752 23.2557 395.181 21.5256 395.19 18.9432C395.181 17.0511 393.946 15.9176 391.406 15.3977L389.037 14.9205C387.818 14.6562 387.366 14.2386 387.375 13.608C387.366 12.8239 388.252 12.3125 389.377 12.3125C390.639 12.3125 391.389 13.0028 391.568 13.8466L394.892 13.642ZM404.439 9.90909H401.976V6.77273H398.346V9.90909H396.556V12.6364H398.346V19.4545C398.328 22.0199 400.076 23.2898 402.709 23.179C403.647 23.1449 404.311 22.9574 404.678 22.8381L404.107 20.1364C403.928 20.1705 403.544 20.2557 403.203 20.2557C402.479 20.2557 401.976 19.983 401.976 18.9773V12.6364H404.439V9.90909ZM412.63 23.2557C415.868 23.2557 418.05 21.679 418.561 19.25L415.203 19.0284C414.837 20.0256 413.9 20.5455 412.689 20.5455C410.874 20.5455 409.723 19.3438 409.723 17.392V17.3835H418.638V16.3864C418.638 11.9375 415.945 9.73864 412.485 9.73864C408.632 9.73864 406.135 12.4744 406.135 16.5142C406.135 20.6648 408.598 23.2557 412.63 23.2557ZM409.723 15.1335C409.8 13.642 410.934 12.4489 412.544 12.4489C414.121 12.4489 415.212 13.5739 415.221 15.1335H409.723ZM421.007 23H424.638V15.142C424.638 13.6932 425.559 12.7301 426.769 12.7301C427.962 12.7301 428.763 13.5483 428.763 14.8352V23H432.283V15.0057C432.283 13.6506 433.059 12.7301 434.38 12.7301C435.539 12.7301 436.408 13.4545 436.408 14.9119V23H440.03V14.196C440.03 11.358 438.343 9.73864 435.905 9.73864C433.988 9.73864 432.496 10.7188 431.959 12.2188H431.823C431.405 10.7017 430.067 9.73864 428.269 9.73864C426.505 9.73864 425.167 10.6761 424.621 12.2188H424.468V9.90909H421.007V23Z" fill="#5CC78D"/>
<path d="M238.409 100H242.614C245.364 100 246.5 98.6591 246.5 96.9091C246.5 95.0682 245.227 94.0682 244.159 94V93.8864C245.159 93.6136 246.045 92.9545 246.045 91.4545C246.045 89.75 244.909 88.3636 242.477 88.3636H238.409V100ZM239.818 98.75V94.7045H242.682C244.205 94.7045 245.159 95.7273 245.159 96.9091C245.159 97.9318 244.455 98.75 242.614 98.75H239.818ZM239.818 93.4773V89.6136H242.477C244.023 89.6136 244.705 90.4318 244.705 91.4545C244.705 92.6818 243.705 93.4773 242.432 93.4773H239.818ZM251.362 100.205C252.884 100.205 253.68 99.3864 253.953 98.8182H254.021V100H255.362V94.25C255.362 91.4773 253.248 91.1591 252.134 91.1591C250.816 91.1591 249.316 91.6136 248.634 93.2045L249.907 93.6591C250.203 93.0227 250.901 92.3409 252.18 92.3409C253.413 92.3409 254.021 92.9943 254.021 94.1136V94.1591C254.021 94.8068 253.362 94.75 251.771 94.9545C250.151 95.1648 248.384 95.5227 248.384 97.5227C248.384 99.2273 249.703 100.205 251.362 100.205ZM251.566 99C250.498 99 249.725 98.5227 249.725 97.5909C249.725 96.5682 250.657 96.25 251.703 96.1136C252.271 96.0455 253.794 95.8864 254.021 95.6136V96.8409C254.021 97.9318 253.157 99 251.566 99ZM261.515 100.182C263.446 100.182 264.719 99 264.946 97.4545H263.606C263.356 98.4091 262.56 98.9773 261.515 98.9773C259.924 98.9773 258.901 97.6591 258.901 95.6364C258.901 93.6591 259.946 92.3636 261.515 92.3636C262.696 92.3636 263.401 93.0909 263.606 93.8864H264.946C264.719 92.25 263.333 91.1591 261.492 91.1591C259.128 91.1591 257.56 93.0227 257.56 95.6818C257.56 98.2955 259.06 100.182 261.515 100.182ZM270.862 91.2727H268.998V89.1818H267.658V91.2727H266.339V92.4091H267.658V97.8636C267.658 99.3864 268.885 100.114 270.021 100.114C270.521 100.114 270.839 100.023 271.021 99.9545L270.748 98.75C270.635 98.7727 270.453 98.8182 270.158 98.8182C269.567 98.8182 268.998 98.6364 268.998 97.5V92.4091H270.862V91.2727ZM276.604 100.182C278.377 100.182 279.673 99.2955 280.082 97.9773L278.786 97.6136C278.445 98.5227 277.656 98.9773 276.604 98.9773C275.031 98.9773 273.945 97.9602 273.883 96.0909H280.218V95.5227C280.218 92.2727 278.286 91.1591 276.468 91.1591C274.104 91.1591 272.536 93.0227 272.536 95.7045C272.536 98.3864 274.082 100.182 276.604 100.182ZM273.883 94.9318C273.974 93.5739 274.934 92.3636 276.468 92.3636C277.923 92.3636 278.854 93.4545 278.854 94.9318H273.883ZM282.418 100H283.759V94.4773C283.759 93.2955 284.691 92.4318 285.963 92.4318C286.321 92.4318 286.691 92.5 286.782 92.5227V91.1591C286.628 91.1477 286.276 91.1364 286.077 91.1364C285.032 91.1364 284.122 91.7273 283.804 92.5909H283.713V91.2727H282.418V100ZM288.531 100H289.872V91.2727H288.531V100ZM289.213 89.8182C289.736 89.8182 290.167 89.4091 290.167 88.9091C290.167 88.4091 289.736 88 289.213 88C288.69 88 288.258 88.4091 288.258 88.9091C288.258 89.4091 288.69 89.8182 289.213 89.8182ZM295.056 100.205C296.579 100.205 297.374 99.3864 297.647 98.8182H297.715V100H299.056V94.25C299.056 91.4773 296.942 91.1591 295.829 91.1591C294.511 91.1591 293.011 91.6136 292.329 93.2045L293.602 93.6591C293.897 93.0227 294.596 92.3409 295.874 92.3409C297.107 92.3409 297.715 92.9943 297.715 94.1136V94.1591C297.715 94.8068 297.056 94.75 295.465 94.9545C293.846 95.1648 292.079 95.5227 292.079 97.5227C292.079 99.2273 293.397 100.205 295.056 100.205ZM295.261 99C294.192 99 293.42 98.5227 293.42 97.5909C293.42 96.5682 294.352 96.25 295.397 96.1136C295.965 96.0455 297.488 95.8864 297.715 95.6136V96.8409C297.715 97.9318 296.852 99 295.261 99ZM303.004 88.3636H301.664V100H303.004V88.3636ZM313.939 100.182C315.712 100.182 317.008 99.2955 317.417 97.9773L316.121 97.6136C315.78 98.5227 314.991 98.9773 313.939 98.9773C312.366 98.9773 311.28 97.9602 311.218 96.0909H317.553V95.5227C317.553 92.2727 315.621 91.1591 313.803 91.1591C311.439 91.1591 309.871 93.0227 309.871 95.7045C309.871 98.3864 311.417 100.182 313.939 100.182ZM311.218 94.9318C311.309 93.5739 312.269 92.3636 313.803 92.3636C315.258 92.3636 316.189 93.4545 316.189 94.9318H311.218ZM320.519 91.2727H318.973L321.746 95.6364L318.973 100H320.519L322.609 96.6136L324.7 100H326.246L323.428 95.6364L326.246 91.2727H324.7L322.609 94.8409L320.519 91.2727ZM332.115 91.2727H330.251V89.1818H328.91V91.2727H327.592V92.4091H328.91V97.8636C328.91 99.3864 330.137 100.114 331.274 100.114C331.774 100.114 332.092 100.023 332.274 99.9545L332.001 98.75C331.887 98.7727 331.706 98.8182 331.41 98.8182C330.819 98.8182 330.251 98.6364 330.251 97.5V92.4091H332.115V91.2727ZM334.292 100H335.633V94.4773C335.633 93.2955 336.564 92.4318 337.837 92.4318C338.195 92.4318 338.564 92.5 338.655 92.5227V91.1591C338.502 91.1477 338.15 91.1364 337.951 91.1364C336.905 91.1364 335.996 91.7273 335.678 92.5909H335.587V91.2727H334.292V100ZM342.973 100.205C344.496 100.205 345.291 99.3864 345.564 98.8182H345.632V100H346.973V94.25C346.973 91.4773 344.859 91.1591 343.746 91.1591C342.427 91.1591 340.927 91.6136 340.246 93.2045L341.518 93.6591C341.814 93.0227 342.513 92.3409 343.791 92.3409C345.024 92.3409 345.632 92.9943 345.632 94.1136V94.1591C345.632 94.8068 344.973 94.75 343.382 94.9545C341.763 95.1648 339.996 95.5227 339.996 97.5227C339.996 99.2273 341.314 100.205 342.973 100.205ZM343.177 99C342.109 99 341.337 98.5227 341.337 97.5909C341.337 96.5682 342.268 96.25 343.314 96.1136C343.882 96.0455 345.405 95.8864 345.632 95.6136V96.8409C345.632 97.9318 344.768 99 343.177 99ZM353.126 100.182C355.058 100.182 356.33 99 356.558 97.4545H355.217C354.967 98.4091 354.171 98.9773 353.126 98.9773C351.535 98.9773 350.512 97.6591 350.512 95.6364C350.512 93.6591 351.558 92.3636 353.126 92.3636C354.308 92.3636 355.012 93.0909 355.217 93.8864H356.558C356.33 92.25 354.944 91.1591 353.103 91.1591C350.739 91.1591 349.171 93.0227 349.171 95.6818C349.171 98.2955 350.671 100.182 353.126 100.182ZM362.473 91.2727H360.61V89.1818H359.269V91.2727H357.951V92.4091H359.269V97.8636C359.269 99.3864 360.496 100.114 361.632 100.114C362.132 100.114 362.451 100.023 362.632 99.9545L362.36 98.75C362.246 98.7727 362.064 98.8182 361.769 98.8182C361.178 98.8182 360.61 98.6364 360.61 97.5V92.4091H362.473V91.2727ZM364.65 100H365.991V91.2727H364.65V100ZM365.332 89.8182C365.855 89.8182 366.287 89.4091 366.287 88.9091C366.287 88.4091 365.855 88 365.332 88C364.809 88 364.378 88.4091 364.378 88.9091C364.378 89.4091 364.809 89.8182 365.332 89.8182ZM372.153 100.182C374.516 100.182 376.107 98.3864 376.107 95.6818C376.107 92.9545 374.516 91.1591 372.153 91.1591C369.789 91.1591 368.198 92.9545 368.198 95.6818C368.198 98.3864 369.789 100.182 372.153 100.182ZM372.153 98.9773C370.357 98.9773 369.539 97.4318 369.539 95.6818C369.539 93.9318 370.357 92.3636 372.153 92.3636C373.948 92.3636 374.766 93.9318 374.766 95.6818C374.766 97.4318 373.948 98.9773 372.153 98.9773ZM379.655 94.75C379.655 93.2273 380.598 92.3636 381.882 92.3636C383.127 92.3636 383.882 93.1761 383.882 94.5455V100H385.223V94.4545C385.223 92.2273 384.036 91.1591 382.269 91.1591C380.951 91.1591 380.132 91.75 379.723 92.6364H379.61V91.2727H378.314V100H379.655V94.75Z" fill="white"/>
<rect x="195" y="92" width="12" height="4" rx="2" fill="#5CC78D"/>
<rect x="195" y="148" width="12" height="4" rx="2" fill="#5CC78D"/>
<path d="M238.409 144.364V156H239.727V147.159H239.841L243.477 156H244.75L248.386 147.159H248.5V156H249.818V144.364H248.136L244.182 154.023H244.045L240.091 144.364H238.409ZM256.281 156.182C258.053 156.182 259.349 155.295 259.758 153.977L258.463 153.614C258.122 154.523 257.332 154.977 256.281 154.977C254.707 154.977 253.622 153.96 253.559 152.091H259.894V151.523C259.894 148.273 257.963 147.159 256.144 147.159C253.781 147.159 252.213 149.023 252.213 151.705C252.213 154.386 253.758 156.182 256.281 156.182ZM253.559 150.932C253.65 149.574 254.61 148.364 256.144 148.364C257.599 148.364 258.531 149.455 258.531 150.932H253.559ZM265.89 147.273H264.026V145.182H262.685V147.273H261.367V148.409H262.685V153.864C262.685 155.386 263.912 156.114 265.049 156.114C265.549 156.114 265.867 156.023 266.049 155.955L265.776 154.75C265.662 154.773 265.481 154.818 265.185 154.818C264.594 154.818 264.026 154.636 264.026 153.5V148.409H265.89V147.273ZM270.635 156.205C272.158 156.205 272.953 155.386 273.226 154.818H273.294V156H274.635V150.25C274.635 147.477 272.521 147.159 271.408 147.159C270.089 147.159 268.589 147.614 267.908 149.205L269.18 149.659C269.476 149.023 270.175 148.341 271.453 148.341C272.686 148.341 273.294 148.994 273.294 150.114V150.159C273.294 150.807 272.635 150.75 271.044 150.955C269.425 151.165 267.658 151.523 267.658 153.523C267.658 155.227 268.976 156.205 270.635 156.205ZM270.839 155C269.771 155 268.998 154.523 268.998 153.591C268.998 152.568 269.93 152.25 270.976 152.114C271.544 152.045 273.067 151.886 273.294 151.614V152.841C273.294 153.932 272.43 155 270.839 155ZM277.424 156H278.72V154.659H278.879C279.174 155.136 279.742 156.182 281.424 156.182C283.606 156.182 285.129 154.432 285.129 151.659C285.129 148.909 283.606 147.159 281.401 147.159C279.697 147.159 279.174 148.205 278.879 148.659H278.765V144.364H277.424V156ZM278.742 151.636C278.742 149.682 279.606 148.364 281.242 148.364C282.947 148.364 283.788 149.795 283.788 151.636C283.788 153.5 282.924 154.977 281.242 154.977C279.629 154.977 278.742 153.614 278.742 151.636ZM290.885 156.182C293.249 156.182 294.84 154.386 294.84 151.682C294.84 148.955 293.249 147.159 290.885 147.159C288.522 147.159 286.931 148.955 286.931 151.682C286.931 154.386 288.522 156.182 290.885 156.182ZM290.885 154.977C289.09 154.977 288.272 153.432 288.272 151.682C288.272 149.932 289.09 148.364 290.885 148.364C292.681 148.364 293.499 149.932 293.499 151.682C293.499 153.432 292.681 154.977 290.885 154.977ZM298.388 144.364H297.047V156H298.388V144.364ZM301.004 156H302.344V147.273H301.004V156ZM301.685 145.818C302.208 145.818 302.64 145.409 302.64 144.909C302.64 144.409 302.208 144 301.685 144C301.163 144 300.731 144.409 300.731 144.909C300.731 145.409 301.163 145.818 301.685 145.818ZM308.506 156.182C310.438 156.182 311.71 155 311.938 153.455H310.597C310.347 154.409 309.551 154.977 308.506 154.977C306.915 154.977 305.892 153.659 305.892 151.636C305.892 149.659 306.938 148.364 308.506 148.364C309.688 148.364 310.392 149.091 310.597 149.886H311.938C311.71 148.25 310.324 147.159 308.483 147.159C306.119 147.159 304.551 149.023 304.551 151.682C304.551 154.295 306.051 156.182 308.506 156.182ZM321.286 156.205C322.809 156.205 323.604 155.386 323.877 154.818H323.945V156H325.286V150.25C325.286 147.477 323.172 147.159 322.059 147.159C320.741 147.159 319.241 147.614 318.559 149.205L319.832 149.659C320.127 149.023 320.826 148.341 322.104 148.341C323.337 148.341 323.945 148.994 323.945 150.114V150.159C323.945 150.807 323.286 150.75 321.695 150.955C320.076 151.165 318.309 151.523 318.309 153.523C318.309 155.227 319.627 156.205 321.286 156.205ZM321.491 155C320.422 155 319.65 154.523 319.65 153.591C319.65 152.568 320.582 152.25 321.627 152.114C322.195 152.045 323.718 151.886 323.945 151.614V152.841C323.945 153.932 323.082 155 321.491 155ZM331.439 156.182C333.371 156.182 334.644 155 334.871 153.455H333.53C333.28 154.409 332.484 154.977 331.439 154.977C329.848 154.977 328.825 153.659 328.825 151.636C328.825 149.659 329.871 148.364 331.439 148.364C332.621 148.364 333.325 149.091 333.53 149.886H334.871C334.644 148.25 333.257 147.159 331.416 147.159C329.053 147.159 327.484 149.023 327.484 151.682C327.484 154.295 328.984 156.182 331.439 156.182ZM340.786 147.273H338.923V145.182H337.582V147.273H336.264V148.409H337.582V153.864C337.582 155.386 338.809 156.114 339.946 156.114C340.446 156.114 340.764 156.023 340.946 155.955L340.673 154.75C340.559 154.773 340.377 154.818 340.082 154.818C339.491 154.818 338.923 154.636 338.923 153.5V148.409H340.786V147.273ZM342.964 156H344.304V147.273H342.964V156ZM343.645 145.818C344.168 145.818 344.6 145.409 344.6 144.909C344.6 144.409 344.168 144 343.645 144C343.123 144 342.691 144.409 342.691 144.909C342.691 145.409 343.123 145.818 343.645 145.818ZM354.057 147.273H352.602L350.193 154.227H350.102L347.693 147.273H346.239L349.466 156H350.829L354.057 147.273ZM358.289 156.205C359.812 156.205 360.607 155.386 360.88 154.818H360.948V156H362.289V150.25C362.289 147.477 360.176 147.159 359.062 147.159C357.744 147.159 356.244 147.614 355.562 149.205L356.835 149.659C357.13 149.023 357.829 148.341 359.107 148.341C360.34 148.341 360.948 148.994 360.948 150.114V150.159C360.948 150.807 360.289 150.75 358.698 150.955C357.079 151.165 355.312 151.523 355.312 153.523C355.312 155.227 356.63 156.205 358.289 156.205ZM358.494 155C357.426 155 356.653 154.523 356.653 153.591C356.653 152.568 357.585 152.25 358.63 152.114C359.198 152.045 360.721 151.886 360.948 151.614V152.841C360.948 153.932 360.085 155 358.494 155ZM368.692 147.273H366.828V145.182H365.488V147.273H364.169V148.409H365.488V153.864C365.488 155.386 366.715 156.114 367.851 156.114C368.351 156.114 368.669 156.023 368.851 155.955L368.578 154.75C368.465 154.773 368.283 154.818 367.988 154.818C367.397 154.818 366.828 154.636 366.828 153.5V148.409H368.692V147.273ZM370.869 156H372.21V147.273H370.869V156ZM371.551 145.818C372.074 145.818 372.506 145.409 372.506 144.909C372.506 144.409 372.074 144 371.551 144C371.028 144 370.596 144.409 370.596 144.909C370.596 145.409 371.028 145.818 371.551 145.818ZM378.371 156.182C380.735 156.182 382.326 154.386 382.326 151.682C382.326 148.955 380.735 147.159 378.371 147.159C376.008 147.159 374.417 148.955 374.417 151.682C374.417 154.386 376.008 156.182 378.371 156.182ZM378.371 154.977C376.576 154.977 375.758 153.432 375.758 151.682C375.758 149.932 376.576 148.364 378.371 148.364C380.167 148.364 380.985 149.932 380.985 151.682C380.985 153.432 380.167 154.977 378.371 154.977ZM385.874 150.75C385.874 149.227 386.817 148.364 388.101 148.364C389.345 148.364 390.101 149.176 390.101 150.545V156H391.442V150.455C391.442 148.227 390.254 147.159 388.487 147.159C387.169 147.159 386.351 147.75 385.942 148.636H385.828V147.273H384.533V156H385.874V150.75Z" fill="white"/>
<rect x="195" y="204" width="12" height="4" rx="2" fill="#5CC78D"/>
<path d="M246.364 204H247.818C247.386 201.75 245.5 200.205 243.045 200.205C240.062 200.205 237.955 202.5 237.955 206.182C237.955 209.864 240.045 212.159 243.136 212.159C245.909 212.159 247.886 210.312 247.886 207.432V206.182H243.455V207.432H246.523C246.483 209.523 245.108 210.841 243.136 210.841C240.977 210.841 239.318 209.205 239.318 206.182C239.318 203.159 240.977 201.523 243.045 201.523C244.727 201.523 245.869 202.472 246.364 204ZM250.278 212H251.619V206.477C251.619 205.295 252.551 204.432 253.823 204.432C254.181 204.432 254.551 204.5 254.642 204.523V203.159C254.488 203.148 254.136 203.136 253.937 203.136C252.892 203.136 251.982 203.727 251.664 204.591H251.573V203.273H250.278V212ZM259.671 212.182C262.034 212.182 263.625 210.386 263.625 207.682C263.625 204.955 262.034 203.159 259.671 203.159C257.307 203.159 255.716 204.955 255.716 207.682C255.716 210.386 257.307 212.182 259.671 212.182ZM259.671 210.977C257.875 210.977 257.057 209.432 257.057 207.682C257.057 205.932 257.875 204.364 259.671 204.364C261.466 204.364 262.284 205.932 262.284 207.682C262.284 209.432 261.466 210.977 259.671 210.977ZM267.513 212H268.831L270.74 205.295H270.876L272.785 212H274.104L276.763 203.273H275.354L273.467 209.932H273.376L271.535 203.273H270.104L268.24 209.955H268.149L266.263 203.273H264.854L267.513 212ZM282.491 203.273H280.627V201.182H279.286V203.273H277.968V204.409H279.286V209.864C279.286 211.386 280.514 212.114 281.65 212.114C282.15 212.114 282.468 212.023 282.65 211.955L282.377 210.75C282.264 210.773 282.082 210.818 281.786 210.818C281.195 210.818 280.627 210.636 280.627 209.5V204.409H282.491V203.273ZM286.196 206.75C286.196 205.227 287.168 204.364 288.492 204.364C289.753 204.364 290.514 205.159 290.514 206.545V212H291.855V206.455C291.855 204.21 290.662 203.159 288.878 203.159C287.503 203.159 286.719 203.733 286.31 204.636H286.196V200.364H284.855V212H286.196V206.75ZM299.129 215.273H300.469V210.659H300.583C300.879 211.136 301.447 212.182 303.129 212.182C305.31 212.182 306.833 210.432 306.833 207.659C306.833 204.909 305.31 203.159 303.106 203.159C301.401 203.159 300.879 204.205 300.583 204.659H300.424V203.273H299.129V215.273ZM300.447 207.636C300.447 205.682 301.31 204.364 302.947 204.364C304.651 204.364 305.492 205.795 305.492 207.636C305.492 209.5 304.629 210.977 302.947 210.977C301.333 210.977 300.447 209.614 300.447 207.636ZM309.039 212H310.379V206.477C310.379 205.295 311.311 204.432 312.584 204.432C312.942 204.432 313.311 204.5 313.402 204.523V203.159C313.249 203.148 312.896 203.136 312.698 203.136C311.652 203.136 310.743 203.727 310.425 204.591H310.334V203.273H309.039V212ZM318.431 212.182C320.795 212.182 322.386 210.386 322.386 207.682C322.386 204.955 320.795 203.159 318.431 203.159C316.068 203.159 314.477 204.955 314.477 207.682C314.477 210.386 316.068 212.182 318.431 212.182ZM318.431 210.977C316.636 210.977 315.818 209.432 315.818 207.682C315.818 205.932 316.636 204.364 318.431 204.364C320.227 204.364 321.045 205.932 321.045 207.682C321.045 209.432 320.227 210.977 318.431 210.977ZM324.593 212H325.934V206.545C325.934 205.267 326.866 204.364 327.911 204.364C328.928 204.364 329.638 205.028 329.638 206.023V212H331.002V206.318C331.002 205.193 331.707 204.364 332.934 204.364C333.888 204.364 334.707 204.869 334.707 206.159V212H336.047V206.159C336.047 204.108 334.945 203.159 333.388 203.159C332.138 203.159 331.224 203.733 330.775 204.636H330.684C330.252 203.705 329.491 203.159 328.343 203.159C327.207 203.159 326.366 203.705 326.002 204.636H325.888V203.273H324.593V212ZM342.205 212.182C344.568 212.182 346.159 210.386 346.159 207.682C346.159 204.955 344.568 203.159 342.205 203.159C339.841 203.159 338.25 204.955 338.25 207.682C338.25 210.386 339.841 212.182 342.205 212.182ZM342.205 210.977C340.409 210.977 339.591 209.432 339.591 207.682C339.591 205.932 340.409 204.364 342.205 204.364C344 204.364 344.818 205.932 344.818 207.682C344.818 209.432 344 210.977 342.205 210.977ZM352.161 203.273H350.298V201.182H348.957V203.273H347.639V204.409H348.957V209.864C348.957 211.386 350.184 212.114 351.321 212.114C351.821 212.114 352.139 212.023 352.321 211.955L352.048 210.75C351.934 210.773 351.752 210.818 351.457 210.818C350.866 210.818 350.298 210.636 350.298 209.5V204.409H352.161V203.273ZM354.339 212H355.679V203.273H354.339V212ZM355.02 201.818C355.543 201.818 355.975 201.409 355.975 200.909C355.975 200.409 355.543 200 355.02 200C354.498 200 354.066 200.409 354.066 200.909C354.066 201.409 354.498 201.818 355.02 201.818ZM361.841 212.182C364.204 212.182 365.795 210.386 365.795 207.682C365.795 204.955 364.204 203.159 361.841 203.159C359.477 203.159 357.886 204.955 357.886 207.682C357.886 210.386 359.477 212.182 361.841 212.182ZM361.841 210.977C360.045 210.977 359.227 209.432 359.227 207.682C359.227 205.932 360.045 204.364 361.841 204.364C363.636 204.364 364.454 205.932 364.454 207.682C364.454 209.432 363.636 210.977 361.841 210.977ZM369.343 206.75C369.343 205.227 370.286 204.364 371.57 204.364C372.815 204.364 373.57 205.176 373.57 206.545V212H374.911V206.455C374.911 204.227 373.724 203.159 371.957 203.159C370.639 203.159 369.82 203.75 369.411 204.636H369.298V203.273H368.002V212H369.343V206.75Z" fill="white"/>
<rect x="195" y="260" width="12" height="4" rx="2" fill="#5CC78D"/>
<path d="M238.409 268H239.818V262.795H244.864V261.545H239.818V257.614H245.386V256.364H238.409V268ZM249.119 256.364H247.778V268H249.119V256.364ZM257.235 264.432C257.235 266.068 255.985 266.818 254.985 266.818C253.871 266.818 253.076 266 253.076 264.727V259.273H251.735V264.818C251.735 267.045 252.917 268.114 254.553 268.114C255.871 268.114 256.735 267.409 257.144 266.523H257.235V268H258.576V259.273H257.235V264.432ZM264.737 268.182C267.101 268.182 268.692 266.386 268.692 263.682C268.692 260.955 267.101 259.159 264.737 259.159C262.373 259.159 260.783 260.955 260.783 263.682C260.783 266.386 262.373 268.182 264.737 268.182ZM264.737 266.977C262.942 266.977 262.123 265.432 262.123 263.682C262.123 261.932 262.942 260.364 264.737 260.364C266.533 260.364 267.351 261.932 267.351 263.682C267.351 265.432 266.533 266.977 264.737 266.977ZM270.899 268H272.239V262.477C272.239 261.295 273.171 260.432 274.444 260.432C274.802 260.432 275.171 260.5 275.262 260.523V259.159C275.109 259.148 274.756 259.136 274.558 259.136C273.512 259.136 272.603 259.727 272.285 260.591H272.194V259.273H270.899V268ZM280.405 268.182C282.178 268.182 283.473 267.295 283.882 265.977L282.587 265.614C282.246 266.523 281.456 266.977 280.405 266.977C278.831 266.977 277.746 265.96 277.684 264.091H284.019V263.523C284.019 260.273 282.087 259.159 280.269 259.159C277.905 259.159 276.337 261.023 276.337 263.705C276.337 266.386 277.882 268.182 280.405 268.182ZM277.684 262.932C277.774 261.574 278.735 260.364 280.269 260.364C281.723 260.364 282.655 261.455 282.655 262.932H277.684ZM292.4 261.227C291.98 259.989 291.037 259.159 289.309 259.159C287.469 259.159 286.105 260.205 286.105 261.682C286.105 262.886 286.821 263.693 288.423 264.068L289.878 264.409C290.758 264.614 291.173 265.034 291.173 265.636C291.173 266.386 290.378 267 289.128 267C288.031 267 287.344 266.528 287.105 265.591L285.832 265.909C286.145 267.392 287.366 268.182 289.15 268.182C291.179 268.182 292.559 267.074 292.559 265.568C292.559 264.352 291.798 263.585 290.241 263.205L288.946 262.886C287.912 262.631 287.446 262.284 287.446 261.614C287.446 260.864 288.241 260.318 289.309 260.318C290.48 260.318 290.963 260.966 291.196 261.568L292.4 261.227ZM298.283 268.182C300.215 268.182 301.488 267 301.715 265.455H300.374C300.124 266.409 299.329 266.977 298.283 266.977C296.692 266.977 295.67 265.659 295.67 263.636C295.67 261.659 296.715 260.364 298.283 260.364C299.465 260.364 300.17 261.091 300.374 261.886H301.715C301.488 260.25 300.102 259.159 298.261 259.159C295.897 259.159 294.329 261.023 294.329 263.682C294.329 266.295 295.829 268.182 298.283 268.182ZM307.494 268.182C309.267 268.182 310.563 267.295 310.972 265.977L309.676 265.614C309.335 266.523 308.546 266.977 307.494 266.977C305.921 266.977 304.835 265.96 304.773 264.091H311.108V263.523C311.108 260.273 309.176 259.159 307.358 259.159C304.994 259.159 303.426 261.023 303.426 263.705C303.426 266.386 304.972 268.182 307.494 268.182ZM304.773 262.932C304.864 261.574 305.824 260.364 307.358 260.364C308.813 260.364 309.744 261.455 309.744 262.932H304.773ZM314.649 262.75C314.649 261.227 315.592 260.364 316.876 260.364C318.12 260.364 318.876 261.176 318.876 262.545V268H320.217V262.455C320.217 260.227 319.029 259.159 317.262 259.159C315.944 259.159 315.126 259.75 314.717 260.636H314.603V259.273H313.308V268H314.649V262.75ZM326.623 259.273H324.759V257.182H323.418V259.273H322.1V260.409H323.418V265.864C323.418 267.386 324.645 268.114 325.782 268.114C326.282 268.114 326.6 268.023 326.782 267.955L326.509 266.75C326.395 266.773 326.214 266.818 325.918 266.818C325.327 266.818 324.759 266.636 324.759 265.5V260.409H326.623V259.273ZM339.642 261.227C339.221 259.989 338.278 259.159 336.551 259.159C334.71 259.159 333.346 260.205 333.346 261.682C333.346 262.886 334.062 263.693 335.664 264.068L337.119 264.409C338 264.614 338.414 265.034 338.414 265.636C338.414 266.386 337.619 267 336.369 267C335.272 267 334.585 266.528 334.346 265.591L333.073 265.909C333.386 267.392 334.607 268.182 336.392 268.182C338.42 268.182 339.801 267.074 339.801 265.568C339.801 264.352 339.039 263.585 337.482 263.205L336.187 262.886C335.153 262.631 334.687 262.284 334.687 261.614C334.687 260.864 335.482 260.318 336.551 260.318C337.721 260.318 338.204 260.966 338.437 261.568L339.642 261.227ZM345.775 259.273H343.911V257.182H342.57V259.273H341.252V260.409H342.57V265.864C342.57 267.386 343.797 268.114 344.934 268.114C345.434 268.114 345.752 268.023 345.934 267.955L345.661 266.75C345.547 266.773 345.366 266.818 345.07 266.818C344.479 266.818 343.911 266.636 343.911 265.5V260.409H345.775V259.273ZM350.52 268.205C352.043 268.205 352.838 267.386 353.111 266.818H353.179V268H354.52V262.25C354.52 259.477 352.406 259.159 351.293 259.159C349.974 259.159 348.474 259.614 347.793 261.205L349.065 261.659C349.361 261.023 350.06 260.341 351.338 260.341C352.571 260.341 353.179 260.994 353.179 262.114V262.159C353.179 262.807 352.52 262.75 350.929 262.955C349.31 263.165 347.543 263.523 347.543 265.523C347.543 267.227 348.861 268.205 350.52 268.205ZM350.724 267C349.656 267 348.883 266.523 348.883 265.591C348.883 264.568 349.815 264.25 350.861 264.114C351.429 264.045 352.952 263.886 353.179 263.614V264.841C353.179 265.932 352.315 267 350.724 267ZM357.127 268H358.468V259.273H357.127V268ZM357.809 257.818C358.332 257.818 358.764 257.409 358.764 256.909C358.764 256.409 358.332 256 357.809 256C357.286 256 356.855 256.409 356.855 256.909C356.855 257.409 357.286 257.818 357.809 257.818ZM362.425 262.75C362.425 261.227 363.368 260.364 364.652 260.364C365.897 260.364 366.652 261.176 366.652 262.545V268H367.993V262.455C367.993 260.227 366.806 259.159 365.039 259.159C363.721 259.159 362.902 259.75 362.493 260.636H362.38V259.273H361.084V268H362.425V262.75ZM370.604 268H371.944V259.273H370.604V268ZM371.285 257.818C371.808 257.818 372.24 257.409 372.24 256.909C372.24 256.409 371.808 256 371.285 256C370.763 256 370.331 256.409 370.331 256.909C370.331 257.409 370.763 257.818 371.285 257.818ZM375.901 262.75C375.901 261.227 376.844 260.364 378.129 260.364C379.373 260.364 380.129 261.176 380.129 262.545V268H381.469V262.455C381.469 260.227 380.282 259.159 378.515 259.159C377.197 259.159 376.379 259.75 375.969 260.636H375.856V259.273H374.56V268H375.901V262.75ZM387.602 271.455C389.693 271.455 391.375 270.5 391.375 268.25V259.273H390.08V260.659H389.943C389.648 260.205 389.102 259.159 387.398 259.159C385.193 259.159 383.671 260.909 383.671 263.591C383.671 266.318 385.262 267.864 387.375 267.864C389.08 267.864 389.625 266.864 389.921 266.386H390.034V268.159C390.034 269.614 389.012 270.273 387.602 270.273C386.017 270.273 385.46 269.438 385.102 268.955L384.034 269.705C384.58 270.619 385.654 271.455 387.602 271.455ZM387.557 266.659C385.875 266.659 385.012 265.386 385.012 263.568C385.012 261.795 385.852 260.364 387.557 260.364C389.193 260.364 390.057 261.682 390.057 263.568C390.057 265.5 389.171 266.659 387.557 266.659Z" fill="white"/>
<path d="M247.404 948.565H250.941C250.89 945.455 248.333 943.307 244.446 943.307C240.62 943.307 237.816 945.42 237.833 948.591C237.824 951.165 239.64 952.639 242.588 953.347L244.489 953.824C246.39 954.284 247.446 954.83 247.455 956.006C247.446 957.284 246.236 958.153 244.361 958.153C242.444 958.153 241.063 957.267 240.944 955.52H237.373C237.466 959.295 240.168 961.247 244.404 961.247C248.665 961.247 251.171 959.21 251.179 956.014C251.171 953.108 248.98 951.565 245.946 950.884L244.378 950.509C242.861 950.159 241.591 949.597 241.617 948.344C241.617 947.219 242.614 946.392 244.421 946.392C246.185 946.392 247.267 947.193 247.404 948.565ZM259.508 961.256C263.48 961.256 265.951 958.537 265.951 954.506C265.951 950.449 263.48 947.739 259.508 947.739C255.537 947.739 253.065 950.449 253.065 954.506C253.065 958.537 255.537 961.256 259.508 961.256ZM259.525 958.443C257.693 958.443 256.755 956.764 256.755 954.48C256.755 952.196 257.693 950.509 259.525 950.509C261.324 950.509 262.261 952.196 262.261 954.48C262.261 956.764 261.324 958.443 259.525 958.443ZM275.352 947.909H272.752V947.031C272.752 946.145 273.11 945.625 274.176 945.625C274.61 945.625 275.054 945.719 275.343 945.812L275.983 943.085C275.531 942.949 274.534 942.727 273.417 942.727C270.954 942.727 269.122 944.116 269.122 946.963V947.909H267.272V950.636H269.122V961H272.752V950.636H275.352V947.909ZM284.533 947.909H282.07V944.773H278.439V947.909H276.65V950.636H278.439V957.455C278.422 960.02 280.169 961.29 282.803 961.179C283.74 961.145 284.405 960.957 284.772 960.838L284.201 958.136C284.022 958.17 283.638 958.256 283.297 958.256C282.573 958.256 282.07 957.983 282.07 956.977V950.636H284.533V947.909ZM289.48 961H293.316L295.566 952.767H295.728L297.978 961H301.821L305.375 947.909H301.711L299.716 956.653H299.605L297.458 947.909H293.853L291.739 956.705H291.62L289.591 947.909H285.918L289.48 961ZM311.045 961.247C312.98 961.247 314.233 960.403 314.872 959.185H314.974V961H318.417V952.17C318.417 949.051 315.775 947.739 312.86 947.739C309.724 947.739 307.662 949.239 307.159 951.625L310.517 951.898C310.764 951.028 311.539 950.389 312.843 950.389C314.079 950.389 314.787 951.011 314.787 952.085V952.136C314.787 952.98 313.892 953.091 311.616 953.312C309.025 953.551 306.699 954.42 306.699 957.344C306.699 959.935 308.548 961.247 311.045 961.247ZM312.085 958.741C310.968 958.741 310.167 958.222 310.167 957.224C310.167 956.202 311.011 955.699 312.289 955.52C313.082 955.409 314.377 955.222 314.812 954.932V956.321C314.812 957.693 313.679 958.741 312.085 958.741ZM321.234 961H324.865V953.594C324.865 951.983 326.041 950.875 327.643 950.875C328.146 950.875 328.836 950.96 329.177 951.071V947.849C328.853 947.773 328.402 947.722 328.035 947.722C326.569 947.722 325.368 948.574 324.89 950.193H324.754V947.909H321.234V961ZM336.411 961.256C339.65 961.256 341.831 959.679 342.343 957.25L338.985 957.028C338.618 958.026 337.681 958.545 336.471 958.545C334.655 958.545 333.505 957.344 333.505 955.392V955.384H342.419V954.386C342.419 949.938 339.726 947.739 336.266 947.739C332.414 947.739 329.917 950.474 329.917 954.514C329.917 958.665 332.38 961.256 336.411 961.256ZM333.505 953.134C333.581 951.642 334.715 950.449 336.326 950.449C337.902 950.449 338.993 951.574 339.002 953.134H333.505ZM359.88 948.565H363.417C363.366 945.455 360.809 943.307 356.923 943.307C353.096 943.307 350.292 945.42 350.309 948.591C350.301 951.165 352.116 952.639 355.065 953.347L356.966 953.824C358.866 954.284 359.923 954.83 359.931 956.006C359.923 957.284 358.713 958.153 356.838 958.153C354.92 958.153 353.539 957.267 353.42 955.52H349.849C349.943 959.295 352.645 961.247 356.88 961.247C361.142 961.247 363.647 959.21 363.656 956.014C363.647 953.108 361.457 951.565 358.423 950.884L356.855 950.509C355.338 950.159 354.068 949.597 354.093 948.344C354.093 947.219 355.091 946.392 356.897 946.392C358.662 946.392 359.744 947.193 359.88 948.565ZM368.311 965.909C371.013 965.909 372.445 964.528 373.186 962.415L378.275 947.926L374.431 947.909L371.695 957.523H371.559L368.848 947.909H365.03L369.726 961.375L369.513 961.929C369.036 963.156 368.124 963.216 366.846 962.824L366.027 965.534C366.547 965.756 367.391 965.909 368.311 965.909ZM391.025 951.642C390.701 949.23 388.757 947.739 385.451 947.739C382.101 947.739 379.894 949.29 379.902 951.812C379.894 953.773 381.13 955.043 383.686 955.554L385.953 956.006C387.096 956.236 387.615 956.653 387.632 957.31C387.615 958.085 386.772 958.639 385.502 958.639C384.206 958.639 383.346 958.085 383.124 957.02L379.553 957.207C379.894 959.713 382.025 961.256 385.493 961.256C388.885 961.256 391.314 959.526 391.323 956.943C391.314 955.051 390.078 953.918 387.539 953.398L385.169 952.92C383.951 952.656 383.499 952.239 383.507 951.608C383.499 950.824 384.385 950.312 385.51 950.312C386.772 950.312 387.522 951.003 387.701 951.847L391.025 951.642ZM400.572 947.909H398.109V944.773H394.478V947.909H392.689V950.636H394.478V957.455C394.461 960.02 396.208 961.29 398.842 961.179C399.779 961.145 400.444 960.957 400.811 960.838L400.24 958.136C400.061 958.17 399.677 958.256 399.336 958.256C398.612 958.256 398.109 957.983 398.109 956.977V950.636H400.572V947.909ZM408.762 961.256C412.001 961.256 414.183 959.679 414.694 957.25L411.336 957.028C410.97 958.026 410.032 958.545 408.822 958.545C407.007 958.545 405.856 957.344 405.856 955.392V955.384H414.771V954.386C414.771 949.938 412.078 947.739 408.618 947.739C404.765 947.739 402.268 950.474 402.268 954.514C402.268 958.665 404.731 961.256 408.762 961.256ZM405.856 953.134C405.933 951.642 407.066 950.449 408.677 950.449C410.254 950.449 411.345 951.574 411.353 953.134H405.856ZM417.14 961H420.771V953.142C420.771 951.693 421.691 950.73 422.902 950.73C424.095 950.73 424.896 951.548 424.896 952.835V961H428.416V953.006C428.416 951.651 429.191 950.73 430.512 950.73C431.672 950.73 432.541 951.455 432.541 952.912V961H436.163V952.196C436.163 949.358 434.475 947.739 432.038 947.739C430.12 947.739 428.629 948.719 428.092 950.219H427.956C427.538 948.702 426.2 947.739 424.402 947.739C422.637 947.739 421.299 948.676 420.754 950.219H420.6V947.909H417.14V961Z" fill="#0EBDF1"/>
<rect x="195" y="1176" width="12" height="4" rx="2" fill="#0EBDF1"/>
<path d="M238.409 1184H239.818V1179.45H242.364C242.466 1179.45 242.562 1179.45 242.659 1179.45L245.114 1184H246.75L244.119 1179.19C245.602 1178.69 246.295 1177.48 246.295 1175.93C246.295 1173.88 245.068 1172.36 242.341 1172.36H238.409V1184ZM239.818 1178.18V1173.61H242.295C244.182 1173.61 244.909 1174.53 244.909 1175.93C244.909 1177.33 244.182 1178.18 242.318 1178.18H239.818ZM252.187 1184.18C253.96 1184.18 255.255 1183.3 255.664 1181.98L254.369 1181.61C254.028 1182.52 253.238 1182.98 252.187 1182.98C250.613 1182.98 249.528 1181.96 249.465 1180.09H255.801V1179.52C255.801 1176.27 253.869 1175.16 252.051 1175.16C249.687 1175.16 248.119 1177.02 248.119 1179.7C248.119 1182.39 249.664 1184.18 252.187 1184.18ZM249.465 1178.93C249.556 1177.57 250.517 1176.36 252.051 1176.36C253.505 1176.36 254.437 1177.45 254.437 1178.93H249.465ZM258 1187.27H259.341V1182.66H259.455C259.75 1183.14 260.319 1184.18 262 1184.18C264.182 1184.18 265.705 1182.43 265.705 1179.66C265.705 1176.91 264.182 1175.16 261.978 1175.16C260.273 1175.16 259.75 1176.2 259.455 1176.66H259.296V1175.27H258V1187.27ZM259.319 1179.64C259.319 1177.68 260.182 1176.36 261.819 1176.36C263.523 1176.36 264.364 1177.8 264.364 1179.64C264.364 1181.5 263.5 1182.98 261.819 1182.98C260.205 1182.98 259.319 1181.61 259.319 1179.64ZM271.456 1184.18C273.819 1184.18 275.41 1182.39 275.41 1179.68C275.41 1176.95 273.819 1175.16 271.456 1175.16C269.092 1175.16 267.501 1176.95 267.501 1179.68C267.501 1182.39 269.092 1184.18 271.456 1184.18ZM271.456 1182.98C269.66 1182.98 268.842 1181.43 268.842 1179.68C268.842 1177.93 269.66 1176.36 271.456 1176.36C273.251 1176.36 274.069 1177.93 274.069 1179.68C274.069 1181.43 273.251 1182.98 271.456 1182.98ZM277.617 1184H278.958V1178.48C278.958 1177.3 279.89 1176.43 281.163 1176.43C281.521 1176.43 281.89 1176.5 281.981 1176.52V1175.16C281.827 1175.15 281.475 1175.14 281.276 1175.14C280.231 1175.14 279.322 1175.73 279.004 1176.59H278.913V1175.27H277.617V1184ZM288.073 1175.27H286.209V1173.18H284.868V1175.27H283.55V1176.41H284.868V1181.86C284.868 1183.39 286.095 1184.11 287.232 1184.11C287.732 1184.11 288.05 1184.02 288.232 1183.95L287.959 1182.75C287.845 1182.77 287.664 1182.82 287.368 1182.82C286.777 1182.82 286.209 1182.64 286.209 1181.5V1176.41H288.073V1175.27ZM290.25 1184H291.591V1175.27H290.25V1184ZM290.932 1173.82C291.454 1173.82 291.886 1173.41 291.886 1172.91C291.886 1172.41 291.454 1172 290.932 1172C290.409 1172 289.977 1172.41 289.977 1172.91C289.977 1173.41 290.409 1173.82 290.932 1173.82ZM295.548 1178.75C295.548 1177.23 296.491 1176.36 297.775 1176.36C299.019 1176.36 299.775 1177.18 299.775 1178.55V1184H301.116V1178.45C301.116 1176.23 299.928 1175.16 298.161 1175.16C296.843 1175.16 296.025 1175.75 295.616 1176.64H295.502V1175.27H294.207V1184H295.548V1178.75ZM307.249 1187.45C309.34 1187.45 311.021 1186.5 311.021 1184.25V1175.27H309.726V1176.66H309.59C309.294 1176.2 308.749 1175.16 307.044 1175.16C304.84 1175.16 303.317 1176.91 303.317 1179.59C303.317 1182.32 304.908 1183.86 307.021 1183.86C308.726 1183.86 309.271 1182.86 309.567 1182.39H309.681V1184.16C309.681 1185.61 308.658 1186.27 307.249 1186.27C305.664 1186.27 305.107 1185.44 304.749 1184.95L303.681 1185.7C304.226 1186.62 305.3 1187.45 307.249 1187.45ZM307.203 1182.66C305.521 1182.66 304.658 1181.39 304.658 1179.57C304.658 1177.8 305.499 1176.36 307.203 1176.36C308.84 1176.36 309.703 1177.68 309.703 1179.57C309.703 1181.5 308.817 1182.66 307.203 1182.66Z" fill="white"/>
<rect x="195" y="1120" width="12" height="4" rx="2" fill="#0EBDF1"/>
<path d="M246.364 1120H247.818C247.386 1117.75 245.5 1116.2 243.045 1116.2C240.062 1116.2 237.955 1118.5 237.955 1122.18C237.955 1125.86 240.045 1128.16 243.136 1128.16C245.909 1128.16 247.886 1126.31 247.886 1123.43V1122.18H243.455V1123.43H246.523C246.483 1125.52 245.108 1126.84 243.136 1126.84C240.977 1126.84 239.318 1125.2 239.318 1122.18C239.318 1119.16 240.977 1117.52 243.045 1117.52C244.727 1117.52 245.869 1118.47 246.364 1120ZM253.823 1128.18C256.187 1128.18 257.778 1126.39 257.778 1123.68C257.778 1120.95 256.187 1119.16 253.823 1119.16C251.46 1119.16 249.869 1120.95 249.869 1123.68C249.869 1126.39 251.46 1128.18 253.823 1128.18ZM253.823 1126.98C252.028 1126.98 251.21 1125.43 251.21 1123.68C251.21 1121.93 252.028 1120.36 253.823 1120.36C255.619 1120.36 256.437 1121.93 256.437 1123.68C256.437 1125.43 255.619 1126.98 253.823 1126.98ZM261.326 1116.36H259.985V1128H261.326V1116.36ZM267.237 1128.18C268.919 1128.18 269.487 1127.14 269.783 1126.66H269.942V1128H271.237V1116.36H269.896V1120.66H269.783C269.487 1120.2 268.964 1119.16 267.26 1119.16C265.055 1119.16 263.533 1120.91 263.533 1123.66C263.533 1126.43 265.055 1128.18 267.237 1128.18ZM267.419 1126.98C265.737 1126.98 264.873 1125.5 264.873 1123.64C264.873 1121.8 265.714 1120.36 267.419 1120.36C269.055 1120.36 269.919 1121.68 269.919 1123.64C269.919 1125.61 269.033 1126.98 267.419 1126.98ZM284.881 1121.23C284.461 1119.99 283.517 1119.16 281.79 1119.16C279.949 1119.16 278.586 1120.2 278.586 1121.68C278.586 1122.89 279.301 1123.69 280.904 1124.07L282.358 1124.41C283.239 1124.61 283.654 1125.03 283.654 1125.64C283.654 1126.39 282.858 1127 281.608 1127C280.512 1127 279.824 1126.53 279.586 1125.59L278.313 1125.91C278.625 1127.39 279.847 1128.18 281.631 1128.18C283.659 1128.18 285.04 1127.07 285.04 1125.57C285.04 1124.35 284.279 1123.59 282.722 1123.2L281.426 1122.89C280.392 1122.63 279.926 1122.28 279.926 1121.61C279.926 1120.86 280.722 1120.32 281.79 1120.32C282.961 1120.32 283.443 1120.97 283.676 1121.57L284.881 1121.23ZM291.014 1119.27H289.15V1117.18H287.809V1119.27H286.491V1120.41H287.809V1125.86C287.809 1127.39 289.037 1128.11 290.173 1128.11C290.673 1128.11 290.991 1128.02 291.173 1127.95L290.9 1126.75C290.787 1126.77 290.605 1126.82 290.309 1126.82C289.719 1126.82 289.15 1126.64 289.15 1125.5V1120.41H291.014V1119.27ZM295.759 1128.2C297.282 1128.2 298.077 1127.39 298.35 1126.82H298.418V1128H299.759V1122.25C299.759 1119.48 297.646 1119.16 296.532 1119.16C295.214 1119.16 293.714 1119.61 293.032 1121.2L294.305 1121.66C294.6 1121.02 295.299 1120.34 296.577 1120.34C297.81 1120.34 298.418 1120.99 298.418 1122.11V1122.16C298.418 1122.81 297.759 1122.75 296.168 1122.95C294.549 1123.16 292.782 1123.52 292.782 1125.52C292.782 1127.23 294.1 1128.2 295.759 1128.2ZM295.964 1127C294.896 1127 294.123 1126.52 294.123 1125.59C294.123 1124.57 295.055 1124.25 296.1 1124.11C296.668 1124.05 298.191 1123.89 298.418 1123.61V1124.84C298.418 1125.93 297.555 1127 295.964 1127ZM303.708 1122.75C303.708 1121.23 304.651 1120.36 305.935 1120.36C307.179 1120.36 307.935 1121.18 307.935 1122.55V1128H309.276V1122.45C309.276 1120.23 308.088 1119.16 306.321 1119.16C305.003 1119.16 304.185 1119.75 303.776 1120.64H303.662V1119.27H302.367V1128H303.708V1122.75ZM315.181 1128.18C316.863 1128.18 317.431 1127.14 317.727 1126.66H317.886V1128H319.181V1116.36H317.841V1120.66H317.727C317.431 1120.2 316.909 1119.16 315.204 1119.16C313 1119.16 311.477 1120.91 311.477 1123.66C311.477 1126.43 313 1128.18 315.181 1128.18ZM315.363 1126.98C313.681 1126.98 312.818 1125.5 312.818 1123.64C312.818 1121.8 313.659 1120.36 315.363 1120.36C317 1120.36 317.863 1121.68 317.863 1123.64C317.863 1125.61 316.977 1126.98 315.363 1126.98ZM324.552 1128.2C326.074 1128.2 326.87 1127.39 327.143 1126.82H327.211V1128H328.552V1122.25C328.552 1119.48 326.438 1119.16 325.324 1119.16C324.006 1119.16 322.506 1119.61 321.824 1121.2L323.097 1121.66C323.393 1121.02 324.091 1120.34 325.37 1120.34C326.603 1120.34 327.211 1120.99 327.211 1122.11V1122.16C327.211 1122.81 326.552 1122.75 324.961 1122.95C323.341 1123.16 321.574 1123.52 321.574 1125.52C321.574 1127.23 322.893 1128.2 324.552 1128.2ZM324.756 1127C323.688 1127 322.915 1126.52 322.915 1125.59C322.915 1124.57 323.847 1124.25 324.893 1124.11C325.461 1124.05 326.984 1123.89 327.211 1123.61V1124.84C327.211 1125.93 326.347 1127 324.756 1127ZM331.159 1128H332.5V1122.48C332.5 1121.3 333.432 1120.43 334.705 1120.43C335.063 1120.43 335.432 1120.5 335.523 1120.52V1119.16C335.369 1119.15 335.017 1119.14 334.818 1119.14C333.773 1119.14 332.864 1119.73 332.546 1120.59H332.455V1119.27H331.159V1128ZM340.302 1128.18C341.984 1128.18 342.552 1127.14 342.848 1126.66H343.007V1128H344.302V1116.36H342.961V1120.66H342.848C342.552 1120.2 342.029 1119.16 340.325 1119.16C338.12 1119.16 336.598 1120.91 336.598 1123.66C336.598 1126.43 338.12 1128.18 340.302 1128.18ZM340.484 1126.98C338.802 1126.98 337.938 1125.5 337.938 1123.64C337.938 1121.8 338.779 1120.36 340.484 1120.36C342.12 1120.36 342.984 1121.68 342.984 1123.64C342.984 1125.61 342.098 1126.98 340.484 1126.98ZM355.31 1128.18C357.241 1128.18 358.514 1127 358.741 1125.45H357.401C357.151 1126.41 356.355 1126.98 355.31 1126.98C353.719 1126.98 352.696 1125.66 352.696 1123.64C352.696 1121.66 353.741 1120.36 355.31 1120.36C356.491 1120.36 357.196 1121.09 357.401 1121.89H358.741C358.514 1120.25 357.128 1119.16 355.287 1119.16C352.923 1119.16 351.355 1121.02 351.355 1123.68C351.355 1126.3 352.855 1128.18 355.31 1128.18ZM364.407 1128.18C366.771 1128.18 368.362 1126.39 368.362 1123.68C368.362 1120.95 366.771 1119.16 364.407 1119.16C362.043 1119.16 360.453 1120.95 360.453 1123.68C360.453 1126.39 362.043 1128.18 364.407 1128.18ZM364.407 1126.98C362.612 1126.98 361.793 1125.43 361.793 1123.68C361.793 1121.93 362.612 1120.36 364.407 1120.36C366.203 1120.36 367.021 1121.93 367.021 1123.68C367.021 1125.43 366.203 1126.98 364.407 1126.98ZM370.569 1128H371.909V1122.48C371.909 1121.3 372.841 1120.43 374.114 1120.43C374.472 1120.43 374.841 1120.5 374.932 1120.52V1119.16C374.779 1119.15 374.426 1119.14 374.228 1119.14C373.182 1119.14 372.273 1119.73 371.955 1120.59H371.864V1119.27H370.569V1128ZM376.682 1128H378.023V1122.48C378.023 1121.3 378.954 1120.43 380.227 1120.43C380.585 1120.43 380.954 1120.5 381.045 1120.52V1119.16C380.892 1119.15 380.54 1119.14 380.341 1119.14C379.295 1119.14 378.386 1119.73 378.068 1120.59H377.977V1119.27H376.682V1128ZM386.188 1128.18C387.961 1128.18 389.256 1127.3 389.666 1125.98L388.37 1125.61C388.029 1126.52 387.239 1126.98 386.188 1126.98C384.614 1126.98 383.529 1125.96 383.467 1124.09H389.802V1123.52C389.802 1120.27 387.87 1119.16 386.052 1119.16C383.688 1119.16 382.12 1121.02 382.12 1123.7C382.12 1126.39 383.666 1128.18 386.188 1128.18ZM383.467 1122.93C383.558 1121.57 384.518 1120.36 386.052 1120.36C387.506 1120.36 388.438 1121.45 388.438 1122.93H383.467ZM393.343 1116.36H392.002V1128H393.343V1116.36ZM398.527 1128.2C400.049 1128.2 400.845 1127.39 401.118 1126.82H401.186V1128H402.527V1122.25C402.527 1119.48 400.413 1119.16 399.299 1119.16C397.981 1119.16 396.481 1119.61 395.799 1121.2L397.072 1121.66C397.368 1121.02 398.066 1120.34 399.345 1120.34C400.578 1120.34 401.186 1120.99 401.186 1122.11V1122.16C401.186 1122.81 400.527 1122.75 398.936 1122.95C397.316 1123.16 395.549 1123.52 395.549 1125.52C395.549 1127.23 396.868 1128.2 398.527 1128.2ZM398.731 1127C397.663 1127 396.89 1126.52 396.89 1125.59C396.89 1124.57 397.822 1124.25 398.868 1124.11C399.436 1124.05 400.959 1123.89 401.186 1123.61V1124.84C401.186 1125.93 400.322 1127 398.731 1127ZM408.93 1119.27H407.066V1117.18H405.725V1119.27H404.407V1120.41H405.725V1125.86C405.725 1127.39 406.952 1128.11 408.089 1128.11C408.589 1128.11 408.907 1128.02 409.089 1127.95L408.816 1126.75C408.702 1126.77 408.521 1126.82 408.225 1126.82C407.634 1126.82 407.066 1126.64 407.066 1125.5V1120.41H408.93V1119.27ZM411.107 1128H412.448V1119.27H411.107V1128ZM411.788 1117.82C412.311 1117.82 412.743 1117.41 412.743 1116.91C412.743 1116.41 412.311 1116 411.788 1116C411.266 1116 410.834 1116.41 410.834 1116.91C410.834 1117.41 411.266 1117.82 411.788 1117.82ZM418.609 1128.18C420.973 1128.18 422.564 1126.39 422.564 1123.68C422.564 1120.95 420.973 1119.16 418.609 1119.16C416.245 1119.16 414.654 1120.95 414.654 1123.68C414.654 1126.39 416.245 1128.18 418.609 1128.18ZM418.609 1126.98C416.814 1126.98 415.995 1125.43 415.995 1123.68C415.995 1121.93 416.814 1120.36 418.609 1120.36C420.404 1120.36 421.223 1121.93 421.223 1123.68C421.223 1125.43 420.404 1126.98 418.609 1126.98ZM426.111 1122.75C426.111 1121.23 427.054 1120.36 428.339 1120.36C429.583 1120.36 430.339 1121.18 430.339 1122.55V1128H431.679V1122.45C431.679 1120.23 430.492 1119.16 428.725 1119.16C427.407 1119.16 426.589 1119.75 426.179 1120.64H426.066V1119.27H424.77V1128H426.111V1122.75Z" fill="white"/>
<rect x="195" y="1064" width="12" height="4" rx="2" fill="#0EBDF1"/>
<path d="M238.886 1072L240.057 1068.7H244.761L245.932 1072H247.409L243.136 1060.36H241.682L237.409 1072H238.886ZM240.5 1067.45L242.364 1062.2H242.455L244.318 1067.45H240.5ZM250.541 1066.75C250.541 1065.23 251.484 1064.36 252.768 1064.36C254.012 1064.36 254.768 1065.18 254.768 1066.55V1072H256.109V1066.45C256.109 1064.23 254.921 1063.16 253.154 1063.16C251.836 1063.16 251.018 1063.75 250.609 1064.64H250.495V1063.27H249.2V1072H250.541V1066.75ZM261.287 1072.2C262.81 1072.2 263.606 1071.39 263.878 1070.82H263.946V1072H265.287V1066.25C265.287 1063.48 263.174 1063.16 262.06 1063.16C260.742 1063.16 259.242 1063.61 258.56 1065.2L259.833 1065.66C260.128 1065.02 260.827 1064.34 262.106 1064.34C263.338 1064.34 263.946 1064.99 263.946 1066.11V1066.16C263.946 1066.81 263.287 1066.75 261.696 1066.95C260.077 1067.16 258.31 1067.52 258.31 1069.52C258.31 1071.23 259.628 1072.2 261.287 1072.2ZM261.492 1071C260.424 1071 259.651 1070.52 259.651 1069.59C259.651 1068.57 260.583 1068.25 261.628 1068.11C262.196 1068.05 263.719 1067.89 263.946 1067.61V1068.84C263.946 1069.93 263.083 1071 261.492 1071ZM269.236 1060.36H267.895V1072H269.236V1060.36ZM272.715 1075.27C273.926 1075.27 274.778 1074.63 275.283 1073.27L278.999 1063.3L277.533 1063.27L275.124 1070.23H275.033L272.624 1063.27H271.17L274.397 1072.05L274.147 1072.73C273.658 1074.06 273.056 1074.18 272.079 1073.93L271.738 1075.11C271.874 1075.18 272.261 1075.27 272.715 1075.27ZM287.115 1065.23C286.695 1063.99 285.752 1063.16 284.024 1063.16C282.184 1063.16 280.82 1064.2 280.82 1065.68C280.82 1066.89 281.536 1067.69 283.138 1068.07L284.593 1068.41C285.473 1068.61 285.888 1069.03 285.888 1069.64C285.888 1070.39 285.093 1071 283.843 1071C282.746 1071 282.059 1070.53 281.82 1069.59L280.547 1069.91C280.86 1071.39 282.081 1072.18 283.865 1072.18C285.894 1072.18 287.274 1071.07 287.274 1069.57C287.274 1068.35 286.513 1067.59 284.956 1067.2L283.661 1066.89C282.627 1066.63 282.161 1066.28 282.161 1065.61C282.161 1064.86 282.956 1064.32 284.024 1064.32C285.195 1064.32 285.678 1064.97 285.911 1065.57L287.115 1065.23ZM289.453 1072H290.794V1063.27H289.453V1072ZM290.135 1061.82C290.657 1061.82 291.089 1061.41 291.089 1060.91C291.089 1060.41 290.657 1060 290.135 1060C289.612 1060 289.18 1060.41 289.18 1060.91C289.18 1061.41 289.612 1061.82 290.135 1061.82ZM299.592 1065.23C299.171 1063.99 298.228 1063.16 296.501 1063.16C294.66 1063.16 293.296 1064.2 293.296 1065.68C293.296 1066.89 294.012 1067.69 295.614 1068.07L297.069 1068.41C297.95 1068.61 298.364 1069.03 298.364 1069.64C298.364 1070.39 297.569 1071 296.319 1071C295.222 1071 294.535 1070.53 294.296 1069.59L293.023 1069.91C293.336 1071.39 294.557 1072.18 296.342 1072.18C298.37 1072.18 299.751 1071.07 299.751 1069.57C299.751 1068.35 298.989 1067.59 297.432 1067.2L296.137 1066.89C295.103 1066.63 294.637 1066.28 294.637 1065.61C294.637 1064.86 295.432 1064.32 296.501 1064.32C297.671 1064.32 298.154 1064.97 298.387 1065.57L299.592 1065.23Z" fill="white"/>
<rect x="195" y="1008" width="12" height="4" rx="2" fill="#0EBDF1"/>
<path d="M242 1016C245.545 1016 247.545 1013.8 247.545 1010.16C247.545 1006.55 245.545 1004.36 242.159 1004.36H238.409V1016H242ZM239.818 1014.75V1005.61H242.068C244.795 1005.61 246.182 1007.34 246.182 1010.16C246.182 1013 244.795 1014.75 241.909 1014.75H239.818ZM253.546 1016.18C255.319 1016.18 256.615 1015.3 257.024 1013.98L255.728 1013.61C255.387 1014.52 254.597 1014.98 253.546 1014.98C251.972 1014.98 250.887 1013.96 250.825 1012.09H257.16V1011.52C257.16 1008.27 255.228 1007.16 253.41 1007.16C251.046 1007.16 249.478 1009.02 249.478 1011.7C249.478 1014.39 251.024 1016.18 253.546 1016.18ZM250.825 1010.93C250.916 1009.57 251.876 1008.36 253.41 1008.36C254.865 1008.36 255.796 1009.45 255.796 1010.93H250.825ZM263.155 1007.27H261.292V1005.18H259.951V1007.27H258.632V1008.41H259.951V1013.86C259.951 1015.39 261.178 1016.11 262.314 1016.11C262.814 1016.11 263.132 1016.02 263.314 1015.95L263.042 1014.75C262.928 1014.77 262.746 1014.82 262.451 1014.82C261.86 1014.82 261.292 1014.64 261.292 1013.5V1008.41H263.155V1007.27ZM268.898 1016.18C270.67 1016.18 271.966 1015.3 272.375 1013.98L271.079 1013.61C270.739 1014.52 269.949 1014.98 268.898 1014.98C267.324 1014.98 266.239 1013.96 266.176 1012.09H272.511V1011.52C272.511 1008.27 270.579 1007.16 268.761 1007.16C266.398 1007.16 264.829 1009.02 264.829 1011.7C264.829 1014.39 266.375 1016.18 268.898 1016.18ZM266.176 1010.93C266.267 1009.57 267.227 1008.36 268.761 1008.36C270.216 1008.36 271.148 1009.45 271.148 1010.93H266.176ZM278.256 1016.18C280.188 1016.18 281.461 1015 281.688 1013.45H280.347C280.097 1014.41 279.302 1014.98 278.256 1014.98C276.666 1014.98 275.643 1013.66 275.643 1011.64C275.643 1009.66 276.688 1008.36 278.256 1008.36C279.438 1008.36 280.143 1009.09 280.347 1009.89H281.688C281.461 1008.25 280.075 1007.16 278.234 1007.16C275.87 1007.16 274.302 1009.02 274.302 1011.68C274.302 1014.3 275.802 1016.18 278.256 1016.18ZM287.604 1007.27H285.74V1005.18H284.399V1007.27H283.081V1008.41H284.399V1013.86C284.399 1015.39 285.627 1016.11 286.763 1016.11C287.263 1016.11 287.581 1016.02 287.763 1015.95L287.49 1014.75C287.377 1014.77 287.195 1014.82 286.899 1014.82C286.309 1014.82 285.74 1014.64 285.74 1013.5V1008.41H287.604V1007.27ZM289.781 1016H291.122V1007.27H289.781V1016ZM290.463 1005.82C290.986 1005.82 291.417 1005.41 291.417 1004.91C291.417 1004.41 290.986 1004 290.463 1004C289.94 1004 289.508 1004.41 289.508 1004.91C289.508 1005.41 289.94 1005.82 290.463 1005.82ZM297.283 1016.18C299.647 1016.18 301.238 1014.39 301.238 1011.68C301.238 1008.95 299.647 1007.16 297.283 1007.16C294.92 1007.16 293.329 1008.95 293.329 1011.68C293.329 1014.39 294.92 1016.18 297.283 1016.18ZM297.283 1014.98C295.488 1014.98 294.67 1013.43 294.67 1011.68C294.67 1009.93 295.488 1008.36 297.283 1008.36C299.079 1008.36 299.897 1009.93 299.897 1011.68C299.897 1013.43 299.079 1014.98 297.283 1014.98ZM304.786 1010.75C304.786 1009.23 305.729 1008.36 307.013 1008.36C308.257 1008.36 309.013 1009.18 309.013 1010.55V1016H310.354V1010.45C310.354 1008.23 309.166 1007.16 307.399 1007.16C306.081 1007.16 305.263 1007.75 304.854 1008.64H304.74V1007.27H303.445V1016H304.786V1010.75Z" fill="white"/>
<path d="M268.788 525.42H273.504C273.436 521.273 270.027 518.409 264.845 518.409C259.743 518.409 256.004 521.227 256.027 525.455C256.016 528.886 258.436 530.852 262.368 531.795L264.902 532.432C267.436 533.045 268.845 533.773 268.857 535.341C268.845 537.045 267.232 538.205 264.732 538.205C262.175 538.205 260.334 537.023 260.175 534.693H255.413C255.538 539.727 259.141 542.33 264.788 542.33C270.47 542.33 273.811 539.614 273.822 535.352C273.811 531.477 270.891 529.42 266.845 528.511L264.754 528.011C262.732 527.545 261.038 526.795 261.072 525.125C261.072 523.625 262.402 522.523 264.811 522.523C267.163 522.523 268.607 523.591 268.788 525.42ZM277.041 542H281.882V524.545H277.041V542ZM279.473 522.295C280.916 522.295 282.098 521.193 282.098 519.841C282.098 518.5 280.916 517.398 279.473 517.398C278.041 517.398 276.859 518.5 276.859 519.841C276.859 521.193 278.041 522.295 279.473 522.295ZM290.601 531.909C290.612 529.659 291.953 528.341 293.908 528.341C295.851 528.341 297.021 529.614 297.01 531.75V542H301.851V530.886C301.851 526.818 299.464 524.318 295.828 524.318C293.237 524.318 291.362 525.591 290.578 527.625H290.374V524.545H285.76V542H290.601V531.909ZM313.53 548.795C318.518 548.795 322.064 546.523 322.064 542.17V524.545H317.257V527.477H317.075C316.428 526.057 315.007 524.318 312.087 524.318C308.257 524.318 305.018 527.295 305.018 533.239C305.018 539.045 308.166 541.75 312.098 541.75C314.882 541.75 316.439 540.352 317.075 538.909H317.28V542.102C317.28 544.386 315.746 545.318 313.643 545.318C311.507 545.318 310.428 544.386 310.03 543.443L305.553 544.045C306.132 546.682 308.825 548.795 313.53 548.795ZM313.632 538.114C311.257 538.114 309.962 536.227 309.962 533.216C309.962 530.25 311.234 528.17 313.632 528.17C315.984 528.17 317.303 530.159 317.303 533.216C317.303 536.295 315.962 538.114 313.632 538.114ZM330.757 518.727H325.916V542H330.757V518.727ZM342.589 542.341C346.908 542.341 349.817 540.239 350.499 537L346.021 536.705C345.533 538.034 344.283 538.727 342.669 538.727C340.249 538.727 338.714 537.125 338.714 534.523V534.511H350.601V533.182C350.601 527.25 347.01 524.318 342.396 524.318C337.26 524.318 333.93 527.966 333.93 533.352C333.93 538.886 337.214 542.341 342.589 542.341ZM338.714 531.511C338.817 529.523 340.328 527.932 342.476 527.932C344.578 527.932 346.033 529.432 346.044 531.511H338.714ZM381.791 526.875C381.143 521.5 377.075 518.409 371.689 518.409C365.541 518.409 360.848 522.75 360.848 530.364C360.848 537.955 365.462 542.318 371.689 542.318C377.655 542.318 381.257 538.352 381.791 534.068L376.814 534.045C376.348 536.534 374.393 537.966 371.768 537.966C368.234 537.966 365.837 535.341 365.837 530.364C365.837 525.523 368.2 522.761 371.803 522.761C374.496 522.761 376.439 524.318 376.814 526.875H381.791ZM393.183 542.341C397.501 542.341 400.411 540.239 401.092 537L396.615 536.705C396.126 538.034 394.876 538.727 393.263 538.727C390.842 538.727 389.308 537.125 389.308 534.523V534.511H401.195V533.182C401.195 527.25 397.604 524.318 392.99 524.318C387.854 524.318 384.524 527.966 384.524 533.352C384.524 538.886 387.808 542.341 393.183 542.341ZM389.308 531.511C389.411 529.523 390.922 527.932 393.07 527.932C395.172 527.932 396.626 529.432 396.638 531.511H389.308ZM409.195 518.727H404.354V542H409.195V518.727ZM417.913 518.727H413.072V542H417.913V518.727Z" fill="white"/>
<path opacity="0.6" d="M261.629 601C261.058 597.787 258.433 595.307 254.717 595.307C250.311 595.307 247.175 598.81 247.175 604.273C247.175 609.736 250.311 613.239 254.717 613.239C258.433 613.239 261.058 610.75 261.629 607.545H260.027C259.541 609.94 257.453 611.739 254.717 611.739C251.411 611.739 248.717 609.122 248.717 604.273C248.717 599.44 251.411 596.807 254.717 596.807C257.453 596.807 259.541 598.614 260.027 601H261.629ZM270.146 613.273C273.538 613.273 275.907 610.503 275.907 606.514C275.907 602.5 273.538 599.73 270.146 599.73C266.754 599.73 264.384 602.5 264.384 606.514C264.384 610.503 266.754 613.273 270.146 613.273ZM270.146 611.884C267.427 611.884 265.91 609.446 265.91 606.514C265.91 603.582 267.427 601.111 270.146 601.111C272.864 601.111 274.381 603.582 274.381 606.514C274.381 609.446 272.864 611.884 270.146 611.884ZM279.237 613H280.754V604.614C280.754 602.577 282.109 601.128 283.925 601.128C285.714 601.128 286.754 602.321 286.754 604.094V613H288.305V604.384C288.305 602.5 289.43 601.128 291.425 601.128C293.155 601.128 294.305 602.168 294.305 604.23V613H295.822V604.23C295.822 601.298 294.314 599.739 291.885 599.739C289.976 599.739 288.595 600.668 288.007 602.116H287.896C287.317 600.634 286.166 599.739 284.359 599.739C282.646 599.739 281.368 600.565 280.848 601.92H280.712V599.909H279.237V613ZM299.813 617.909H301.339V610.571H301.475C301.995 611.773 303.12 613.273 305.498 613.273C308.702 613.273 310.884 610.545 310.884 606.489C310.884 602.449 308.711 599.73 305.472 599.73C303.069 599.73 302.004 601.23 301.475 602.406H301.288V599.909H299.813V617.909ZM301.313 606.463C301.313 603.327 302.754 601.111 305.31 601.111C307.944 601.111 309.359 603.446 309.359 606.463C309.359 609.514 307.918 611.884 305.31 611.884C302.779 611.884 301.313 609.625 301.313 606.463ZM322.524 607.997C322.524 610.401 320.717 611.696 318.945 611.696C317.053 611.696 315.723 610.341 315.723 608.295V599.909H314.206V608.389C314.206 611.491 315.996 613.17 318.51 613.17C320.428 613.17 321.791 612.173 322.405 610.827H322.524V613H324.041V599.909H322.524V607.997ZM333.214 599.909H330.444V596.773H328.918V599.909H326.967V601.23H328.918V609.94C328.918 612.08 330.606 613.196 332.285 613.196C332.915 613.196 333.342 613.077 333.631 612.966L333.308 611.594C333.094 611.653 332.822 611.713 332.421 611.713C331.39 611.713 330.444 611.227 330.444 609.582V601.23H333.214V599.909ZM341.811 613.273C344.436 613.273 346.2 611.849 346.797 610.205L345.357 609.736C344.854 610.912 343.669 611.884 341.811 611.884C339.135 611.884 337.439 609.932 337.371 606.906H347.121V606.156C347.121 601.784 344.419 599.73 341.581 599.73C338.189 599.73 335.845 602.568 335.845 606.531C335.845 610.503 338.146 613.273 341.811 613.273ZM337.379 605.568C337.541 603.131 339.186 601.111 341.581 601.111C343.925 601.111 345.57 603.045 345.57 605.568H337.379ZM350.464 613H351.981V604.545C351.981 602.602 353.472 601.196 355.518 601.196C355.918 601.196 356.293 601.264 356.43 601.281V599.739C356.225 599.73 355.876 599.713 355.629 599.713C353.984 599.713 352.577 600.599 352.049 601.92H351.938V599.909H350.464V613ZM375.902 599.909H374.257L370.371 610.997H370.251L366.365 599.909H364.72L369.501 613H371.121L375.902 599.909ZM378.887 613H380.413V599.909H378.887V613ZM379.663 597.659C380.285 597.659 380.805 597.165 380.805 596.568C380.805 595.972 380.285 595.477 379.663 595.477C379.04 595.477 378.529 595.972 378.529 596.568C378.529 597.165 379.04 597.659 379.663 597.659ZM393.22 602.781C392.581 600.889 391.183 599.73 388.788 599.73C386.146 599.73 384.229 601.239 384.229 603.395C384.229 605.151 385.294 606.344 387.57 606.889L389.709 607.401C391.149 607.741 391.839 608.483 391.839 609.531C391.839 610.895 390.536 611.909 388.524 611.909C386.734 611.909 385.618 611.099 385.251 609.548L383.794 609.906C384.254 612.088 385.984 613.273 388.55 613.273C391.43 613.273 393.408 611.688 393.408 609.463C393.408 607.716 392.308 606.548 390.118 606.011L388.141 605.526C386.513 605.116 385.754 604.46 385.754 603.327C385.754 601.997 387.024 601.068 388.788 601.068C390.553 601.068 391.422 601.997 391.831 603.173L393.22 602.781ZM396.746 613H398.272V599.909H396.746V613ZM397.522 597.659C398.144 597.659 398.664 597.165 398.664 596.568C398.664 595.972 398.144 595.477 397.522 595.477C396.9 595.477 396.388 595.972 396.388 596.568C396.388 597.165 396.9 597.659 397.522 597.659ZM407.372 613.273C410.764 613.273 413.134 610.503 413.134 606.514C413.134 602.5 410.764 599.73 407.372 599.73C403.98 599.73 401.611 602.5 401.611 606.514C401.611 610.503 403.98 613.273 407.372 613.273ZM407.372 611.884C404.653 611.884 403.136 609.446 403.136 606.514C403.136 603.582 404.653 601.111 407.372 601.111C410.091 601.111 411.608 603.582 411.608 606.514C411.608 609.446 410.091 611.884 407.372 611.884ZM417.981 604.818C417.981 602.534 419.481 601.128 421.543 601.128C423.555 601.128 424.85 602.474 424.85 604.614V613H426.367V604.52C426.367 601.418 424.569 599.739 421.927 599.739C420.009 599.739 418.688 600.625 418.075 601.963H417.938V599.909H416.464V613H417.981V604.818Z" fill="white"/>
<path opacity="0.6" d="M240.131 646.545V664H241.631V649.912H241.767L247.656 664H249.105L254.994 649.912H255.131V664H256.631V646.545H254.79L248.457 661.75H248.304L241.972 646.545H240.131ZM266.249 664.273C268.874 664.273 270.638 662.849 271.234 661.205L269.794 660.736C269.291 661.912 268.107 662.884 266.249 662.884C263.572 662.884 261.876 660.932 261.808 657.906H271.558V657.156C271.558 652.784 268.857 650.73 266.018 650.73C262.626 650.73 260.283 653.568 260.283 657.531C260.283 661.503 262.584 664.273 266.249 664.273ZM261.817 656.568C261.979 654.131 263.624 652.111 266.018 652.111C268.362 652.111 270.007 654.045 270.007 656.568H261.817ZM280.058 650.909H277.288V647.773H275.762V650.909H273.81V652.23H275.762V660.94C275.762 663.08 277.45 664.196 279.129 664.196C279.759 664.196 280.185 664.077 280.475 663.966L280.151 662.594C279.938 662.653 279.665 662.713 279.265 662.713C278.234 662.713 277.288 662.227 277.288 660.582V652.23H280.058V650.909ZM287.159 664.298C289.341 664.298 290.67 663.088 291.216 661.929H291.31V664H292.827V655.111C292.827 651.599 290.185 650.73 288.182 650.73C286.179 650.73 284.116 651.523 283.23 653.662L284.67 654.182C285.148 653.057 286.332 652.094 288.224 652.094C290.21 652.094 291.31 653.185 291.31 654.974V655.281C291.31 656.27 290.082 656.287 287.884 656.56C284.926 656.926 282.855 657.753 282.855 660.344C282.855 662.866 284.781 664.298 287.159 664.298ZM287.364 662.909C285.651 662.909 284.372 661.997 284.372 660.412C284.372 658.827 285.668 658.162 287.884 657.889C288.957 657.761 290.866 657.523 291.31 657.088V658.98C291.31 661.128 289.784 662.909 287.364 662.909ZM297.178 664H298.652V661.571H298.839C299.368 662.773 300.476 664.273 302.862 664.273C306.075 664.273 308.249 661.554 308.249 657.489C308.249 653.457 306.067 650.73 302.837 650.73C300.442 650.73 299.359 652.23 298.839 653.406H298.703V646.545H297.178V664ZM298.678 657.463C298.678 654.327 300.118 652.111 302.675 652.111C305.3 652.111 306.723 654.446 306.723 657.463C306.723 660.514 305.283 662.884 302.675 662.884C300.135 662.884 298.678 660.625 298.678 657.463ZM316.669 664.273C320.061 664.273 322.43 661.503 322.43 657.514C322.43 653.5 320.061 650.73 316.669 650.73C313.277 650.73 310.908 653.5 310.908 657.514C310.908 661.503 313.277 664.273 316.669 664.273ZM316.669 662.884C313.95 662.884 312.433 660.446 312.433 657.514C312.433 654.582 313.95 652.111 316.669 652.111C319.388 652.111 320.905 654.582 320.905 657.514C320.905 660.446 319.388 662.884 316.669 662.884ZM327.278 646.545H325.761V664H327.278V646.545ZM331.309 664H332.835V650.909H331.309V664ZM332.085 648.659C332.707 648.659 333.227 648.165 333.227 647.568C333.227 646.972 332.707 646.477 332.085 646.477C331.462 646.477 330.951 646.972 330.951 647.568C330.951 648.165 331.462 648.659 332.085 648.659ZM341.96 664.273C344.688 664.273 346.605 662.551 346.955 660.182H345.42C345.071 661.852 343.699 662.884 341.96 662.884C339.395 662.884 337.699 660.651 337.699 657.463C337.699 654.293 339.446 652.111 341.96 652.111C343.827 652.111 345.088 653.312 345.412 654.795H346.946C346.588 652.366 344.56 650.73 341.935 650.73C338.509 650.73 336.173 653.577 336.173 657.514C336.173 661.418 338.44 664.273 341.96 664.273ZM360.612 664.298C362.794 664.298 364.124 663.088 364.669 661.929H364.763V664H366.28V655.111C366.28 651.599 363.638 650.73 361.635 650.73C359.632 650.73 357.57 651.523 356.683 653.662L358.124 654.182C358.601 653.057 359.786 652.094 361.678 652.094C363.663 652.094 364.763 653.185 364.763 654.974V655.281C364.763 656.27 363.536 656.287 361.337 656.56C358.379 656.926 356.308 657.753 356.308 660.344C356.308 662.866 358.234 664.298 360.612 664.298ZM360.817 662.909C359.104 662.909 357.825 661.997 357.825 660.412C357.825 658.827 359.121 658.162 361.337 657.889C362.411 657.761 364.32 657.523 364.763 657.088V658.98C364.763 661.128 363.237 662.909 360.817 662.909ZM375.429 664.273C378.156 664.273 380.074 662.551 380.423 660.182H378.889C378.54 661.852 377.168 662.884 375.429 662.884C372.864 662.884 371.168 660.651 371.168 657.463C371.168 654.293 372.915 652.111 375.429 652.111C377.295 652.111 378.557 653.312 378.881 654.795H380.415C380.057 652.366 378.028 650.73 375.403 650.73C371.977 650.73 369.642 653.577 369.642 657.514C369.642 661.418 371.909 664.273 375.429 664.273ZM388.831 650.909H386.061V647.773H384.536V650.909H382.584V652.23H384.536V660.94C384.536 663.08 386.223 664.196 387.902 664.196C388.533 664.196 388.959 664.077 389.249 663.966L388.925 662.594C388.712 662.653 388.439 662.713 388.038 662.713C387.007 662.713 386.061 662.227 386.061 660.582V652.23H388.831V650.909ZM392.293 664H393.819V650.909H392.293V664ZM393.069 648.659C393.691 648.659 394.211 648.165 394.211 647.568C394.211 646.972 393.691 646.477 393.069 646.477C392.447 646.477 391.935 646.972 391.935 647.568C391.935 648.165 392.447 648.659 393.069 648.659ZM407.964 650.909H406.32L402.433 661.997H402.314L398.428 650.909H396.783L401.564 664H403.183L407.964 650.909ZM410.95 664H412.475V650.909H410.95V664ZM411.725 648.659C412.347 648.659 412.867 648.165 412.867 647.568C412.867 646.972 412.347 646.477 411.725 646.477C411.103 646.477 410.592 646.972 410.592 647.568C410.592 648.165 411.103 648.659 411.725 648.659ZM421.643 650.909H418.874V647.773H417.348V650.909H415.396V652.23H417.348V660.94C417.348 663.08 419.036 664.196 420.714 664.196C421.345 664.196 421.771 664.077 422.061 663.966L421.737 662.594C421.524 662.653 421.251 662.713 420.851 662.713C419.82 662.713 418.874 662.227 418.874 660.582V652.23H421.643V650.909ZM426.146 668.901C427.782 668.901 428.984 667.963 429.683 666.071L435.231 650.935L433.577 650.909L429.691 661.997H429.572L425.685 650.909H424.04L428.856 664.128L428.379 665.457C427.663 667.426 426.631 667.776 425.089 667.281L424.68 668.628C424.987 668.764 425.549 668.901 426.146 668.901ZM279.354 696H280.871V687.614C280.871 685.577 282.227 684.128 284.042 684.128C285.832 684.128 286.871 685.321 286.871 687.094V696H288.423V687.384C288.423 685.5 289.548 684.128 291.542 684.128C293.272 684.128 294.423 685.168 294.423 687.23V696H295.94V687.23C295.94 684.298 294.431 682.739 292.002 682.739C290.093 682.739 288.712 683.668 288.124 685.116H288.013C287.434 683.634 286.283 682.739 284.477 682.739C282.763 682.739 281.485 683.565 280.965 684.92H280.829V682.909H279.354V696ZM305.044 696.273C308.436 696.273 310.805 693.503 310.805 689.514C310.805 685.5 308.436 682.73 305.044 682.73C301.652 682.73 299.283 685.5 299.283 689.514C299.283 693.503 301.652 696.273 305.044 696.273ZM305.044 694.884C302.325 694.884 300.808 692.446 300.808 689.514C300.808 686.582 302.325 684.111 305.044 684.111C307.763 684.111 309.28 686.582 309.28 689.514C309.28 692.446 307.763 694.884 305.044 694.884ZM315.653 687.818C315.653 685.534 317.153 684.128 319.215 684.128C321.227 684.128 322.522 685.474 322.522 687.614V696H324.039V687.52C324.039 684.418 322.241 682.739 319.599 682.739C317.681 682.739 316.36 683.625 315.746 684.963H315.61V682.909H314.136V696H315.653V687.818ZM328.051 696H329.577V682.909H328.051V696ZM328.827 680.659C329.449 680.659 329.969 680.165 329.969 679.568C329.969 678.972 329.449 678.477 328.827 678.477C328.205 678.477 327.693 678.972 327.693 679.568C327.693 680.165 328.205 680.659 328.827 680.659ZM338.745 682.909H335.975V679.773H334.45V682.909H332.498V684.23H334.45V692.94C334.45 695.08 336.137 696.196 337.816 696.196C338.447 696.196 338.873 696.077 339.163 695.966L338.839 694.594C338.626 694.653 338.353 694.713 337.952 694.713C336.921 694.713 335.975 694.227 335.975 692.582V684.23H338.745V682.909ZM347.138 696.273C350.53 696.273 352.899 693.503 352.899 689.514C352.899 685.5 350.53 682.73 347.138 682.73C343.746 682.73 341.376 685.5 341.376 689.514C341.376 693.503 343.746 696.273 347.138 696.273ZM347.138 694.884C344.419 694.884 342.902 692.446 342.902 689.514C342.902 686.582 344.419 684.111 347.138 684.111C349.857 684.111 351.374 686.582 351.374 689.514C351.374 692.446 349.857 694.884 347.138 694.884ZM356.229 696H357.746V687.545C357.746 685.602 359.238 684.196 361.283 684.196C361.684 684.196 362.059 684.264 362.195 684.281V682.739C361.991 682.73 361.641 682.713 361.394 682.713C359.749 682.713 358.343 683.599 357.815 684.92H357.704V682.909H356.229V696ZM364.801 696H366.327V682.909H364.801V696ZM365.577 680.659C366.199 680.659 366.719 680.165 366.719 679.568C366.719 678.972 366.199 678.477 365.577 678.477C364.955 678.477 364.443 678.972 364.443 679.568C364.443 680.165 364.955 680.659 365.577 680.659ZM371.856 687.818C371.856 685.534 373.356 684.128 375.418 684.128C377.43 684.128 378.725 685.474 378.725 687.614V696H380.242V687.52C380.242 684.418 378.444 682.739 375.802 682.739C373.884 682.739 372.563 683.625 371.95 684.963H371.813V682.909H370.339V696H371.856V687.818ZM389.232 701.182C392.334 701.182 394.635 699.665 394.635 696.341V682.909H393.152V685.406H392.999C392.462 684.23 391.379 682.73 388.976 682.73C385.737 682.73 383.564 685.44 383.564 689.42C383.564 693.435 385.814 695.864 388.95 695.864C391.303 695.864 392.453 694.5 392.973 693.298H393.109V696.247C393.109 698.685 391.55 699.818 389.232 699.818C386.99 699.818 385.916 698.736 385.362 697.739L384.118 698.557C384.885 700.057 386.555 701.182 389.232 701.182ZM389.129 694.474C386.53 694.474 385.089 692.395 385.089 689.395C385.089 686.446 386.504 684.111 389.129 684.111C391.695 684.111 393.135 686.327 393.135 689.395C393.135 692.557 391.652 694.474 389.129 694.474Z" fill="white"/>
<defs>
<filter id="filter0_f" x="0.306396" y="284.625" width="672.387" height="642.828" filterUnits="userSpaceOnUse" color-interpolation-filters="sRGB">
<feFlood flood-opacity="0" result="BackgroundImageFix"/>
<feBlend mode="normal" in="SourceGraphic" in2="BackgroundImageFix" result="shape"/>
<feGaussianBlur stdDeviation="21" result="effect1_foregroundBlur"/>
</filter>
<filter id="filter1_d" x="317.659" y="852.659" width="37" height="37" filterUnits="userSpaceOnUse" color-interpolation-filters="sRGB">
<feFlood flood-opacity="0" result="BackgroundImageFix"/>
<feColorMatrix in="SourceAlpha" type="matrix" values="0 0 0 0 0 0 0 0 0 0 0 0 0 0 0 0 0 0 127 0"/>
<feOffset/>
<feGaussianBlur stdDeviation="4"/>
<feColorMatrix type="matrix" values="0 0 0 0 0.054902 0 0 0 0 0.741176 0 0 0 0 0.945098 0 0 0 0.8 0"/>
<feBlend mode="normal" in2="BackgroundImageFix" result="effect1_dropShadow"/>
<feBlend mode="normal" in="SourceGraphic" in2="effect1_dropShadow" result="shape"/>
</filter>
<filter id="filter2_d" x="468.659" y="807.659" width="37" height="37" filterUnits="userSpaceOnUse" color-interpolation-filters="sRGB">
<feFlood flood-opacity="0" result="BackgroundImageFix"/>
<feColorMatrix in="SourceAlpha" type="matrix" values="0 0 0 0 0 0 0 0 0 0 0 0 0 0 0 0 0 0 127 0"/>
<feOffset/>
<feGaussianBlur stdDeviation="4"/>
<feColorMatrix type="matrix" values="0 0 0 0 0.054902 0 0 0 0 0.741176 0 0 0 0 0.945098 0 0 0 0.8 0"/>
<feBlend mode="normal" in2="BackgroundImageFix" result="effect1_dropShadow"/>
<feBlend mode="normal" in="SourceGraphic" in2="effect1_dropShadow" result="shape"/>
</filter>
<filter id="filter3_d" x="166.659" y="807.659" width="37" height="37" filterUnits="userSpaceOnUse" color-interpolation-filters="sRGB">
<feFlood flood-opacity="0" result="BackgroundImageFix"/>
<feColorMatrix in="SourceAlpha" type="matrix" values="0 0 0 0 0 0 0 0 0 0 0 0 0 0 0 0 0 0 127 0"/>
<feOffset/>
<feGaussianBlur stdDeviation="4"/>
<feColorMatrix type="matrix" values="0 0 0 0 0.054902 0 0 0 0 0.741176 0 0 0 0 0.945098 0 0 0 0.8 0"/>
<feBlend mode="normal" in2="BackgroundImageFix" result="effect1_dropShadow"/>
<feBlend mode="normal" in="SourceGraphic" in2="effect1_dropShadow" result="shape"/>
</filter>
<filter id="filter4_d" x="566.659" y="693.659" width="37" height="37" filterUnits="userSpaceOnUse" color-interpolation-filters="sRGB">
<feFlood flood-opacity="0" result="BackgroundImageFix"/>
<feColorMatrix in="SourceAlpha" type="matrix" values="0 0 0 0 0 0 0 0 0 0 0 0 0 0 0 0 0 0 127 0"/>
<feOffset/>
<feGaussianBlur stdDeviation="4"/>
<feColorMatrix type="matrix" values="0 0 0 0 0.054902 0 0 0 0 0.741176 0 0 0 0 0.945098 0 0 0 0.8 0"/>
<feBlend mode="normal" in2="BackgroundImageFix" result="effect1_dropShadow"/>
<feBlend mode="normal" in="SourceGraphic" in2="effect1_dropShadow" result="shape"/>
</filter>
<filter id="filter5_d" x="340.659" y="322.659" width="37" height="37" filterUnits="userSpaceOnUse" color-interpolation-filters="sRGB">
<feFlood flood-opacity="0" result="BackgroundImageFix"/>
<feColorMatrix in="SourceAlpha" type="matrix" values="0 0 0 0 0 0 0 0 0 0 0 0 0 0 0 0 0 0 127 0"/>
<feOffset/>
<feGaussianBlur stdDeviation="4"/>
<feColorMatrix type="matrix" values="0 0 0 0 0.360784 0 0 0 0 0.780392 0 0 0 0 0.552941 0 0 0 1 0"/>
<feBlend mode="normal" in2="BackgroundImageFix" result="effect1_dropShadow"/>
<feBlend mode="normal" in="SourceGraphic" in2="effect1_dropShadow" result="shape"/>
</filter>
<filter id="filter6_d" x="484.659" y="378.659" width="37" height="37" filterUnits="userSpaceOnUse" color-interpolation-filters="sRGB">
<feFlood flood-opacity="0" result="BackgroundImageFix"/>
<feColorMatrix in="SourceAlpha" type="matrix" values="0 0 0 0 0 0 0 0 0 0 0 0 0 0 0 0 0 0 127 0"/>
<feOffset/>
<feGaussianBlur stdDeviation="4"/>
<feColorMatrix type="matrix" values="0 0 0 0 0.360784 0 0 0 0 0.780392 0 0 0 0 0.552941 0 0 0 1 0"/>
<feBlend mode="normal" in2="BackgroundImageFix" result="effect1_dropShadow"/>
<feBlend mode="normal" in="SourceGraphic" in2="effect1_dropShadow" result="shape"/>
</filter>
<filter id="filter7_d" x="180.659" y="358.659" width="37" height="37" filterUnits="userSpaceOnUse" color-interpolation-filters="sRGB">
<feFlood flood-opacity="0" result="BackgroundImageFix"/>
<feColorMatrix in="SourceAlpha" type="matrix" values="0 0 0 0 0 0 0 0 0 0 0 0 0 0 0 0 0 0 127 0"/>
<feOffset/>
<feGaussianBlur stdDeviation="4"/>
<feColorMatrix type="matrix" values="0 0 0 0 0.360784 0 0 0 0 0.780392 0 0 0 0 0.552941 0 0 0 1 0"/>
<feBlend mode="normal" in2="BackgroundImageFix" result="effect1_dropShadow"/>
<feBlend mode="normal" in="SourceGraphic" in2="effect1_dropShadow" result="shape"/>
</filter>
<filter id="filter8_d" x="76.6592" y="474.659" width="37" height="37" filterUnits="userSpaceOnUse" color-interpolation-filters="sRGB">
<feFlood flood-opacity="0" result="BackgroundImageFix"/>
<feColorMatrix in="SourceAlpha" type="matrix" values="0 0 0 0 0 0 0 0 0 0 0 0 0 0 0 0 0 0 127 0"/>
<feOffset/>
<feGaussianBlur stdDeviation="4"/>
<feColorMatrix type="matrix" values="0 0 0 0 0.360784 0 0 0 0 0.780392 0 0 0 0 0.552941 0 0 0 1 0"/>
<feBlend mode="normal" in2="BackgroundImageFix" result="effect1_dropShadow"/>
<feBlend mode="normal" in="SourceGraphic" in2="effect1_dropShadow" result="shape"/>
</filter>
<linearGradient id="paint0_linear" x1="546.723" y1="606.039" x2="126.276" y2="606.039" gradientUnits="userSpaceOnUse">
<stop stop-color="#0EBDF1"/>
<stop offset="1" stop-color="#5CC78D"/>
</linearGradient>
<radialGradient id="paint1_radial" cx="0" cy="0" r="1" gradientUnits="userSpaceOnUse" gradientTransform="translate(336.501 384.039) rotate(90) scale(444.091 277.557)">
<stop stop-color="#0EBDF1" stop-opacity="0.2"/>
<stop offset="1" stop-color="#FF26C2" stop-opacity="0"/>
</radialGradient>
<linearGradient id="paint2_linear" x1="558.547" y1="606.084" x2="114.456" y2="606.084" gradientUnits="userSpaceOnUse">
<stop stop-color="#0EBDF1"/>
<stop offset="1" stop-color="#5CC78D"/>
</linearGradient>
</defs>
</svg>
