<svg width="1070" height="713" viewBox="0 0 1070 713" fill="none" xmlns="http://www.w3.org/2000/svg">
<g clip-path="url(#clip0)">
<g opacity="0.4" filter="url(#filter0_f)">
<ellipse cx="534.88" cy="434.659" rx="210.223" ry="231.125" transform="rotate(15 534.88 434.659)" stroke="url(#paint0_linear)" stroke-width="27"/>
</g>
<circle cx="534.925" cy="434.658" r="222.045" fill="#0C242C"/>
<circle cx="534.925" cy="434.658" r="222.045" fill="url(#paint1_radial)"/>
<circle cx="534.925" cy="434.658" r="216.045" stroke="url(#paint2_linear)" stroke-width="12"/>
<path d="M641.786 189.324C677.598 205.473 709.446 229.256 735.101 259.008C760.755 288.76 779.595 323.76 790.3 361.558C801.006 399.356 803.318 439.038 797.076 477.824C790.834 516.609 776.187 553.562 754.162 586.092" stroke="#0EBDF1" stroke-linecap="round" stroke-linejoin="round" stroke-dasharray="2 4"/>
<g filter="url(#filter1_d)">
<circle cx="800" cy="435" r="8" transform="rotate(-180 800 435)" fill="white"/>
<circle cx="800" cy="435" r="8" transform="rotate(-180 800 435)" stroke="#0EBDF1" stroke-width="5"/>
</g>
<g filter="url(#filter2_d)">
<circle cx="755" cy="284" r="8" transform="rotate(-180 755 284)" fill="white"/>
<circle cx="755" cy="284" r="8" transform="rotate(-180 755 284)" stroke="#0EBDF1" stroke-width="5"/>
</g>
<g filter="url(#filter3_d)">
<circle cx="755" cy="586" r="8" transform="rotate(-180 755 586)" fill="white"/>
<circle cx="755" cy="586" r="8" transform="rotate(-180 755 586)" stroke="#0EBDF1" stroke-width="5"/>
</g>
<g filter="url(#filter4_d)">
<circle cx="641" cy="186" r="8" transform="rotate(-180 641 186)" fill="white"/>
<circle cx="641" cy="186" r="8" transform="rotate(-180 641 186)" stroke="#0EBDF1" stroke-width="5"/>
</g>
<path d="M423.402 679.389C386.431 662.204 353.841 636.855 328.086 605.25C302.33 573.646 284.081 536.61 274.712 496.931C265.343 457.252 265.099 415.965 273.998 376.178C282.896 336.391 300.706 299.142 326.085 267.235" stroke="#5CC78D" stroke-linecap="round" stroke-linejoin="round" stroke-dasharray="2 4"/>
<g filter="url(#filter5_d)">
<circle cx="270" cy="412" r="8" fill="white"/>
<circle cx="270" cy="412" r="8" stroke="#5CC78D" stroke-width="5"/>
</g>
<g filter="url(#filter6_d)">
<circle cx="326" cy="268" r="8" fill="white"/>
<circle cx="326" cy="268" r="8" stroke="#5CC78D" stroke-width="5"/>
</g>
<g filter="url(#filter7_d)">
<circle cx="306" cy="572" r="8" fill="white"/>
<circle cx="306" cy="572" r="8" stroke="#5CC78D" stroke-width="5"/>
</g>
<g filter="url(#filter8_d)">
<circle cx="422" cy="676" r="8" fill="white"/>
<circle cx="422" cy="676" r="8" stroke="#5CC78D" stroke-width="5"/>
</g>
<path d="M183.521 186H193.464C198.691 186 201.475 183.273 201.475 179.568C201.475 176.125 199.009 174.045 196.361 173.92V173.693C198.782 173.148 200.566 171.432 200.566 168.693C200.566 165.205 197.975 162.727 192.839 162.727H183.521V186ZM188.441 181.977V175.795H192.566C194.93 175.795 196.396 177.159 196.396 179.08C196.396 180.83 195.202 181.977 192.452 181.977H188.441ZM188.441 172.466V166.705H192.18C194.361 166.705 195.6 167.83 195.6 169.511C195.6 171.352 194.1 172.466 192.089 172.466H188.441ZM204.586 186H209.427V168.545H204.586V186ZM207.018 166.295C208.461 166.295 209.643 165.193 209.643 163.841C209.643 162.5 208.461 161.398 207.018 161.398C205.586 161.398 204.404 162.5 204.404 163.841C204.404 165.193 205.586 166.295 207.018 166.295ZM221.191 186.341C226.486 186.341 229.782 182.716 229.782 177.341C229.782 171.932 226.486 168.318 221.191 168.318C215.896 168.318 212.6 171.932 212.6 177.341C212.6 182.716 215.896 186.341 221.191 186.341ZM221.214 182.591C218.771 182.591 217.521 180.352 217.521 177.307C217.521 174.261 218.771 172.011 221.214 172.011C223.611 172.011 224.861 174.261 224.861 177.307C224.861 180.352 223.611 182.591 221.214 182.591ZM237.771 162.727H232.93V186H237.771V162.727ZM249.535 186.341C254.83 186.341 258.126 182.716 258.126 177.341C258.126 171.932 254.83 168.318 249.535 168.318C244.239 168.318 240.944 171.932 240.944 177.341C240.944 182.716 244.239 186.341 249.535 186.341ZM249.557 182.591C247.114 182.591 245.864 180.352 245.864 177.307C245.864 174.261 247.114 172.011 249.557 172.011C251.955 172.011 253.205 174.261 253.205 177.307C253.205 180.352 251.955 182.591 249.557 182.591ZM269.137 192.795C274.126 192.795 277.671 190.523 277.671 186.17V168.545H272.864V171.477H272.682C272.035 170.057 270.614 168.318 267.694 168.318C263.864 168.318 260.626 171.295 260.626 177.239C260.626 183.045 263.773 185.75 267.705 185.75C270.489 185.75 272.046 184.352 272.682 182.909H272.887V186.102C272.887 188.386 271.353 189.318 269.251 189.318C267.114 189.318 266.035 188.386 265.637 187.443L261.16 188.045C261.739 190.682 264.432 192.795 269.137 192.795ZM269.239 182.114C266.864 182.114 265.569 180.227 265.569 177.216C265.569 174.25 266.842 172.17 269.239 172.17C271.592 172.17 272.91 174.159 272.91 177.216C272.91 180.295 271.569 182.114 269.239 182.114ZM281.523 186H286.364V168.545H281.523V186ZM283.955 166.295C285.398 166.295 286.58 165.193 286.58 163.841C286.58 162.5 285.398 161.398 283.955 161.398C282.523 161.398 281.342 162.5 281.342 163.841C281.342 165.193 282.523 166.295 283.955 166.295ZM298.128 186.341C302.776 186.341 305.697 183.614 305.924 179.602H301.356C301.072 181.466 299.844 182.511 298.185 182.511C295.924 182.511 294.458 180.614 294.458 177.273C294.458 173.977 295.935 172.091 298.185 172.091C299.958 172.091 301.094 173.261 301.356 175H305.924C305.719 170.966 302.663 168.318 298.106 168.318C292.81 168.318 289.538 171.989 289.538 177.341C289.538 182.648 292.753 186.341 298.128 186.341ZM314.001 186.33C316.58 186.33 318.251 185.205 319.103 183.58H319.239V186H323.83V174.227C323.83 170.068 320.307 168.318 316.421 168.318C312.239 168.318 309.489 170.318 308.819 173.5L313.296 173.864C313.626 172.705 314.66 171.852 316.398 171.852C318.046 171.852 318.989 172.682 318.989 174.114V174.182C318.989 175.307 317.796 175.455 314.762 175.75C311.307 176.068 308.205 177.227 308.205 181.125C308.205 184.58 310.671 186.33 314.001 186.33ZM315.387 182.989C313.898 182.989 312.83 182.295 312.83 180.966C312.83 179.602 313.955 178.932 315.66 178.693C316.717 178.545 318.444 178.295 319.023 177.909V179.761C319.023 181.591 317.512 182.989 315.387 182.989ZM332.427 162.727H327.586V186H332.427V162.727ZM230.771 205.42H235.486C235.418 201.273 232.009 198.409 226.827 198.409C221.725 198.409 217.986 201.227 218.009 205.455C217.998 208.886 220.418 210.852 224.35 211.795L226.884 212.432C229.418 213.045 230.827 213.773 230.839 215.341C230.827 217.045 229.214 218.205 226.714 218.205C224.157 218.205 222.316 217.023 222.157 214.693H217.396C217.521 219.727 221.123 222.33 226.771 222.33C232.452 222.33 235.793 219.614 235.805 215.352C235.793 211.477 232.873 209.42 228.827 208.511L226.736 208.011C224.714 207.545 223.021 206.795 223.055 205.125C223.055 203.625 224.384 202.523 226.793 202.523C229.146 202.523 230.589 203.591 230.771 205.42ZM242.012 228.511C245.614 228.511 247.535 226.682 248.512 223.886L255.296 204.568L250.171 204.545L246.523 217.364H246.342L242.728 204.545H237.637L243.898 222.5L243.614 223.239C242.932 224.818 241.762 224.932 240.057 224.398L238.967 228.023C239.66 228.307 240.785 228.511 242.012 228.511ZM272.296 209.523C271.864 206.307 269.273 204.318 264.864 204.318C260.398 204.318 257.455 206.386 257.467 209.75C257.455 212.364 259.103 214.057 262.512 214.739L265.535 215.341C267.057 215.648 267.751 216.205 267.773 217.08C267.751 218.114 266.626 218.852 264.932 218.852C263.205 218.852 262.057 218.114 261.762 216.693L257.001 216.943C257.455 220.284 260.296 222.341 264.921 222.341C269.444 222.341 272.682 220.034 272.694 216.591C272.682 214.068 271.035 212.557 267.648 211.864L264.489 211.227C262.864 210.875 262.262 210.318 262.273 209.477C262.262 208.432 263.444 207.75 264.944 207.75C266.626 207.75 267.626 208.67 267.864 209.795L272.296 209.523ZM285.026 204.545H281.742V200.364H276.901V204.545H274.515V208.182H276.901V217.273C276.878 220.693 279.208 222.386 282.719 222.239C283.969 222.193 284.856 221.943 285.344 221.784L284.583 218.182C284.344 218.227 283.833 218.341 283.378 218.341C282.413 218.341 281.742 217.977 281.742 216.636V208.182H285.026V204.545ZM295.947 222.341C300.265 222.341 303.174 220.239 303.856 217L299.378 216.705C298.89 218.034 297.64 218.727 296.026 218.727C293.606 218.727 292.072 217.125 292.072 214.523V214.511H303.958V213.182C303.958 207.25 300.367 204.318 295.753 204.318C290.617 204.318 287.288 207.966 287.288 213.352C287.288 218.886 290.572 222.341 295.947 222.341ZM292.072 211.511C292.174 209.523 293.685 207.932 295.833 207.932C297.935 207.932 299.39 209.432 299.401 211.511H292.072ZM307.117 222H311.958V211.523C311.958 209.591 313.185 208.307 314.799 208.307C316.39 208.307 317.458 209.398 317.458 211.114V222H322.151V211.341C322.151 209.534 323.185 208.307 324.947 208.307C326.492 208.307 327.651 209.273 327.651 211.216V222H332.481V210.261C332.481 206.477 330.231 204.318 326.981 204.318C324.424 204.318 322.435 205.625 321.719 207.625H321.538C320.981 205.602 319.197 204.318 316.799 204.318C314.447 204.318 312.663 205.568 311.935 207.625H311.731V204.545H307.117V222Z" fill="#5CC78D"/>
<path d="M125.963 270H130.167C132.917 270 134.054 268.659 134.054 266.909C134.054 265.068 132.781 264.068 131.713 264V263.886C132.713 263.614 133.599 262.955 133.599 261.455C133.599 259.75 132.463 258.364 130.031 258.364H125.963V270ZM127.372 268.75V264.705H130.236C131.758 264.705 132.713 265.727 132.713 266.909C132.713 267.932 132.008 268.75 130.167 268.75H127.372ZM127.372 263.477V259.614H130.031C131.576 259.614 132.258 260.432 132.258 261.455C132.258 262.682 131.258 263.477 129.986 263.477H127.372ZM138.915 270.205C140.438 270.205 141.234 269.386 141.506 268.818H141.575V270H142.915V264.25C142.915 261.477 140.802 261.159 139.688 261.159C138.37 261.159 136.87 261.614 136.188 263.205L137.461 263.659C137.756 263.023 138.455 262.341 139.734 262.341C140.967 262.341 141.575 262.994 141.575 264.114V264.159C141.575 264.807 140.915 264.75 139.325 264.955C137.705 265.165 135.938 265.523 135.938 267.523C135.938 269.227 137.256 270.205 138.915 270.205ZM139.12 269C138.052 269 137.279 268.523 137.279 267.591C137.279 266.568 138.211 266.25 139.256 266.114C139.825 266.045 141.347 265.886 141.575 265.614V266.841C141.575 267.932 140.711 269 139.12 269ZM149.068 270.182C151 270.182 152.273 269 152.5 267.455H151.159C150.909 268.409 150.114 268.977 149.068 268.977C147.477 268.977 146.455 267.659 146.455 265.636C146.455 263.659 147.5 262.364 149.068 262.364C150.25 262.364 150.955 263.091 151.159 263.886H152.5C152.273 262.25 150.887 261.159 149.046 261.159C146.682 261.159 145.114 263.023 145.114 265.682C145.114 268.295 146.614 270.182 149.068 270.182ZM158.416 261.273H156.552V259.182H155.211V261.273H153.893V262.409H155.211V267.864C155.211 269.386 156.439 270.114 157.575 270.114C158.075 270.114 158.393 270.023 158.575 269.955L158.302 268.75C158.189 268.773 158.007 268.818 157.711 268.818C157.12 268.818 156.552 268.636 156.552 267.5V262.409H158.416V261.273ZM164.158 270.182C165.931 270.182 167.226 269.295 167.636 267.977L166.34 267.614C165.999 268.523 165.209 268.977 164.158 268.977C162.584 268.977 161.499 267.96 161.437 266.091H167.772V265.523C167.772 262.273 165.84 261.159 164.022 261.159C161.658 261.159 160.09 263.023 160.09 265.705C160.09 268.386 161.636 270.182 164.158 270.182ZM161.437 264.932C161.528 263.574 162.488 262.364 164.022 262.364C165.476 262.364 166.408 263.455 166.408 264.932H161.437ZM169.972 270H171.313V264.477C171.313 263.295 172.244 262.432 173.517 262.432C173.875 262.432 174.244 262.5 174.335 262.523V261.159C174.182 261.148 173.83 261.136 173.631 261.136C172.585 261.136 171.676 261.727 171.358 262.591H171.267V261.273H169.972V270ZM176.085 270H177.426V261.273H176.085V270ZM176.767 259.818C177.289 259.818 177.721 259.409 177.721 258.909C177.721 258.409 177.289 258 176.767 258C176.244 258 175.812 258.409 175.812 258.909C175.812 259.409 176.244 259.818 176.767 259.818ZM182.61 270.205C184.133 270.205 184.928 269.386 185.201 268.818H185.269V270H186.61V264.25C186.61 261.477 184.496 261.159 183.383 261.159C182.064 261.159 180.564 261.614 179.883 263.205L181.155 263.659C181.451 263.023 182.15 262.341 183.428 262.341C184.661 262.341 185.269 262.994 185.269 264.114V264.159C185.269 264.807 184.61 264.75 183.019 264.955C181.4 265.165 179.633 265.523 179.633 267.523C179.633 269.227 180.951 270.205 182.61 270.205ZM182.814 269C181.746 269 180.973 268.523 180.973 267.591C180.973 266.568 181.905 266.25 182.951 266.114C183.519 266.045 185.042 265.886 185.269 265.614V266.841C185.269 267.932 184.405 269 182.814 269ZM190.558 258.364H189.217V270H190.558V258.364ZM201.493 270.182C203.266 270.182 204.561 269.295 204.971 267.977L203.675 267.614C203.334 268.523 202.544 268.977 201.493 268.977C199.919 268.977 198.834 267.96 198.772 266.091H205.107V265.523C205.107 262.273 203.175 261.159 201.357 261.159C198.993 261.159 197.425 263.023 197.425 265.705C197.425 268.386 198.971 270.182 201.493 270.182ZM198.772 264.932C198.863 263.574 199.823 262.364 201.357 262.364C202.811 262.364 203.743 263.455 203.743 264.932H198.772ZM208.072 261.273H206.527L209.3 265.636L206.527 270H208.072L210.163 266.614L212.254 270H213.8L210.981 265.636L213.8 261.273H212.254L210.163 264.841L208.072 261.273ZM219.668 261.273H217.805V259.182H216.464V261.273H215.146V262.409H216.464V267.864C216.464 269.386 217.691 270.114 218.827 270.114C219.327 270.114 219.646 270.023 219.827 269.955L219.555 268.75C219.441 268.773 219.259 268.818 218.964 268.818C218.373 268.818 217.805 268.636 217.805 267.5V262.409H219.668V261.273ZM221.845 270H223.186V264.477C223.186 263.295 224.118 262.432 225.391 262.432C225.749 262.432 226.118 262.5 226.209 262.523V261.159C226.056 261.148 225.703 261.136 225.504 261.136C224.459 261.136 223.55 261.727 223.232 262.591H223.141V261.273H221.845V270ZM230.527 270.205C232.049 270.205 232.845 269.386 233.118 268.818H233.186V270H234.527V264.25C234.527 261.477 232.413 261.159 231.299 261.159C229.981 261.159 228.481 261.614 227.799 263.205L229.072 263.659C229.368 263.023 230.066 262.341 231.345 262.341C232.578 262.341 233.186 262.994 233.186 264.114V264.159C233.186 264.807 232.527 264.75 230.936 264.955C229.316 265.165 227.549 265.523 227.549 267.523C227.549 269.227 228.868 270.205 230.527 270.205ZM230.731 269C229.663 269 228.89 268.523 228.89 267.591C228.89 266.568 229.822 266.25 230.868 266.114C231.436 266.045 232.959 265.886 233.186 265.614V266.841C233.186 267.932 232.322 269 230.731 269ZM240.68 270.182C242.611 270.182 243.884 269 244.111 267.455H242.771C242.521 268.409 241.725 268.977 240.68 268.977C239.089 268.977 238.066 267.659 238.066 265.636C238.066 263.659 239.111 262.364 240.68 262.364C241.861 262.364 242.566 263.091 242.771 263.886H244.111C243.884 262.25 242.498 261.159 240.657 261.159C238.293 261.159 236.725 263.023 236.725 265.682C236.725 268.295 238.225 270.182 240.68 270.182ZM250.027 261.273H248.163V259.182H246.823V261.273H245.504V262.409H246.823V267.864C246.823 269.386 248.05 270.114 249.186 270.114C249.686 270.114 250.004 270.023 250.186 269.955L249.913 268.75C249.8 268.773 249.618 268.818 249.323 268.818C248.732 268.818 248.163 268.636 248.163 267.5V262.409H250.027V261.273ZM252.204 270H253.545V261.273H252.204V270ZM252.886 259.818C253.409 259.818 253.841 259.409 253.841 258.909C253.841 258.409 253.409 258 252.886 258C252.363 258 251.931 258.409 251.931 258.909C251.931 259.409 252.363 259.818 252.886 259.818ZM259.706 270.182C262.07 270.182 263.661 268.386 263.661 265.682C263.661 262.955 262.07 261.159 259.706 261.159C257.343 261.159 255.752 262.955 255.752 265.682C255.752 268.386 257.343 270.182 259.706 270.182ZM259.706 268.977C257.911 268.977 257.093 267.432 257.093 265.682C257.093 263.932 257.911 262.364 259.706 262.364C261.502 262.364 262.32 263.932 262.32 265.682C262.32 267.432 261.502 268.977 259.706 268.977ZM267.209 264.75C267.209 263.227 268.152 262.364 269.436 262.364C270.68 262.364 271.436 263.176 271.436 264.545V270H272.777V264.455C272.777 262.227 271.589 261.159 269.822 261.159C268.504 261.159 267.686 261.75 267.277 262.636H267.163V261.273H265.868V270H267.209V264.75Z" fill="white"/>
<path d="M63.7441 402.364V414H65.0623V405.159H65.1759L68.8123 414H70.085L73.7214 405.159H73.835V414H75.1532V402.364H73.4714L69.5168 412.023H69.3805L65.4259 402.364H63.7441ZM81.6157 414.182C83.3885 414.182 84.6839 413.295 85.093 411.977L83.7976 411.614C83.4567 412.523 82.6669 412.977 81.6157 412.977C80.0419 412.977 78.9567 411.96 78.8942 410.091H85.2294V409.523C85.2294 406.273 83.2976 405.159 81.4794 405.159C79.1157 405.159 77.5476 407.023 77.5476 409.705C77.5476 412.386 79.093 414.182 81.6157 414.182ZM78.8942 408.932C78.9851 407.574 79.9453 406.364 81.4794 406.364C82.9339 406.364 83.8657 407.455 83.8657 408.932H78.8942ZM91.2246 405.273H89.361V403.182H88.0201V405.273H86.7019V406.409H88.0201V411.864C88.0201 413.386 89.2473 414.114 90.3837 414.114C90.8837 414.114 91.2019 414.023 91.3837 413.955L91.111 412.75C90.9973 412.773 90.8155 412.818 90.5201 412.818C89.9292 412.818 89.361 412.636 89.361 411.5V406.409H91.2246V405.273ZM95.9698 414.205C97.4926 414.205 98.288 413.386 98.5607 412.818H98.6289V414H99.9698V408.25C99.9698 405.477 97.8562 405.159 96.7426 405.159C95.4244 405.159 93.9244 405.614 93.2426 407.205L94.5153 407.659C94.8107 407.023 95.5096 406.341 96.788 406.341C98.021 406.341 98.6289 406.994 98.6289 408.114V408.159C98.6289 408.807 97.9698 408.75 96.3789 408.955C94.7596 409.165 92.9926 409.523 92.9926 411.523C92.9926 413.227 94.3107 414.205 95.9698 414.205ZM96.1744 413C95.1062 413 94.3335 412.523 94.3335 411.591C94.3335 410.568 95.2653 410.25 96.3107 410.114C96.8789 410.045 98.4017 409.886 98.6289 409.614V410.841C98.6289 411.932 97.7653 413 96.1744 413ZM102.759 414H104.055V412.659H104.214C104.509 413.136 105.077 414.182 106.759 414.182C108.941 414.182 110.464 412.432 110.464 409.659C110.464 406.909 108.941 405.159 106.736 405.159C105.032 405.159 104.509 406.205 104.214 406.659H104.1V402.364H102.759V414ZM104.077 409.636C104.077 407.682 104.941 406.364 106.577 406.364C108.282 406.364 109.123 407.795 109.123 409.636C109.123 411.5 108.259 412.977 106.577 412.977C104.964 412.977 104.077 411.614 104.077 409.636ZM116.22 414.182C118.584 414.182 120.175 412.386 120.175 409.682C120.175 406.955 118.584 405.159 116.22 405.159C113.857 405.159 112.266 406.955 112.266 409.682C112.266 412.386 113.857 414.182 116.22 414.182ZM116.22 412.977C114.425 412.977 113.607 411.432 113.607 409.682C113.607 407.932 114.425 406.364 116.22 406.364C118.016 406.364 118.834 407.932 118.834 409.682C118.834 411.432 118.016 412.977 116.22 412.977ZM123.723 402.364H122.382V414H123.723V402.364ZM126.339 414H127.679V405.273H126.339V414ZM127.02 403.818C127.543 403.818 127.975 403.409 127.975 402.909C127.975 402.409 127.543 402 127.02 402C126.498 402 126.066 402.409 126.066 402.909C126.066 403.409 126.498 403.818 127.02 403.818ZM133.841 414.182C135.773 414.182 137.045 413 137.273 411.455H135.932C135.682 412.409 134.886 412.977 133.841 412.977C132.25 412.977 131.227 411.659 131.227 409.636C131.227 407.659 132.273 406.364 133.841 406.364C135.023 406.364 135.727 407.091 135.932 407.886H137.273C137.045 406.25 135.659 405.159 133.818 405.159C131.454 405.159 129.886 407.023 129.886 409.682C129.886 412.295 131.386 414.182 133.841 414.182ZM146.621 414.205C148.144 414.205 148.939 413.386 149.212 412.818H149.28V414H150.621V408.25C150.621 405.477 148.507 405.159 147.394 405.159C146.076 405.159 144.576 405.614 143.894 407.205L145.167 407.659C145.462 407.023 146.161 406.341 147.439 406.341C148.672 406.341 149.28 406.994 149.28 408.114V408.159C149.28 408.807 148.621 408.75 147.03 408.955C145.411 409.165 143.644 409.523 143.644 411.523C143.644 413.227 144.962 414.205 146.621 414.205ZM146.826 413C145.757 413 144.985 412.523 144.985 411.591C144.985 410.568 145.917 410.25 146.962 410.114C147.53 410.045 149.053 409.886 149.28 409.614V410.841C149.28 411.932 148.417 413 146.826 413ZM156.774 414.182C158.706 414.182 159.979 413 160.206 411.455H158.865C158.615 412.409 157.819 412.977 156.774 412.977C155.183 412.977 154.16 411.659 154.16 409.636C154.16 407.659 155.206 406.364 156.774 406.364C157.956 406.364 158.66 407.091 158.865 407.886H160.206C159.979 406.25 158.592 405.159 156.751 405.159C154.388 405.159 152.819 407.023 152.819 409.682C152.819 412.295 154.319 414.182 156.774 414.182ZM166.121 405.273H164.258V403.182H162.917V405.273H161.599V406.409H162.917V411.864C162.917 413.386 164.144 414.114 165.281 414.114C165.781 414.114 166.099 414.023 166.281 413.955L166.008 412.75C165.894 412.773 165.712 412.818 165.417 412.818C164.826 412.818 164.258 412.636 164.258 411.5V406.409H166.121V405.273ZM168.299 414H169.639V405.273H168.299V414ZM168.98 403.818C169.503 403.818 169.935 403.409 169.935 402.909C169.935 402.409 169.503 402 168.98 402C168.458 402 168.026 402.409 168.026 402.909C168.026 403.409 168.458 403.818 168.98 403.818ZM179.392 405.273H177.937L175.528 412.227H175.437L173.028 405.273H171.574L174.801 414H176.164L179.392 405.273ZM183.624 414.205C185.147 414.205 185.942 413.386 186.215 412.818H186.283V414H187.624V408.25C187.624 405.477 185.511 405.159 184.397 405.159C183.079 405.159 181.579 405.614 180.897 407.205L182.17 407.659C182.465 407.023 183.164 406.341 184.442 406.341C185.675 406.341 186.283 406.994 186.283 408.114V408.159C186.283 408.807 185.624 408.75 184.033 408.955C182.414 409.165 180.647 409.523 180.647 411.523C180.647 413.227 181.965 414.205 183.624 414.205ZM183.829 413C182.761 413 181.988 412.523 181.988 411.591C181.988 410.568 182.92 410.25 183.965 410.114C184.533 410.045 186.056 409.886 186.283 409.614V410.841C186.283 411.932 185.42 413 183.829 413ZM194.027 405.273H192.163V403.182H190.823V405.273H189.504V406.409H190.823V411.864C190.823 413.386 192.05 414.114 193.186 414.114C193.686 414.114 194.004 414.023 194.186 413.955L193.913 412.75C193.8 412.773 193.618 412.818 193.323 412.818C192.732 412.818 192.163 412.636 192.163 411.5V406.409H194.027V405.273ZM196.204 414H197.545V405.273H196.204V414ZM196.886 403.818C197.409 403.818 197.841 403.409 197.841 402.909C197.841 402.409 197.409 402 196.886 402C196.363 402 195.931 402.409 195.931 402.909C195.931 403.409 196.363 403.818 196.886 403.818ZM203.706 414.182C206.07 414.182 207.661 412.386 207.661 409.682C207.661 406.955 206.07 405.159 203.706 405.159C201.343 405.159 199.752 406.955 199.752 409.682C199.752 412.386 201.343 414.182 203.706 414.182ZM203.706 412.977C201.911 412.977 201.093 411.432 201.093 409.682C201.093 407.932 201.911 406.364 203.706 406.364C205.502 406.364 206.32 407.932 206.32 409.682C206.32 411.432 205.502 412.977 203.706 412.977ZM211.209 408.75C211.209 407.227 212.152 406.364 213.436 406.364C214.68 406.364 215.436 407.176 215.436 408.545V414H216.777V408.455C216.777 406.227 215.589 405.159 213.822 405.159C212.504 405.159 211.686 405.75 211.277 406.636H211.163V405.273H209.868V414H211.209V408.75Z" fill="white"/>
<path d="M124.229 568H125.684C125.252 565.75 123.366 564.205 120.911 564.205C117.928 564.205 115.82 566.5 115.82 570.182C115.82 573.864 117.911 576.159 121.002 576.159C123.775 576.159 125.752 574.312 125.752 571.432V570.182H121.32V571.432H124.388C124.349 573.523 122.974 574.841 121.002 574.841C118.843 574.841 117.184 573.205 117.184 570.182C117.184 567.159 118.843 565.523 120.911 565.523C122.593 565.523 123.735 566.472 124.229 568ZM128.144 576H129.484V570.477C129.484 569.295 130.416 568.432 131.689 568.432C132.047 568.432 132.416 568.5 132.507 568.523V567.159C132.354 567.148 132.001 567.136 131.803 567.136C130.757 567.136 129.848 567.727 129.53 568.591H129.439V567.273H128.144V576ZM137.536 576.182C139.9 576.182 141.491 574.386 141.491 571.682C141.491 568.955 139.9 567.159 137.536 567.159C135.173 567.159 133.582 568.955 133.582 571.682C133.582 574.386 135.173 576.182 137.536 576.182ZM137.536 574.977C135.741 574.977 134.923 573.432 134.923 571.682C134.923 569.932 135.741 568.364 137.536 568.364C139.332 568.364 140.15 569.932 140.15 571.682C140.15 573.432 139.332 574.977 137.536 574.977ZM145.378 576H146.696L148.606 569.295H148.742L150.651 576H151.969L154.628 567.273H153.219L151.333 573.932H151.242L149.401 567.273H147.969L146.106 573.955H146.015L144.128 567.273H142.719L145.378 576ZM160.356 567.273H158.493V565.182H157.152V567.273H155.834V568.409H157.152V573.864C157.152 575.386 158.379 576.114 159.516 576.114C160.016 576.114 160.334 576.023 160.516 575.955L160.243 574.75C160.129 574.773 159.947 574.818 159.652 574.818C159.061 574.818 158.493 574.636 158.493 573.5V568.409H160.356V567.273ZM164.062 570.75C164.062 569.227 165.034 568.364 166.357 568.364C167.619 568.364 168.38 569.159 168.38 570.545V576H169.721V570.455C169.721 568.21 168.528 567.159 166.744 567.159C165.369 567.159 164.585 567.733 164.176 568.636H164.062V564.364H162.721V576H164.062V570.75ZM176.994 579.273H178.335V574.659H178.449C178.744 575.136 179.312 576.182 180.994 576.182C183.176 576.182 184.699 574.432 184.699 571.659C184.699 568.909 183.176 567.159 180.971 567.159C179.267 567.159 178.744 568.205 178.449 568.659H178.29V567.273H176.994V579.273ZM178.312 571.636C178.312 569.682 179.176 568.364 180.812 568.364C182.517 568.364 183.358 569.795 183.358 571.636C183.358 573.5 182.494 574.977 180.812 574.977C179.199 574.977 178.312 573.614 178.312 571.636ZM186.904 576H188.245V570.477C188.245 569.295 189.177 568.432 190.45 568.432C190.808 568.432 191.177 568.5 191.268 568.523V567.159C191.114 567.148 190.762 567.136 190.563 567.136C189.518 567.136 188.609 567.727 188.291 568.591H188.2V567.273H186.904V576ZM196.297 576.182C198.661 576.182 200.252 574.386 200.252 571.682C200.252 568.955 198.661 567.159 196.297 567.159C193.933 567.159 192.343 568.955 192.343 571.682C192.343 574.386 193.933 576.182 196.297 576.182ZM196.297 574.977C194.502 574.977 193.683 573.432 193.683 571.682C193.683 569.932 194.502 568.364 196.297 568.364C198.093 568.364 198.911 569.932 198.911 571.682C198.911 573.432 198.093 574.977 196.297 574.977ZM202.459 576H203.799V570.545C203.799 569.267 204.731 568.364 205.777 568.364C206.794 568.364 207.504 569.028 207.504 570.023V576H208.868V570.318C208.868 569.193 209.572 568.364 210.799 568.364C211.754 568.364 212.572 568.869 212.572 570.159V576H213.913V570.159C213.913 568.108 212.811 567.159 211.254 567.159C210.004 567.159 209.089 567.733 208.64 568.636H208.549C208.118 567.705 207.356 567.159 206.209 567.159C205.072 567.159 204.231 567.705 203.868 568.636H203.754V567.273H202.459V576ZM220.07 576.182C222.434 576.182 224.025 574.386 224.025 571.682C224.025 568.955 222.434 567.159 220.07 567.159C217.707 567.159 216.116 568.955 216.116 571.682C216.116 574.386 217.707 576.182 220.07 576.182ZM220.07 574.977C218.275 574.977 217.457 573.432 217.457 571.682C217.457 569.932 218.275 568.364 220.07 568.364C221.866 568.364 222.684 569.932 222.684 571.682C222.684 573.432 221.866 574.977 220.07 574.977ZM230.027 567.273H228.163V565.182H226.823V567.273H225.504V568.409H226.823V573.864C226.823 575.386 228.05 576.114 229.186 576.114C229.686 576.114 230.004 576.023 230.186 575.955L229.913 574.75C229.8 574.773 229.618 574.818 229.323 574.818C228.732 574.818 228.163 574.636 228.163 573.5V568.409H230.027V567.273ZM232.204 576H233.545V567.273H232.204V576ZM232.886 565.818C233.409 565.818 233.841 565.409 233.841 564.909C233.841 564.409 233.409 564 232.886 564C232.363 564 231.931 564.409 231.931 564.909C231.931 565.409 232.363 565.818 232.886 565.818ZM239.706 576.182C242.07 576.182 243.661 574.386 243.661 571.682C243.661 568.955 242.07 567.159 239.706 567.159C237.343 567.159 235.752 568.955 235.752 571.682C235.752 574.386 237.343 576.182 239.706 576.182ZM239.706 574.977C237.911 574.977 237.093 573.432 237.093 571.682C237.093 569.932 237.911 568.364 239.706 568.364C241.502 568.364 242.32 569.932 242.32 571.682C242.32 573.432 241.502 574.977 239.706 574.977ZM247.209 570.75C247.209 569.227 248.152 568.364 249.436 568.364C250.68 568.364 251.436 569.176 251.436 570.545V576H252.777V570.455C252.777 568.227 251.589 567.159 249.822 567.159C248.504 567.159 247.686 567.75 247.277 568.636H247.163V567.273H245.868V576H247.209V570.75Z" fill="white"/>
<path d="M199.807 678H201.216V672.795H206.261V671.545H201.216V667.614H206.784V666.364H199.807V678ZM210.516 666.364H209.175V678H210.516V666.364ZM218.632 674.432C218.632 676.068 217.382 676.818 216.382 676.818C215.269 676.818 214.473 676 214.473 674.727V669.273H213.132V674.818C213.132 677.045 214.314 678.114 215.95 678.114C217.269 678.114 218.132 677.409 218.541 676.523H218.632V678H219.973V669.273H218.632V674.432ZM226.135 678.182C228.498 678.182 230.089 676.386 230.089 673.682C230.089 670.955 228.498 669.159 226.135 669.159C223.771 669.159 222.18 670.955 222.18 673.682C222.18 676.386 223.771 678.182 226.135 678.182ZM226.135 676.977C224.339 676.977 223.521 675.432 223.521 673.682C223.521 671.932 224.339 670.364 226.135 670.364C227.93 670.364 228.748 671.932 228.748 673.682C228.748 675.432 227.93 676.977 226.135 676.977ZM232.296 678H233.637V672.477C233.637 671.295 234.569 670.432 235.841 670.432C236.199 670.432 236.569 670.5 236.66 670.523V669.159C236.506 669.148 236.154 669.136 235.955 669.136C234.91 669.136 234.001 669.727 233.682 670.591H233.591V669.273H232.296V678ZM241.803 678.182C243.575 678.182 244.871 677.295 245.28 675.977L243.984 675.614C243.644 676.523 242.854 676.977 241.803 676.977C240.229 676.977 239.144 675.96 239.081 674.091H245.416V673.523C245.416 670.273 243.484 669.159 241.666 669.159C239.303 669.159 237.734 671.023 237.734 673.705C237.734 676.386 239.28 678.182 241.803 678.182ZM239.081 672.932C239.172 671.574 240.132 670.364 241.666 670.364C243.121 670.364 244.053 671.455 244.053 672.932H239.081ZM253.798 671.227C253.377 669.989 252.434 669.159 250.707 669.159C248.866 669.159 247.502 670.205 247.502 671.682C247.502 672.886 248.218 673.693 249.821 674.068L251.275 674.409C252.156 674.614 252.571 675.034 252.571 675.636C252.571 676.386 251.775 677 250.525 677C249.429 677 248.741 676.528 248.502 675.591L247.23 675.909C247.542 677.392 248.764 678.182 250.548 678.182C252.576 678.182 253.957 677.074 253.957 675.568C253.957 674.352 253.196 673.585 251.639 673.205L250.343 672.886C249.309 672.631 248.843 672.284 248.843 671.614C248.843 670.864 249.639 670.318 250.707 670.318C251.877 670.318 252.36 670.966 252.593 671.568L253.798 671.227ZM259.681 678.182C261.613 678.182 262.885 677 263.113 675.455H261.772C261.522 676.409 260.726 676.977 259.681 676.977C258.09 676.977 257.067 675.659 257.067 673.636C257.067 671.659 258.113 670.364 259.681 670.364C260.863 670.364 261.567 671.091 261.772 671.886H263.113C262.885 670.25 261.499 669.159 259.658 669.159C257.294 669.159 255.726 671.023 255.726 673.682C255.726 676.295 257.226 678.182 259.681 678.182ZM268.892 678.182C270.665 678.182 271.96 677.295 272.369 675.977L271.074 675.614C270.733 676.523 269.943 676.977 268.892 676.977C267.318 676.977 266.233 675.96 266.17 674.091H272.506V673.523C272.506 670.273 270.574 669.159 268.756 669.159C266.392 669.159 264.824 671.023 264.824 673.705C264.824 676.386 266.369 678.182 268.892 678.182ZM266.17 672.932C266.261 671.574 267.222 670.364 268.756 670.364C270.21 670.364 271.142 671.455 271.142 672.932H266.17ZM276.046 672.75C276.046 671.227 276.989 670.364 278.274 670.364C279.518 670.364 280.274 671.176 280.274 672.545V678H281.614V672.455C281.614 670.227 280.427 669.159 278.66 669.159C277.342 669.159 276.524 669.75 276.114 670.636H276.001V669.273H274.705V678H276.046V672.75ZM288.02 669.273H286.157V667.182H284.816V669.273H283.498V670.409H284.816V675.864C284.816 677.386 286.043 678.114 287.179 678.114C287.679 678.114 287.998 678.023 288.179 677.955L287.907 676.75C287.793 676.773 287.611 676.818 287.316 676.818C286.725 676.818 286.157 676.636 286.157 675.5V670.409H288.02V669.273ZM301.039 671.227C300.619 669.989 299.675 669.159 297.948 669.159C296.107 669.159 294.744 670.205 294.744 671.682C294.744 672.886 295.46 673.693 297.062 674.068L298.516 674.409C299.397 674.614 299.812 675.034 299.812 675.636C299.812 676.386 299.016 677 297.766 677C296.67 677 295.982 676.528 295.744 675.591L294.471 675.909C294.783 677.392 296.005 678.182 297.789 678.182C299.818 678.182 301.198 677.074 301.198 675.568C301.198 674.352 300.437 673.585 298.88 673.205L297.585 672.886C296.55 672.631 296.085 672.284 296.085 671.614C296.085 670.864 296.88 670.318 297.948 670.318C299.119 670.318 299.602 670.966 299.835 671.568L301.039 671.227ZM307.172 669.273H305.308V667.182H303.968V669.273H302.649V670.409H303.968V675.864C303.968 677.386 305.195 678.114 306.331 678.114C306.831 678.114 307.149 678.023 307.331 677.955L307.058 676.75C306.945 676.773 306.763 676.818 306.468 676.818C305.877 676.818 305.308 676.636 305.308 675.5V670.409H307.172V669.273ZM311.917 678.205C313.44 678.205 314.236 677.386 314.508 676.818H314.576V678H315.917V672.25C315.917 669.477 313.804 669.159 312.69 669.159C311.372 669.159 309.872 669.614 309.19 671.205L310.463 671.659C310.758 671.023 311.457 670.341 312.736 670.341C313.968 670.341 314.576 670.994 314.576 672.114V672.159C314.576 672.807 313.917 672.75 312.326 672.955C310.707 673.165 308.94 673.523 308.94 675.523C308.94 677.227 310.258 678.205 311.917 678.205ZM312.122 677C311.054 677 310.281 676.523 310.281 675.591C310.281 674.568 311.213 674.25 312.258 674.114C312.826 674.045 314.349 673.886 314.576 673.614V674.841C314.576 675.932 313.713 677 312.122 677ZM318.525 678H319.866V669.273H318.525V678ZM319.207 667.818C319.729 667.818 320.161 667.409 320.161 666.909C320.161 666.409 319.729 666 319.207 666C318.684 666 318.252 666.409 318.252 666.909C318.252 667.409 318.684 667.818 319.207 667.818ZM323.823 672.75C323.823 671.227 324.766 670.364 326.05 670.364C327.294 670.364 328.05 671.176 328.05 672.545V678H329.391V672.455C329.391 670.227 328.203 669.159 326.436 669.159C325.118 669.159 324.3 669.75 323.891 670.636H323.777V669.273H322.482V678H323.823V672.75ZM332.001 678H333.342V669.273H332.001V678ZM332.683 667.818C333.206 667.818 333.637 667.409 333.637 666.909C333.637 666.409 333.206 666 332.683 666C332.16 666 331.728 666.409 331.728 666.909C331.728 667.409 332.16 667.818 332.683 667.818ZM337.299 672.75C337.299 671.227 338.242 670.364 339.526 670.364C340.77 670.364 341.526 671.176 341.526 672.545V678H342.867V672.455C342.867 670.227 341.68 669.159 339.912 669.159C338.594 669.159 337.776 669.75 337.367 670.636H337.253V669.273H335.958V678H337.299V672.75ZM349 681.455C351.091 681.455 352.773 680.5 352.773 678.25V669.273H351.477V670.659H351.341C351.045 670.205 350.5 669.159 348.795 669.159C346.591 669.159 345.068 670.909 345.068 673.591C345.068 676.318 346.659 677.864 348.773 677.864C350.477 677.864 351.023 676.864 351.318 676.386H351.432V678.159C351.432 679.614 350.409 680.273 349 680.273C347.415 680.273 346.858 679.438 346.5 678.955L345.432 679.705C345.977 680.619 347.051 681.455 349 681.455ZM348.955 676.659C347.273 676.659 346.409 675.386 346.409 673.568C346.409 671.795 347.25 670.364 348.955 670.364C350.591 670.364 351.455 671.682 351.455 673.568C351.455 675.5 350.568 676.659 348.955 676.659Z" fill="white"/>
<path d="M758.648 646.42H763.364C763.295 642.273 759.886 639.409 754.705 639.409C749.602 639.409 745.864 642.227 745.886 646.455C745.875 649.886 748.295 651.852 752.227 652.795L754.761 653.432C757.295 654.045 758.705 654.773 758.716 656.341C758.705 658.045 757.091 659.205 754.591 659.205C752.034 659.205 750.193 658.023 750.034 655.693H745.273C745.398 660.727 749 663.33 754.648 663.33C760.33 663.33 763.67 660.614 763.682 656.352C763.67 652.477 760.75 650.42 756.705 649.511L754.614 649.011C752.591 648.545 750.898 647.795 750.932 646.125C750.932 644.625 752.261 643.523 754.67 643.523C757.023 643.523 758.466 644.591 758.648 646.42ZM774.787 663.341C780.082 663.341 783.378 659.716 783.378 654.341C783.378 648.932 780.082 645.318 774.787 645.318C769.491 645.318 766.196 648.932 766.196 654.341C766.196 659.716 769.491 663.341 774.787 663.341ZM774.81 659.591C772.366 659.591 771.116 657.352 771.116 654.307C771.116 651.261 772.366 649.011 774.81 649.011C777.207 649.011 778.457 651.261 778.457 654.307C778.457 657.352 777.207 659.591 774.81 659.591ZM795.912 645.545H792.446V644.375C792.446 643.193 792.923 642.5 794.344 642.5C794.923 642.5 795.514 642.625 795.901 642.75L796.753 639.114C796.151 638.932 794.821 638.636 793.332 638.636C790.048 638.636 787.605 640.489 787.605 644.284V645.545H785.139V649.182H787.605V663H792.446V649.182H795.912V645.545ZM808.153 645.545H804.869V641.364H800.028V645.545H797.642V649.182H800.028V658.273C800.006 661.693 802.335 663.386 805.847 663.239C807.097 663.193 807.983 662.943 808.472 662.784L807.71 659.182C807.472 659.227 806.96 659.341 806.506 659.341C805.54 659.341 804.869 658.977 804.869 657.636V649.182H808.153V645.545ZM814.75 663H819.864L822.864 652.023H823.08L826.08 663H831.205L835.943 645.545H831.057L828.398 657.205H828.25L825.386 645.545H820.58L817.761 657.273H817.602L814.898 645.545H810L814.75 663ZM843.503 663.33C846.082 663.33 847.753 662.205 848.605 660.58H848.741V663H853.332V651.227C853.332 647.068 849.81 645.318 845.923 645.318C841.741 645.318 838.991 647.318 838.321 650.5L842.798 650.864C843.128 649.705 844.162 648.852 845.901 648.852C847.548 648.852 848.491 649.682 848.491 651.114V651.182C848.491 652.307 847.298 652.455 844.264 652.75C840.81 653.068 837.707 654.227 837.707 658.125C837.707 661.58 840.173 663.33 843.503 663.33ZM844.889 659.989C843.401 659.989 842.332 659.295 842.332 657.966C842.332 656.602 843.457 655.932 845.162 655.693C846.219 655.545 847.946 655.295 848.526 654.909V656.761C848.526 658.591 847.014 659.989 844.889 659.989ZM857.088 663H861.929V653.125C861.929 650.977 863.497 649.5 865.634 649.5C866.304 649.5 867.224 649.614 867.679 649.761V645.466C867.247 645.364 866.645 645.295 866.156 645.295C864.202 645.295 862.599 646.432 861.963 648.591H861.781V645.545H857.088V663ZM877.324 663.341C881.642 663.341 884.551 661.239 885.233 658L880.756 657.705C880.267 659.034 879.017 659.727 877.403 659.727C874.983 659.727 873.449 658.125 873.449 655.523V655.511H885.335V654.182C885.335 648.25 881.744 645.318 877.131 645.318C871.994 645.318 868.665 648.966 868.665 654.352C868.665 659.886 871.949 663.341 877.324 663.341ZM873.449 652.511C873.551 650.523 875.062 648.932 877.21 648.932C879.312 648.932 880.767 650.432 880.778 652.511H873.449ZM758.648 682.42H763.364C763.295 678.273 759.886 675.409 754.705 675.409C749.602 675.409 745.864 678.227 745.886 682.455C745.875 685.886 748.295 687.852 752.227 688.795L754.761 689.432C757.295 690.045 758.705 690.773 758.716 692.341C758.705 694.045 757.091 695.205 754.591 695.205C752.034 695.205 750.193 694.023 750.034 691.693H745.273C745.398 696.727 749 699.33 754.648 699.33C760.33 699.33 763.67 696.614 763.682 692.352C763.67 688.477 760.75 686.42 756.705 685.511L754.614 685.011C752.591 684.545 750.898 683.795 750.932 682.125C750.932 680.625 752.261 679.523 754.67 679.523C757.023 679.523 758.466 680.591 758.648 682.42ZM769.889 705.511C773.491 705.511 775.412 703.682 776.389 700.886L783.173 681.568L778.048 681.545L774.401 694.364H774.219L770.605 681.545H765.514L771.776 699.5L771.491 700.239C770.81 701.818 769.639 701.932 767.935 701.398L766.844 705.023C767.537 705.307 768.662 705.511 769.889 705.511ZM800.173 686.523C799.741 683.307 797.151 681.318 792.741 681.318C788.276 681.318 785.332 683.386 785.344 686.75C785.332 689.364 786.98 691.057 790.389 691.739L793.412 692.341C794.935 692.648 795.628 693.205 795.651 694.08C795.628 695.114 794.503 695.852 792.81 695.852C791.082 695.852 789.935 695.114 789.639 693.693L784.878 693.943C785.332 697.284 788.173 699.341 792.798 699.341C797.321 699.341 800.56 697.034 800.571 693.591C800.56 691.068 798.912 689.557 795.526 688.864L792.366 688.227C790.741 687.875 790.139 687.318 790.151 686.477C790.139 685.432 791.321 684.75 792.821 684.75C794.503 684.75 795.503 685.67 795.741 686.795L800.173 686.523ZM812.903 681.545H809.619V677.364H804.778V681.545H802.392V685.182H804.778V694.273C804.756 697.693 807.085 699.386 810.597 699.239C811.847 699.193 812.733 698.943 813.222 698.784L812.46 695.182C812.222 695.227 811.71 695.341 811.256 695.341C810.29 695.341 809.619 694.977 809.619 693.636V685.182H812.903V681.545ZM823.824 699.341C828.142 699.341 831.051 697.239 831.733 694L827.256 693.705C826.767 695.034 825.517 695.727 823.903 695.727C821.483 695.727 819.949 694.125 819.949 691.523V691.511H831.835V690.182C831.835 684.25 828.244 681.318 823.631 681.318C818.494 681.318 815.165 684.966 815.165 690.352C815.165 695.886 818.449 699.341 823.824 699.341ZM819.949 688.511C820.051 686.523 821.562 684.932 823.71 684.932C825.812 684.932 827.267 686.432 827.278 688.511H819.949ZM834.994 699H839.835V688.523C839.835 686.591 841.062 685.307 842.676 685.307C844.267 685.307 845.335 686.398 845.335 688.114V699H850.028V688.341C850.028 686.534 851.062 685.307 852.824 685.307C854.369 685.307 855.528 686.273 855.528 688.216V699H860.358V687.261C860.358 683.477 858.108 681.318 854.858 681.318C852.301 681.318 850.312 682.625 849.597 684.625H849.415C848.858 682.602 847.074 681.318 844.676 681.318C842.324 681.318 840.54 682.568 839.812 684.625H839.608V681.545H834.994V699Z" fill="#0EBDF1"/>
<path d="M798.409 586H799.818V581.455H802.364C802.466 581.455 802.562 581.455 802.659 581.449L805.114 586H806.75L804.119 581.193C805.602 580.688 806.295 579.477 806.295 577.932C806.295 575.875 805.068 574.364 802.341 574.364H798.409V586ZM799.818 580.182V575.614H802.295C804.182 575.614 804.909 576.534 804.909 577.932C804.909 579.33 804.182 580.182 802.318 580.182H799.818ZM812.187 586.182C813.96 586.182 815.255 585.295 815.664 583.977L814.369 583.614C814.028 584.523 813.238 584.977 812.187 584.977C810.613 584.977 809.528 583.96 809.465 582.091H815.801V581.523C815.801 578.273 813.869 577.159 812.051 577.159C809.687 577.159 808.119 579.023 808.119 581.705C808.119 584.386 809.664 586.182 812.187 586.182ZM809.465 580.932C809.556 579.574 810.517 578.364 812.051 578.364C813.505 578.364 814.437 579.455 814.437 580.932H809.465ZM818 589.273H819.341V584.659H819.455C819.75 585.136 820.319 586.182 822 586.182C824.182 586.182 825.705 584.432 825.705 581.659C825.705 578.909 824.182 577.159 821.978 577.159C820.273 577.159 819.75 578.205 819.455 578.659H819.296V577.273H818V589.273ZM819.319 581.636C819.319 579.682 820.182 578.364 821.819 578.364C823.523 578.364 824.364 579.795 824.364 581.636C824.364 583.5 823.5 584.977 821.819 584.977C820.205 584.977 819.319 583.614 819.319 581.636ZM831.456 586.182C833.819 586.182 835.41 584.386 835.41 581.682C835.41 578.955 833.819 577.159 831.456 577.159C829.092 577.159 827.501 578.955 827.501 581.682C827.501 584.386 829.092 586.182 831.456 586.182ZM831.456 584.977C829.66 584.977 828.842 583.432 828.842 581.682C828.842 579.932 829.66 578.364 831.456 578.364C833.251 578.364 834.069 579.932 834.069 581.682C834.069 583.432 833.251 584.977 831.456 584.977ZM837.617 586H838.958V580.477C838.958 579.295 839.89 578.432 841.163 578.432C841.521 578.432 841.89 578.5 841.981 578.523V577.159C841.827 577.148 841.475 577.136 841.276 577.136C840.231 577.136 839.322 577.727 839.004 578.591H838.913V577.273H837.617V586ZM848.073 577.273H846.209V575.182H844.868V577.273H843.55V578.409H844.868V583.864C844.868 585.386 846.095 586.114 847.232 586.114C847.732 586.114 848.05 586.023 848.232 585.955L847.959 584.75C847.845 584.773 847.664 584.818 847.368 584.818C846.777 584.818 846.209 584.636 846.209 583.5V578.409H848.073V577.273ZM850.25 586H851.591V577.273H850.25V586ZM850.932 575.818C851.454 575.818 851.886 575.409 851.886 574.909C851.886 574.409 851.454 574 850.932 574C850.409 574 849.977 574.409 849.977 574.909C849.977 575.409 850.409 575.818 850.932 575.818ZM855.548 580.75C855.548 579.227 856.491 578.364 857.775 578.364C859.019 578.364 859.775 579.176 859.775 580.545V586H861.116V580.455C861.116 578.227 859.928 577.159 858.161 577.159C856.843 577.159 856.025 577.75 855.616 578.636H855.502V577.273H854.207V586H855.548V580.75ZM867.249 589.455C869.34 589.455 871.021 588.5 871.021 586.25V577.273H869.726V578.659H869.59C869.294 578.205 868.749 577.159 867.044 577.159C864.84 577.159 863.317 578.909 863.317 581.591C863.317 584.318 864.908 585.864 867.021 585.864C868.726 585.864 869.271 584.864 869.567 584.386H869.681V586.159C869.681 587.614 868.658 588.273 867.249 588.273C865.664 588.273 865.107 587.438 864.749 586.955L863.681 587.705C864.226 588.619 865.3 589.455 867.249 589.455ZM867.203 584.659C865.521 584.659 864.658 583.386 864.658 581.568C864.658 579.795 865.499 578.364 867.203 578.364C868.84 578.364 869.703 579.682 869.703 581.568C869.703 583.5 868.817 584.659 867.203 584.659Z" fill="white"/>
<path d="M851.364 429H852.818C852.386 426.75 850.5 425.205 848.045 425.205C845.062 425.205 842.955 427.5 842.955 431.182C842.955 434.864 845.045 437.159 848.136 437.159C850.909 437.159 852.886 435.312 852.886 432.432V431.182H848.455V432.432H851.523C851.483 434.523 850.108 435.841 848.136 435.841C845.977 435.841 844.318 434.205 844.318 431.182C844.318 428.159 845.977 426.523 848.045 426.523C849.727 426.523 850.869 427.472 851.364 429ZM858.823 437.182C861.187 437.182 862.778 435.386 862.778 432.682C862.778 429.955 861.187 428.159 858.823 428.159C856.46 428.159 854.869 429.955 854.869 432.682C854.869 435.386 856.46 437.182 858.823 437.182ZM858.823 435.977C857.028 435.977 856.21 434.432 856.21 432.682C856.21 430.932 857.028 429.364 858.823 429.364C860.619 429.364 861.437 430.932 861.437 432.682C861.437 434.432 860.619 435.977 858.823 435.977ZM866.326 425.364H864.985V437H866.326V425.364ZM872.237 437.182C873.919 437.182 874.487 436.136 874.783 435.659H874.942V437H876.237V425.364H874.896V429.659H874.783C874.487 429.205 873.964 428.159 872.26 428.159C870.055 428.159 868.533 429.909 868.533 432.659C868.533 435.432 870.055 437.182 872.237 437.182ZM872.419 435.977C870.737 435.977 869.873 434.5 869.873 432.636C869.873 430.795 870.714 429.364 872.419 429.364C874.055 429.364 874.919 430.682 874.919 432.636C874.919 434.614 874.033 435.977 872.419 435.977ZM889.881 430.227C889.461 428.989 888.517 428.159 886.79 428.159C884.949 428.159 883.586 429.205 883.586 430.682C883.586 431.886 884.301 432.693 885.904 433.068L887.358 433.409C888.239 433.614 888.654 434.034 888.654 434.636C888.654 435.386 887.858 436 886.608 436C885.512 436 884.824 435.528 884.586 434.591L883.313 434.909C883.625 436.392 884.847 437.182 886.631 437.182C888.659 437.182 890.04 436.074 890.04 434.568C890.04 433.352 889.279 432.585 887.722 432.205L886.426 431.886C885.392 431.631 884.926 431.284 884.926 430.614C884.926 429.864 885.722 429.318 886.79 429.318C887.961 429.318 888.443 429.966 888.676 430.568L889.881 430.227ZM896.014 428.273H894.15V426.182H892.809V428.273H891.491V429.409H892.809V434.864C892.809 436.386 894.037 437.114 895.173 437.114C895.673 437.114 895.991 437.023 896.173 436.955L895.9 435.75C895.787 435.773 895.605 435.818 895.309 435.818C894.719 435.818 894.15 435.636 894.15 434.5V429.409H896.014V428.273ZM900.759 437.205C902.282 437.205 903.077 436.386 903.35 435.818H903.418V437H904.759V431.25C904.759 428.477 902.646 428.159 901.532 428.159C900.214 428.159 898.714 428.614 898.032 430.205L899.305 430.659C899.6 430.023 900.299 429.341 901.577 429.341C902.81 429.341 903.418 429.994 903.418 431.114V431.159C903.418 431.807 902.759 431.75 901.168 431.955C899.549 432.165 897.782 432.523 897.782 434.523C897.782 436.227 899.1 437.205 900.759 437.205ZM900.964 436C899.896 436 899.123 435.523 899.123 434.591C899.123 433.568 900.055 433.25 901.1 433.114C901.668 433.045 903.191 432.886 903.418 432.614V433.841C903.418 434.932 902.555 436 900.964 436ZM908.708 431.75C908.708 430.227 909.651 429.364 910.935 429.364C912.179 429.364 912.935 430.176 912.935 431.545V437H914.276V431.455C914.276 429.227 913.088 428.159 911.321 428.159C910.003 428.159 909.185 428.75 908.776 429.636H908.662V428.273H907.367V437H908.708V431.75ZM920.181 437.182C921.863 437.182 922.431 436.136 922.727 435.659H922.886V437H924.181V425.364H922.841V429.659H922.727C922.431 429.205 921.909 428.159 920.204 428.159C918 428.159 916.477 429.909 916.477 432.659C916.477 435.432 918 437.182 920.181 437.182ZM920.363 435.977C918.681 435.977 917.818 434.5 917.818 432.636C917.818 430.795 918.659 429.364 920.363 429.364C922 429.364 922.863 430.682 922.863 432.636C922.863 434.614 921.977 435.977 920.363 435.977ZM929.552 437.205C931.074 437.205 931.87 436.386 932.143 435.818H932.211V437H933.552V431.25C933.552 428.477 931.438 428.159 930.324 428.159C929.006 428.159 927.506 428.614 926.824 430.205L928.097 430.659C928.393 430.023 929.091 429.341 930.37 429.341C931.603 429.341 932.211 429.994 932.211 431.114V431.159C932.211 431.807 931.552 431.75 929.961 431.955C928.341 432.165 926.574 432.523 926.574 434.523C926.574 436.227 927.893 437.205 929.552 437.205ZM929.756 436C928.688 436 927.915 435.523 927.915 434.591C927.915 433.568 928.847 433.25 929.893 433.114C930.461 433.045 931.984 432.886 932.211 432.614V433.841C932.211 434.932 931.347 436 929.756 436ZM936.159 437H937.5V431.477C937.5 430.295 938.432 429.432 939.705 429.432C940.063 429.432 940.432 429.5 940.523 429.523V428.159C940.369 428.148 940.017 428.136 939.818 428.136C938.773 428.136 937.864 428.727 937.546 429.591H937.455V428.273H936.159V437ZM945.302 437.182C946.984 437.182 947.552 436.136 947.848 435.659H948.007V437H949.302V425.364H947.961V429.659H947.848C947.552 429.205 947.029 428.159 945.325 428.159C943.12 428.159 941.598 429.909 941.598 432.659C941.598 435.432 943.12 437.182 945.302 437.182ZM945.484 435.977C943.802 435.977 942.938 434.5 942.938 432.636C942.938 430.795 943.779 429.364 945.484 429.364C947.12 429.364 947.984 430.682 947.984 432.636C947.984 434.614 947.098 435.977 945.484 435.977ZM960.31 437.182C962.241 437.182 963.514 436 963.741 434.455H962.401C962.151 435.409 961.355 435.977 960.31 435.977C958.719 435.977 957.696 434.659 957.696 432.636C957.696 430.659 958.741 429.364 960.31 429.364C961.491 429.364 962.196 430.091 962.401 430.886H963.741C963.514 429.25 962.128 428.159 960.287 428.159C957.923 428.159 956.355 430.023 956.355 432.682C956.355 435.295 957.855 437.182 960.31 437.182ZM969.407 437.182C971.771 437.182 973.362 435.386 973.362 432.682C973.362 429.955 971.771 428.159 969.407 428.159C967.043 428.159 965.453 429.955 965.453 432.682C965.453 435.386 967.043 437.182 969.407 437.182ZM969.407 435.977C967.612 435.977 966.793 434.432 966.793 432.682C966.793 430.932 967.612 429.364 969.407 429.364C971.203 429.364 972.021 430.932 972.021 432.682C972.021 434.432 971.203 435.977 969.407 435.977ZM975.569 437H976.909V431.477C976.909 430.295 977.841 429.432 979.114 429.432C979.472 429.432 979.841 429.5 979.932 429.523V428.159C979.779 428.148 979.426 428.136 979.228 428.136C978.182 428.136 977.273 428.727 976.955 429.591H976.864V428.273H975.569V437ZM981.682 437H983.023V431.477C983.023 430.295 983.954 429.432 985.227 429.432C985.585 429.432 985.954 429.5 986.045 429.523V428.159C985.892 428.148 985.54 428.136 985.341 428.136C984.295 428.136 983.386 428.727 983.068 429.591H982.977V428.273H981.682V437ZM991.188 437.182C992.961 437.182 994.256 436.295 994.666 434.977L993.37 434.614C993.029 435.523 992.239 435.977 991.188 435.977C989.614 435.977 988.529 434.96 988.467 433.091H994.802V432.523C994.802 429.273 992.87 428.159 991.052 428.159C988.688 428.159 987.12 430.023 987.12 432.705C987.12 435.386 988.666 437.182 991.188 437.182ZM988.467 431.932C988.558 430.574 989.518 429.364 991.052 429.364C992.506 429.364 993.438 430.455 993.438 431.932H988.467ZM998.343 425.364H997.002V437H998.343V425.364ZM1003.53 437.205C1005.05 437.205 1005.84 436.386 1006.12 435.818H1006.19V437H1007.53V431.25C1007.53 428.477 1005.41 428.159 1004.3 428.159C1002.98 428.159 1001.48 428.614 1000.8 430.205L1002.07 430.659C1002.37 430.023 1003.07 429.341 1004.34 429.341C1005.58 429.341 1006.19 429.994 1006.19 431.114V431.159C1006.19 431.807 1005.53 431.75 1003.94 431.955C1002.32 432.165 1000.55 432.523 1000.55 434.523C1000.55 436.227 1001.87 437.205 1003.53 437.205ZM1003.73 436C1002.66 436 1001.89 435.523 1001.89 434.591C1001.89 433.568 1002.82 433.25 1003.87 433.114C1004.44 433.045 1005.96 432.886 1006.19 432.614V433.841C1006.19 434.932 1005.32 436 1003.73 436ZM1013.93 428.273H1012.07V426.182H1010.73V428.273H1009.41V429.409H1010.73V434.864C1010.73 436.386 1011.95 437.114 1013.09 437.114C1013.59 437.114 1013.91 437.023 1014.09 436.955L1013.82 435.75C1013.7 435.773 1013.52 435.818 1013.23 435.818C1012.63 435.818 1012.07 435.636 1012.07 434.5V429.409H1013.93V428.273ZM1016.11 437H1017.45V428.273H1016.11V437ZM1016.79 426.818C1017.31 426.818 1017.74 426.409 1017.74 425.909C1017.74 425.409 1017.31 425 1016.79 425C1016.27 425 1015.83 425.409 1015.83 425.909C1015.83 426.409 1016.27 426.818 1016.79 426.818ZM1023.61 437.182C1025.97 437.182 1027.56 435.386 1027.56 432.682C1027.56 429.955 1025.97 428.159 1023.61 428.159C1021.25 428.159 1019.65 429.955 1019.65 432.682C1019.65 435.386 1021.25 437.182 1023.61 437.182ZM1023.61 435.977C1021.81 435.977 1021 434.432 1021 432.682C1021 430.932 1021.81 429.364 1023.61 429.364C1025.4 429.364 1026.22 430.932 1026.22 432.682C1026.22 434.432 1025.4 435.977 1023.61 435.977ZM1031.11 431.75C1031.11 430.227 1032.05 429.364 1033.34 429.364C1034.58 429.364 1035.34 430.176 1035.34 431.545V437H1036.68V431.455C1036.68 429.227 1035.49 428.159 1033.72 428.159C1032.41 428.159 1031.59 428.75 1031.18 429.636H1031.07V428.273H1029.77V437H1031.11V431.75Z" fill="white"/>
<path d="M798.886 286L800.057 282.705H804.761L805.932 286H807.409L803.136 274.364H801.682L797.409 286H798.886ZM800.5 281.455L802.364 276.205H802.455L804.318 281.455H800.5ZM810.541 280.75C810.541 279.227 811.484 278.364 812.768 278.364C814.012 278.364 814.768 279.176 814.768 280.545V286H816.109V280.455C816.109 278.227 814.921 277.159 813.154 277.159C811.836 277.159 811.018 277.75 810.609 278.636H810.495V277.273H809.2V286H810.541V280.75ZM821.287 286.205C822.81 286.205 823.606 285.386 823.878 284.818H823.946V286H825.287V280.25C825.287 277.477 823.174 277.159 822.06 277.159C820.742 277.159 819.242 277.614 818.56 279.205L819.833 279.659C820.128 279.023 820.827 278.341 822.106 278.341C823.338 278.341 823.946 278.994 823.946 280.114V280.159C823.946 280.807 823.287 280.75 821.696 280.955C820.077 281.165 818.31 281.523 818.31 283.523C818.31 285.227 819.628 286.205 821.287 286.205ZM821.492 285C820.424 285 819.651 284.523 819.651 283.591C819.651 282.568 820.583 282.25 821.628 282.114C822.196 282.045 823.719 281.886 823.946 281.614V282.841C823.946 283.932 823.083 285 821.492 285ZM829.236 274.364H827.895V286H829.236V274.364ZM832.715 289.25C833.926 289.25 834.783 288.608 835.283 287.273L838.999 277.295L837.533 277.273L835.124 284.227H835.033L832.624 277.273H831.17L834.397 286.045L834.147 286.727C833.67 288.034 833.056 288.159 832.079 287.909L831.738 289.091C831.874 289.159 832.261 289.25 832.715 289.25ZM847.115 279.227C846.695 277.989 845.752 277.159 844.024 277.159C842.184 277.159 840.82 278.205 840.82 279.682C840.82 280.886 841.536 281.693 843.138 282.068L844.593 282.409C845.473 282.614 845.888 283.034 845.888 283.636C845.888 284.386 845.093 285 843.843 285C842.746 285 842.059 284.528 841.82 283.591L840.547 283.909C840.86 285.392 842.081 286.182 843.865 286.182C845.894 286.182 847.274 285.074 847.274 283.568C847.274 282.352 846.513 281.585 844.956 281.205L843.661 280.886C842.627 280.631 842.161 280.284 842.161 279.614C842.161 278.864 842.956 278.318 844.024 278.318C845.195 278.318 845.678 278.966 845.911 279.568L847.115 279.227ZM849.453 286H850.794V277.273H849.453V286ZM850.135 275.818C850.657 275.818 851.089 275.409 851.089 274.909C851.089 274.409 850.657 274 850.135 274C849.612 274 849.18 274.409 849.18 274.909C849.18 275.409 849.612 275.818 850.135 275.818ZM859.592 279.227C859.171 277.989 858.228 277.159 856.501 277.159C854.66 277.159 853.296 278.205 853.296 279.682C853.296 280.886 854.012 281.693 855.614 282.068L857.069 282.409C857.95 282.614 858.364 283.034 858.364 283.636C858.364 284.386 857.569 285 856.319 285C855.222 285 854.535 284.528 854.296 283.591L853.023 283.909C853.336 285.392 854.557 286.182 856.342 286.182C858.37 286.182 859.751 285.074 859.751 283.568C859.751 282.352 858.989 281.585 857.432 281.205L856.137 280.886C855.103 280.631 854.637 280.284 854.637 279.614C854.637 278.864 855.432 278.318 856.501 278.318C857.671 278.318 858.154 278.966 858.387 279.568L859.592 279.227Z" fill="white"/>
<path d="M704 188C707.545 188 709.545 185.795 709.545 182.159C709.545 178.545 707.545 176.364 704.159 176.364H700.409V188H704ZM701.818 186.75V177.614H704.068C706.795 177.614 708.182 179.341 708.182 182.159C708.182 185 706.795 186.75 703.909 186.75H701.818ZM715.546 188.182C717.319 188.182 718.615 187.295 719.024 185.977L717.728 185.614C717.387 186.523 716.597 186.977 715.546 186.977C713.972 186.977 712.887 185.96 712.825 184.091H719.16V183.523C719.16 180.273 717.228 179.159 715.41 179.159C713.046 179.159 711.478 181.023 711.478 183.705C711.478 186.386 713.024 188.182 715.546 188.182ZM712.825 182.932C712.916 181.574 713.876 180.364 715.41 180.364C716.865 180.364 717.796 181.455 717.796 182.932H712.825ZM725.155 179.273H723.292V177.182H721.951V179.273H720.632V180.409H721.951V185.864C721.951 187.386 723.178 188.114 724.314 188.114C724.814 188.114 725.132 188.023 725.314 187.955L725.042 186.75C724.928 186.773 724.746 186.818 724.451 186.818C723.86 186.818 723.292 186.636 723.292 185.5V180.409H725.155V179.273ZM730.898 188.182C732.67 188.182 733.966 187.295 734.375 185.977L733.079 185.614C732.739 186.523 731.949 186.977 730.898 186.977C729.324 186.977 728.239 185.96 728.176 184.091H734.511V183.523C734.511 180.273 732.579 179.159 730.761 179.159C728.398 179.159 726.829 181.023 726.829 183.705C726.829 186.386 728.375 188.182 730.898 188.182ZM728.176 182.932C728.267 181.574 729.227 180.364 730.761 180.364C732.216 180.364 733.148 181.455 733.148 182.932H728.176ZM740.256 188.182C742.188 188.182 743.461 187 743.688 185.455H742.347C742.097 186.409 741.302 186.977 740.256 186.977C738.666 186.977 737.643 185.659 737.643 183.636C737.643 181.659 738.688 180.364 740.256 180.364C741.438 180.364 742.143 181.091 742.347 181.886H743.688C743.461 180.25 742.075 179.159 740.234 179.159C737.87 179.159 736.302 181.023 736.302 183.682C736.302 186.295 737.802 188.182 740.256 188.182ZM749.604 179.273H747.74V177.182H746.399V179.273H745.081V180.409H746.399V185.864C746.399 187.386 747.627 188.114 748.763 188.114C749.263 188.114 749.581 188.023 749.763 187.955L749.49 186.75C749.377 186.773 749.195 186.818 748.899 186.818C748.309 186.818 747.74 186.636 747.74 185.5V180.409H749.604V179.273ZM751.781 188H753.122V179.273H751.781V188ZM752.463 177.818C752.986 177.818 753.417 177.409 753.417 176.909C753.417 176.409 752.986 176 752.463 176C751.94 176 751.508 176.409 751.508 176.909C751.508 177.409 751.94 177.818 752.463 177.818ZM759.283 188.182C761.647 188.182 763.238 186.386 763.238 183.682C763.238 180.955 761.647 179.159 759.283 179.159C756.92 179.159 755.329 180.955 755.329 183.682C755.329 186.386 756.92 188.182 759.283 188.182ZM759.283 186.977C757.488 186.977 756.67 185.432 756.67 183.682C756.67 181.932 757.488 180.364 759.283 180.364C761.079 180.364 761.897 181.932 761.897 183.682C761.897 185.432 761.079 186.977 759.283 186.977ZM766.786 182.75C766.786 181.227 767.729 180.364 769.013 180.364C770.257 180.364 771.013 181.176 771.013 182.545V188H772.354V182.455C772.354 180.227 771.166 179.159 769.399 179.159C768.081 179.159 767.263 179.75 766.854 180.636H766.74V179.273H765.445V188H766.786V182.75Z" fill="white"/>
<path d="M432.183 369.131H439.256C439.154 362.909 434.04 358.614 426.268 358.614C418.614 358.614 413.006 362.841 413.04 369.182C413.023 374.33 416.654 377.278 422.552 378.693L426.353 379.648C430.154 380.568 432.268 381.659 432.285 384.011C432.268 386.568 429.847 388.307 426.097 388.307C422.262 388.307 419.501 386.534 419.262 383.04H412.12C412.308 390.591 417.711 394.494 426.183 394.494C434.705 394.494 439.717 390.42 439.734 384.028C439.717 378.216 435.336 375.131 429.268 373.767L426.131 373.017C423.097 372.318 420.558 371.193 420.609 368.688C420.609 366.438 422.603 364.784 426.217 364.784C429.745 364.784 431.91 366.386 432.183 369.131ZM444.562 394H451.823V367.818H444.562V394ZM448.21 364.443C450.374 364.443 452.147 362.79 452.147 360.761C452.147 358.75 450.374 357.097 448.21 357.097C446.062 357.097 444.289 358.75 444.289 360.761C444.289 362.79 446.062 364.443 448.21 364.443ZM464.901 378.864C464.918 375.489 466.93 373.511 469.862 373.511C472.776 373.511 474.532 375.42 474.515 378.625V394H481.776V377.33C481.776 371.227 478.197 367.477 472.742 367.477C468.856 367.477 466.043 369.386 464.867 372.438H464.56V367.818H457.64V394H464.901V378.864ZM499.295 404.193C506.778 404.193 512.096 400.784 512.096 394.256V367.818H504.886V372.216H504.613C503.641 370.085 501.511 367.477 497.13 367.477C491.386 367.477 486.528 371.943 486.528 380.858C486.528 389.568 491.249 393.625 497.147 393.625C501.323 393.625 503.658 391.528 504.613 389.364H504.92V394.153C504.92 397.58 502.619 398.977 499.465 398.977C496.261 398.977 494.641 397.58 494.045 396.165L487.329 397.068C488.198 401.023 492.238 404.193 499.295 404.193ZM499.448 388.17C495.886 388.17 493.942 385.341 493.942 380.824C493.942 376.375 495.852 373.256 499.448 373.256C502.977 373.256 504.954 376.239 504.954 380.824C504.954 385.443 502.942 388.17 499.448 388.17ZM525.136 359.091H517.874V394H525.136V359.091ZM542.884 394.511C549.362 394.511 553.725 391.358 554.748 386.5L548.032 386.057C547.299 388.051 545.424 389.091 543.004 389.091C539.373 389.091 537.072 386.688 537.072 382.784V382.767H554.901V380.773C554.901 371.875 549.515 367.477 542.594 367.477C534.89 367.477 529.896 372.949 529.896 381.028C529.896 389.33 534.822 394.511 542.884 394.511ZM537.072 378.267C537.225 375.284 539.492 372.898 542.714 372.898C545.867 372.898 548.049 375.148 548.066 378.267H537.072ZM601.687 371.312C600.715 363.25 594.613 358.614 586.533 358.614C577.312 358.614 570.272 365.125 570.272 376.545C570.272 387.932 577.192 394.477 586.533 394.477C595.482 394.477 600.886 388.528 601.687 382.102L594.221 382.068C593.522 385.801 590.59 387.949 586.653 387.949C581.352 387.949 577.755 384.011 577.755 376.545C577.755 369.284 581.3 365.142 586.704 365.142C590.744 365.142 593.658 367.477 594.221 371.312H601.687ZM618.775 394.511C625.252 394.511 629.616 391.358 630.638 386.5L623.923 386.057C623.19 388.051 621.315 389.091 618.894 389.091C615.263 389.091 612.962 386.688 612.962 382.784V382.767H630.792V380.773C630.792 371.875 625.406 367.477 618.485 367.477C610.781 367.477 605.786 372.949 605.786 381.028C605.786 389.33 610.712 394.511 618.775 394.511ZM612.962 378.267C613.116 375.284 615.383 372.898 618.604 372.898C621.758 372.898 623.94 375.148 623.957 378.267H612.962ZM642.792 359.091H635.531V394H642.792V359.091ZM655.87 359.091H648.609V394H655.87V359.091Z" fill="white"/>
<path opacity="0.6" d="M459.129 438.059C458.558 434.846 455.933 432.365 452.217 432.365C447.811 432.365 444.675 435.868 444.675 441.331C444.675 446.794 447.811 450.297 452.217 450.297C455.933 450.297 458.558 447.809 459.129 444.604H457.527C457.041 446.999 454.953 448.797 452.217 448.797C448.911 448.797 446.217 446.181 446.217 441.331C446.217 436.499 448.911 433.865 452.217 433.865C454.953 433.865 457.041 435.672 457.527 438.059H459.129ZM467.646 450.331C471.038 450.331 473.407 447.561 473.407 443.573C473.407 439.559 471.038 436.789 467.646 436.789C464.254 436.789 461.884 439.559 461.884 443.573C461.884 447.561 464.254 450.331 467.646 450.331ZM467.646 448.942C464.927 448.942 463.41 446.505 463.41 443.573C463.41 440.641 464.927 438.169 467.646 438.169C470.364 438.169 471.881 440.641 471.881 443.573C471.881 446.505 470.364 448.942 467.646 448.942ZM476.737 450.059H478.254V441.672C478.254 439.635 479.609 438.186 481.425 438.186C483.214 438.186 484.254 439.38 484.254 441.152V450.059H485.805V441.442C485.805 439.559 486.93 438.186 488.925 438.186C490.655 438.186 491.805 439.226 491.805 441.289V450.059H493.322V441.289C493.322 438.357 491.814 436.797 489.385 436.797C487.476 436.797 486.095 437.726 485.507 439.175H485.396C484.817 437.692 483.666 436.797 481.859 436.797C480.146 436.797 478.868 437.624 478.348 438.979H478.212V436.968H476.737V450.059ZM497.313 454.968H498.839V447.63H498.975C499.495 448.831 500.62 450.331 502.998 450.331C506.202 450.331 508.384 447.604 508.384 443.547C508.384 439.507 506.211 436.789 502.972 436.789C500.569 436.789 499.504 438.289 498.975 439.465H498.788V436.968H497.313V454.968ZM498.813 443.522C498.813 440.385 500.254 438.169 502.81 438.169C505.444 438.169 506.859 440.505 506.859 443.522C506.859 446.573 505.418 448.942 502.81 448.942C500.279 448.942 498.813 446.684 498.813 443.522ZM520.024 445.056C520.024 447.459 518.217 448.755 516.445 448.755C514.553 448.755 513.223 447.4 513.223 445.354V436.968H511.706V445.448C511.706 448.55 513.496 450.229 516.01 450.229C517.928 450.229 519.291 449.232 519.905 447.885H520.024V450.059H521.541V436.968H520.024V445.056ZM530.714 436.968H527.944V433.831H526.418V436.968H524.467V438.289H526.418V446.999C526.418 449.138 528.106 450.255 529.785 450.255C530.415 450.255 530.842 450.135 531.131 450.025L530.808 448.652C530.594 448.712 530.322 448.772 529.921 448.772C528.89 448.772 527.944 448.286 527.944 446.641V438.289H530.714V436.968ZM539.311 450.331C541.936 450.331 543.7 448.908 544.297 447.263L542.857 446.794C542.354 447.971 541.169 448.942 539.311 448.942C536.635 448.942 534.939 446.99 534.871 443.965H544.621V443.215C544.621 438.843 541.919 436.789 539.081 436.789C535.689 436.789 533.345 439.627 533.345 443.59C533.345 447.561 535.646 450.331 539.311 450.331ZM534.879 442.627C535.041 440.189 536.686 438.169 539.081 438.169C541.425 438.169 543.07 440.104 543.07 442.627H534.879ZM547.964 450.059H549.481V441.604C549.481 439.661 550.972 438.255 553.018 438.255C553.418 438.255 553.793 438.323 553.93 438.34V436.797C553.725 436.789 553.376 436.772 553.129 436.772C551.484 436.772 550.077 437.658 549.549 438.979H549.438V436.968H547.964V450.059ZM573.402 436.968H571.757L567.871 448.056H567.751L563.865 436.968H562.22L567.001 450.059H568.621L573.402 436.968ZM576.387 450.059H577.913V436.968H576.387V450.059ZM577.163 434.718C577.785 434.718 578.305 434.223 578.305 433.627C578.305 433.03 577.785 432.536 577.163 432.536C576.54 432.536 576.029 433.03 576.029 433.627C576.029 434.223 576.54 434.718 577.163 434.718ZM590.72 439.84C590.081 437.948 588.683 436.789 586.288 436.789C583.646 436.789 581.729 438.297 581.729 440.453C581.729 442.209 582.794 443.402 585.07 443.948L587.209 444.459C588.649 444.8 589.339 445.542 589.339 446.59C589.339 447.953 588.036 448.968 586.024 448.968C584.234 448.968 583.118 448.158 582.751 446.607L581.294 446.965C581.754 449.147 583.484 450.331 586.05 450.331C588.93 450.331 590.908 448.746 590.908 446.522C590.908 444.775 589.808 443.607 587.618 443.07L585.641 442.584C584.013 442.175 583.254 441.519 583.254 440.385C583.254 439.056 584.524 438.127 586.288 438.127C588.053 438.127 588.922 439.056 589.331 440.232L590.72 439.84ZM594.246 450.059H595.772V436.968H594.246V450.059ZM595.022 434.718C595.644 434.718 596.164 434.223 596.164 433.627C596.164 433.03 595.644 432.536 595.022 432.536C594.4 432.536 593.888 433.03 593.888 433.627C593.888 434.223 594.4 434.718 595.022 434.718ZM604.872 450.331C608.264 450.331 610.634 447.561 610.634 443.573C610.634 439.559 608.264 436.789 604.872 436.789C601.48 436.789 599.111 439.559 599.111 443.573C599.111 447.561 601.48 450.331 604.872 450.331ZM604.872 448.942C602.153 448.942 600.636 446.505 600.636 443.573C600.636 440.641 602.153 438.169 604.872 438.169C607.591 438.169 609.108 440.641 609.108 443.573C609.108 446.505 607.591 448.942 604.872 448.942ZM615.481 441.877C615.481 439.593 616.981 438.186 619.043 438.186C621.055 438.186 622.35 439.533 622.35 441.672V450.059H623.867V441.578C623.867 438.476 622.069 436.797 619.427 436.797C617.509 436.797 616.188 437.684 615.575 439.022H615.438V436.968H613.964V450.059H615.481V441.877Z" fill="white"/>
<path opacity="0.6" d="M437.631 483.31V500.765H439.131V486.677H439.267L445.156 500.765H446.605L452.494 486.677H452.631V500.765H454.131V483.31H452.29L445.957 498.515H445.804L439.472 483.31H437.631ZM463.749 501.037C466.374 501.037 468.138 499.614 468.734 497.969L467.294 497.5C466.791 498.677 465.607 499.648 463.749 499.648C461.072 499.648 459.376 497.696 459.308 494.671H469.058V493.921C469.058 489.549 466.357 487.495 463.518 487.495C460.126 487.495 457.783 490.333 457.783 494.296C457.783 498.267 460.084 501.037 463.749 501.037ZM459.317 493.333C459.479 490.895 461.124 488.875 463.518 488.875C465.862 488.875 467.507 490.81 467.507 493.333H459.317ZM477.558 487.674H474.788V484.537H473.262V487.674H471.31V488.995H473.262V497.705C473.262 499.844 474.95 500.961 476.629 500.961C477.259 500.961 477.685 500.841 477.975 500.731L477.651 499.358C477.438 499.418 477.165 499.478 476.765 499.478C475.734 499.478 474.788 498.992 474.788 497.347V488.995H477.558V487.674ZM484.659 501.063C486.841 501.063 488.17 499.853 488.716 498.694H488.81V500.765H490.327V491.875C490.327 488.364 487.685 487.495 485.682 487.495C483.679 487.495 481.616 488.287 480.73 490.427L482.17 490.946C482.648 489.821 483.832 488.858 485.724 488.858C487.71 488.858 488.81 489.949 488.81 491.739V492.046C488.81 493.035 487.582 493.052 485.384 493.324C482.426 493.691 480.355 494.517 480.355 497.108C480.355 499.631 482.281 501.063 484.659 501.063ZM484.864 499.674C483.151 499.674 481.872 498.762 481.872 497.177C481.872 495.591 483.168 494.927 485.384 494.654C486.457 494.526 488.366 494.287 488.81 493.853V495.745C488.81 497.892 487.284 499.674 484.864 499.674ZM494.678 500.765H496.152V498.336H496.339C496.868 499.537 497.976 501.037 500.362 501.037C503.575 501.037 505.749 498.319 505.749 494.253C505.749 490.222 503.567 487.495 500.337 487.495C497.942 487.495 496.859 488.995 496.339 490.171H496.203V483.31H494.678V500.765ZM496.178 494.228C496.178 491.091 497.618 488.875 500.175 488.875C502.8 488.875 504.223 491.211 504.223 494.228C504.223 497.279 502.783 499.648 500.175 499.648C497.635 499.648 496.178 497.39 496.178 494.228ZM514.169 501.037C517.561 501.037 519.93 498.267 519.93 494.279C519.93 490.265 517.561 487.495 514.169 487.495C510.777 487.495 508.408 490.265 508.408 494.279C508.408 498.267 510.777 501.037 514.169 501.037ZM514.169 499.648C511.45 499.648 509.933 497.211 509.933 494.279C509.933 491.347 511.45 488.875 514.169 488.875C516.888 488.875 518.405 491.347 518.405 494.279C518.405 497.211 516.888 499.648 514.169 499.648ZM524.778 483.31H523.261V500.765H524.778V483.31ZM528.809 500.765H530.335V487.674H528.809V500.765ZM529.585 485.424C530.207 485.424 530.727 484.929 530.727 484.333C530.727 483.736 530.207 483.242 529.585 483.242C528.962 483.242 528.451 483.736 528.451 484.333C528.451 484.929 528.962 485.424 529.585 485.424ZM539.46 501.037C542.188 501.037 544.105 499.316 544.455 496.946H542.92C542.571 498.617 541.199 499.648 539.46 499.648C536.895 499.648 535.199 497.415 535.199 494.228C535.199 491.057 536.946 488.875 539.46 488.875C541.327 488.875 542.588 490.077 542.912 491.56H544.446C544.088 489.131 542.06 487.495 539.435 487.495C536.009 487.495 533.673 490.341 533.673 494.279C533.673 498.182 535.94 501.037 539.46 501.037ZM558.112 501.063C560.294 501.063 561.624 499.853 562.169 498.694H562.263V500.765H563.78V491.875C563.78 488.364 561.138 487.495 559.135 487.495C557.132 487.495 555.07 488.287 554.183 490.427L555.624 490.946C556.101 489.821 557.286 488.858 559.178 488.858C561.163 488.858 562.263 489.949 562.263 491.739V492.046C562.263 493.035 561.036 493.052 558.837 493.324C555.879 493.691 553.808 494.517 553.808 497.108C553.808 499.631 555.734 501.063 558.112 501.063ZM558.317 499.674C556.604 499.674 555.325 498.762 555.325 497.177C555.325 495.591 556.621 494.927 558.837 494.654C559.911 494.526 561.82 494.287 562.263 493.853V495.745C562.263 497.892 560.737 499.674 558.317 499.674ZM572.929 501.037C575.656 501.037 577.574 499.316 577.923 496.946H576.389C576.04 498.617 574.668 499.648 572.929 499.648C570.364 499.648 568.668 497.415 568.668 494.228C568.668 491.057 570.415 488.875 572.929 488.875C574.795 488.875 576.057 490.077 576.381 491.56H577.915C577.557 489.131 575.528 487.495 572.903 487.495C569.477 487.495 567.142 490.341 567.142 494.279C567.142 498.182 569.409 501.037 572.929 501.037ZM586.331 487.674H583.561V484.537H582.036V487.674H580.084V488.995H582.036V497.705C582.036 499.844 583.723 500.961 585.402 500.961C586.033 500.961 586.459 500.841 586.749 500.731L586.425 499.358C586.212 499.418 585.939 499.478 585.538 499.478C584.507 499.478 583.561 498.992 583.561 497.347V488.995H586.331V487.674ZM589.793 500.765H591.319V487.674H589.793V500.765ZM590.569 485.424C591.191 485.424 591.711 484.929 591.711 484.333C591.711 483.736 591.191 483.242 590.569 483.242C589.947 483.242 589.435 483.736 589.435 484.333C589.435 484.929 589.947 485.424 590.569 485.424ZM605.464 487.674H603.82L599.933 498.762H599.814L595.928 487.674H594.283L599.064 500.765H600.683L605.464 487.674ZM608.45 500.765H609.975V487.674H608.45V500.765ZM609.225 485.424C609.847 485.424 610.367 484.929 610.367 484.333C610.367 483.736 609.847 483.242 609.225 483.242C608.603 483.242 608.092 483.736 608.092 484.333C608.092 484.929 608.603 485.424 609.225 485.424ZM619.143 487.674H616.374V484.537H614.848V487.674H612.896V488.995H614.848V497.705C614.848 499.844 616.536 500.961 618.214 500.961C618.845 500.961 619.271 500.841 619.561 500.731L619.237 499.358C619.024 499.418 618.751 499.478 618.351 499.478C617.32 499.478 616.374 498.992 616.374 497.347V488.995H619.143V487.674ZM623.646 505.665C625.282 505.665 626.484 504.728 627.183 502.836L632.731 487.699L631.077 487.674L627.191 498.762H627.072L623.185 487.674H621.54L626.356 500.892L625.879 502.222C625.163 504.191 624.131 504.54 622.589 504.046L622.18 505.392C622.487 505.529 623.049 505.665 623.646 505.665ZM476.854 532.765H478.371V524.378C478.371 522.341 479.727 520.892 481.542 520.892C483.332 520.892 484.371 522.086 484.371 523.858V532.765H485.923V524.148C485.923 522.265 487.048 520.892 489.042 520.892C490.772 520.892 491.923 521.932 491.923 523.995V532.765H493.44V523.995C493.44 521.063 491.931 519.503 489.502 519.503C487.593 519.503 486.212 520.432 485.624 521.881H485.513C484.934 520.398 483.783 519.503 481.977 519.503C480.263 519.503 478.985 520.33 478.465 521.685H478.329V519.674H476.854V532.765ZM502.544 533.037C505.936 533.037 508.305 530.267 508.305 526.279C508.305 522.265 505.936 519.495 502.544 519.495C499.152 519.495 496.783 522.265 496.783 526.279C496.783 530.267 499.152 533.037 502.544 533.037ZM502.544 531.648C499.825 531.648 498.308 529.211 498.308 526.279C498.308 523.347 499.825 520.875 502.544 520.875C505.263 520.875 506.78 523.347 506.78 526.279C506.78 529.211 505.263 531.648 502.544 531.648ZM513.153 524.583C513.153 522.299 514.653 520.892 516.715 520.892C518.727 520.892 520.022 522.239 520.022 524.378V532.765H521.539V524.285C521.539 521.182 519.741 519.503 517.099 519.503C515.181 519.503 513.86 520.39 513.246 521.728H513.11V519.674H511.636V532.765H513.153V524.583ZM525.551 532.765H527.077V519.674H525.551V532.765ZM526.327 517.424C526.949 517.424 527.469 516.929 527.469 516.333C527.469 515.736 526.949 515.242 526.327 515.242C525.705 515.242 525.193 515.736 525.193 516.333C525.193 516.929 525.705 517.424 526.327 517.424ZM536.245 519.674H533.475V516.537H531.95V519.674H529.998V520.995H531.95V529.705C531.95 531.844 533.637 532.961 535.316 532.961C535.947 532.961 536.373 532.841 536.663 532.731L536.339 531.358C536.126 531.418 535.853 531.478 535.452 531.478C534.421 531.478 533.475 530.992 533.475 529.347V520.995H536.245V519.674ZM544.638 533.037C548.03 533.037 550.399 530.267 550.399 526.279C550.399 522.265 548.03 519.495 544.638 519.495C541.246 519.495 538.876 522.265 538.876 526.279C538.876 530.267 541.246 533.037 544.638 533.037ZM544.638 531.648C541.919 531.648 540.402 529.211 540.402 526.279C540.402 523.347 541.919 520.875 544.638 520.875C547.357 520.875 548.874 523.347 548.874 526.279C548.874 529.211 547.357 531.648 544.638 531.648ZM553.729 532.765H555.246V524.31C555.246 522.367 556.738 520.961 558.783 520.961C559.184 520.961 559.559 521.029 559.695 521.046V519.503C559.491 519.495 559.141 519.478 558.894 519.478C557.249 519.478 555.843 520.364 555.315 521.685H555.204V519.674H553.729V532.765ZM562.301 532.765H563.827V519.674H562.301V532.765ZM563.077 517.424C563.699 517.424 564.219 516.929 564.219 516.333C564.219 515.736 563.699 515.242 563.077 515.242C562.455 515.242 561.943 515.736 561.943 516.333C561.943 516.929 562.455 517.424 563.077 517.424ZM569.356 524.583C569.356 522.299 570.856 520.892 572.918 520.892C574.93 520.892 576.225 522.239 576.225 524.378V532.765H577.742V524.285C577.742 521.182 575.944 519.503 573.302 519.503C571.384 519.503 570.063 520.39 569.45 521.728H569.313V519.674H567.839V532.765H569.356V524.583ZM586.732 537.946C589.834 537.946 592.135 536.429 592.135 533.106V519.674H590.652V522.171H590.499C589.962 520.995 588.879 519.495 586.476 519.495C583.237 519.495 581.064 522.205 581.064 526.185C581.064 530.199 583.314 532.628 586.45 532.628C588.803 532.628 589.953 531.265 590.473 530.063H590.609V533.012C590.609 535.449 589.05 536.583 586.732 536.583C584.49 536.583 583.416 535.5 582.862 534.503L581.618 535.321C582.385 536.821 584.055 537.946 586.732 537.946ZM586.629 531.239C584.03 531.239 582.589 529.16 582.589 526.16C582.589 523.211 584.004 520.875 586.629 520.875C589.195 520.875 590.635 523.091 590.635 526.16C590.635 529.321 589.152 531.239 586.629 531.239Z" fill="white"/>
</g>
<rect x="0.5" y="0.5" width="1069" height="712" stroke="black"/>
<defs>
<filter id="filter0_f" x="213.466" y="98.4658" width="642.828" height="672.387" filterUnits="userSpaceOnUse" color-interpolation-filters="sRGB">
<feFlood flood-opacity="0" result="BackgroundImageFix"/>
<feBlend mode="normal" in="SourceGraphic" in2="BackgroundImageFix" result="shape"/>
<feGaussianBlur stdDeviation="21" result="effect1_foregroundBlur"/>
</filter>
<filter id="filter1_d" x="781.5" y="416.5" width="37" height="37" filterUnits="userSpaceOnUse" color-interpolation-filters="sRGB">
<feFlood flood-opacity="0" result="BackgroundImageFix"/>
<feColorMatrix in="SourceAlpha" type="matrix" values="0 0 0 0 0 0 0 0 0 0 0 0 0 0 0 0 0 0 127 0"/>
<feOffset/>
<feGaussianBlur stdDeviation="4"/>
<feColorMatrix type="matrix" values="0 0 0 0 0.054902 0 0 0 0 0.741176 0 0 0 0 0.945098 0 0 0 0.8 0"/>
<feBlend mode="normal" in2="BackgroundImageFix" result="effect1_dropShadow"/>
<feBlend mode="normal" in="SourceGraphic" in2="effect1_dropShadow" result="shape"/>
</filter>
<filter id="filter2_d" x="736.5" y="265.5" width="37" height="37" filterUnits="userSpaceOnUse" color-interpolation-filters="sRGB">
<feFlood flood-opacity="0" result="BackgroundImageFix"/>
<feColorMatrix in="SourceAlpha" type="matrix" values="0 0 0 0 0 0 0 0 0 0 0 0 0 0 0 0 0 0 127 0"/>
<feOffset/>
<feGaussianBlur stdDeviation="4"/>
<feColorMatrix type="matrix" values="0 0 0 0 0.054902 0 0 0 0 0.741176 0 0 0 0 0.945098 0 0 0 0.8 0"/>
<feBlend mode="normal" in2="BackgroundImageFix" result="effect1_dropShadow"/>
<feBlend mode="normal" in="SourceGraphic" in2="effect1_dropShadow" result="shape"/>
</filter>
<filter id="filter3_d" x="736.5" y="567.5" width="37" height="37" filterUnits="userSpaceOnUse" color-interpolation-filters="sRGB">
<feFlood flood-opacity="0" result="BackgroundImageFix"/>
<feColorMatrix in="SourceAlpha" type="matrix" values="0 0 0 0 0 0 0 0 0 0 0 0 0 0 0 0 0 0 127 0"/>
<feOffset/>
<feGaussianBlur stdDeviation="4"/>
<feColorMatrix type="matrix" values="0 0 0 0 0.054902 0 0 0 0 0.741176 0 0 0 0 0.945098 0 0 0 0.8 0"/>
<feBlend mode="normal" in2="BackgroundImageFix" result="effect1_dropShadow"/>
<feBlend mode="normal" in="SourceGraphic" in2="effect1_dropShadow" result="shape"/>
</filter>
<filter id="filter4_d" x="622.5" y="167.5" width="37" height="37" filterUnits="userSpaceOnUse" color-interpolation-filters="sRGB">
<feFlood flood-opacity="0" result="BackgroundImageFix"/>
<feColorMatrix in="SourceAlpha" type="matrix" values="0 0 0 0 0 0 0 0 0 0 0 0 0 0 0 0 0 0 127 0"/>
<feOffset/>
<feGaussianBlur stdDeviation="4"/>
<feColorMatrix type="matrix" values="0 0 0 0 0.054902 0 0 0 0 0.741176 0 0 0 0 0.945098 0 0 0 0.8 0"/>
<feBlend mode="normal" in2="BackgroundImageFix" result="effect1_dropShadow"/>
<feBlend mode="normal" in="SourceGraphic" in2="effect1_dropShadow" result="shape"/>
</filter>
<filter id="filter5_d" x="251.5" y="393.5" width="37" height="37" filterUnits="userSpaceOnUse" color-interpolation-filters="sRGB">
<feFlood flood-opacity="0" result="BackgroundImageFix"/>
<feColorMatrix in="SourceAlpha" type="matrix" values="0 0 0 0 0 0 0 0 0 0 0 0 0 0 0 0 0 0 127 0"/>
<feOffset/>
<feGaussianBlur stdDeviation="4"/>
<feColorMatrix type="matrix" values="0 0 0 0 0.360784 0 0 0 0 0.780392 0 0 0 0 0.552941 0 0 0 1 0"/>
<feBlend mode="normal" in2="BackgroundImageFix" result="effect1_dropShadow"/>
<feBlend mode="normal" in="SourceGraphic" in2="effect1_dropShadow" result="shape"/>
</filter>
<filter id="filter6_d" x="307.5" y="249.5" width="37" height="37" filterUnits="userSpaceOnUse" color-interpolation-filters="sRGB">
<feFlood flood-opacity="0" result="BackgroundImageFix"/>
<feColorMatrix in="SourceAlpha" type="matrix" values="0 0 0 0 0 0 0 0 0 0 0 0 0 0 0 0 0 0 127 0"/>
<feOffset/>
<feGaussianBlur stdDeviation="4"/>
<feColorMatrix type="matrix" values="0 0 0 0 0.360784 0 0 0 0 0.780392 0 0 0 0 0.552941 0 0 0 1 0"/>
<feBlend mode="normal" in2="BackgroundImageFix" result="effect1_dropShadow"/>
<feBlend mode="normal" in="SourceGraphic" in2="effect1_dropShadow" result="shape"/>
</filter>
<filter id="filter7_d" x="287.5" y="553.5" width="37" height="37" filterUnits="userSpaceOnUse" color-interpolation-filters="sRGB">
<feFlood flood-opacity="0" result="BackgroundImageFix"/>
<feColorMatrix in="SourceAlpha" type="matrix" values="0 0 0 0 0 0 0 0 0 0 0 0 0 0 0 0 0 0 127 0"/>
<feOffset/>
<feGaussianBlur stdDeviation="4"/>
<feColorMatrix type="matrix" values="0 0 0 0 0.360784 0 0 0 0 0.780392 0 0 0 0 0.552941 0 0 0 1 0"/>
<feBlend mode="normal" in2="BackgroundImageFix" result="effect1_dropShadow"/>
<feBlend mode="normal" in="SourceGraphic" in2="effect1_dropShadow" result="shape"/>
</filter>
<filter id="filter8_d" x="403.5" y="657.5" width="37" height="37" filterUnits="userSpaceOnUse" color-interpolation-filters="sRGB">
<feFlood flood-opacity="0" result="BackgroundImageFix"/>
<feColorMatrix in="SourceAlpha" type="matrix" values="0 0 0 0 0 0 0 0 0 0 0 0 0 0 0 0 0 0 127 0"/>
<feOffset/>
<feGaussianBlur stdDeviation="4"/>
<feColorMatrix type="matrix" values="0 0 0 0 0.360784 0 0 0 0 0.780392 0 0 0 0 0.552941 0 0 0 1 0"/>
<feBlend mode="normal" in2="BackgroundImageFix" result="effect1_dropShadow"/>
<feBlend mode="normal" in="SourceGraphic" in2="effect1_dropShadow" result="shape"/>
</filter>
<linearGradient id="paint0_linear" x1="745.103" y1="434.659" x2="324.656" y2="434.659" gradientUnits="userSpaceOnUse">
<stop stop-color="#0EBDF1"/>
<stop offset="1" stop-color="#5CC78D"/>
</linearGradient>
<radialGradient id="paint1_radial" cx="0" cy="0" r="1" gradientUnits="userSpaceOnUse" gradientTransform="translate(534.925 212.612) rotate(90) scale(444.091 277.557)">
<stop stop-color="#0EBDF1" stop-opacity="0.2"/>
<stop offset="1" stop-color="#FF26C2" stop-opacity="0"/>
</radialGradient>
<linearGradient id="paint2_linear" x1="756.971" y1="434.658" x2="312.88" y2="434.658" gradientUnits="userSpaceOnUse">
<stop stop-color="#0EBDF1"/>
<stop offset="1" stop-color="#5CC78D"/>
</linearGradient>
<clipPath id="clip0">
</clipPath>
</defs>
</svg>
