<svg width="673" height="1250" viewBox="0 0 673 1250" fill="none" xmlns="http://www.w3.org/2000/svg">
<g opacity="0.4" filter="url(#filter0_f)">
<ellipse cx="336.5" cy="654.036" rx="210.223" ry="231.125" transform="rotate(105 336.5 654.036)" stroke="url(#paint0_linear)" stroke-width="27"/>
</g>
<circle cx="336.506" cy="654.082" r="222.045" fill="#0C242C"/>
<circle cx="336.506" cy="654.082" r="222.045" fill="url(#paint1_radial)"/>
<circle cx="336.51" cy="654.082" r="216.045" transform="rotate(90 336.51 654.082)" stroke="url(#paint2_linear)" stroke-width="12"/>
<path d="M581.834 760.946C565.685 796.758 541.901 828.606 512.15 854.261C482.398 879.915 447.398 898.755 409.599 909.46C371.801 920.166 332.12 922.478 293.334 916.236C254.548 909.993 217.596 895.347 185.066 873.322" stroke="#0EBDF1" stroke-linecap="round" stroke-linejoin="round" stroke-dasharray="2 4"/>
<g filter="url(#filter1_d)">
<circle cx="336.157" cy="919.156" r="8" transform="rotate(-90 336.157 919.156)" fill="white"/>
<circle cx="336.157" cy="919.156" r="8" transform="rotate(-90 336.157 919.156)" stroke="#0EBDF1" stroke-width="5"/>
</g>
<g filter="url(#filter2_d)">
<circle cx="487.159" cy="874.156" r="8" transform="rotate(-90 487.159 874.156)" fill="white"/>
<circle cx="487.159" cy="874.156" r="8" transform="rotate(-90 487.159 874.156)" stroke="#0EBDF1" stroke-width="5"/>
</g>
<g filter="url(#filter3_d)">
<circle cx="185.158" cy="874.156" r="8" transform="rotate(-90 185.158 874.156)" fill="white"/>
<circle cx="185.158" cy="874.156" r="8" transform="rotate(-90 185.158 874.156)" stroke="#0EBDF1" stroke-width="5"/>
</g>
<g filter="url(#filter4_d)">
<circle cx="585.159" cy="760.156" r="8" transform="rotate(-90 585.159 760.156)" fill="white"/>
<circle cx="585.159" cy="760.156" r="8" transform="rotate(-90 585.159 760.156)" stroke="#0EBDF1" stroke-width="5"/>
</g>
<path d="M91.7707 542.559C108.956 505.588 134.305 472.997 165.909 447.242C197.514 421.487 234.55 403.237 274.228 393.869C313.907 384.5 355.194 384.255 394.981 393.154C434.768 402.052 472.018 419.862 503.925 445.241" stroke="#5CC78D" stroke-linecap="round" stroke-linejoin="round" stroke-dasharray="2 4"/>
<g filter="url(#filter5_d)">
<circle cx="359.164" cy="389.156" r="8" transform="rotate(90 359.164 389.156)" fill="white"/>
<circle cx="359.164" cy="389.156" r="8" transform="rotate(90 359.164 389.156)" stroke="#5CC78D" stroke-width="5"/>
</g>
<g filter="url(#filter6_d)">
<circle cx="503.159" cy="445.156" r="8" transform="rotate(90 503.159 445.156)" fill="white"/>
<circle cx="503.159" cy="445.156" r="8" transform="rotate(90 503.159 445.156)" stroke="#5CC78D" stroke-width="5"/>
</g>
<g filter="url(#filter7_d)">
<circle cx="199.164" cy="425.156" r="8" transform="rotate(90 199.164 425.156)" fill="white"/>
<circle cx="199.164" cy="425.156" r="8" transform="rotate(90 199.164 425.156)" stroke="#5CC78D" stroke-width="5"/>
</g>
<g filter="url(#filter8_d)">
<circle cx="95.1638" cy="541.156" r="8" transform="rotate(90 95.1638 541.156)" fill="white"/>
<circle cx="95.1638" cy="541.156" r="8" transform="rotate(90 95.1638 541.156)" stroke="#5CC78D" stroke-width="5"/>
</g>
<path d="M199.757 34H209.7C214.928 34 217.712 31.2727 217.712 27.5682C217.712 24.125 215.246 22.0455 212.598 21.9205V21.6932C215.018 21.1477 216.803 19.4318 216.803 16.6932C216.803 13.2045 214.212 10.7273 209.075 10.7273H199.757V34ZM204.678 29.9773V23.7955H208.803C211.166 23.7955 212.632 25.1591 212.632 27.0795C212.632 28.8295 211.439 29.9773 208.689 29.9773H204.678ZM204.678 20.4659V14.7045H208.416C210.598 14.7045 211.837 15.8295 211.837 17.5114C211.837 19.3523 210.337 20.4659 208.325 20.4659H204.678ZM220.822 34H225.663V16.5455H220.822V34ZM223.254 14.2955C224.697 14.2955 225.879 13.1932 225.879 11.8409C225.879 10.5 224.697 9.39773 223.254 9.39773C221.822 9.39773 220.641 10.5 220.641 11.8409C220.641 13.1932 221.822 14.2955 223.254 14.2955ZM237.428 34.3409C242.723 34.3409 246.018 30.7159 246.018 25.3409C246.018 19.9318 242.723 16.3182 237.428 16.3182C232.132 16.3182 228.837 19.9318 228.837 25.3409C228.837 30.7159 232.132 34.3409 237.428 34.3409ZM237.45 30.5909C235.007 30.5909 233.757 28.3523 233.757 25.3068C233.757 22.2614 235.007 20.0114 237.45 20.0114C239.848 20.0114 241.098 22.2614 241.098 25.3068C241.098 28.3523 239.848 30.5909 237.45 30.5909ZM254.007 10.7273H249.166V34H254.007V10.7273ZM265.771 34.3409C271.067 34.3409 274.362 30.7159 274.362 25.3409C274.362 19.9318 271.067 16.3182 265.771 16.3182C260.476 16.3182 257.18 19.9318 257.18 25.3409C257.18 30.7159 260.476 34.3409 265.771 34.3409ZM265.794 30.5909C263.351 30.5909 262.101 28.3523 262.101 25.3068C262.101 22.2614 263.351 20.0114 265.794 20.0114C268.192 20.0114 269.442 22.2614 269.442 25.3068C269.442 28.3523 268.192 30.5909 265.794 30.5909ZM285.374 40.9091C290.362 40.9091 293.908 38.6364 293.908 34.1705V16.5455H289.101V19.4773H288.919C288.271 18.0568 286.851 16.3182 283.93 16.3182C280.101 16.3182 276.862 19.2955 276.862 25.2386C276.862 31.0455 280.01 33.75 283.942 33.75C286.726 33.75 288.283 32.3523 288.919 30.9091H289.124V34.1023C289.124 36.5 287.589 37.4318 285.487 37.4318C283.351 37.4318 282.271 36.5 281.874 35.4432L277.396 36.0455C277.976 38.7955 280.669 40.9091 285.374 40.9091ZM285.476 30.1136C283.101 30.1136 281.805 28.2273 281.805 25.2159C281.805 22.25 283.078 20.1705 285.476 20.1705C287.828 20.1705 289.146 22.1591 289.146 25.2159C289.146 28.2955 287.805 30.1136 285.476 30.1136ZM297.76 34H302.601V16.5455H297.76V34ZM300.192 14.2955C301.635 14.2955 302.817 13.1932 302.817 11.8409C302.817 10.5 301.635 9.39773 300.192 9.39773C298.76 9.39773 297.578 10.5 297.578 11.8409C297.578 13.1932 298.76 14.2955 300.192 14.2955ZM314.365 34.3409C319.013 34.3409 321.933 31.6136 322.161 27.6023H317.592C317.308 29.4659 316.081 30.5114 314.422 30.5114C312.161 30.5114 310.695 28.6136 310.695 25.2727C310.695 21.9773 312.172 20.0909 314.422 20.0909C316.195 20.0909 317.331 21.2614 317.592 23H322.161C321.956 18.9659 318.899 16.3182 314.342 16.3182C309.047 16.3182 305.774 19.9886 305.774 25.3409C305.774 30.6477 308.99 34.3409 314.365 34.3409ZM330.237 34.3295C332.817 34.3295 334.487 33.2045 335.339 31.5795H335.476V34H340.067V22.2273C340.067 18.0682 336.544 16.3182 332.658 16.3182C328.476 16.3182 325.726 18.3182 325.055 21.5L329.533 21.8636C329.862 20.7045 330.896 19.8523 332.635 19.8523C334.283 19.8523 335.226 20.6818 335.226 22.1136V22.1818C335.226 23.3068 334.033 23.4545 330.999 23.75C327.544 24.0682 324.442 25.2273 324.442 29.125C324.442 32.5795 326.908 34.3295 330.237 34.3295ZM331.624 30.9886C330.135 30.9886 329.067 30.2955 329.067 28.9659C329.067 27.6023 330.192 26.9318 331.896 26.6932C332.953 26.5455 334.68 26.2955 335.26 25.9091V27.7614C335.26 29.5909 333.749 30.9886 331.624 30.9886ZM348.663 10.7273H343.822V34H348.663V10.7273ZM372.663 17.4205H377.379C377.311 13.2727 373.902 10.4091 368.72 10.4091C363.618 10.4091 359.879 13.2273 359.902 17.4545C359.891 20.8864 362.311 22.8523 366.243 23.7955L368.777 24.4318C371.311 25.0455 372.72 25.7727 372.732 27.3409C372.72 29.0455 371.107 30.2045 368.607 30.2045C366.05 30.2045 364.209 29.0227 364.05 26.6932H359.288C359.413 31.7273 363.016 34.3295 368.663 34.3295C374.345 34.3295 377.686 31.6136 377.697 27.3523C377.686 23.4773 374.766 21.4205 370.72 20.5114L368.629 20.0114C366.607 19.5455 364.913 18.7955 364.947 17.125C364.947 15.625 366.277 14.5227 368.686 14.5227C371.038 14.5227 372.482 15.5909 372.663 17.4205ZM383.905 40.5455C387.507 40.5455 389.416 38.7045 390.405 35.8864L397.189 16.5682L392.064 16.5455L388.416 29.3636H388.234L384.621 16.5455H379.53L385.791 34.5L385.507 35.2386C384.871 36.875 383.655 36.9545 381.95 36.4318L380.859 40.0455C381.553 40.3409 382.678 40.5455 383.905 40.5455ZM414.189 21.5227C413.757 18.3068 411.166 16.3182 406.757 16.3182C402.291 16.3182 399.348 18.3864 399.359 21.75C399.348 24.3636 400.996 26.0568 404.405 26.7386L407.428 27.3409C408.95 27.6477 409.643 28.2045 409.666 29.0795C409.643 30.1136 408.518 30.8523 406.825 30.8523C405.098 30.8523 403.95 30.1136 403.655 28.6932L398.893 28.9432C399.348 32.2841 402.189 34.3409 406.814 34.3409C411.337 34.3409 414.575 32.0341 414.587 28.5909C414.575 26.0682 412.928 24.5568 409.541 23.8636L406.382 23.2273C404.757 22.875 404.155 22.3182 404.166 21.4773C404.155 20.4318 405.337 19.75 406.837 19.75C408.518 19.75 409.518 20.6705 409.757 21.7955L414.189 21.5227ZM426.919 16.5455H423.635V12.3636H418.794V16.5455H416.408V20.1818H418.794V29.2727C418.771 32.6932 421.101 34.3864 424.612 34.2386C425.862 34.1932 426.749 33.9432 427.237 33.7841L426.476 30.1818C426.237 30.2273 425.726 30.3409 425.271 30.3409C424.305 30.3409 423.635 29.9773 423.635 28.6364V20.1818H426.919V16.5455ZM437.839 34.3409C442.158 34.3409 445.067 32.2386 445.749 29L441.271 28.7045C440.783 30.0341 439.533 30.7273 437.919 30.7273C435.499 30.7273 433.964 29.125 433.964 26.5227V26.5114H445.851V25.1818C445.851 19.25 442.26 16.3182 437.646 16.3182C432.51 16.3182 429.18 19.9659 429.18 25.3523C429.18 30.8864 432.464 34.3409 437.839 34.3409ZM433.964 23.5114C434.067 21.5227 435.578 19.9318 437.726 19.9318C439.828 19.9318 441.283 21.4318 441.294 23.5114H433.964ZM449.01 34H453.851V23.5227C453.851 21.5909 455.078 20.3068 456.692 20.3068C458.283 20.3068 459.351 21.3977 459.351 23.1136V34H464.044V23.3409C464.044 21.5341 465.078 20.3068 466.839 20.3068C468.385 20.3068 469.544 21.2727 469.544 23.2159V34H474.374V22.2614C474.374 18.4773 472.124 16.3182 468.874 16.3182C466.317 16.3182 464.328 17.625 463.612 19.625H463.43C462.874 17.6023 461.089 16.3182 458.692 16.3182C456.339 16.3182 454.555 17.5682 453.828 19.625H453.624V16.5455H449.01V34Z" fill="#5CC78D"/>
<path d="M238.409 108H242.614C245.364 108 246.5 106.659 246.5 104.909C246.5 103.068 245.227 102.068 244.159 102V101.886C245.159 101.614 246.045 100.955 246.045 99.4545C246.045 97.75 244.909 96.3636 242.477 96.3636H238.409V108ZM239.818 106.75V102.705H242.682C244.205 102.705 245.159 103.727 245.159 104.909C245.159 105.932 244.455 106.75 242.614 106.75H239.818ZM239.818 101.477V97.6136H242.477C244.023 97.6136 244.705 98.4318 244.705 99.4545C244.705 100.682 243.705 101.477 242.432 101.477H239.818ZM251.362 108.205C252.884 108.205 253.68 107.386 253.953 106.818H254.021V108H255.362V102.25C255.362 99.4773 253.248 99.1591 252.134 99.1591C250.816 99.1591 249.316 99.6136 248.634 101.205L249.907 101.659C250.203 101.023 250.901 100.341 252.18 100.341C253.413 100.341 254.021 100.994 254.021 102.114V102.159C254.021 102.807 253.362 102.75 251.771 102.955C250.151 103.165 248.384 103.523 248.384 105.523C248.384 107.227 249.703 108.205 251.362 108.205ZM251.566 107C250.498 107 249.725 106.523 249.725 105.591C249.725 104.568 250.657 104.25 251.703 104.114C252.271 104.045 253.794 103.886 254.021 103.614V104.841C254.021 105.932 253.157 107 251.566 107ZM261.515 108.182C263.446 108.182 264.719 107 264.946 105.455H263.606C263.356 106.409 262.56 106.977 261.515 106.977C259.924 106.977 258.901 105.659 258.901 103.636C258.901 101.659 259.946 100.364 261.515 100.364C262.696 100.364 263.401 101.091 263.606 101.886H264.946C264.719 100.25 263.333 99.1591 261.492 99.1591C259.128 99.1591 257.56 101.023 257.56 103.682C257.56 106.295 259.06 108.182 261.515 108.182ZM270.862 99.2727H268.998V97.1818H267.658V99.2727H266.339V100.409H267.658V105.864C267.658 107.386 268.885 108.114 270.021 108.114C270.521 108.114 270.839 108.023 271.021 107.955L270.748 106.75C270.635 106.773 270.453 106.818 270.158 106.818C269.567 106.818 268.998 106.636 268.998 105.5V100.409H270.862V99.2727ZM276.604 108.182C278.377 108.182 279.673 107.295 280.082 105.977L278.786 105.614C278.445 106.523 277.656 106.977 276.604 106.977C275.031 106.977 273.945 105.96 273.883 104.091H280.218V103.523C280.218 100.273 278.286 99.1591 276.468 99.1591C274.104 99.1591 272.536 101.023 272.536 103.705C272.536 106.386 274.082 108.182 276.604 108.182ZM273.883 102.932C273.974 101.574 274.934 100.364 276.468 100.364C277.923 100.364 278.854 101.455 278.854 102.932H273.883ZM282.418 108H283.759V102.477C283.759 101.295 284.691 100.432 285.963 100.432C286.321 100.432 286.691 100.5 286.782 100.523V99.1591C286.628 99.1477 286.276 99.1364 286.077 99.1364C285.032 99.1364 284.122 99.7273 283.804 100.591H283.713V99.2727H282.418V108ZM288.531 108H289.872V99.2727H288.531V108ZM289.213 97.8182C289.736 97.8182 290.167 97.4091 290.167 96.9091C290.167 96.4091 289.736 96 289.213 96C288.69 96 288.258 96.4091 288.258 96.9091C288.258 97.4091 288.69 97.8182 289.213 97.8182ZM295.056 108.205C296.579 108.205 297.374 107.386 297.647 106.818H297.715V108H299.056V102.25C299.056 99.4773 296.942 99.1591 295.829 99.1591C294.511 99.1591 293.011 99.6136 292.329 101.205L293.602 101.659C293.897 101.023 294.596 100.341 295.874 100.341C297.107 100.341 297.715 100.994 297.715 102.114V102.159C297.715 102.807 297.056 102.75 295.465 102.955C293.846 103.165 292.079 103.523 292.079 105.523C292.079 107.227 293.397 108.205 295.056 108.205ZM295.261 107C294.192 107 293.42 106.523 293.42 105.591C293.42 104.568 294.352 104.25 295.397 104.114C295.965 104.045 297.488 103.886 297.715 103.614V104.841C297.715 105.932 296.852 107 295.261 107ZM303.004 96.3636H301.664V108H303.004V96.3636ZM313.939 108.182C315.712 108.182 317.008 107.295 317.417 105.977L316.121 105.614C315.78 106.523 314.991 106.977 313.939 106.977C312.366 106.977 311.28 105.96 311.218 104.091H317.553V103.523C317.553 100.273 315.621 99.1591 313.803 99.1591C311.439 99.1591 309.871 101.023 309.871 103.705C309.871 106.386 311.417 108.182 313.939 108.182ZM311.218 102.932C311.309 101.574 312.269 100.364 313.803 100.364C315.258 100.364 316.189 101.455 316.189 102.932H311.218ZM320.519 99.2727H318.973L321.746 103.636L318.973 108H320.519L322.609 104.614L324.7 108H326.246L323.428 103.636L326.246 99.2727H324.7L322.609 102.841L320.519 99.2727ZM332.115 99.2727H330.251V97.1818H328.91V99.2727H327.592V100.409H328.91V105.864C328.91 107.386 330.137 108.114 331.274 108.114C331.774 108.114 332.092 108.023 332.274 107.955L332.001 106.75C331.887 106.773 331.706 106.818 331.41 106.818C330.819 106.818 330.251 106.636 330.251 105.5V100.409H332.115V99.2727ZM334.292 108H335.633V102.477C335.633 101.295 336.564 100.432 337.837 100.432C338.195 100.432 338.564 100.5 338.655 100.523V99.1591C338.502 99.1477 338.15 99.1364 337.951 99.1364C336.905 99.1364 335.996 99.7273 335.678 100.591H335.587V99.2727H334.292V108ZM342.973 108.205C344.496 108.205 345.291 107.386 345.564 106.818H345.632V108H346.973V102.25C346.973 99.4773 344.859 99.1591 343.746 99.1591C342.427 99.1591 340.927 99.6136 340.246 101.205L341.518 101.659C341.814 101.023 342.513 100.341 343.791 100.341C345.024 100.341 345.632 100.994 345.632 102.114V102.159C345.632 102.807 344.973 102.75 343.382 102.955C341.763 103.165 339.996 103.523 339.996 105.523C339.996 107.227 341.314 108.205 342.973 108.205ZM343.177 107C342.109 107 341.337 106.523 341.337 105.591C341.337 104.568 342.268 104.25 343.314 104.114C343.882 104.045 345.405 103.886 345.632 103.614V104.841C345.632 105.932 344.768 107 343.177 107ZM353.126 108.182C355.058 108.182 356.33 107 356.558 105.455H355.217C354.967 106.409 354.171 106.977 353.126 106.977C351.535 106.977 350.512 105.659 350.512 103.636C350.512 101.659 351.558 100.364 353.126 100.364C354.308 100.364 355.012 101.091 355.217 101.886H356.558C356.33 100.25 354.944 99.1591 353.103 99.1591C350.739 99.1591 349.171 101.023 349.171 103.682C349.171 106.295 350.671 108.182 353.126 108.182ZM362.473 99.2727H360.61V97.1818H359.269V99.2727H357.951V100.409H359.269V105.864C359.269 107.386 360.496 108.114 361.632 108.114C362.132 108.114 362.451 108.023 362.632 107.955L362.36 106.75C362.246 106.773 362.064 106.818 361.769 106.818C361.178 106.818 360.61 106.636 360.61 105.5V100.409H362.473V99.2727ZM364.65 108H365.991V99.2727H364.65V108ZM365.332 97.8182C365.855 97.8182 366.287 97.4091 366.287 96.9091C366.287 96.4091 365.855 96 365.332 96C364.809 96 364.378 96.4091 364.378 96.9091C364.378 97.4091 364.809 97.8182 365.332 97.8182ZM372.153 108.182C374.516 108.182 376.107 106.386 376.107 103.682C376.107 100.955 374.516 99.1591 372.153 99.1591C369.789 99.1591 368.198 100.955 368.198 103.682C368.198 106.386 369.789 108.182 372.153 108.182ZM372.153 106.977C370.357 106.977 369.539 105.432 369.539 103.682C369.539 101.932 370.357 100.364 372.153 100.364C373.948 100.364 374.766 101.932 374.766 103.682C374.766 105.432 373.948 106.977 372.153 106.977ZM379.655 102.75C379.655 101.227 380.598 100.364 381.882 100.364C383.127 100.364 383.882 101.176 383.882 102.545V108H385.223V102.455C385.223 100.227 384.036 99.1591 382.269 99.1591C380.951 99.1591 380.132 99.75 379.723 100.636H379.61V99.2727H378.314V108H379.655V102.75Z" fill="white"/>
<rect x="195" y="100" width="12" height="4" rx="2" fill="#5CC78D"/>
<rect x="195" y="156" width="12" height="4" rx="2" fill="#5CC78D"/>
<path d="M238.409 152.364V164H239.727V155.159H239.841L243.477 164H244.75L248.386 155.159H248.5V164H249.818V152.364H248.136L244.182 162.023H244.045L240.091 152.364H238.409ZM256.281 164.182C258.053 164.182 259.349 163.295 259.758 161.977L258.463 161.614C258.122 162.523 257.332 162.977 256.281 162.977C254.707 162.977 253.622 161.96 253.559 160.091H259.894V159.523C259.894 156.273 257.963 155.159 256.144 155.159C253.781 155.159 252.213 157.023 252.213 159.705C252.213 162.386 253.758 164.182 256.281 164.182ZM253.559 158.932C253.65 157.574 254.61 156.364 256.144 156.364C257.599 156.364 258.531 157.455 258.531 158.932H253.559ZM265.89 155.273H264.026V153.182H262.685V155.273H261.367V156.409H262.685V161.864C262.685 163.386 263.912 164.114 265.049 164.114C265.549 164.114 265.867 164.023 266.049 163.955L265.776 162.75C265.662 162.773 265.481 162.818 265.185 162.818C264.594 162.818 264.026 162.636 264.026 161.5V156.409H265.89V155.273ZM270.635 164.205C272.158 164.205 272.953 163.386 273.226 162.818H273.294V164H274.635V158.25C274.635 155.477 272.521 155.159 271.408 155.159C270.089 155.159 268.589 155.614 267.908 157.205L269.18 157.659C269.476 157.023 270.175 156.341 271.453 156.341C272.686 156.341 273.294 156.994 273.294 158.114V158.159C273.294 158.807 272.635 158.75 271.044 158.955C269.425 159.165 267.658 159.523 267.658 161.523C267.658 163.227 268.976 164.205 270.635 164.205ZM270.839 163C269.771 163 268.998 162.523 268.998 161.591C268.998 160.568 269.93 160.25 270.976 160.114C271.544 160.045 273.067 159.886 273.294 159.614V160.841C273.294 161.932 272.43 163 270.839 163ZM277.424 164H278.72V162.659H278.879C279.174 163.136 279.742 164.182 281.424 164.182C283.606 164.182 285.129 162.432 285.129 159.659C285.129 156.909 283.606 155.159 281.401 155.159C279.697 155.159 279.174 156.205 278.879 156.659H278.765V152.364H277.424V164ZM278.742 159.636C278.742 157.682 279.606 156.364 281.242 156.364C282.947 156.364 283.788 157.795 283.788 159.636C283.788 161.5 282.924 162.977 281.242 162.977C279.629 162.977 278.742 161.614 278.742 159.636ZM290.885 164.182C293.249 164.182 294.84 162.386 294.84 159.682C294.84 156.955 293.249 155.159 290.885 155.159C288.522 155.159 286.931 156.955 286.931 159.682C286.931 162.386 288.522 164.182 290.885 164.182ZM290.885 162.977C289.09 162.977 288.272 161.432 288.272 159.682C288.272 157.932 289.09 156.364 290.885 156.364C292.681 156.364 293.499 157.932 293.499 159.682C293.499 161.432 292.681 162.977 290.885 162.977ZM298.388 152.364H297.047V164H298.388V152.364ZM301.004 164H302.344V155.273H301.004V164ZM301.685 153.818C302.208 153.818 302.64 153.409 302.64 152.909C302.64 152.409 302.208 152 301.685 152C301.163 152 300.731 152.409 300.731 152.909C300.731 153.409 301.163 153.818 301.685 153.818ZM308.506 164.182C310.438 164.182 311.71 163 311.938 161.455H310.597C310.347 162.409 309.551 162.977 308.506 162.977C306.915 162.977 305.892 161.659 305.892 159.636C305.892 157.659 306.938 156.364 308.506 156.364C309.688 156.364 310.392 157.091 310.597 157.886H311.938C311.71 156.25 310.324 155.159 308.483 155.159C306.119 155.159 304.551 157.023 304.551 159.682C304.551 162.295 306.051 164.182 308.506 164.182ZM321.286 164.205C322.809 164.205 323.604 163.386 323.877 162.818H323.945V164H325.286V158.25C325.286 155.477 323.172 155.159 322.059 155.159C320.741 155.159 319.241 155.614 318.559 157.205L319.832 157.659C320.127 157.023 320.826 156.341 322.104 156.341C323.337 156.341 323.945 156.994 323.945 158.114V158.159C323.945 158.807 323.286 158.75 321.695 158.955C320.076 159.165 318.309 159.523 318.309 161.523C318.309 163.227 319.627 164.205 321.286 164.205ZM321.491 163C320.422 163 319.65 162.523 319.65 161.591C319.65 160.568 320.582 160.25 321.627 160.114C322.195 160.045 323.718 159.886 323.945 159.614V160.841C323.945 161.932 323.082 163 321.491 163ZM331.439 164.182C333.371 164.182 334.644 163 334.871 161.455H333.53C333.28 162.409 332.484 162.977 331.439 162.977C329.848 162.977 328.825 161.659 328.825 159.636C328.825 157.659 329.871 156.364 331.439 156.364C332.621 156.364 333.325 157.091 333.53 157.886H334.871C334.644 156.25 333.257 155.159 331.416 155.159C329.053 155.159 327.484 157.023 327.484 159.682C327.484 162.295 328.984 164.182 331.439 164.182ZM340.786 155.273H338.923V153.182H337.582V155.273H336.264V156.409H337.582V161.864C337.582 163.386 338.809 164.114 339.946 164.114C340.446 164.114 340.764 164.023 340.946 163.955L340.673 162.75C340.559 162.773 340.377 162.818 340.082 162.818C339.491 162.818 338.923 162.636 338.923 161.5V156.409H340.786V155.273ZM342.964 164H344.304V155.273H342.964V164ZM343.645 153.818C344.168 153.818 344.6 153.409 344.6 152.909C344.6 152.409 344.168 152 343.645 152C343.123 152 342.691 152.409 342.691 152.909C342.691 153.409 343.123 153.818 343.645 153.818ZM354.057 155.273H352.602L350.193 162.227H350.102L347.693 155.273H346.239L349.466 164H350.829L354.057 155.273ZM358.289 164.205C359.812 164.205 360.607 163.386 360.88 162.818H360.948V164H362.289V158.25C362.289 155.477 360.176 155.159 359.062 155.159C357.744 155.159 356.244 155.614 355.562 157.205L356.835 157.659C357.13 157.023 357.829 156.341 359.107 156.341C360.34 156.341 360.948 156.994 360.948 158.114V158.159C360.948 158.807 360.289 158.75 358.698 158.955C357.079 159.165 355.312 159.523 355.312 161.523C355.312 163.227 356.63 164.205 358.289 164.205ZM358.494 163C357.426 163 356.653 162.523 356.653 161.591C356.653 160.568 357.585 160.25 358.63 160.114C359.198 160.045 360.721 159.886 360.948 159.614V160.841C360.948 161.932 360.085 163 358.494 163ZM368.692 155.273H366.828V153.182H365.488V155.273H364.169V156.409H365.488V161.864C365.488 163.386 366.715 164.114 367.851 164.114C368.351 164.114 368.669 164.023 368.851 163.955L368.578 162.75C368.465 162.773 368.283 162.818 367.988 162.818C367.397 162.818 366.828 162.636 366.828 161.5V156.409H368.692V155.273ZM370.869 164H372.21V155.273H370.869V164ZM371.551 153.818C372.074 153.818 372.506 153.409 372.506 152.909C372.506 152.409 372.074 152 371.551 152C371.028 152 370.596 152.409 370.596 152.909C370.596 153.409 371.028 153.818 371.551 153.818ZM378.371 164.182C380.735 164.182 382.326 162.386 382.326 159.682C382.326 156.955 380.735 155.159 378.371 155.159C376.008 155.159 374.417 156.955 374.417 159.682C374.417 162.386 376.008 164.182 378.371 164.182ZM378.371 162.977C376.576 162.977 375.758 161.432 375.758 159.682C375.758 157.932 376.576 156.364 378.371 156.364C380.167 156.364 380.985 157.932 380.985 159.682C380.985 161.432 380.167 162.977 378.371 162.977ZM385.874 158.75C385.874 157.227 386.817 156.364 388.101 156.364C389.345 156.364 390.101 157.176 390.101 158.545V164H391.442V158.455C391.442 156.227 390.254 155.159 388.487 155.159C387.169 155.159 386.351 155.75 385.942 156.636H385.828V155.273H384.533V164H385.874V158.75Z" fill="white"/>
<rect x="195" y="212" width="12" height="4" rx="2" fill="#5CC78D"/>
<path d="M246.364 212H247.818C247.386 209.75 245.5 208.205 243.045 208.205C240.062 208.205 237.955 210.5 237.955 214.182C237.955 217.864 240.045 220.159 243.136 220.159C245.909 220.159 247.886 218.312 247.886 215.432V214.182H243.455V215.432H246.523C246.483 217.523 245.108 218.841 243.136 218.841C240.977 218.841 239.318 217.205 239.318 214.182C239.318 211.159 240.977 209.523 243.045 209.523C244.727 209.523 245.869 210.472 246.364 212ZM250.278 220H251.619V214.477C251.619 213.295 252.551 212.432 253.823 212.432C254.181 212.432 254.551 212.5 254.642 212.523V211.159C254.488 211.148 254.136 211.136 253.937 211.136C252.892 211.136 251.982 211.727 251.664 212.591H251.573V211.273H250.278V220ZM259.671 220.182C262.034 220.182 263.625 218.386 263.625 215.682C263.625 212.955 262.034 211.159 259.671 211.159C257.307 211.159 255.716 212.955 255.716 215.682C255.716 218.386 257.307 220.182 259.671 220.182ZM259.671 218.977C257.875 218.977 257.057 217.432 257.057 215.682C257.057 213.932 257.875 212.364 259.671 212.364C261.466 212.364 262.284 213.932 262.284 215.682C262.284 217.432 261.466 218.977 259.671 218.977ZM267.513 220H268.831L270.74 213.295H270.876L272.785 220H274.104L276.763 211.273H275.354L273.467 217.932H273.376L271.535 211.273H270.104L268.24 217.955H268.149L266.263 211.273H264.854L267.513 220ZM282.491 211.273H280.627V209.182H279.286V211.273H277.968V212.409H279.286V217.864C279.286 219.386 280.514 220.114 281.65 220.114C282.15 220.114 282.468 220.023 282.65 219.955L282.377 218.75C282.264 218.773 282.082 218.818 281.786 218.818C281.195 218.818 280.627 218.636 280.627 217.5V212.409H282.491V211.273ZM286.196 214.75C286.196 213.227 287.168 212.364 288.492 212.364C289.753 212.364 290.514 213.159 290.514 214.545V220H291.855V214.455C291.855 212.21 290.662 211.159 288.878 211.159C287.503 211.159 286.719 211.733 286.31 212.636H286.196V208.364H284.855V220H286.196V214.75ZM299.129 223.273H300.469V218.659H300.583C300.879 219.136 301.447 220.182 303.129 220.182C305.31 220.182 306.833 218.432 306.833 215.659C306.833 212.909 305.31 211.159 303.106 211.159C301.401 211.159 300.879 212.205 300.583 212.659H300.424V211.273H299.129V223.273ZM300.447 215.636C300.447 213.682 301.31 212.364 302.947 212.364C304.651 212.364 305.492 213.795 305.492 215.636C305.492 217.5 304.629 218.977 302.947 218.977C301.333 218.977 300.447 217.614 300.447 215.636ZM309.039 220H310.379V214.477C310.379 213.295 311.311 212.432 312.584 212.432C312.942 212.432 313.311 212.5 313.402 212.523V211.159C313.249 211.148 312.896 211.136 312.698 211.136C311.652 211.136 310.743 211.727 310.425 212.591H310.334V211.273H309.039V220ZM318.431 220.182C320.795 220.182 322.386 218.386 322.386 215.682C322.386 212.955 320.795 211.159 318.431 211.159C316.068 211.159 314.477 212.955 314.477 215.682C314.477 218.386 316.068 220.182 318.431 220.182ZM318.431 218.977C316.636 218.977 315.818 217.432 315.818 215.682C315.818 213.932 316.636 212.364 318.431 212.364C320.227 212.364 321.045 213.932 321.045 215.682C321.045 217.432 320.227 218.977 318.431 218.977ZM324.593 220H325.934V214.545C325.934 213.267 326.866 212.364 327.911 212.364C328.928 212.364 329.638 213.028 329.638 214.023V220H331.002V214.318C331.002 213.193 331.707 212.364 332.934 212.364C333.888 212.364 334.707 212.869 334.707 214.159V220H336.047V214.159C336.047 212.108 334.945 211.159 333.388 211.159C332.138 211.159 331.224 211.733 330.775 212.636H330.684C330.252 211.705 329.491 211.159 328.343 211.159C327.207 211.159 326.366 211.705 326.002 212.636H325.888V211.273H324.593V220ZM342.205 220.182C344.568 220.182 346.159 218.386 346.159 215.682C346.159 212.955 344.568 211.159 342.205 211.159C339.841 211.159 338.25 212.955 338.25 215.682C338.25 218.386 339.841 220.182 342.205 220.182ZM342.205 218.977C340.409 218.977 339.591 217.432 339.591 215.682C339.591 213.932 340.409 212.364 342.205 212.364C344 212.364 344.818 213.932 344.818 215.682C344.818 217.432 344 218.977 342.205 218.977ZM352.161 211.273H350.298V209.182H348.957V211.273H347.639V212.409H348.957V217.864C348.957 219.386 350.184 220.114 351.321 220.114C351.821 220.114 352.139 220.023 352.321 219.955L352.048 218.75C351.934 218.773 351.752 218.818 351.457 218.818C350.866 218.818 350.298 218.636 350.298 217.5V212.409H352.161V211.273ZM354.339 220H355.679V211.273H354.339V220ZM355.02 209.818C355.543 209.818 355.975 209.409 355.975 208.909C355.975 208.409 355.543 208 355.02 208C354.498 208 354.066 208.409 354.066 208.909C354.066 209.409 354.498 209.818 355.02 209.818ZM361.841 220.182C364.204 220.182 365.795 218.386 365.795 215.682C365.795 212.955 364.204 211.159 361.841 211.159C359.477 211.159 357.886 212.955 357.886 215.682C357.886 218.386 359.477 220.182 361.841 220.182ZM361.841 218.977C360.045 218.977 359.227 217.432 359.227 215.682C359.227 213.932 360.045 212.364 361.841 212.364C363.636 212.364 364.454 213.932 364.454 215.682C364.454 217.432 363.636 218.977 361.841 218.977ZM369.343 214.75C369.343 213.227 370.286 212.364 371.57 212.364C372.815 212.364 373.57 213.176 373.57 214.545V220H374.911V214.455C374.911 212.227 373.724 211.159 371.957 211.159C370.639 211.159 369.82 211.75 369.411 212.636H369.298V211.273H368.002V220H369.343V214.75Z" fill="white"/>
<rect x="195" y="268" width="12" height="4" rx="2" fill="#5CC78D"/>
<path d="M238.409 276H239.818V270.795H244.864V269.545H239.818V265.614H245.386V264.364H238.409V276ZM249.119 264.364H247.778V276H249.119V264.364ZM257.235 272.432C257.235 274.068 255.985 274.818 254.985 274.818C253.871 274.818 253.076 274 253.076 272.727V267.273H251.735V272.818C251.735 275.045 252.917 276.114 254.553 276.114C255.871 276.114 256.735 275.409 257.144 274.523H257.235V276H258.576V267.273H257.235V272.432ZM264.737 276.182C267.101 276.182 268.692 274.386 268.692 271.682C268.692 268.955 267.101 267.159 264.737 267.159C262.373 267.159 260.783 268.955 260.783 271.682C260.783 274.386 262.373 276.182 264.737 276.182ZM264.737 274.977C262.942 274.977 262.123 273.432 262.123 271.682C262.123 269.932 262.942 268.364 264.737 268.364C266.533 268.364 267.351 269.932 267.351 271.682C267.351 273.432 266.533 274.977 264.737 274.977ZM270.899 276H272.239V270.477C272.239 269.295 273.171 268.432 274.444 268.432C274.802 268.432 275.171 268.5 275.262 268.523V267.159C275.109 267.148 274.756 267.136 274.558 267.136C273.512 267.136 272.603 267.727 272.285 268.591H272.194V267.273H270.899V276ZM280.405 276.182C282.178 276.182 283.473 275.295 283.882 273.977L282.587 273.614C282.246 274.523 281.456 274.977 280.405 274.977C278.831 274.977 277.746 273.96 277.684 272.091H284.019V271.523C284.019 268.273 282.087 267.159 280.269 267.159C277.905 267.159 276.337 269.023 276.337 271.705C276.337 274.386 277.882 276.182 280.405 276.182ZM277.684 270.932C277.774 269.574 278.735 268.364 280.269 268.364C281.723 268.364 282.655 269.455 282.655 270.932H277.684ZM292.4 269.227C291.98 267.989 291.037 267.159 289.309 267.159C287.469 267.159 286.105 268.205 286.105 269.682C286.105 270.886 286.821 271.693 288.423 272.068L289.878 272.409C290.758 272.614 291.173 273.034 291.173 273.636C291.173 274.386 290.378 275 289.128 275C288.031 275 287.344 274.528 287.105 273.591L285.832 273.909C286.145 275.392 287.366 276.182 289.15 276.182C291.179 276.182 292.559 275.074 292.559 273.568C292.559 272.352 291.798 271.585 290.241 271.205L288.946 270.886C287.912 270.631 287.446 270.284 287.446 269.614C287.446 268.864 288.241 268.318 289.309 268.318C290.48 268.318 290.963 268.966 291.196 269.568L292.4 269.227ZM298.283 276.182C300.215 276.182 301.488 275 301.715 273.455H300.374C300.124 274.409 299.329 274.977 298.283 274.977C296.692 274.977 295.67 273.659 295.67 271.636C295.67 269.659 296.715 268.364 298.283 268.364C299.465 268.364 300.17 269.091 300.374 269.886H301.715C301.488 268.25 300.102 267.159 298.261 267.159C295.897 267.159 294.329 269.023 294.329 271.682C294.329 274.295 295.829 276.182 298.283 276.182ZM307.494 276.182C309.267 276.182 310.563 275.295 310.972 273.977L309.676 273.614C309.335 274.523 308.546 274.977 307.494 274.977C305.921 274.977 304.835 273.96 304.773 272.091H311.108V271.523C311.108 268.273 309.176 267.159 307.358 267.159C304.994 267.159 303.426 269.023 303.426 271.705C303.426 274.386 304.972 276.182 307.494 276.182ZM304.773 270.932C304.864 269.574 305.824 268.364 307.358 268.364C308.813 268.364 309.744 269.455 309.744 270.932H304.773ZM314.649 270.75C314.649 269.227 315.592 268.364 316.876 268.364C318.12 268.364 318.876 269.176 318.876 270.545V276H320.217V270.455C320.217 268.227 319.029 267.159 317.262 267.159C315.944 267.159 315.126 267.75 314.717 268.636H314.603V267.273H313.308V276H314.649V270.75ZM326.623 267.273H324.759V265.182H323.418V267.273H322.1V268.409H323.418V273.864C323.418 275.386 324.645 276.114 325.782 276.114C326.282 276.114 326.6 276.023 326.782 275.955L326.509 274.75C326.395 274.773 326.214 274.818 325.918 274.818C325.327 274.818 324.759 274.636 324.759 273.5V268.409H326.623V267.273ZM339.642 269.227C339.221 267.989 338.278 267.159 336.551 267.159C334.71 267.159 333.346 268.205 333.346 269.682C333.346 270.886 334.062 271.693 335.664 272.068L337.119 272.409C338 272.614 338.414 273.034 338.414 273.636C338.414 274.386 337.619 275 336.369 275C335.272 275 334.585 274.528 334.346 273.591L333.073 273.909C333.386 275.392 334.607 276.182 336.392 276.182C338.42 276.182 339.801 275.074 339.801 273.568C339.801 272.352 339.039 271.585 337.482 271.205L336.187 270.886C335.153 270.631 334.687 270.284 334.687 269.614C334.687 268.864 335.482 268.318 336.551 268.318C337.721 268.318 338.204 268.966 338.437 269.568L339.642 269.227ZM345.775 267.273H343.911V265.182H342.57V267.273H341.252V268.409H342.57V273.864C342.57 275.386 343.797 276.114 344.934 276.114C345.434 276.114 345.752 276.023 345.934 275.955L345.661 274.75C345.547 274.773 345.366 274.818 345.07 274.818C344.479 274.818 343.911 274.636 343.911 273.5V268.409H345.775V267.273ZM350.52 276.205C352.043 276.205 352.838 275.386 353.111 274.818H353.179V276H354.52V270.25C354.52 267.477 352.406 267.159 351.293 267.159C349.974 267.159 348.474 267.614 347.793 269.205L349.065 269.659C349.361 269.023 350.06 268.341 351.338 268.341C352.571 268.341 353.179 268.994 353.179 270.114V270.159C353.179 270.807 352.52 270.75 350.929 270.955C349.31 271.165 347.543 271.523 347.543 273.523C347.543 275.227 348.861 276.205 350.52 276.205ZM350.724 275C349.656 275 348.883 274.523 348.883 273.591C348.883 272.568 349.815 272.25 350.861 272.114C351.429 272.045 352.952 271.886 353.179 271.614V272.841C353.179 273.932 352.315 275 350.724 275ZM357.127 276H358.468V267.273H357.127V276ZM357.809 265.818C358.332 265.818 358.764 265.409 358.764 264.909C358.764 264.409 358.332 264 357.809 264C357.286 264 356.855 264.409 356.855 264.909C356.855 265.409 357.286 265.818 357.809 265.818ZM362.425 270.75C362.425 269.227 363.368 268.364 364.652 268.364C365.897 268.364 366.652 269.176 366.652 270.545V276H367.993V270.455C367.993 268.227 366.806 267.159 365.039 267.159C363.721 267.159 362.902 267.75 362.493 268.636H362.38V267.273H361.084V276H362.425V270.75ZM370.604 276H371.944V267.273H370.604V276ZM371.285 265.818C371.808 265.818 372.24 265.409 372.24 264.909C372.24 264.409 371.808 264 371.285 264C370.763 264 370.331 264.409 370.331 264.909C370.331 265.409 370.763 265.818 371.285 265.818ZM375.901 270.75C375.901 269.227 376.844 268.364 378.129 268.364C379.373 268.364 380.129 269.176 380.129 270.545V276H381.469V270.455C381.469 268.227 380.282 267.159 378.515 267.159C377.197 267.159 376.379 267.75 375.969 268.636H375.856V267.273H374.56V276H375.901V270.75ZM387.602 279.455C389.693 279.455 391.375 278.5 391.375 276.25V267.273H390.08V268.659H389.943C389.648 268.205 389.102 267.159 387.398 267.159C385.193 267.159 383.671 268.909 383.671 271.591C383.671 274.318 385.262 275.864 387.375 275.864C389.08 275.864 389.625 274.864 389.921 274.386H390.034V276.159C390.034 277.614 389.012 278.273 387.602 278.273C386.017 278.273 385.46 277.438 385.102 276.955L384.034 277.705C384.58 278.619 385.654 279.455 387.602 279.455ZM387.557 274.659C385.875 274.659 385.012 273.386 385.012 271.568C385.012 269.795 385.852 268.364 387.557 268.364C389.193 268.364 390.057 269.682 390.057 271.568C390.057 273.5 389.171 274.659 387.557 274.659Z" fill="white"/>
<path d="M217.538 995.42H222.254C222.186 991.273 218.777 988.409 213.595 988.409C208.493 988.409 204.754 991.227 204.777 995.455C204.766 998.886 207.186 1000.85 211.118 1001.8L213.652 1002.43C216.186 1003.05 217.595 1003.77 217.607 1005.34C217.595 1007.05 215.982 1008.2 213.482 1008.2C210.925 1008.2 209.084 1007.02 208.925 1004.69H204.163C204.288 1009.73 207.891 1012.33 213.538 1012.33C219.22 1012.33 222.561 1009.61 222.572 1005.35C222.561 1001.48 219.641 999.42 215.595 998.511L213.504 998.011C211.482 997.545 209.788 996.795 209.822 995.125C209.822 993.625 211.152 992.523 213.561 992.523C215.913 992.523 217.357 993.591 217.538 995.42ZM233.678 1012.34C238.973 1012.34 242.268 1008.72 242.268 1003.34C242.268 997.932 238.973 994.318 233.678 994.318C228.382 994.318 225.087 997.932 225.087 1003.34C225.087 1008.72 228.382 1012.34 233.678 1012.34ZM233.7 1008.59C231.257 1008.59 230.007 1006.35 230.007 1003.31C230.007 1000.26 231.257 998.011 233.7 998.011C236.098 998.011 237.348 1000.26 237.348 1003.31C237.348 1006.35 236.098 1008.59 233.7 1008.59ZM254.803 994.545H251.337V993.375C251.337 992.193 251.814 991.5 253.234 991.5C253.814 991.5 254.405 991.625 254.791 991.75L255.643 988.114C255.041 987.932 253.712 987.636 252.223 987.636C248.939 987.636 246.496 989.489 246.496 993.284V994.545H244.03V998.182H246.496V1012H251.337V998.182H254.803V994.545ZM267.044 994.545H263.76V990.364H258.919V994.545H256.533V998.182H258.919V1007.27C258.896 1010.69 261.226 1012.39 264.737 1012.24C265.987 1012.19 266.874 1011.94 267.362 1011.78L266.601 1008.18C266.362 1008.23 265.851 1008.34 265.396 1008.34C264.43 1008.34 263.76 1007.98 263.76 1006.64V998.182H267.044V994.545ZM273.641 1012H278.754L281.754 1001.02H281.97L284.97 1012H290.095L294.834 994.545H289.947L287.288 1006.2H287.141L284.277 994.545H279.47L276.652 1006.27H276.493L273.788 994.545H268.891L273.641 1012ZM302.393 1012.33C304.973 1012.33 306.643 1011.2 307.496 1009.58H307.632V1012H312.223V1000.23C312.223 996.068 308.7 994.318 304.814 994.318C300.632 994.318 297.882 996.318 297.212 999.5L301.689 999.864C302.018 998.705 303.053 997.852 304.791 997.852C306.439 997.852 307.382 998.682 307.382 1000.11V1000.18C307.382 1001.31 306.189 1001.45 303.155 1001.75C299.7 1002.07 296.598 1003.23 296.598 1007.12C296.598 1010.58 299.064 1012.33 302.393 1012.33ZM303.78 1008.99C302.291 1008.99 301.223 1008.3 301.223 1006.97C301.223 1005.6 302.348 1004.93 304.053 1004.69C305.109 1004.55 306.837 1004.3 307.416 1003.91V1005.76C307.416 1007.59 305.905 1008.99 303.78 1008.99ZM315.979 1012H320.82V1002.12C320.82 999.977 322.388 998.5 324.524 998.5C325.195 998.5 326.115 998.614 326.57 998.761V994.466C326.138 994.364 325.536 994.295 325.047 994.295C323.092 994.295 321.49 995.432 320.854 997.591H320.672V994.545H315.979V1012ZM336.214 1012.34C340.533 1012.34 343.442 1010.24 344.124 1007L339.646 1006.7C339.158 1008.03 337.908 1008.73 336.294 1008.73C333.874 1008.73 332.339 1007.12 332.339 1004.52V1004.51H344.226V1003.18C344.226 997.25 340.635 994.318 336.021 994.318C330.885 994.318 327.555 997.966 327.555 1003.35C327.555 1008.89 330.839 1012.34 336.214 1012.34ZM332.339 1001.51C332.442 999.523 333.953 997.932 336.101 997.932C338.203 997.932 339.658 999.432 339.669 1001.51H332.339ZM367.507 995.42H372.223C372.155 991.273 368.746 988.409 363.564 988.409C358.462 988.409 354.723 991.227 354.746 995.455C354.734 998.886 357.155 1000.85 361.087 1001.8L363.621 1002.43C366.155 1003.05 367.564 1003.77 367.575 1005.34C367.564 1007.05 365.95 1008.2 363.45 1008.2C360.893 1008.2 359.053 1007.02 358.893 1004.69H354.132C354.257 1009.73 357.859 1012.33 363.507 1012.33C369.189 1012.33 372.53 1009.61 372.541 1005.35C372.53 1001.48 369.609 999.42 365.564 998.511L363.473 998.011C361.45 997.545 359.757 996.795 359.791 995.125C359.791 993.625 361.121 992.523 363.53 992.523C365.882 992.523 367.325 993.591 367.507 995.42ZM378.749 1018.51C382.351 1018.51 384.271 1016.68 385.249 1013.89L392.033 994.568L386.908 994.545L383.26 1007.36H383.078L379.464 994.545H374.374L380.635 1012.5L380.351 1013.24C379.669 1014.82 378.499 1014.93 376.794 1014.4L375.703 1018.02C376.396 1018.31 377.521 1018.51 378.749 1018.51ZM409.033 999.523C408.601 996.307 406.01 994.318 401.601 994.318C397.135 994.318 394.192 996.386 394.203 999.75C394.192 1002.36 395.839 1004.06 399.249 1004.74L402.271 1005.34C403.794 1005.65 404.487 1006.2 404.51 1007.08C404.487 1008.11 403.362 1008.85 401.669 1008.85C399.942 1008.85 398.794 1008.11 398.499 1006.69L393.737 1006.94C394.192 1010.28 397.033 1012.34 401.658 1012.34C406.18 1012.34 409.419 1010.03 409.43 1006.59C409.419 1004.07 407.771 1002.56 404.385 1001.86L401.226 1001.23C399.601 1000.88 398.999 1000.32 399.01 999.477C398.999 998.432 400.18 997.75 401.68 997.75C403.362 997.75 404.362 998.67 404.601 999.795L409.033 999.523ZM421.763 994.545H418.479V990.364H413.638V994.545H411.251V998.182H413.638V1007.27C413.615 1010.69 415.945 1012.39 419.456 1012.24C420.706 1012.19 421.592 1011.94 422.081 1011.78L421.32 1008.18C421.081 1008.23 420.57 1008.34 420.115 1008.34C419.149 1008.34 418.479 1007.98 418.479 1006.64V998.182H421.763V994.545ZM432.683 1012.34C437.001 1012.34 439.911 1010.24 440.592 1007L436.115 1006.7C435.626 1008.03 434.376 1008.73 432.763 1008.73C430.342 1008.73 428.808 1007.12 428.808 1004.52V1004.51H440.695V1003.18C440.695 997.25 437.104 994.318 432.49 994.318C427.354 994.318 424.024 997.966 424.024 1003.35C424.024 1008.89 427.308 1012.34 432.683 1012.34ZM428.808 1001.51C428.911 999.523 430.422 997.932 432.57 997.932C434.672 997.932 436.126 999.432 436.138 1001.51H428.808ZM443.854 1012H448.695V1001.52C448.695 999.591 449.922 998.307 451.536 998.307C453.126 998.307 454.195 999.398 454.195 1001.11V1012H458.888V1001.34C458.888 999.534 459.922 998.307 461.683 998.307C463.229 998.307 464.388 999.273 464.388 1001.22V1012H469.217V1000.26C469.217 996.477 466.967 994.318 463.717 994.318C461.161 994.318 459.172 995.625 458.456 997.625H458.274C457.717 995.602 455.933 994.318 453.536 994.318C451.183 994.318 449.399 995.568 448.672 997.625H448.467V994.545H443.854V1012Z" fill="#0EBDF1"/>
<rect x="195" y="1224" width="12" height="4" rx="2" fill="#0EBDF1"/>
<path d="M238.409 1232H239.818V1227.45H242.364C242.466 1227.45 242.562 1227.45 242.659 1227.45L245.114 1232H246.75L244.119 1227.19C245.602 1226.69 246.295 1225.48 246.295 1223.93C246.295 1221.88 245.068 1220.36 242.341 1220.36H238.409V1232ZM239.818 1226.18V1221.61H242.295C244.182 1221.61 244.909 1222.53 244.909 1223.93C244.909 1225.33 244.182 1226.18 242.318 1226.18H239.818ZM252.187 1232.18C253.96 1232.18 255.255 1231.3 255.664 1229.98L254.369 1229.61C254.028 1230.52 253.238 1230.98 252.187 1230.98C250.613 1230.98 249.528 1229.96 249.465 1228.09H255.801V1227.52C255.801 1224.27 253.869 1223.16 252.051 1223.16C249.687 1223.16 248.119 1225.02 248.119 1227.7C248.119 1230.39 249.664 1232.18 252.187 1232.18ZM249.465 1226.93C249.556 1225.57 250.517 1224.36 252.051 1224.36C253.505 1224.36 254.437 1225.45 254.437 1226.93H249.465ZM258 1235.27H259.341V1230.66H259.455C259.75 1231.14 260.319 1232.18 262 1232.18C264.182 1232.18 265.705 1230.43 265.705 1227.66C265.705 1224.91 264.182 1223.16 261.978 1223.16C260.273 1223.16 259.75 1224.2 259.455 1224.66H259.296V1223.27H258V1235.27ZM259.319 1227.64C259.319 1225.68 260.182 1224.36 261.819 1224.36C263.523 1224.36 264.364 1225.8 264.364 1227.64C264.364 1229.5 263.5 1230.98 261.819 1230.98C260.205 1230.98 259.319 1229.61 259.319 1227.64ZM271.456 1232.18C273.819 1232.18 275.41 1230.39 275.41 1227.68C275.41 1224.95 273.819 1223.16 271.456 1223.16C269.092 1223.16 267.501 1224.95 267.501 1227.68C267.501 1230.39 269.092 1232.18 271.456 1232.18ZM271.456 1230.98C269.66 1230.98 268.842 1229.43 268.842 1227.68C268.842 1225.93 269.66 1224.36 271.456 1224.36C273.251 1224.36 274.069 1225.93 274.069 1227.68C274.069 1229.43 273.251 1230.98 271.456 1230.98ZM277.617 1232H278.958V1226.48C278.958 1225.3 279.89 1224.43 281.163 1224.43C281.521 1224.43 281.89 1224.5 281.981 1224.52V1223.16C281.827 1223.15 281.475 1223.14 281.276 1223.14C280.231 1223.14 279.322 1223.73 279.004 1224.59H278.913V1223.27H277.617V1232ZM288.073 1223.27H286.209V1221.18H284.868V1223.27H283.55V1224.41H284.868V1229.86C284.868 1231.39 286.095 1232.11 287.232 1232.11C287.732 1232.11 288.05 1232.02 288.232 1231.95L287.959 1230.75C287.845 1230.77 287.664 1230.82 287.368 1230.82C286.777 1230.82 286.209 1230.64 286.209 1229.5V1224.41H288.073V1223.27ZM290.25 1232H291.591V1223.27H290.25V1232ZM290.932 1221.82C291.454 1221.82 291.886 1221.41 291.886 1220.91C291.886 1220.41 291.454 1220 290.932 1220C290.409 1220 289.977 1220.41 289.977 1220.91C289.977 1221.41 290.409 1221.82 290.932 1221.82ZM295.548 1226.75C295.548 1225.23 296.491 1224.36 297.775 1224.36C299.019 1224.36 299.775 1225.18 299.775 1226.55V1232H301.116V1226.45C301.116 1224.23 299.928 1223.16 298.161 1223.16C296.843 1223.16 296.025 1223.75 295.616 1224.64H295.502V1223.27H294.207V1232H295.548V1226.75ZM307.249 1235.45C309.34 1235.45 311.021 1234.5 311.021 1232.25V1223.27H309.726V1224.66H309.59C309.294 1224.2 308.749 1223.16 307.044 1223.16C304.84 1223.16 303.317 1224.91 303.317 1227.59C303.317 1230.32 304.908 1231.86 307.021 1231.86C308.726 1231.86 309.271 1230.86 309.567 1230.39H309.681V1232.16C309.681 1233.61 308.658 1234.27 307.249 1234.27C305.664 1234.27 305.107 1233.44 304.749 1232.95L303.681 1233.7C304.226 1234.62 305.3 1235.45 307.249 1235.45ZM307.203 1230.66C305.521 1230.66 304.658 1229.39 304.658 1227.57C304.658 1225.8 305.499 1224.36 307.203 1224.36C308.84 1224.36 309.703 1225.68 309.703 1227.57C309.703 1229.5 308.817 1230.66 307.203 1230.66Z" fill="white"/>
<rect x="195" y="1168" width="12" height="4" rx="2" fill="#0EBDF1"/>
<path d="M246.364 1168H247.818C247.386 1165.75 245.5 1164.2 243.045 1164.2C240.062 1164.2 237.955 1166.5 237.955 1170.18C237.955 1173.86 240.045 1176.16 243.136 1176.16C245.909 1176.16 247.886 1174.31 247.886 1171.43V1170.18H243.455V1171.43H246.523C246.483 1173.52 245.108 1174.84 243.136 1174.84C240.977 1174.84 239.318 1173.2 239.318 1170.18C239.318 1167.16 240.977 1165.52 243.045 1165.52C244.727 1165.52 245.869 1166.47 246.364 1168ZM253.823 1176.18C256.187 1176.18 257.778 1174.39 257.778 1171.68C257.778 1168.95 256.187 1167.16 253.823 1167.16C251.46 1167.16 249.869 1168.95 249.869 1171.68C249.869 1174.39 251.46 1176.18 253.823 1176.18ZM253.823 1174.98C252.028 1174.98 251.21 1173.43 251.21 1171.68C251.21 1169.93 252.028 1168.36 253.823 1168.36C255.619 1168.36 256.437 1169.93 256.437 1171.68C256.437 1173.43 255.619 1174.98 253.823 1174.98ZM261.326 1164.36H259.985V1176H261.326V1164.36ZM267.237 1176.18C268.919 1176.18 269.487 1175.14 269.783 1174.66H269.942V1176H271.237V1164.36H269.896V1168.66H269.783C269.487 1168.2 268.964 1167.16 267.26 1167.16C265.055 1167.16 263.533 1168.91 263.533 1171.66C263.533 1174.43 265.055 1176.18 267.237 1176.18ZM267.419 1174.98C265.737 1174.98 264.873 1173.5 264.873 1171.64C264.873 1169.8 265.714 1168.36 267.419 1168.36C269.055 1168.36 269.919 1169.68 269.919 1171.64C269.919 1173.61 269.033 1174.98 267.419 1174.98ZM284.881 1169.23C284.461 1167.99 283.517 1167.16 281.79 1167.16C279.949 1167.16 278.586 1168.2 278.586 1169.68C278.586 1170.89 279.301 1171.69 280.904 1172.07L282.358 1172.41C283.239 1172.61 283.654 1173.03 283.654 1173.64C283.654 1174.39 282.858 1175 281.608 1175C280.512 1175 279.824 1174.53 279.586 1173.59L278.313 1173.91C278.625 1175.39 279.847 1176.18 281.631 1176.18C283.659 1176.18 285.04 1175.07 285.04 1173.57C285.04 1172.35 284.279 1171.59 282.722 1171.2L281.426 1170.89C280.392 1170.63 279.926 1170.28 279.926 1169.61C279.926 1168.86 280.722 1168.32 281.79 1168.32C282.961 1168.32 283.443 1168.97 283.676 1169.57L284.881 1169.23ZM291.014 1167.27H289.15V1165.18H287.809V1167.27H286.491V1168.41H287.809V1173.86C287.809 1175.39 289.037 1176.11 290.173 1176.11C290.673 1176.11 290.991 1176.02 291.173 1175.95L290.9 1174.75C290.787 1174.77 290.605 1174.82 290.309 1174.82C289.719 1174.82 289.15 1174.64 289.15 1173.5V1168.41H291.014V1167.27ZM295.759 1176.2C297.282 1176.2 298.077 1175.39 298.35 1174.82H298.418V1176H299.759V1170.25C299.759 1167.48 297.646 1167.16 296.532 1167.16C295.214 1167.16 293.714 1167.61 293.032 1169.2L294.305 1169.66C294.6 1169.02 295.299 1168.34 296.577 1168.34C297.81 1168.34 298.418 1168.99 298.418 1170.11V1170.16C298.418 1170.81 297.759 1170.75 296.168 1170.95C294.549 1171.16 292.782 1171.52 292.782 1173.52C292.782 1175.23 294.1 1176.2 295.759 1176.2ZM295.964 1175C294.896 1175 294.123 1174.52 294.123 1173.59C294.123 1172.57 295.055 1172.25 296.1 1172.11C296.668 1172.05 298.191 1171.89 298.418 1171.61V1172.84C298.418 1173.93 297.555 1175 295.964 1175ZM303.708 1170.75C303.708 1169.23 304.651 1168.36 305.935 1168.36C307.179 1168.36 307.935 1169.18 307.935 1170.55V1176H309.276V1170.45C309.276 1168.23 308.088 1167.16 306.321 1167.16C305.003 1167.16 304.185 1167.75 303.776 1168.64H303.662V1167.27H302.367V1176H303.708V1170.75ZM315.181 1176.18C316.863 1176.18 317.431 1175.14 317.727 1174.66H317.886V1176H319.181V1164.36H317.841V1168.66H317.727C317.431 1168.2 316.909 1167.16 315.204 1167.16C313 1167.16 311.477 1168.91 311.477 1171.66C311.477 1174.43 313 1176.18 315.181 1176.18ZM315.363 1174.98C313.681 1174.98 312.818 1173.5 312.818 1171.64C312.818 1169.8 313.659 1168.36 315.363 1168.36C317 1168.36 317.863 1169.68 317.863 1171.64C317.863 1173.61 316.977 1174.98 315.363 1174.98ZM324.552 1176.2C326.074 1176.2 326.87 1175.39 327.143 1174.82H327.211V1176H328.552V1170.25C328.552 1167.48 326.438 1167.16 325.324 1167.16C324.006 1167.16 322.506 1167.61 321.824 1169.2L323.097 1169.66C323.393 1169.02 324.091 1168.34 325.37 1168.34C326.603 1168.34 327.211 1168.99 327.211 1170.11V1170.16C327.211 1170.81 326.552 1170.75 324.961 1170.95C323.341 1171.16 321.574 1171.52 321.574 1173.52C321.574 1175.23 322.893 1176.2 324.552 1176.2ZM324.756 1175C323.688 1175 322.915 1174.52 322.915 1173.59C322.915 1172.57 323.847 1172.25 324.893 1172.11C325.461 1172.05 326.984 1171.89 327.211 1171.61V1172.84C327.211 1173.93 326.347 1175 324.756 1175ZM331.159 1176H332.5V1170.48C332.5 1169.3 333.432 1168.43 334.705 1168.43C335.063 1168.43 335.432 1168.5 335.523 1168.52V1167.16C335.369 1167.15 335.017 1167.14 334.818 1167.14C333.773 1167.14 332.864 1167.73 332.546 1168.59H332.455V1167.27H331.159V1176ZM340.302 1176.18C341.984 1176.18 342.552 1175.14 342.848 1174.66H343.007V1176H344.302V1164.36H342.961V1168.66H342.848C342.552 1168.2 342.029 1167.16 340.325 1167.16C338.12 1167.16 336.598 1168.91 336.598 1171.66C336.598 1174.43 338.12 1176.18 340.302 1176.18ZM340.484 1174.98C338.802 1174.98 337.938 1173.5 337.938 1171.64C337.938 1169.8 338.779 1168.36 340.484 1168.36C342.12 1168.36 342.984 1169.68 342.984 1171.64C342.984 1173.61 342.098 1174.98 340.484 1174.98ZM355.31 1176.18C357.241 1176.18 358.514 1175 358.741 1173.45H357.401C357.151 1174.41 356.355 1174.98 355.31 1174.98C353.719 1174.98 352.696 1173.66 352.696 1171.64C352.696 1169.66 353.741 1168.36 355.31 1168.36C356.491 1168.36 357.196 1169.09 357.401 1169.89H358.741C358.514 1168.25 357.128 1167.16 355.287 1167.16C352.923 1167.16 351.355 1169.02 351.355 1171.68C351.355 1174.3 352.855 1176.18 355.31 1176.18ZM364.407 1176.18C366.771 1176.18 368.362 1174.39 368.362 1171.68C368.362 1168.95 366.771 1167.16 364.407 1167.16C362.043 1167.16 360.453 1168.95 360.453 1171.68C360.453 1174.39 362.043 1176.18 364.407 1176.18ZM364.407 1174.98C362.612 1174.98 361.793 1173.43 361.793 1171.68C361.793 1169.93 362.612 1168.36 364.407 1168.36C366.203 1168.36 367.021 1169.93 367.021 1171.68C367.021 1173.43 366.203 1174.98 364.407 1174.98ZM370.569 1176H371.909V1170.48C371.909 1169.3 372.841 1168.43 374.114 1168.43C374.472 1168.43 374.841 1168.5 374.932 1168.52V1167.16C374.779 1167.15 374.426 1167.14 374.228 1167.14C373.182 1167.14 372.273 1167.73 371.955 1168.59H371.864V1167.27H370.569V1176ZM376.682 1176H378.023V1170.48C378.023 1169.3 378.954 1168.43 380.227 1168.43C380.585 1168.43 380.954 1168.5 381.045 1168.52V1167.16C380.892 1167.15 380.54 1167.14 380.341 1167.14C379.295 1167.14 378.386 1167.73 378.068 1168.59H377.977V1167.27H376.682V1176ZM386.188 1176.18C387.961 1176.18 389.256 1175.3 389.666 1173.98L388.37 1173.61C388.029 1174.52 387.239 1174.98 386.188 1174.98C384.614 1174.98 383.529 1173.96 383.467 1172.09H389.802V1171.52C389.802 1168.27 387.87 1167.16 386.052 1167.16C383.688 1167.16 382.12 1169.02 382.12 1171.7C382.12 1174.39 383.666 1176.18 386.188 1176.18ZM383.467 1170.93C383.558 1169.57 384.518 1168.36 386.052 1168.36C387.506 1168.36 388.438 1169.45 388.438 1170.93H383.467ZM393.343 1164.36H392.002V1176H393.343V1164.36ZM398.527 1176.2C400.049 1176.2 400.845 1175.39 401.118 1174.82H401.186V1176H402.527V1170.25C402.527 1167.48 400.413 1167.16 399.299 1167.16C397.981 1167.16 396.481 1167.61 395.799 1169.2L397.072 1169.66C397.368 1169.02 398.066 1168.34 399.345 1168.34C400.578 1168.34 401.186 1168.99 401.186 1170.11V1170.16C401.186 1170.81 400.527 1170.75 398.936 1170.95C397.316 1171.16 395.549 1171.52 395.549 1173.52C395.549 1175.23 396.868 1176.2 398.527 1176.2ZM398.731 1175C397.663 1175 396.89 1174.52 396.89 1173.59C396.89 1172.57 397.822 1172.25 398.868 1172.11C399.436 1172.05 400.959 1171.89 401.186 1171.61V1172.84C401.186 1173.93 400.322 1175 398.731 1175ZM408.93 1167.27H407.066V1165.18H405.725V1167.27H404.407V1168.41H405.725V1173.86C405.725 1175.39 406.952 1176.11 408.089 1176.11C408.589 1176.11 408.907 1176.02 409.089 1175.95L408.816 1174.75C408.702 1174.77 408.521 1174.82 408.225 1174.82C407.634 1174.82 407.066 1174.64 407.066 1173.5V1168.41H408.93V1167.27ZM411.107 1176H412.448V1167.27H411.107V1176ZM411.788 1165.82C412.311 1165.82 412.743 1165.41 412.743 1164.91C412.743 1164.41 412.311 1164 411.788 1164C411.266 1164 410.834 1164.41 410.834 1164.91C410.834 1165.41 411.266 1165.82 411.788 1165.82ZM418.609 1176.18C420.973 1176.18 422.564 1174.39 422.564 1171.68C422.564 1168.95 420.973 1167.16 418.609 1167.16C416.245 1167.16 414.654 1168.95 414.654 1171.68C414.654 1174.39 416.245 1176.18 418.609 1176.18ZM418.609 1174.98C416.814 1174.98 415.995 1173.43 415.995 1171.68C415.995 1169.93 416.814 1168.36 418.609 1168.36C420.404 1168.36 421.223 1169.93 421.223 1171.68C421.223 1173.43 420.404 1174.98 418.609 1174.98ZM426.111 1170.75C426.111 1169.23 427.054 1168.36 428.339 1168.36C429.583 1168.36 430.339 1169.18 430.339 1170.55V1176H431.679V1170.45C431.679 1168.23 430.492 1167.16 428.725 1167.16C427.407 1167.16 426.589 1167.75 426.179 1168.64H426.066V1167.27H424.77V1176H426.111V1170.75Z" fill="white"/>
<rect x="195" y="1112" width="12" height="4" rx="2" fill="#0EBDF1"/>
<path d="M238.886 1120L240.057 1116.7H244.761L245.932 1120H247.409L243.136 1108.36H241.682L237.409 1120H238.886ZM240.5 1115.45L242.364 1110.2H242.455L244.318 1115.45H240.5ZM250.541 1114.75C250.541 1113.23 251.484 1112.36 252.768 1112.36C254.012 1112.36 254.768 1113.18 254.768 1114.55V1120H256.109V1114.45C256.109 1112.23 254.921 1111.16 253.154 1111.16C251.836 1111.16 251.018 1111.75 250.609 1112.64H250.495V1111.27H249.2V1120H250.541V1114.75ZM261.287 1120.2C262.81 1120.2 263.606 1119.39 263.878 1118.82H263.946V1120H265.287V1114.25C265.287 1111.48 263.174 1111.16 262.06 1111.16C260.742 1111.16 259.242 1111.61 258.56 1113.2L259.833 1113.66C260.128 1113.02 260.827 1112.34 262.106 1112.34C263.338 1112.34 263.946 1112.99 263.946 1114.11V1114.16C263.946 1114.81 263.287 1114.75 261.696 1114.95C260.077 1115.16 258.31 1115.52 258.31 1117.52C258.31 1119.23 259.628 1120.2 261.287 1120.2ZM261.492 1119C260.424 1119 259.651 1118.52 259.651 1117.59C259.651 1116.57 260.583 1116.25 261.628 1116.11C262.196 1116.05 263.719 1115.89 263.946 1115.61V1116.84C263.946 1117.93 263.083 1119 261.492 1119ZM269.236 1108.36H267.895V1120H269.236V1108.36ZM272.715 1123.25C273.926 1123.25 274.783 1122.61 275.283 1121.27L278.999 1111.3L277.533 1111.27L275.124 1118.23H275.033L272.624 1111.27H271.17L274.397 1120.05L274.147 1120.73C273.67 1122.03 273.056 1122.16 272.079 1121.91L271.738 1123.09C271.874 1123.16 272.261 1123.25 272.715 1123.25ZM287.115 1113.23C286.695 1111.99 285.752 1111.16 284.024 1111.16C282.184 1111.16 280.82 1112.2 280.82 1113.68C280.82 1114.89 281.536 1115.69 283.138 1116.07L284.593 1116.41C285.473 1116.61 285.888 1117.03 285.888 1117.64C285.888 1118.39 285.093 1119 283.843 1119C282.746 1119 282.059 1118.53 281.82 1117.59L280.547 1117.91C280.86 1119.39 282.081 1120.18 283.865 1120.18C285.894 1120.18 287.274 1119.07 287.274 1117.57C287.274 1116.35 286.513 1115.59 284.956 1115.2L283.661 1114.89C282.627 1114.63 282.161 1114.28 282.161 1113.61C282.161 1112.86 282.956 1112.32 284.024 1112.32C285.195 1112.32 285.678 1112.97 285.911 1113.57L287.115 1113.23ZM289.453 1120H290.794V1111.27H289.453V1120ZM290.135 1109.82C290.657 1109.82 291.089 1109.41 291.089 1108.91C291.089 1108.41 290.657 1108 290.135 1108C289.612 1108 289.18 1108.41 289.18 1108.91C289.18 1109.41 289.612 1109.82 290.135 1109.82ZM299.592 1113.23C299.171 1111.99 298.228 1111.16 296.501 1111.16C294.66 1111.16 293.296 1112.2 293.296 1113.68C293.296 1114.89 294.012 1115.69 295.614 1116.07L297.069 1116.41C297.95 1116.61 298.364 1117.03 298.364 1117.64C298.364 1118.39 297.569 1119 296.319 1119C295.222 1119 294.535 1118.53 294.296 1117.59L293.023 1117.91C293.336 1119.39 294.557 1120.18 296.342 1120.18C298.37 1120.18 299.751 1119.07 299.751 1117.57C299.751 1116.35 298.989 1115.59 297.432 1115.2L296.137 1114.89C295.103 1114.63 294.637 1114.28 294.637 1113.61C294.637 1112.86 295.432 1112.32 296.501 1112.32C297.671 1112.32 298.154 1112.97 298.387 1113.57L299.592 1113.23Z" fill="white"/>
<rect x="195" y="1056" width="12" height="4" rx="2" fill="#0EBDF1"/>
<path d="M242 1064C245.545 1064 247.545 1061.8 247.545 1058.16C247.545 1054.55 245.545 1052.36 242.159 1052.36H238.409V1064H242ZM239.818 1062.75V1053.61H242.068C244.795 1053.61 246.182 1055.34 246.182 1058.16C246.182 1061 244.795 1062.75 241.909 1062.75H239.818ZM253.546 1064.18C255.319 1064.18 256.615 1063.3 257.024 1061.98L255.728 1061.61C255.387 1062.52 254.597 1062.98 253.546 1062.98C251.972 1062.98 250.887 1061.96 250.825 1060.09H257.16V1059.52C257.16 1056.27 255.228 1055.16 253.41 1055.16C251.046 1055.16 249.478 1057.02 249.478 1059.7C249.478 1062.39 251.024 1064.18 253.546 1064.18ZM250.825 1058.93C250.916 1057.57 251.876 1056.36 253.41 1056.36C254.865 1056.36 255.796 1057.45 255.796 1058.93H250.825ZM263.155 1055.27H261.292V1053.18H259.951V1055.27H258.632V1056.41H259.951V1061.86C259.951 1063.39 261.178 1064.11 262.314 1064.11C262.814 1064.11 263.132 1064.02 263.314 1063.95L263.042 1062.75C262.928 1062.77 262.746 1062.82 262.451 1062.82C261.86 1062.82 261.292 1062.64 261.292 1061.5V1056.41H263.155V1055.27ZM268.898 1064.18C270.67 1064.18 271.966 1063.3 272.375 1061.98L271.079 1061.61C270.739 1062.52 269.949 1062.98 268.898 1062.98C267.324 1062.98 266.239 1061.96 266.176 1060.09H272.511V1059.52C272.511 1056.27 270.579 1055.16 268.761 1055.16C266.398 1055.16 264.829 1057.02 264.829 1059.7C264.829 1062.39 266.375 1064.18 268.898 1064.18ZM266.176 1058.93C266.267 1057.57 267.227 1056.36 268.761 1056.36C270.216 1056.36 271.148 1057.45 271.148 1058.93H266.176ZM278.256 1064.18C280.188 1064.18 281.461 1063 281.688 1061.45H280.347C280.097 1062.41 279.302 1062.98 278.256 1062.98C276.666 1062.98 275.643 1061.66 275.643 1059.64C275.643 1057.66 276.688 1056.36 278.256 1056.36C279.438 1056.36 280.143 1057.09 280.347 1057.89H281.688C281.461 1056.25 280.075 1055.16 278.234 1055.16C275.87 1055.16 274.302 1057.02 274.302 1059.68C274.302 1062.3 275.802 1064.18 278.256 1064.18ZM287.604 1055.27H285.74V1053.18H284.399V1055.27H283.081V1056.41H284.399V1061.86C284.399 1063.39 285.627 1064.11 286.763 1064.11C287.263 1064.11 287.581 1064.02 287.763 1063.95L287.49 1062.75C287.377 1062.77 287.195 1062.82 286.899 1062.82C286.309 1062.82 285.74 1062.64 285.74 1061.5V1056.41H287.604V1055.27ZM289.781 1064H291.122V1055.27H289.781V1064ZM290.463 1053.82C290.986 1053.82 291.417 1053.41 291.417 1052.91C291.417 1052.41 290.986 1052 290.463 1052C289.94 1052 289.508 1052.41 289.508 1052.91C289.508 1053.41 289.94 1053.82 290.463 1053.82ZM297.283 1064.18C299.647 1064.18 301.238 1062.39 301.238 1059.68C301.238 1056.95 299.647 1055.16 297.283 1055.16C294.92 1055.16 293.329 1056.95 293.329 1059.68C293.329 1062.39 294.92 1064.18 297.283 1064.18ZM297.283 1062.98C295.488 1062.98 294.67 1061.43 294.67 1059.68C294.67 1057.93 295.488 1056.36 297.283 1056.36C299.079 1056.36 299.897 1057.93 299.897 1059.68C299.897 1061.43 299.079 1062.98 297.283 1062.98ZM304.786 1058.75C304.786 1057.23 305.729 1056.36 307.013 1056.36C308.257 1056.36 309.013 1057.18 309.013 1058.55V1064H310.354V1058.45C310.354 1056.23 309.166 1055.16 307.399 1055.16C306.081 1055.16 305.263 1055.75 304.854 1056.64H304.74V1055.27H303.445V1064H304.786V1058.75Z" fill="white"/>
<path d="M234.683 580.131H241.756C241.654 573.909 236.54 569.614 228.768 569.614C221.114 569.614 215.506 573.841 215.54 580.182C215.523 585.33 219.154 588.278 225.052 589.693L228.853 590.648C232.654 591.568 234.768 592.659 234.785 595.011C234.768 597.568 232.347 599.307 228.597 599.307C224.762 599.307 222.001 597.534 221.762 594.04H214.62C214.808 601.591 220.211 605.494 228.683 605.494C237.205 605.494 242.217 601.42 242.234 595.028C242.217 589.216 237.836 586.131 231.768 584.767L228.631 584.017C225.597 583.318 223.058 582.193 223.109 579.688C223.109 577.438 225.103 575.784 228.717 575.784C232.245 575.784 234.41 577.386 234.683 580.131ZM247.062 605H254.323V578.818H247.062V605ZM250.71 575.443C252.874 575.443 254.647 573.79 254.647 571.761C254.647 569.75 252.874 568.097 250.71 568.097C248.562 568.097 246.789 569.75 246.789 571.761C246.789 573.79 248.562 575.443 250.71 575.443ZM267.401 589.864C267.418 586.489 269.43 584.511 272.362 584.511C275.276 584.511 277.032 586.42 277.015 589.625V605H284.276V588.33C284.276 582.227 280.697 578.477 275.242 578.477C271.356 578.477 268.543 580.386 267.367 583.438H267.06V578.818H260.14V605H267.401V589.864ZM301.795 615.193C309.278 615.193 314.596 611.784 314.596 605.256V578.818H307.386V583.216H307.113C306.141 581.085 304.011 578.477 299.63 578.477C293.886 578.477 289.028 582.943 289.028 591.858C289.028 600.568 293.749 604.625 299.647 604.625C303.823 604.625 306.158 602.528 307.113 600.364H307.42V605.153C307.42 608.58 305.119 609.977 301.965 609.977C298.761 609.977 297.141 608.58 296.545 607.165L289.829 608.068C290.698 612.023 294.738 615.193 301.795 615.193ZM301.948 599.17C298.386 599.17 296.442 596.341 296.442 591.824C296.442 587.375 298.352 584.256 301.948 584.256C305.477 584.256 307.454 587.239 307.454 591.824C307.454 596.443 305.442 599.17 301.948 599.17ZM327.636 570.091H320.374V605H327.636V570.091ZM345.384 605.511C351.862 605.511 356.225 602.358 357.248 597.5L350.532 597.057C349.799 599.051 347.924 600.091 345.504 600.091C341.873 600.091 339.572 597.688 339.572 593.784V593.767H357.401V591.773C357.401 582.875 352.015 578.477 345.094 578.477C337.39 578.477 332.396 583.949 332.396 592.028C332.396 600.33 337.322 605.511 345.384 605.511ZM339.572 589.267C339.725 586.284 341.992 583.898 345.214 583.898C348.367 583.898 350.549 586.148 350.566 589.267H339.572ZM404.187 582.312C403.215 574.25 397.113 569.614 389.033 569.614C379.812 569.614 372.772 576.125 372.772 587.545C372.772 598.932 379.692 605.477 389.033 605.477C397.982 605.477 403.386 599.528 404.187 593.102L396.721 593.068C396.022 596.801 393.09 598.949 389.153 598.949C383.852 598.949 380.255 595.011 380.255 587.545C380.255 580.284 383.8 576.142 389.204 576.142C393.244 576.142 396.158 578.477 396.721 582.312H404.187ZM421.275 605.511C427.752 605.511 432.116 602.358 433.138 597.5L426.423 597.057C425.69 599.051 423.815 600.091 421.394 600.091C417.763 600.091 415.462 597.688 415.462 593.784V593.767H433.292V591.773C433.292 582.875 427.906 578.477 420.985 578.477C413.281 578.477 408.286 583.949 408.286 592.028C408.286 600.33 413.212 605.511 421.275 605.511ZM415.462 589.267C415.616 586.284 417.883 583.898 421.104 583.898C424.258 583.898 426.44 586.148 426.457 589.267H415.462ZM445.292 570.091H438.031V605H445.292V570.091ZM458.37 570.091H451.109V605H458.37V570.091Z" fill="white"/>
<path opacity="0.6" d="M261.629 649C261.058 645.787 258.433 643.307 254.717 643.307C250.311 643.307 247.175 646.81 247.175 652.273C247.175 657.736 250.311 661.239 254.717 661.239C258.433 661.239 261.058 658.75 261.629 655.545H260.027C259.541 657.94 257.453 659.739 254.717 659.739C251.411 659.739 248.717 657.122 248.717 652.273C248.717 647.44 251.411 644.807 254.717 644.807C257.453 644.807 259.541 646.614 260.027 649H261.629ZM270.146 661.273C273.538 661.273 275.907 658.503 275.907 654.514C275.907 650.5 273.538 647.73 270.146 647.73C266.754 647.73 264.384 650.5 264.384 654.514C264.384 658.503 266.754 661.273 270.146 661.273ZM270.146 659.884C267.427 659.884 265.91 657.446 265.91 654.514C265.91 651.582 267.427 649.111 270.146 649.111C272.864 649.111 274.381 651.582 274.381 654.514C274.381 657.446 272.864 659.884 270.146 659.884ZM279.237 661H280.754V652.614C280.754 650.577 282.109 649.128 283.925 649.128C285.714 649.128 286.754 650.321 286.754 652.094V661H288.305V652.384C288.305 650.5 289.43 649.128 291.425 649.128C293.155 649.128 294.305 650.168 294.305 652.23V661H295.822V652.23C295.822 649.298 294.314 647.739 291.885 647.739C289.976 647.739 288.595 648.668 288.007 650.116H287.896C287.317 648.634 286.166 647.739 284.359 647.739C282.646 647.739 281.368 648.565 280.848 649.92H280.712V647.909H279.237V661ZM299.813 665.909H301.339V658.571H301.475C301.995 659.773 303.12 661.273 305.498 661.273C308.702 661.273 310.884 658.545 310.884 654.489C310.884 650.449 308.711 647.73 305.472 647.73C303.069 647.73 302.004 649.23 301.475 650.406H301.288V647.909H299.813V665.909ZM301.313 654.463C301.313 651.327 302.754 649.111 305.31 649.111C307.944 649.111 309.359 651.446 309.359 654.463C309.359 657.514 307.918 659.884 305.31 659.884C302.779 659.884 301.313 657.625 301.313 654.463ZM322.524 655.997C322.524 658.401 320.717 659.696 318.945 659.696C317.053 659.696 315.723 658.341 315.723 656.295V647.909H314.206V656.389C314.206 659.491 315.996 661.17 318.51 661.17C320.428 661.17 321.791 660.173 322.405 658.827H322.524V661H324.041V647.909H322.524V655.997ZM333.214 647.909H330.444V644.773H328.918V647.909H326.967V649.23H328.918V657.94C328.918 660.08 330.606 661.196 332.285 661.196C332.915 661.196 333.342 661.077 333.631 660.966L333.308 659.594C333.094 659.653 332.822 659.713 332.421 659.713C331.39 659.713 330.444 659.227 330.444 657.582V649.23H333.214V647.909ZM341.811 661.273C344.436 661.273 346.2 659.849 346.797 658.205L345.357 657.736C344.854 658.912 343.669 659.884 341.811 659.884C339.135 659.884 337.439 657.932 337.371 654.906H347.121V654.156C347.121 649.784 344.419 647.73 341.581 647.73C338.189 647.73 335.845 650.568 335.845 654.531C335.845 658.503 338.146 661.273 341.811 661.273ZM337.379 653.568C337.541 651.131 339.186 649.111 341.581 649.111C343.925 649.111 345.57 651.045 345.57 653.568H337.379ZM350.464 661H351.981V652.545C351.981 650.602 353.472 649.196 355.518 649.196C355.918 649.196 356.293 649.264 356.43 649.281V647.739C356.225 647.73 355.876 647.713 355.629 647.713C353.984 647.713 352.577 648.599 352.049 649.92H351.938V647.909H350.464V661ZM375.902 647.909H374.257L370.371 658.997H370.251L366.365 647.909H364.72L369.501 661H371.121L375.902 647.909ZM378.887 661H380.413V647.909H378.887V661ZM379.663 645.659C380.285 645.659 380.805 645.165 380.805 644.568C380.805 643.972 380.285 643.477 379.663 643.477C379.04 643.477 378.529 643.972 378.529 644.568C378.529 645.165 379.04 645.659 379.663 645.659ZM393.22 650.781C392.581 648.889 391.183 647.73 388.788 647.73C386.146 647.73 384.229 649.239 384.229 651.395C384.229 653.151 385.294 654.344 387.57 654.889L389.709 655.401C391.149 655.741 391.839 656.483 391.839 657.531C391.839 658.895 390.536 659.909 388.524 659.909C386.734 659.909 385.618 659.099 385.251 657.548L383.794 657.906C384.254 660.088 385.984 661.273 388.55 661.273C391.43 661.273 393.408 659.688 393.408 657.463C393.408 655.716 392.308 654.548 390.118 654.011L388.141 653.526C386.513 653.116 385.754 652.46 385.754 651.327C385.754 649.997 387.024 649.068 388.788 649.068C390.553 649.068 391.422 649.997 391.831 651.173L393.22 650.781ZM396.746 661H398.272V647.909H396.746V661ZM397.522 645.659C398.144 645.659 398.664 645.165 398.664 644.568C398.664 643.972 398.144 643.477 397.522 643.477C396.9 643.477 396.388 643.972 396.388 644.568C396.388 645.165 396.9 645.659 397.522 645.659ZM407.372 661.273C410.764 661.273 413.134 658.503 413.134 654.514C413.134 650.5 410.764 647.73 407.372 647.73C403.98 647.73 401.611 650.5 401.611 654.514C401.611 658.503 403.98 661.273 407.372 661.273ZM407.372 659.884C404.653 659.884 403.136 657.446 403.136 654.514C403.136 651.582 404.653 649.111 407.372 649.111C410.091 649.111 411.608 651.582 411.608 654.514C411.608 657.446 410.091 659.884 407.372 659.884ZM417.981 652.818C417.981 650.534 419.481 649.128 421.543 649.128C423.555 649.128 424.85 650.474 424.85 652.614V661H426.367V652.52C426.367 649.418 424.569 647.739 421.927 647.739C420.009 647.739 418.688 648.625 418.075 649.963H417.938V647.909H416.464V661H417.981V652.818Z" fill="white"/>
<path opacity="0.6" d="M240.131 694.545V712H241.631V697.912H241.767L247.656 712H249.105L254.994 697.912H255.131V712H256.631V694.545H254.79L248.457 709.75H248.304L241.972 694.545H240.131ZM266.249 712.273C268.874 712.273 270.638 710.849 271.234 709.205L269.794 708.736C269.291 709.912 268.107 710.884 266.249 710.884C263.572 710.884 261.876 708.932 261.808 705.906H271.558V705.156C271.558 700.784 268.857 698.73 266.018 698.73C262.626 698.73 260.283 701.568 260.283 705.531C260.283 709.503 262.584 712.273 266.249 712.273ZM261.817 704.568C261.979 702.131 263.624 700.111 266.018 700.111C268.362 700.111 270.007 702.045 270.007 704.568H261.817ZM280.058 698.909H277.288V695.773H275.762V698.909H273.81V700.23H275.762V708.94C275.762 711.08 277.45 712.196 279.129 712.196C279.759 712.196 280.185 712.077 280.475 711.966L280.151 710.594C279.938 710.653 279.665 710.713 279.265 710.713C278.234 710.713 277.288 710.227 277.288 708.582V700.23H280.058V698.909ZM287.159 712.298C289.341 712.298 290.67 711.088 291.216 709.929H291.31V712H292.827V703.111C292.827 699.599 290.185 698.73 288.182 698.73C286.179 698.73 284.116 699.523 283.23 701.662L284.67 702.182C285.148 701.057 286.332 700.094 288.224 700.094C290.21 700.094 291.31 701.185 291.31 702.974V703.281C291.31 704.27 290.082 704.287 287.884 704.56C284.926 704.926 282.855 705.753 282.855 708.344C282.855 710.866 284.781 712.298 287.159 712.298ZM287.364 710.909C285.651 710.909 284.372 709.997 284.372 708.412C284.372 706.827 285.668 706.162 287.884 705.889C288.957 705.761 290.866 705.523 291.31 705.088V706.98C291.31 709.128 289.784 710.909 287.364 710.909ZM297.178 712H298.652V709.571H298.839C299.368 710.773 300.476 712.273 302.862 712.273C306.075 712.273 308.249 709.554 308.249 705.489C308.249 701.457 306.067 698.73 302.837 698.73C300.442 698.73 299.359 700.23 298.839 701.406H298.703V694.545H297.178V712ZM298.678 705.463C298.678 702.327 300.118 700.111 302.675 700.111C305.3 700.111 306.723 702.446 306.723 705.463C306.723 708.514 305.283 710.884 302.675 710.884C300.135 710.884 298.678 708.625 298.678 705.463ZM316.669 712.273C320.061 712.273 322.43 709.503 322.43 705.514C322.43 701.5 320.061 698.73 316.669 698.73C313.277 698.73 310.908 701.5 310.908 705.514C310.908 709.503 313.277 712.273 316.669 712.273ZM316.669 710.884C313.95 710.884 312.433 708.446 312.433 705.514C312.433 702.582 313.95 700.111 316.669 700.111C319.388 700.111 320.905 702.582 320.905 705.514C320.905 708.446 319.388 710.884 316.669 710.884ZM327.278 694.545H325.761V712H327.278V694.545ZM331.309 712H332.835V698.909H331.309V712ZM332.085 696.659C332.707 696.659 333.227 696.165 333.227 695.568C333.227 694.972 332.707 694.477 332.085 694.477C331.462 694.477 330.951 694.972 330.951 695.568C330.951 696.165 331.462 696.659 332.085 696.659ZM341.96 712.273C344.688 712.273 346.605 710.551 346.955 708.182H345.42C345.071 709.852 343.699 710.884 341.96 710.884C339.395 710.884 337.699 708.651 337.699 705.463C337.699 702.293 339.446 700.111 341.96 700.111C343.827 700.111 345.088 701.312 345.412 702.795H346.946C346.588 700.366 344.56 698.73 341.935 698.73C338.509 698.73 336.173 701.577 336.173 705.514C336.173 709.418 338.44 712.273 341.96 712.273ZM360.612 712.298C362.794 712.298 364.124 711.088 364.669 709.929H364.763V712H366.28V703.111C366.28 699.599 363.638 698.73 361.635 698.73C359.632 698.73 357.57 699.523 356.683 701.662L358.124 702.182C358.601 701.057 359.786 700.094 361.678 700.094C363.663 700.094 364.763 701.185 364.763 702.974V703.281C364.763 704.27 363.536 704.287 361.337 704.56C358.379 704.926 356.308 705.753 356.308 708.344C356.308 710.866 358.234 712.298 360.612 712.298ZM360.817 710.909C359.104 710.909 357.825 709.997 357.825 708.412C357.825 706.827 359.121 706.162 361.337 705.889C362.411 705.761 364.32 705.523 364.763 705.088V706.98C364.763 709.128 363.237 710.909 360.817 710.909ZM375.429 712.273C378.156 712.273 380.074 710.551 380.423 708.182H378.889C378.54 709.852 377.168 710.884 375.429 710.884C372.864 710.884 371.168 708.651 371.168 705.463C371.168 702.293 372.915 700.111 375.429 700.111C377.295 700.111 378.557 701.312 378.881 702.795H380.415C380.057 700.366 378.028 698.73 375.403 698.73C371.977 698.73 369.642 701.577 369.642 705.514C369.642 709.418 371.909 712.273 375.429 712.273ZM388.831 698.909H386.061V695.773H384.536V698.909H382.584V700.23H384.536V708.94C384.536 711.08 386.223 712.196 387.902 712.196C388.533 712.196 388.959 712.077 389.249 711.966L388.925 710.594C388.712 710.653 388.439 710.713 388.038 710.713C387.007 710.713 386.061 710.227 386.061 708.582V700.23H388.831V698.909ZM392.293 712H393.819V698.909H392.293V712ZM393.069 696.659C393.691 696.659 394.211 696.165 394.211 695.568C394.211 694.972 393.691 694.477 393.069 694.477C392.447 694.477 391.935 694.972 391.935 695.568C391.935 696.165 392.447 696.659 393.069 696.659ZM407.964 698.909H406.32L402.433 709.997H402.314L398.428 698.909H396.783L401.564 712H403.183L407.964 698.909ZM410.95 712H412.475V698.909H410.95V712ZM411.725 696.659C412.347 696.659 412.867 696.165 412.867 695.568C412.867 694.972 412.347 694.477 411.725 694.477C411.103 694.477 410.592 694.972 410.592 695.568C410.592 696.165 411.103 696.659 411.725 696.659ZM421.643 698.909H418.874V695.773H417.348V698.909H415.396V700.23H417.348V708.94C417.348 711.08 419.036 712.196 420.714 712.196C421.345 712.196 421.771 712.077 422.061 711.966L421.737 710.594C421.524 710.653 421.251 710.713 420.851 710.713C419.82 710.713 418.874 710.227 418.874 708.582V700.23H421.643V698.909ZM426.146 716.901C427.782 716.901 428.984 715.963 429.683 714.071L435.231 698.935L433.577 698.909L429.691 709.997H429.572L425.685 698.909H424.04L428.856 712.128L428.379 713.457C427.663 715.426 426.631 715.776 425.089 715.281L424.68 716.628C424.987 716.764 425.549 716.901 426.146 716.901ZM279.354 744H280.871V735.614C280.871 733.577 282.227 732.128 284.042 732.128C285.832 732.128 286.871 733.321 286.871 735.094V744H288.423V735.384C288.423 733.5 289.548 732.128 291.542 732.128C293.272 732.128 294.423 733.168 294.423 735.23V744H295.94V735.23C295.94 732.298 294.431 730.739 292.002 730.739C290.093 730.739 288.712 731.668 288.124 733.116H288.013C287.434 731.634 286.283 730.739 284.477 730.739C282.763 730.739 281.485 731.565 280.965 732.92H280.829V730.909H279.354V744ZM305.044 744.273C308.436 744.273 310.805 741.503 310.805 737.514C310.805 733.5 308.436 730.73 305.044 730.73C301.652 730.73 299.283 733.5 299.283 737.514C299.283 741.503 301.652 744.273 305.044 744.273ZM305.044 742.884C302.325 742.884 300.808 740.446 300.808 737.514C300.808 734.582 302.325 732.111 305.044 732.111C307.763 732.111 309.28 734.582 309.28 737.514C309.28 740.446 307.763 742.884 305.044 742.884ZM315.653 735.818C315.653 733.534 317.153 732.128 319.215 732.128C321.227 732.128 322.522 733.474 322.522 735.614V744H324.039V735.52C324.039 732.418 322.241 730.739 319.599 730.739C317.681 730.739 316.36 731.625 315.746 732.963H315.61V730.909H314.136V744H315.653V735.818ZM328.051 744H329.577V730.909H328.051V744ZM328.827 728.659C329.449 728.659 329.969 728.165 329.969 727.568C329.969 726.972 329.449 726.477 328.827 726.477C328.205 726.477 327.693 726.972 327.693 727.568C327.693 728.165 328.205 728.659 328.827 728.659ZM338.745 730.909H335.975V727.773H334.45V730.909H332.498V732.23H334.45V740.94C334.45 743.08 336.137 744.196 337.816 744.196C338.447 744.196 338.873 744.077 339.163 743.966L338.839 742.594C338.626 742.653 338.353 742.713 337.952 742.713C336.921 742.713 335.975 742.227 335.975 740.582V732.23H338.745V730.909ZM347.138 744.273C350.53 744.273 352.899 741.503 352.899 737.514C352.899 733.5 350.53 730.73 347.138 730.73C343.746 730.73 341.376 733.5 341.376 737.514C341.376 741.503 343.746 744.273 347.138 744.273ZM347.138 742.884C344.419 742.884 342.902 740.446 342.902 737.514C342.902 734.582 344.419 732.111 347.138 732.111C349.857 732.111 351.374 734.582 351.374 737.514C351.374 740.446 349.857 742.884 347.138 742.884ZM356.229 744H357.746V735.545C357.746 733.602 359.238 732.196 361.283 732.196C361.684 732.196 362.059 732.264 362.195 732.281V730.739C361.991 730.73 361.641 730.713 361.394 730.713C359.749 730.713 358.343 731.599 357.815 732.92H357.704V730.909H356.229V744ZM364.801 744H366.327V730.909H364.801V744ZM365.577 728.659C366.199 728.659 366.719 728.165 366.719 727.568C366.719 726.972 366.199 726.477 365.577 726.477C364.955 726.477 364.443 726.972 364.443 727.568C364.443 728.165 364.955 728.659 365.577 728.659ZM371.856 735.818C371.856 733.534 373.356 732.128 375.418 732.128C377.43 732.128 378.725 733.474 378.725 735.614V744H380.242V735.52C380.242 732.418 378.444 730.739 375.802 730.739C373.884 730.739 372.563 731.625 371.95 732.963H371.813V730.909H370.339V744H371.856V735.818ZM389.232 749.182C392.334 749.182 394.635 747.665 394.635 744.341V730.909H393.152V733.406H392.999C392.462 732.23 391.379 730.73 388.976 730.73C385.737 730.73 383.564 733.44 383.564 737.42C383.564 741.435 385.814 743.864 388.95 743.864C391.303 743.864 392.453 742.5 392.973 741.298H393.109V744.247C393.109 746.685 391.55 747.818 389.232 747.818C386.99 747.818 385.916 746.736 385.362 745.739L384.118 746.557C384.885 748.057 386.555 749.182 389.232 749.182ZM389.129 742.474C386.53 742.474 385.089 740.395 385.089 737.395C385.089 734.446 386.504 732.111 389.129 732.111C391.695 732.111 393.135 734.327 393.135 737.395C393.135 740.557 391.652 742.474 389.129 742.474Z" fill="white"/>
<defs>
<filter id="filter0_f" x="0.306641" y="332.622" width="672.387" height="642.828" filterUnits="userSpaceOnUse" color-interpolation-filters="sRGB">
<feFlood flood-opacity="0" result="BackgroundImageFix"/>
<feBlend mode="normal" in="SourceGraphic" in2="BackgroundImageFix" result="shape"/>
<feGaussianBlur stdDeviation="21" result="effect1_foregroundBlur"/>
</filter>
<filter id="filter1_d" x="317.657" y="900.656" width="37" height="37" filterUnits="userSpaceOnUse" color-interpolation-filters="sRGB">
<feFlood flood-opacity="0" result="BackgroundImageFix"/>
<feColorMatrix in="SourceAlpha" type="matrix" values="0 0 0 0 0 0 0 0 0 0 0 0 0 0 0 0 0 0 127 0"/>
<feOffset/>
<feGaussianBlur stdDeviation="4"/>
<feColorMatrix type="matrix" values="0 0 0 0 0.054902 0 0 0 0 0.741176 0 0 0 0 0.945098 0 0 0 0.8 0"/>
<feBlend mode="normal" in2="BackgroundImageFix" result="effect1_dropShadow"/>
<feBlend mode="normal" in="SourceGraphic" in2="effect1_dropShadow" result="shape"/>
</filter>
<filter id="filter2_d" x="468.659" y="855.656" width="37" height="37" filterUnits="userSpaceOnUse" color-interpolation-filters="sRGB">
<feFlood flood-opacity="0" result="BackgroundImageFix"/>
<feColorMatrix in="SourceAlpha" type="matrix" values="0 0 0 0 0 0 0 0 0 0 0 0 0 0 0 0 0 0 127 0"/>
<feOffset/>
<feGaussianBlur stdDeviation="4"/>
<feColorMatrix type="matrix" values="0 0 0 0 0.054902 0 0 0 0 0.741176 0 0 0 0 0.945098 0 0 0 0.8 0"/>
<feBlend mode="normal" in2="BackgroundImageFix" result="effect1_dropShadow"/>
<feBlend mode="normal" in="SourceGraphic" in2="effect1_dropShadow" result="shape"/>
</filter>
<filter id="filter3_d" x="166.658" y="855.656" width="37" height="37" filterUnits="userSpaceOnUse" color-interpolation-filters="sRGB">
<feFlood flood-opacity="0" result="BackgroundImageFix"/>
<feColorMatrix in="SourceAlpha" type="matrix" values="0 0 0 0 0 0 0 0 0 0 0 0 0 0 0 0 0 0 127 0"/>
<feOffset/>
<feGaussianBlur stdDeviation="4"/>
<feColorMatrix type="matrix" values="0 0 0 0 0.054902 0 0 0 0 0.741176 0 0 0 0 0.945098 0 0 0 0.8 0"/>
<feBlend mode="normal" in2="BackgroundImageFix" result="effect1_dropShadow"/>
<feBlend mode="normal" in="SourceGraphic" in2="effect1_dropShadow" result="shape"/>
</filter>
<filter id="filter4_d" x="566.659" y="741.656" width="37" height="37" filterUnits="userSpaceOnUse" color-interpolation-filters="sRGB">
<feFlood flood-opacity="0" result="BackgroundImageFix"/>
<feColorMatrix in="SourceAlpha" type="matrix" values="0 0 0 0 0 0 0 0 0 0 0 0 0 0 0 0 0 0 127 0"/>
<feOffset/>
<feGaussianBlur stdDeviation="4"/>
<feColorMatrix type="matrix" values="0 0 0 0 0.054902 0 0 0 0 0.741176 0 0 0 0 0.945098 0 0 0 0.8 0"/>
<feBlend mode="normal" in2="BackgroundImageFix" result="effect1_dropShadow"/>
<feBlend mode="normal" in="SourceGraphic" in2="effect1_dropShadow" result="shape"/>
</filter>
<filter id="filter5_d" x="340.664" y="370.656" width="37" height="37" filterUnits="userSpaceOnUse" color-interpolation-filters="sRGB">
<feFlood flood-opacity="0" result="BackgroundImageFix"/>
<feColorMatrix in="SourceAlpha" type="matrix" values="0 0 0 0 0 0 0 0 0 0 0 0 0 0 0 0 0 0 127 0"/>
<feOffset/>
<feGaussianBlur stdDeviation="4"/>
<feColorMatrix type="matrix" values="0 0 0 0 0.360784 0 0 0 0 0.780392 0 0 0 0 0.552941 0 0 0 1 0"/>
<feBlend mode="normal" in2="BackgroundImageFix" result="effect1_dropShadow"/>
<feBlend mode="normal" in="SourceGraphic" in2="effect1_dropShadow" result="shape"/>
</filter>
<filter id="filter6_d" x="484.659" y="426.656" width="37" height="37" filterUnits="userSpaceOnUse" color-interpolation-filters="sRGB">
<feFlood flood-opacity="0" result="BackgroundImageFix"/>
<feColorMatrix in="SourceAlpha" type="matrix" values="0 0 0 0 0 0 0 0 0 0 0 0 0 0 0 0 0 0 127 0"/>
<feOffset/>
<feGaussianBlur stdDeviation="4"/>
<feColorMatrix type="matrix" values="0 0 0 0 0.360784 0 0 0 0 0.780392 0 0 0 0 0.552941 0 0 0 1 0"/>
<feBlend mode="normal" in2="BackgroundImageFix" result="effect1_dropShadow"/>
<feBlend mode="normal" in="SourceGraphic" in2="effect1_dropShadow" result="shape"/>
</filter>
<filter id="filter7_d" x="180.664" y="406.656" width="37" height="37" filterUnits="userSpaceOnUse" color-interpolation-filters="sRGB">
<feFlood flood-opacity="0" result="BackgroundImageFix"/>
<feColorMatrix in="SourceAlpha" type="matrix" values="0 0 0 0 0 0 0 0 0 0 0 0 0 0 0 0 0 0 127 0"/>
<feOffset/>
<feGaussianBlur stdDeviation="4"/>
<feColorMatrix type="matrix" values="0 0 0 0 0.360784 0 0 0 0 0.780392 0 0 0 0 0.552941 0 0 0 1 0"/>
<feBlend mode="normal" in2="BackgroundImageFix" result="effect1_dropShadow"/>
<feBlend mode="normal" in="SourceGraphic" in2="effect1_dropShadow" result="shape"/>
</filter>
<filter id="filter8_d" x="76.6638" y="522.656" width="37" height="37" filterUnits="userSpaceOnUse" color-interpolation-filters="sRGB">
<feFlood flood-opacity="0" result="BackgroundImageFix"/>
<feColorMatrix in="SourceAlpha" type="matrix" values="0 0 0 0 0 0 0 0 0 0 0 0 0 0 0 0 0 0 127 0"/>
<feOffset/>
<feGaussianBlur stdDeviation="4"/>
<feColorMatrix type="matrix" values="0 0 0 0 0.360784 0 0 0 0 0.780392 0 0 0 0 0.552941 0 0 0 1 0"/>
<feBlend mode="normal" in2="BackgroundImageFix" result="effect1_dropShadow"/>
<feBlend mode="normal" in="SourceGraphic" in2="effect1_dropShadow" result="shape"/>
</filter>
<linearGradient id="paint0_linear" x1="546.723" y1="654.036" x2="126.277" y2="654.036" gradientUnits="userSpaceOnUse">
<stop stop-color="#0EBDF1"/>
<stop offset="1" stop-color="#5CC78D"/>
</linearGradient>
<radialGradient id="paint1_radial" cx="0" cy="0" r="1" gradientUnits="userSpaceOnUse" gradientTransform="translate(336.506 432.036) rotate(90) scale(444.091 277.557)">
<stop stop-color="#0EBDF1" stop-opacity="0.2"/>
<stop offset="1" stop-color="#FF26C2" stop-opacity="0"/>
</radialGradient>
<linearGradient id="paint2_linear" x1="558.555" y1="654.082" x2="114.465" y2="654.082" gradientUnits="userSpaceOnUse">
<stop stop-color="#0EBDF1"/>
<stop offset="1" stop-color="#5CC78D"/>
</linearGradient>
</defs>
</svg>
