<svg width="360" height="1545" viewBox="0 0 360 1545" fill="none" xmlns="http://www.w3.org/2000/svg">
<path d="M83.8999 101.545V112.565C83.8999 114.56 82.5021 116 80.3544 116C78.2152 116 76.8089 114.56 76.8089 112.565V101.545H73.1186V112.881C73.1186 116.699 75.9993 119.247 80.3544 119.247C84.6925 119.247 87.5902 116.699 87.5902 112.881V101.545H83.8999ZM94.1889 111.432C94.1974 109.744 95.2031 108.756 96.669 108.756C98.1264 108.756 99.0043 109.71 98.9957 111.312V119H102.626V110.665C102.626 107.614 100.837 105.739 98.1094 105.739C96.1662 105.739 94.7599 106.693 94.1719 108.219H94.0185V105.909H90.5582V119H94.1889V111.432ZM105.488 119H109.119V105.909H105.488V119ZM107.312 104.222C108.394 104.222 109.281 103.395 109.281 102.381C109.281 101.375 108.394 100.548 107.312 100.548C106.238 100.548 105.352 101.375 105.352 102.381C105.352 103.395 106.238 104.222 107.312 104.222ZM124.232 105.909H120.388L117.678 115.276H117.541L114.822 105.909H110.987L115.564 119H119.655L124.232 105.909ZM131.61 119.256C134.849 119.256 137.031 117.679 137.542 115.25L134.184 115.028C133.817 116.026 132.88 116.545 131.67 116.545C129.854 116.545 128.704 115.344 128.704 113.392V113.384H137.619V112.386C137.619 107.938 134.925 105.739 131.465 105.739C127.613 105.739 125.116 108.474 125.116 112.514C125.116 116.665 127.579 119.256 131.61 119.256ZM128.704 111.134C128.781 109.642 129.914 108.449 131.525 108.449C133.102 108.449 134.192 109.574 134.201 111.134H128.704ZM139.988 119H143.619V111.594C143.619 109.983 144.795 108.875 146.397 108.875C146.9 108.875 147.59 108.96 147.931 109.071V105.849C147.607 105.773 147.156 105.722 146.789 105.722C145.323 105.722 144.121 106.574 143.644 108.193H143.508V105.909H139.988V119ZM160.7 109.642C160.376 107.23 158.433 105.739 155.126 105.739C151.777 105.739 149.57 107.29 149.578 109.812C149.57 111.773 150.805 113.043 153.362 113.554L155.629 114.006C156.771 114.236 157.291 114.653 157.308 115.31C157.291 116.085 156.447 116.639 155.178 116.639C153.882 116.639 153.021 116.085 152.8 115.02L149.229 115.207C149.57 117.713 151.7 119.256 155.169 119.256C158.561 119.256 160.99 117.526 160.999 114.943C160.99 113.051 159.754 111.918 157.214 111.398L154.845 110.92C153.626 110.656 153.175 110.239 153.183 109.608C153.175 108.824 154.061 108.312 155.186 108.312C156.447 108.312 157.197 109.003 157.376 109.847L160.7 109.642ZM167.018 119.247C168.952 119.247 170.205 118.403 170.844 117.185H170.947V119H174.39V110.17C174.39 107.051 171.748 105.739 168.833 105.739C165.697 105.739 163.634 107.239 163.131 109.625L166.489 109.898C166.737 109.028 167.512 108.389 168.816 108.389C170.052 108.389 170.759 109.011 170.759 110.085V110.136C170.759 110.98 169.864 111.091 167.589 111.312C164.998 111.551 162.671 112.42 162.671 115.344C162.671 117.935 164.521 119.247 167.018 119.247ZM168.058 116.741C166.941 116.741 166.14 116.222 166.14 115.224C166.14 114.202 166.984 113.699 168.262 113.52C169.055 113.409 170.35 113.222 170.785 112.932V114.321C170.785 115.693 169.651 116.741 168.058 116.741ZM180.837 101.545H177.207V119H180.837V101.545ZM189.369 119H193.059V113.341H196.161C200.175 113.341 202.511 110.946 202.511 107.46C202.511 103.991 200.218 101.545 196.255 101.545H189.369V119ZM193.059 110.384V104.562H195.548C197.678 104.562 198.71 105.722 198.71 107.46C198.71 109.19 197.678 110.384 195.565 110.384H193.059ZM208.47 101.545H204.839V119H208.47V101.545ZM215.112 119.247C217.046 119.247 218.299 118.403 218.938 117.185H219.04V119H222.484V110.17C222.484 107.051 219.842 105.739 216.927 105.739C213.79 105.739 211.728 107.239 211.225 109.625L214.583 109.898C214.83 109.028 215.606 108.389 216.91 108.389C218.146 108.389 218.853 109.011 218.853 110.085V110.136C218.853 110.98 217.958 111.091 215.683 111.312C213.092 111.551 210.765 112.42 210.765 115.344C210.765 117.935 212.614 119.247 215.112 119.247ZM216.151 116.741C215.035 116.741 214.234 116.222 214.234 115.224C214.234 114.202 215.077 113.699 216.356 113.52C217.148 113.409 218.444 113.222 218.879 112.932V114.321C218.879 115.693 217.745 116.741 216.151 116.741ZM232.263 105.909H229.8V102.773H226.17V105.909H224.38V108.636H226.17V115.455C226.153 118.02 227.9 119.29 230.533 119.179C231.471 119.145 232.136 118.957 232.502 118.838L231.931 116.136C231.752 116.17 231.369 116.256 231.028 116.256C230.303 116.256 229.8 115.983 229.8 114.977V108.636H232.263V105.909ZM241.668 105.909H239.069V105.031C239.069 104.145 239.427 103.625 240.492 103.625C240.927 103.625 241.37 103.719 241.66 103.812L242.299 101.085C241.847 100.949 240.85 100.727 239.734 100.727C237.271 100.727 235.438 102.116 235.438 104.963V105.909H233.589V108.636H235.438V119H239.069V108.636H241.668V105.909ZM249.332 119.256C253.304 119.256 255.776 116.537 255.776 112.506C255.776 108.449 253.304 105.739 249.332 105.739C245.361 105.739 242.889 108.449 242.889 112.506C242.889 116.537 245.361 119.256 249.332 119.256ZM249.349 116.443C247.517 116.443 246.58 114.764 246.58 112.48C246.58 110.196 247.517 108.509 249.349 108.509C251.148 108.509 252.085 110.196 252.085 112.48C252.085 114.764 251.148 116.443 249.349 116.443ZM258.136 119H261.767V111.594C261.767 109.983 262.943 108.875 264.545 108.875C265.048 108.875 265.739 108.96 266.08 109.071V105.849C265.756 105.773 265.304 105.722 264.938 105.722C263.472 105.722 262.27 106.574 261.793 108.193H261.656V105.909H258.136V119ZM267.957 119H271.587V111.142C271.587 109.693 272.508 108.73 273.718 108.73C274.911 108.73 275.712 109.548 275.712 110.835V119H279.232V111.006C279.232 109.651 280.008 108.73 281.329 108.73C282.488 108.73 283.357 109.455 283.357 110.912V119H286.979V110.196C286.979 107.358 285.292 105.739 282.854 105.739C280.937 105.739 279.445 106.719 278.908 108.219H278.772C278.354 106.702 277.016 105.739 275.218 105.739C273.454 105.739 272.116 106.676 271.57 108.219H271.417V105.909H267.957V119ZM112.005 132.588H117.348V147H120.996V132.588H126.34V129.545H112.005V132.588ZM132.7 147.256C135.939 147.256 138.12 145.679 138.632 143.25L135.274 143.028C134.907 144.026 133.97 144.545 132.76 144.545C130.944 144.545 129.794 143.344 129.794 141.392V141.384H138.708V140.386C138.708 135.938 136.015 133.739 132.555 133.739C128.703 133.739 126.206 136.474 126.206 140.514C126.206 144.665 128.669 147.256 132.7 147.256ZM129.794 139.134C129.87 137.642 131.004 136.449 132.615 136.449C134.191 136.449 135.282 137.574 135.291 139.134H129.794ZM146.993 147.256C150.478 147.256 152.669 145.21 152.839 142.202H149.413C149.2 143.599 148.279 144.384 147.035 144.384C145.339 144.384 144.24 142.96 144.24 140.455C144.24 137.983 145.348 136.568 147.035 136.568C148.365 136.568 149.217 137.446 149.413 138.75H152.839C152.686 135.724 150.393 133.739 146.975 133.739C143.004 133.739 140.549 136.491 140.549 140.506C140.549 144.486 142.961 147.256 146.993 147.256ZM158.794 139.432C158.803 137.744 159.834 136.756 161.317 136.756C162.792 136.756 163.661 137.702 163.652 139.312V147H167.283V138.665C167.292 135.597 165.485 133.739 162.757 133.739C160.772 133.739 159.442 134.676 158.846 136.219H158.692V129.545H155.164V147H158.794V139.432ZM173.771 139.432C173.779 137.744 174.785 136.756 176.251 136.756C177.708 136.756 178.586 137.71 178.578 139.312V147H182.208V138.665C182.208 135.614 180.419 133.739 177.691 133.739C175.748 133.739 174.342 134.693 173.754 136.219H173.6V133.909H170.14V147H173.771V139.432ZM190.985 147.256C194.956 147.256 197.428 144.537 197.428 140.506C197.428 136.449 194.956 133.739 190.985 133.739C187.013 133.739 184.542 136.449 184.542 140.506C184.542 144.537 187.013 147.256 190.985 147.256ZM191.002 144.443C189.169 144.443 188.232 142.764 188.232 140.48C188.232 138.196 189.169 136.509 191.002 136.509C192.8 136.509 193.738 138.196 193.738 140.48C193.738 142.764 192.8 144.443 191.002 144.443ZM203.419 129.545H199.789V147H203.419V129.545ZM212.243 147.256C216.214 147.256 218.686 144.537 218.686 140.506C218.686 136.449 216.214 133.739 212.243 133.739C208.271 133.739 205.799 136.449 205.799 140.506C205.799 144.537 208.271 147.256 212.243 147.256ZM212.26 144.443C210.427 144.443 209.49 142.764 209.49 140.48C209.49 138.196 210.427 136.509 212.26 136.509C214.058 136.509 214.995 138.196 214.995 140.48C214.995 142.764 214.058 144.443 212.26 144.443ZM226.944 152.097C230.686 152.097 233.345 150.392 233.345 147.128V133.909H229.74V136.108H229.603C229.118 135.043 228.052 133.739 225.862 133.739C222.99 133.739 220.561 135.972 220.561 140.429C220.561 144.784 222.922 146.812 225.87 146.812C227.958 146.812 229.126 145.764 229.603 144.682H229.757V147.077C229.757 148.79 228.606 149.489 227.029 149.489C225.427 149.489 224.618 148.79 224.319 148.082L220.961 148.534C221.396 150.511 223.416 152.097 226.944 152.097ZM227.021 144.085C225.24 144.085 224.268 142.67 224.268 140.412C224.268 138.188 225.223 136.628 227.021 136.628C228.785 136.628 229.774 138.119 229.774 140.412C229.774 142.722 228.768 144.085 227.021 144.085ZM238.475 151.884C241.177 151.884 242.618 150.511 243.35 148.415L248.439 133.926L244.595 133.909L241.859 143.523H241.723L239.012 133.909H235.194L239.89 147.375L239.677 147.929C239.166 149.114 238.288 149.199 237.01 148.798L236.191 151.517C236.711 151.73 237.555 151.884 238.475 151.884Z" fill="white"/>
<g opacity="0.4" filter="url(#filter0_f)">
<ellipse cx="179.5" cy="822.039" rx="210.223" ry="231.125" transform="rotate(105 179.5 822.039)" stroke="url(#paint0_linear)" stroke-width="27"/>
</g>
<circle cx="179.502" cy="822.085" r="222.045" fill="#0C242C"/>
<circle cx="179.502" cy="822.085" r="222.045" fill="url(#paint1_radial)"/>
<circle cx="179.502" cy="822.085" r="216.045" transform="rotate(90 179.502 822.085)" stroke="url(#paint2_linear)" stroke-width="12"/>
<path d="M424.836 928.945C408.686 964.757 384.903 996.606 355.152 1022.26C325.4 1047.91 290.399 1066.75 252.601 1077.46C214.803 1088.17 175.122 1090.48 136.336 1084.24C97.5499 1077.99 60.5978 1063.35 28.0675 1041.32" stroke="#0EBDF1" stroke-linecap="round" stroke-linejoin="round" stroke-dasharray="2 4"/>
<g filter="url(#filter1_d)">
<circle cx="179.159" cy="1087.16" r="8" transform="rotate(-90 179.159 1087.16)" fill="white"/>
<circle cx="179.159" cy="1087.16" r="8" transform="rotate(-90 179.159 1087.16)" stroke="#0EBDF1" stroke-width="5"/>
</g>
<g filter="url(#filter2_d)">
<circle cx="330.159" cy="1042.16" r="8" transform="rotate(-90 330.159 1042.16)" fill="white"/>
<circle cx="330.159" cy="1042.16" r="8" transform="rotate(-90 330.159 1042.16)" stroke="#0EBDF1" stroke-width="5"/>
</g>
<g filter="url(#filter3_d)">
<circle cx="28.1594" cy="1042.16" r="8" transform="rotate(-90 28.1594 1042.16)" fill="white"/>
<circle cx="28.1594" cy="1042.16" r="8" transform="rotate(-90 28.1594 1042.16)" stroke="#0EBDF1" stroke-width="5"/>
</g>
<path d="M-65.2293 710.562C-48.0443 673.591 -22.6952 641.001 8.90922 615.245C40.5137 589.49 77.5497 571.241 117.228 561.872C156.907 552.503 198.194 552.259 237.981 561.157C277.768 570.056 315.018 587.865 346.925 613.245" stroke="#5CC78D" stroke-linecap="round" stroke-linejoin="round" stroke-dasharray="2 4"/>
<g filter="url(#filter4_d)">
<circle cx="202.159" cy="557.159" r="8" transform="rotate(90 202.159 557.159)" fill="white"/>
<circle cx="202.159" cy="557.159" r="8" transform="rotate(90 202.159 557.159)" stroke="#5CC78D" stroke-width="5"/>
</g>
<g filter="url(#filter5_d)">
<circle cx="346.159" cy="613.159" r="8" transform="rotate(90 346.159 613.159)" fill="white"/>
<circle cx="346.159" cy="613.159" r="8" transform="rotate(90 346.159 613.159)" stroke="#5CC78D" stroke-width="5"/>
</g>
<g filter="url(#filter6_d)">
<circle cx="42.1594" cy="593.159" r="8" transform="rotate(90 42.1594 593.159)" fill="white"/>
<circle cx="42.1594" cy="593.159" r="8" transform="rotate(90 42.1594 593.159)" stroke="#5CC78D" stroke-width="5"/>
</g>
<path d="M77.0678 239H84.5252C88.4457 239 90.5337 236.955 90.5337 234.176C90.5337 231.594 88.6843 230.034 86.6985 229.94V229.77C88.5139 229.361 89.8519 228.074 89.8519 226.02C89.8519 223.403 87.9087 221.545 84.0565 221.545H77.0678V239ZM80.7582 235.983V231.347H83.8519C85.6246 231.347 86.7241 232.369 86.7241 233.81C86.7241 235.122 85.8292 235.983 83.7667 235.983H80.7582ZM80.7582 228.849V224.528H83.5621C85.1985 224.528 86.1275 225.372 86.1275 226.634C86.1275 228.014 85.0025 228.849 83.494 228.849H80.7582ZM92.8668 239H96.4975V225.909H92.8668V239ZM94.6907 224.222C95.7731 224.222 96.6594 223.395 96.6594 222.381C96.6594 221.375 95.7731 220.548 94.6907 220.548C93.6168 220.548 92.7305 221.375 92.7305 222.381C92.7305 223.395 93.6168 224.222 94.6907 224.222ZM105.321 239.256C109.292 239.256 111.764 236.537 111.764 232.506C111.764 228.449 109.292 225.739 105.321 225.739C101.349 225.739 98.8775 228.449 98.8775 232.506C98.8775 236.537 101.349 239.256 105.321 239.256ZM105.338 236.443C103.505 236.443 102.568 234.764 102.568 232.48C102.568 230.196 103.505 228.509 105.338 228.509C107.136 228.509 108.074 230.196 108.074 232.48C108.074 234.764 107.136 236.443 105.338 236.443ZM117.755 221.545H114.125V239H117.755V221.545ZM126.578 239.256C130.55 239.256 133.022 236.537 133.022 232.506C133.022 228.449 130.55 225.739 126.578 225.739C122.607 225.739 120.135 228.449 120.135 232.506C120.135 236.537 122.607 239.256 126.578 239.256ZM126.596 236.443C124.763 236.443 123.826 234.764 123.826 232.48C123.826 230.196 124.763 228.509 126.596 228.509C128.394 228.509 129.331 230.196 129.331 232.48C129.331 234.764 128.394 236.443 126.596 236.443ZM141.28 244.097C145.022 244.097 147.681 242.392 147.681 239.128V225.909H144.076V228.108H143.939C143.453 227.043 142.388 225.739 140.198 225.739C137.326 225.739 134.897 227.972 134.897 232.429C134.897 236.784 137.257 238.812 140.206 238.812C142.294 238.812 143.462 237.764 143.939 236.682H144.093V239.077C144.093 240.79 142.942 241.489 141.365 241.489C139.763 241.489 138.953 240.79 138.655 240.082L135.297 240.534C135.732 242.511 137.752 244.097 141.28 244.097ZM141.357 236.085C139.576 236.085 138.604 234.67 138.604 232.412C138.604 230.188 139.559 228.628 141.357 228.628C143.121 228.628 144.11 230.119 144.11 232.412C144.11 234.722 143.104 236.085 141.357 236.085ZM150.57 239H154.201V225.909H150.57V239ZM152.394 224.222C153.476 224.222 154.363 223.395 154.363 222.381C154.363 221.375 153.476 220.548 152.394 220.548C151.32 220.548 150.434 221.375 150.434 222.381C150.434 223.395 151.32 224.222 152.394 224.222ZM163.024 239.256C166.51 239.256 168.7 237.21 168.87 234.202H165.444C165.231 235.599 164.311 236.384 163.066 236.384C161.37 236.384 160.271 234.96 160.271 232.455C160.271 229.983 161.379 228.568 163.066 228.568C164.396 228.568 165.248 229.446 165.444 230.75H168.87C168.717 227.724 166.424 225.739 163.007 225.739C159.035 225.739 156.581 228.491 156.581 232.506C156.581 236.486 158.993 239.256 163.024 239.256ZM174.928 239.247C176.863 239.247 178.115 238.403 178.755 237.185H178.857V239H182.3V230.17C182.3 227.051 179.658 225.739 176.743 225.739C173.607 225.739 171.544 227.239 171.042 229.625L174.4 229.898C174.647 229.028 175.422 228.389 176.726 228.389C177.962 228.389 178.669 229.011 178.669 230.085V230.136C178.669 230.98 177.775 231.091 175.499 231.312C172.908 231.551 170.581 232.42 170.581 235.344C170.581 237.935 172.431 239.247 174.928 239.247ZM175.968 236.741C174.851 236.741 174.05 236.222 174.05 235.224C174.05 234.202 174.894 233.699 176.172 233.52C176.965 233.409 178.26 233.222 178.695 232.932V234.321C178.695 235.693 177.561 236.741 175.968 236.741ZM188.748 221.545H185.117V239H188.748V221.545ZM206.748 226.565H210.284C210.233 223.455 207.676 221.307 203.79 221.307C199.963 221.307 197.159 223.42 197.176 226.591C197.168 229.165 198.983 230.639 201.932 231.347L203.833 231.824C205.733 232.284 206.79 232.83 206.799 234.006C206.79 235.284 205.58 236.153 203.705 236.153C201.787 236.153 200.407 235.267 200.287 233.52H196.716C196.81 237.295 199.512 239.247 203.748 239.247C208.009 239.247 210.515 237.21 210.523 234.014C210.515 231.108 208.324 229.565 205.29 228.884L203.722 228.509C202.205 228.159 200.935 227.597 200.961 226.344C200.961 225.219 201.958 224.392 203.765 224.392C205.529 224.392 206.611 225.193 206.748 226.565ZM215.179 243.884C217.88 243.884 219.321 242.511 220.054 240.415L225.142 225.926L221.298 225.909L218.562 235.523H218.426L215.716 225.909H211.897L216.593 239.375L216.38 239.929C215.869 241.114 214.991 241.199 213.713 240.798L212.895 243.517C213.414 243.73 214.258 243.884 215.179 243.884ZM237.892 229.642C237.568 227.23 235.625 225.739 232.318 225.739C228.968 225.739 226.761 227.29 226.77 229.812C226.761 231.773 227.997 233.043 230.554 233.554L232.821 234.006C233.963 234.236 234.483 234.653 234.5 235.31C234.483 236.085 233.639 236.639 232.369 236.639C231.074 236.639 230.213 236.085 229.991 235.02L226.42 235.207C226.761 237.713 228.892 239.256 232.36 239.256C235.752 239.256 238.181 237.526 238.19 234.943C238.181 233.051 236.946 231.918 234.406 231.398L232.037 230.92C230.818 230.656 230.366 230.239 230.375 229.608C230.366 228.824 231.252 228.312 232.377 228.312C233.639 228.312 234.389 229.003 234.568 229.847L237.892 229.642ZM247.439 225.909H244.976V222.773H241.346V225.909H239.556V228.636H241.346V235.455C241.328 238.02 243.076 239.29 245.709 239.179C246.647 239.145 247.311 238.957 247.678 238.838L247.107 236.136C246.928 236.17 246.544 236.256 246.203 236.256C245.479 236.256 244.976 235.983 244.976 234.977V228.636H247.439V225.909ZM255.63 239.256C258.868 239.256 261.05 237.679 261.561 235.25L258.203 235.028C257.837 236.026 256.9 236.545 255.689 236.545C253.874 236.545 252.723 235.344 252.723 233.392V233.384H261.638V232.386C261.638 227.938 258.945 225.739 255.485 225.739C251.632 225.739 249.135 228.474 249.135 232.514C249.135 236.665 251.598 239.256 255.63 239.256ZM252.723 231.134C252.8 229.642 253.934 228.449 255.544 228.449C257.121 228.449 258.212 229.574 258.221 231.134H252.723ZM264.007 239H267.638V231.142C267.638 229.693 268.559 228.73 269.769 228.73C270.962 228.73 271.763 229.548 271.763 230.835V239H275.283V231.006C275.283 229.651 276.059 228.73 277.38 228.73C278.539 228.73 279.408 229.455 279.408 230.912V239H283.03V230.196C283.03 227.358 281.343 225.739 278.905 225.739C276.988 225.739 275.496 226.719 274.959 228.219H274.823C274.405 226.702 273.067 225.739 271.269 225.739C269.505 225.739 268.167 226.676 267.621 228.219H267.468V225.909H264.007V239Z" fill="#5CC78D"/>
<path d="M81.4091 316H85.6136C88.3636 316 89.5 314.659 89.5 312.909C89.5 311.068 88.2273 310.068 87.1591 310V309.886C88.1591 309.614 89.0455 308.955 89.0455 307.455C89.0455 305.75 87.9091 304.364 85.4773 304.364H81.4091V316ZM82.8182 314.75V310.705H85.6818C87.2045 310.705 88.1591 311.727 88.1591 312.909C88.1591 313.932 87.4545 314.75 85.6136 314.75H82.8182ZM82.8182 309.477V305.614H85.4773C87.0227 305.614 87.7045 306.432 87.7045 307.455C87.7045 308.682 86.7045 309.477 85.4318 309.477H82.8182ZM94.3617 316.205C95.8844 316.205 96.6799 315.386 96.9526 314.818H97.0208V316H98.3617V310.25C98.3617 307.477 96.2481 307.159 95.1344 307.159C93.8162 307.159 92.3162 307.614 91.6344 309.205L92.9072 309.659C93.2026 309.023 93.9015 308.341 95.1799 308.341C96.4128 308.341 97.0208 308.994 97.0208 310.114V310.159C97.0208 310.807 96.3617 310.75 94.7708 310.955C93.1515 311.165 91.3844 311.523 91.3844 313.523C91.3844 315.227 92.7026 316.205 94.3617 316.205ZM94.5662 315C93.4981 315 92.7253 314.523 92.7253 313.591C92.7253 312.568 93.6572 312.25 94.7026 312.114C95.2708 312.045 96.7935 311.886 97.0208 311.614V312.841C97.0208 313.932 96.1572 315 94.5662 315ZM104.515 316.182C106.446 316.182 107.719 315 107.946 313.455H106.606C106.356 314.409 105.56 314.977 104.515 314.977C102.924 314.977 101.901 313.659 101.901 311.636C101.901 309.659 102.946 308.364 104.515 308.364C105.696 308.364 106.401 309.091 106.606 309.886H107.946C107.719 308.25 106.333 307.159 104.492 307.159C102.128 307.159 100.56 309.023 100.56 311.682C100.56 314.295 102.06 316.182 104.515 316.182ZM113.862 307.273H111.998V305.182H110.658V307.273H109.339V308.409H110.658V313.864C110.658 315.386 111.885 316.114 113.021 316.114C113.521 316.114 113.839 316.023 114.021 315.955L113.748 314.75C113.635 314.773 113.453 314.818 113.158 314.818C112.567 314.818 111.998 314.636 111.998 313.5V308.409H113.862V307.273ZM119.604 316.182C121.377 316.182 122.673 315.295 123.082 313.977L121.786 313.614C121.445 314.523 120.656 314.977 119.604 314.977C118.031 314.977 116.945 313.96 116.883 312.091H123.218V311.523C123.218 308.273 121.286 307.159 119.468 307.159C117.104 307.159 115.536 309.023 115.536 311.705C115.536 314.386 117.082 316.182 119.604 316.182ZM116.883 310.932C116.974 309.574 117.934 308.364 119.468 308.364C120.923 308.364 121.854 309.455 121.854 310.932H116.883ZM125.418 316H126.759V310.477C126.759 309.295 127.691 308.432 128.963 308.432C129.321 308.432 129.691 308.5 129.782 308.523V307.159C129.628 307.148 129.276 307.136 129.077 307.136C128.032 307.136 127.122 307.727 126.804 308.591H126.713V307.273H125.418V316ZM131.531 316H132.872V307.273H131.531V316ZM132.213 305.818C132.736 305.818 133.167 305.409 133.167 304.909C133.167 304.409 132.736 304 132.213 304C131.69 304 131.258 304.409 131.258 304.909C131.258 305.409 131.69 305.818 132.213 305.818ZM138.056 316.205C139.579 316.205 140.374 315.386 140.647 314.818H140.715V316H142.056V310.25C142.056 307.477 139.942 307.159 138.829 307.159C137.511 307.159 136.011 307.614 135.329 309.205L136.602 309.659C136.897 309.023 137.596 308.341 138.874 308.341C140.107 308.341 140.715 308.994 140.715 310.114V310.159C140.715 310.807 140.056 310.75 138.465 310.955C136.846 311.165 135.079 311.523 135.079 313.523C135.079 315.227 136.397 316.205 138.056 316.205ZM138.261 315C137.192 315 136.42 314.523 136.42 313.591C136.42 312.568 137.352 312.25 138.397 312.114C138.965 312.045 140.488 311.886 140.715 311.614V312.841C140.715 313.932 139.852 315 138.261 315ZM146.004 304.364H144.664V316H146.004V304.364ZM156.939 316.182C158.712 316.182 160.008 315.295 160.417 313.977L159.121 313.614C158.78 314.523 157.991 314.977 156.939 314.977C155.366 314.977 154.28 313.96 154.218 312.091H160.553V311.523C160.553 308.273 158.621 307.159 156.803 307.159C154.439 307.159 152.871 309.023 152.871 311.705C152.871 314.386 154.417 316.182 156.939 316.182ZM154.218 310.932C154.309 309.574 155.269 308.364 156.803 308.364C158.258 308.364 159.189 309.455 159.189 310.932H154.218ZM163.519 307.273H161.973L164.746 311.636L161.973 316H163.519L165.609 312.614L167.7 316H169.246L166.428 311.636L169.246 307.273H167.7L165.609 310.841L163.519 307.273ZM175.115 307.273H173.251V305.182H171.91V307.273H170.592V308.409H171.91V313.864C171.91 315.386 173.137 316.114 174.274 316.114C174.774 316.114 175.092 316.023 175.274 315.955L175.001 314.75C174.887 314.773 174.706 314.818 174.41 314.818C173.819 314.818 173.251 314.636 173.251 313.5V308.409H175.115V307.273ZM177.292 316H178.633V310.477C178.633 309.295 179.564 308.432 180.837 308.432C181.195 308.432 181.564 308.5 181.655 308.523V307.159C181.502 307.148 181.15 307.136 180.951 307.136C179.905 307.136 178.996 307.727 178.678 308.591H178.587V307.273H177.292V316ZM185.973 316.205C187.496 316.205 188.291 315.386 188.564 314.818H188.632V316H189.973V310.25C189.973 307.477 187.859 307.159 186.746 307.159C185.427 307.159 183.927 307.614 183.246 309.205L184.518 309.659C184.814 309.023 185.513 308.341 186.791 308.341C188.024 308.341 188.632 308.994 188.632 310.114V310.159C188.632 310.807 187.973 310.75 186.382 310.955C184.763 311.165 182.996 311.523 182.996 313.523C182.996 315.227 184.314 316.205 185.973 316.205ZM186.177 315C185.109 315 184.337 314.523 184.337 313.591C184.337 312.568 185.268 312.25 186.314 312.114C186.882 312.045 188.405 311.886 188.632 311.614V312.841C188.632 313.932 187.768 315 186.177 315ZM196.126 316.182C198.058 316.182 199.33 315 199.558 313.455H198.217C197.967 314.409 197.171 314.977 196.126 314.977C194.535 314.977 193.512 313.659 193.512 311.636C193.512 309.659 194.558 308.364 196.126 308.364C197.308 308.364 198.012 309.091 198.217 309.886H199.558C199.33 308.25 197.944 307.159 196.103 307.159C193.739 307.159 192.171 309.023 192.171 311.682C192.171 314.295 193.671 316.182 196.126 316.182ZM205.473 307.273H203.61V305.182H202.269V307.273H200.951V308.409H202.269V313.864C202.269 315.386 203.496 316.114 204.632 316.114C205.132 316.114 205.451 316.023 205.632 315.955L205.36 314.75C205.246 314.773 205.064 314.818 204.769 314.818C204.178 314.818 203.61 314.636 203.61 313.5V308.409H205.473V307.273ZM207.65 316H208.991V307.273H207.65V316ZM208.332 305.818C208.855 305.818 209.287 305.409 209.287 304.909C209.287 304.409 208.855 304 208.332 304C207.809 304 207.378 304.409 207.378 304.909C207.378 305.409 207.809 305.818 208.332 305.818ZM215.153 316.182C217.516 316.182 219.107 314.386 219.107 311.682C219.107 308.955 217.516 307.159 215.153 307.159C212.789 307.159 211.198 308.955 211.198 311.682C211.198 314.386 212.789 316.182 215.153 316.182ZM215.153 314.977C213.357 314.977 212.539 313.432 212.539 311.682C212.539 309.932 213.357 308.364 215.153 308.364C216.948 308.364 217.766 309.932 217.766 311.682C217.766 313.432 216.948 314.977 215.153 314.977ZM222.655 310.75C222.655 309.227 223.598 308.364 224.882 308.364C226.127 308.364 226.882 309.176 226.882 310.545V316H228.223V310.455C228.223 308.227 227.036 307.159 225.269 307.159C223.951 307.159 223.132 307.75 222.723 308.636H222.61V307.273H221.314V316H222.655V310.75Z" fill="white"/>
<rect x="38" y="308" width="12" height="4" rx="2" fill="#5CC78D"/>
<rect x="38" y="364" width="12" height="4" rx="2" fill="#5CC78D"/>
<path d="M81.4091 360.364V372H82.7273V363.159H82.8409L86.4773 372H87.75L91.3864 363.159H91.5V372H92.8182V360.364H91.1364L87.1818 370.023H87.0455L83.0909 360.364H81.4091ZM99.2807 372.182C101.053 372.182 102.349 371.295 102.758 369.977L101.463 369.614C101.122 370.523 100.332 370.977 99.2807 370.977C97.7069 370.977 96.6216 369.96 96.5591 368.091H102.894V367.523C102.894 364.273 100.963 363.159 99.1444 363.159C96.7807 363.159 95.2126 365.023 95.2126 367.705C95.2126 370.386 96.758 372.182 99.2807 372.182ZM96.5591 366.932C96.6501 365.574 97.6103 364.364 99.1444 364.364C100.599 364.364 101.531 365.455 101.531 366.932H96.5591ZM108.89 363.273H107.026V361.182H105.685V363.273H104.367V364.409H105.685V369.864C105.685 371.386 106.912 372.114 108.049 372.114C108.549 372.114 108.867 372.023 109.049 371.955L108.776 370.75C108.662 370.773 108.481 370.818 108.185 370.818C107.594 370.818 107.026 370.636 107.026 369.5V364.409H108.89V363.273ZM113.635 372.205C115.158 372.205 115.953 371.386 116.226 370.818H116.294V372H117.635V366.25C117.635 363.477 115.521 363.159 114.408 363.159C113.089 363.159 111.589 363.614 110.908 365.205L112.18 365.659C112.476 365.023 113.175 364.341 114.453 364.341C115.686 364.341 116.294 364.994 116.294 366.114V366.159C116.294 366.807 115.635 366.75 114.044 366.955C112.425 367.165 110.658 367.523 110.658 369.523C110.658 371.227 111.976 372.205 113.635 372.205ZM113.839 371C112.771 371 111.998 370.523 111.998 369.591C111.998 368.568 112.93 368.25 113.976 368.114C114.544 368.045 116.067 367.886 116.294 367.614V368.841C116.294 369.932 115.43 371 113.839 371ZM120.424 372H121.72V370.659H121.879C122.174 371.136 122.742 372.182 124.424 372.182C126.606 372.182 128.129 370.432 128.129 367.659C128.129 364.909 126.606 363.159 124.401 363.159C122.697 363.159 122.174 364.205 121.879 364.659H121.765V360.364H120.424V372ZM121.742 367.636C121.742 365.682 122.606 364.364 124.242 364.364C125.947 364.364 126.788 365.795 126.788 367.636C126.788 369.5 125.924 370.977 124.242 370.977C122.629 370.977 121.742 369.614 121.742 367.636ZM133.885 372.182C136.249 372.182 137.84 370.386 137.84 367.682C137.84 364.955 136.249 363.159 133.885 363.159C131.522 363.159 129.931 364.955 129.931 367.682C129.931 370.386 131.522 372.182 133.885 372.182ZM133.885 370.977C132.09 370.977 131.272 369.432 131.272 367.682C131.272 365.932 132.09 364.364 133.885 364.364C135.681 364.364 136.499 365.932 136.499 367.682C136.499 369.432 135.681 370.977 133.885 370.977ZM141.388 360.364H140.047V372H141.388V360.364ZM144.004 372H145.344V363.273H144.004V372ZM144.685 361.818C145.208 361.818 145.64 361.409 145.64 360.909C145.64 360.409 145.208 360 144.685 360C144.163 360 143.731 360.409 143.731 360.909C143.731 361.409 144.163 361.818 144.685 361.818ZM151.506 372.182C153.438 372.182 154.71 371 154.938 369.455H153.597C153.347 370.409 152.551 370.977 151.506 370.977C149.915 370.977 148.892 369.659 148.892 367.636C148.892 365.659 149.938 364.364 151.506 364.364C152.688 364.364 153.392 365.091 153.597 365.886H154.938C154.71 364.25 153.324 363.159 151.483 363.159C149.119 363.159 147.551 365.023 147.551 367.682C147.551 370.295 149.051 372.182 151.506 372.182ZM164.286 372.205C165.809 372.205 166.604 371.386 166.877 370.818H166.945V372H168.286V366.25C168.286 363.477 166.172 363.159 165.059 363.159C163.741 363.159 162.241 363.614 161.559 365.205L162.832 365.659C163.127 365.023 163.826 364.341 165.104 364.341C166.337 364.341 166.945 364.994 166.945 366.114V366.159C166.945 366.807 166.286 366.75 164.695 366.955C163.076 367.165 161.309 367.523 161.309 369.523C161.309 371.227 162.627 372.205 164.286 372.205ZM164.491 371C163.422 371 162.65 370.523 162.65 369.591C162.65 368.568 163.582 368.25 164.627 368.114C165.195 368.045 166.718 367.886 166.945 367.614V368.841C166.945 369.932 166.082 371 164.491 371ZM174.439 372.182C176.371 372.182 177.644 371 177.871 369.455H176.53C176.28 370.409 175.484 370.977 174.439 370.977C172.848 370.977 171.825 369.659 171.825 367.636C171.825 365.659 172.871 364.364 174.439 364.364C175.621 364.364 176.325 365.091 176.53 365.886H177.871C177.644 364.25 176.257 363.159 174.416 363.159C172.053 363.159 170.484 365.023 170.484 367.682C170.484 370.295 171.984 372.182 174.439 372.182ZM183.786 363.273H181.923V361.182H180.582V363.273H179.264V364.409H180.582V369.864C180.582 371.386 181.809 372.114 182.946 372.114C183.446 372.114 183.764 372.023 183.946 371.955L183.673 370.75C183.559 370.773 183.377 370.818 183.082 370.818C182.491 370.818 181.923 370.636 181.923 369.5V364.409H183.786V363.273ZM185.964 372H187.304V363.273H185.964V372ZM186.645 361.818C187.168 361.818 187.6 361.409 187.6 360.909C187.6 360.409 187.168 360 186.645 360C186.123 360 185.691 360.409 185.691 360.909C185.691 361.409 186.123 361.818 186.645 361.818ZM197.057 363.273H195.602L193.193 370.227H193.102L190.693 363.273H189.239L192.466 372H193.829L197.057 363.273ZM201.289 372.205C202.812 372.205 203.607 371.386 203.88 370.818H203.948V372H205.289V366.25C205.289 363.477 203.176 363.159 202.062 363.159C200.744 363.159 199.244 363.614 198.562 365.205L199.835 365.659C200.13 365.023 200.829 364.341 202.107 364.341C203.34 364.341 203.948 364.994 203.948 366.114V366.159C203.948 366.807 203.289 366.75 201.698 366.955C200.079 367.165 198.312 367.523 198.312 369.523C198.312 371.227 199.63 372.205 201.289 372.205ZM201.494 371C200.426 371 199.653 370.523 199.653 369.591C199.653 368.568 200.585 368.25 201.63 368.114C202.198 368.045 203.721 367.886 203.948 367.614V368.841C203.948 369.932 203.085 371 201.494 371ZM211.692 363.273H209.828V361.182H208.488V363.273H207.169V364.409H208.488V369.864C208.488 371.386 209.715 372.114 210.851 372.114C211.351 372.114 211.669 372.023 211.851 371.955L211.578 370.75C211.465 370.773 211.283 370.818 210.988 370.818C210.397 370.818 209.828 370.636 209.828 369.5V364.409H211.692V363.273ZM213.869 372H215.21V363.273H213.869V372ZM214.551 361.818C215.074 361.818 215.506 361.409 215.506 360.909C215.506 360.409 215.074 360 214.551 360C214.028 360 213.596 360.409 213.596 360.909C213.596 361.409 214.028 361.818 214.551 361.818ZM221.371 372.182C223.735 372.182 225.326 370.386 225.326 367.682C225.326 364.955 223.735 363.159 221.371 363.159C219.008 363.159 217.417 364.955 217.417 367.682C217.417 370.386 219.008 372.182 221.371 372.182ZM221.371 370.977C219.576 370.977 218.758 369.432 218.758 367.682C218.758 365.932 219.576 364.364 221.371 364.364C223.167 364.364 223.985 365.932 223.985 367.682C223.985 369.432 223.167 370.977 221.371 370.977ZM228.874 366.75C228.874 365.227 229.817 364.364 231.101 364.364C232.345 364.364 233.101 365.176 233.101 366.545V372H234.442V366.455C234.442 364.227 233.254 363.159 231.487 363.159C230.169 363.159 229.351 363.75 228.942 364.636H228.828V363.273H227.533V372H228.874V366.75Z" fill="white"/>
<rect x="38" y="420" width="12" height="4" rx="2" fill="#5CC78D"/>
<path d="M89.3636 420H90.8182C90.3864 417.75 88.5 416.205 86.0455 416.205C83.0625 416.205 80.9545 418.5 80.9545 422.182C80.9545 425.864 83.0455 428.159 86.1364 428.159C88.9091 428.159 90.8864 426.312 90.8864 423.432V422.182H86.4545V423.432H89.5227C89.483 425.523 88.108 426.841 86.1364 426.841C83.9773 426.841 82.3182 425.205 82.3182 422.182C82.3182 419.159 83.9773 417.523 86.0455 417.523C87.7273 417.523 88.8693 418.472 89.3636 420ZM93.2779 428H94.6188V422.477C94.6188 421.295 95.5506 420.432 96.8234 420.432C97.1813 420.432 97.5506 420.5 97.6415 420.523V419.159C97.4881 419.148 97.1359 419.136 96.937 419.136C95.8915 419.136 94.9824 419.727 94.6643 420.591H94.5734V419.273H93.2779V428ZM102.671 428.182C105.034 428.182 106.625 426.386 106.625 423.682C106.625 420.955 105.034 419.159 102.671 419.159C100.307 419.159 98.7163 420.955 98.7163 423.682C98.7163 426.386 100.307 428.182 102.671 428.182ZM102.671 426.977C100.875 426.977 100.057 425.432 100.057 423.682C100.057 421.932 100.875 420.364 102.671 420.364C104.466 420.364 105.284 421.932 105.284 423.682C105.284 425.432 104.466 426.977 102.671 426.977ZM110.513 428H111.831L113.74 421.295H113.876L115.785 428H117.104L119.763 419.273H118.354L116.467 425.932H116.376L114.535 419.273H113.104L111.24 425.955H111.149L109.263 419.273H107.854L110.513 428ZM125.491 419.273H123.627V417.182H122.286V419.273H120.968V420.409H122.286V425.864C122.286 427.386 123.514 428.114 124.65 428.114C125.15 428.114 125.468 428.023 125.65 427.955L125.377 426.75C125.264 426.773 125.082 426.818 124.786 426.818C124.195 426.818 123.627 426.636 123.627 425.5V420.409H125.491V419.273ZM129.196 422.75C129.196 421.227 130.168 420.364 131.492 420.364C132.753 420.364 133.514 421.159 133.514 422.545V428H134.855V422.455C134.855 420.21 133.662 419.159 131.878 419.159C130.503 419.159 129.719 419.733 129.31 420.636H129.196V416.364H127.855V428H129.196V422.75ZM142.129 431.273H143.469V426.659H143.583C143.879 427.136 144.447 428.182 146.129 428.182C148.31 428.182 149.833 426.432 149.833 423.659C149.833 420.909 148.31 419.159 146.106 419.159C144.401 419.159 143.879 420.205 143.583 420.659H143.424V419.273H142.129V431.273ZM143.447 423.636C143.447 421.682 144.31 420.364 145.947 420.364C147.651 420.364 148.492 421.795 148.492 423.636C148.492 425.5 147.629 426.977 145.947 426.977C144.333 426.977 143.447 425.614 143.447 423.636ZM152.039 428H153.379V422.477C153.379 421.295 154.311 420.432 155.584 420.432C155.942 420.432 156.311 420.5 156.402 420.523V419.159C156.249 419.148 155.896 419.136 155.698 419.136C154.652 419.136 153.743 419.727 153.425 420.591H153.334V419.273H152.039V428ZM161.431 428.182C163.795 428.182 165.386 426.386 165.386 423.682C165.386 420.955 163.795 419.159 161.431 419.159C159.068 419.159 157.477 420.955 157.477 423.682C157.477 426.386 159.068 428.182 161.431 428.182ZM161.431 426.977C159.636 426.977 158.818 425.432 158.818 423.682C158.818 421.932 159.636 420.364 161.431 420.364C163.227 420.364 164.045 421.932 164.045 423.682C164.045 425.432 163.227 426.977 161.431 426.977ZM167.593 428H168.934V422.545C168.934 421.267 169.866 420.364 170.911 420.364C171.928 420.364 172.638 421.028 172.638 422.023V428H174.002V422.318C174.002 421.193 174.707 420.364 175.934 420.364C176.888 420.364 177.707 420.869 177.707 422.159V428H179.047V422.159C179.047 420.108 177.945 419.159 176.388 419.159C175.138 419.159 174.224 419.733 173.775 420.636H173.684C173.252 419.705 172.491 419.159 171.343 419.159C170.207 419.159 169.366 419.705 169.002 420.636H168.888V419.273H167.593V428ZM185.205 428.182C187.568 428.182 189.159 426.386 189.159 423.682C189.159 420.955 187.568 419.159 185.205 419.159C182.841 419.159 181.25 420.955 181.25 423.682C181.25 426.386 182.841 428.182 185.205 428.182ZM185.205 426.977C183.409 426.977 182.591 425.432 182.591 423.682C182.591 421.932 183.409 420.364 185.205 420.364C187 420.364 187.818 421.932 187.818 423.682C187.818 425.432 187 426.977 185.205 426.977ZM195.161 419.273H193.298V417.182H191.957V419.273H190.639V420.409H191.957V425.864C191.957 427.386 193.184 428.114 194.321 428.114C194.821 428.114 195.139 428.023 195.321 427.955L195.048 426.75C194.934 426.773 194.752 426.818 194.457 426.818C193.866 426.818 193.298 426.636 193.298 425.5V420.409H195.161V419.273ZM197.339 428H198.679V419.273H197.339V428ZM198.02 417.818C198.543 417.818 198.975 417.409 198.975 416.909C198.975 416.409 198.543 416 198.02 416C197.498 416 197.066 416.409 197.066 416.909C197.066 417.409 197.498 417.818 198.02 417.818ZM204.841 428.182C207.204 428.182 208.795 426.386 208.795 423.682C208.795 420.955 207.204 419.159 204.841 419.159C202.477 419.159 200.886 420.955 200.886 423.682C200.886 426.386 202.477 428.182 204.841 428.182ZM204.841 426.977C203.045 426.977 202.227 425.432 202.227 423.682C202.227 421.932 203.045 420.364 204.841 420.364C206.636 420.364 207.454 421.932 207.454 423.682C207.454 425.432 206.636 426.977 204.841 426.977ZM212.343 422.75C212.343 421.227 213.286 420.364 214.57 420.364C215.815 420.364 216.57 421.176 216.57 422.545V428H217.911V422.455C217.911 420.227 216.724 419.159 214.957 419.159C213.639 419.159 212.82 419.75 212.411 420.636H212.298V419.273H211.002V428H212.343V422.75Z" fill="white"/>
<rect x="38" y="476" width="12" height="4" rx="2" fill="#5CC78D"/>
<path d="M81.4091 484H82.8182V478.795H87.8636V477.545H82.8182V473.614H88.3864V472.364H81.4091V484ZM92.1188 472.364H90.7779V484H92.1188V472.364ZM100.235 480.432C100.235 482.068 98.9848 482.818 97.9848 482.818C96.8711 482.818 96.0757 482 96.0757 480.727V475.273H94.7348V480.818C94.7348 483.045 95.9166 484.114 97.553 484.114C98.8711 484.114 99.7348 483.409 100.144 482.523H100.235V484H101.576V475.273H100.235V480.432ZM107.737 484.182C110.101 484.182 111.692 482.386 111.692 479.682C111.692 476.955 110.101 475.159 107.737 475.159C105.373 475.159 103.783 476.955 103.783 479.682C103.783 482.386 105.373 484.182 107.737 484.182ZM107.737 482.977C105.942 482.977 105.123 481.432 105.123 479.682C105.123 477.932 105.942 476.364 107.737 476.364C109.533 476.364 110.351 477.932 110.351 479.682C110.351 481.432 109.533 482.977 107.737 482.977ZM113.899 484H115.239V478.477C115.239 477.295 116.171 476.432 117.444 476.432C117.802 476.432 118.171 476.5 118.262 476.523V475.159C118.109 475.148 117.756 475.136 117.558 475.136C116.512 475.136 115.603 475.727 115.285 476.591H115.194V475.273H113.899V484ZM123.405 484.182C125.178 484.182 126.473 483.295 126.882 481.977L125.587 481.614C125.246 482.523 124.456 482.977 123.405 482.977C121.831 482.977 120.746 481.96 120.684 480.091H127.019V479.523C127.019 476.273 125.087 475.159 123.269 475.159C120.905 475.159 119.337 477.023 119.337 479.705C119.337 482.386 120.882 484.182 123.405 484.182ZM120.684 478.932C120.774 477.574 121.735 476.364 123.269 476.364C124.723 476.364 125.655 477.455 125.655 478.932H120.684ZM135.4 477.227C134.98 475.989 134.037 475.159 132.309 475.159C130.469 475.159 129.105 476.205 129.105 477.682C129.105 478.886 129.821 479.693 131.423 480.068L132.878 480.409C133.758 480.614 134.173 481.034 134.173 481.636C134.173 482.386 133.378 483 132.128 483C131.031 483 130.344 482.528 130.105 481.591L128.832 481.909C129.145 483.392 130.366 484.182 132.15 484.182C134.179 484.182 135.559 483.074 135.559 481.568C135.559 480.352 134.798 479.585 133.241 479.205L131.946 478.886C130.912 478.631 130.446 478.284 130.446 477.614C130.446 476.864 131.241 476.318 132.309 476.318C133.48 476.318 133.963 476.966 134.196 477.568L135.4 477.227ZM141.283 484.182C143.215 484.182 144.488 483 144.715 481.455H143.374C143.124 482.409 142.329 482.977 141.283 482.977C139.692 482.977 138.67 481.659 138.67 479.636C138.67 477.659 139.715 476.364 141.283 476.364C142.465 476.364 143.17 477.091 143.374 477.886H144.715C144.488 476.25 143.102 475.159 141.261 475.159C138.897 475.159 137.329 477.023 137.329 479.682C137.329 482.295 138.829 484.182 141.283 484.182ZM150.494 484.182C152.267 484.182 153.563 483.295 153.972 481.977L152.676 481.614C152.335 482.523 151.546 482.977 150.494 482.977C148.921 482.977 147.835 481.96 147.773 480.091H154.108V479.523C154.108 476.273 152.176 475.159 150.358 475.159C147.994 475.159 146.426 477.023 146.426 479.705C146.426 482.386 147.972 484.182 150.494 484.182ZM147.773 478.932C147.864 477.574 148.824 476.364 150.358 476.364C151.813 476.364 152.744 477.455 152.744 478.932H147.773ZM157.649 478.75C157.649 477.227 158.592 476.364 159.876 476.364C161.12 476.364 161.876 477.176 161.876 478.545V484H163.217V478.455C163.217 476.227 162.029 475.159 160.262 475.159C158.944 475.159 158.126 475.75 157.717 476.636H157.603V475.273H156.308V484H157.649V478.75ZM169.623 475.273H167.759V473.182H166.418V475.273H165.1V476.409H166.418V481.864C166.418 483.386 167.645 484.114 168.782 484.114C169.282 484.114 169.6 484.023 169.782 483.955L169.509 482.75C169.395 482.773 169.214 482.818 168.918 482.818C168.327 482.818 167.759 482.636 167.759 481.5V476.409H169.623V475.273ZM182.642 477.227C182.221 475.989 181.278 475.159 179.551 475.159C177.71 475.159 176.346 476.205 176.346 477.682C176.346 478.886 177.062 479.693 178.664 480.068L180.119 480.409C181 480.614 181.414 481.034 181.414 481.636C181.414 482.386 180.619 483 179.369 483C178.272 483 177.585 482.528 177.346 481.591L176.073 481.909C176.386 483.392 177.607 484.182 179.392 484.182C181.42 484.182 182.801 483.074 182.801 481.568C182.801 480.352 182.039 479.585 180.482 479.205L179.187 478.886C178.153 478.631 177.687 478.284 177.687 477.614C177.687 476.864 178.482 476.318 179.551 476.318C180.721 476.318 181.204 476.966 181.437 477.568L182.642 477.227ZM188.775 475.273H186.911V473.182H185.57V475.273H184.252V476.409H185.57V481.864C185.57 483.386 186.797 484.114 187.934 484.114C188.434 484.114 188.752 484.023 188.934 483.955L188.661 482.75C188.547 482.773 188.366 482.818 188.07 482.818C187.479 482.818 186.911 482.636 186.911 481.5V476.409H188.775V475.273ZM193.52 484.205C195.043 484.205 195.838 483.386 196.111 482.818H196.179V484H197.52V478.25C197.52 475.477 195.406 475.159 194.293 475.159C192.974 475.159 191.474 475.614 190.793 477.205L192.065 477.659C192.361 477.023 193.06 476.341 194.338 476.341C195.571 476.341 196.179 476.994 196.179 478.114V478.159C196.179 478.807 195.52 478.75 193.929 478.955C192.31 479.165 190.543 479.523 190.543 481.523C190.543 483.227 191.861 484.205 193.52 484.205ZM193.724 483C192.656 483 191.883 482.523 191.883 481.591C191.883 480.568 192.815 480.25 193.861 480.114C194.429 480.045 195.952 479.886 196.179 479.614V480.841C196.179 481.932 195.315 483 193.724 483ZM200.127 484H201.468V475.273H200.127V484ZM200.809 473.818C201.332 473.818 201.764 473.409 201.764 472.909C201.764 472.409 201.332 472 200.809 472C200.286 472 199.855 472.409 199.855 472.909C199.855 473.409 200.286 473.818 200.809 473.818ZM205.425 478.75C205.425 477.227 206.368 476.364 207.652 476.364C208.897 476.364 209.652 477.176 209.652 478.545V484H210.993V478.455C210.993 476.227 209.806 475.159 208.039 475.159C206.721 475.159 205.902 475.75 205.493 476.636H205.38V475.273H204.084V484H205.425V478.75ZM213.604 484H214.944V475.273H213.604V484ZM214.285 473.818C214.808 473.818 215.24 473.409 215.24 472.909C215.24 472.409 214.808 472 214.285 472C213.763 472 213.331 472.409 213.331 472.909C213.331 473.409 213.763 473.818 214.285 473.818ZM218.901 478.75C218.901 477.227 219.844 476.364 221.129 476.364C222.373 476.364 223.129 477.176 223.129 478.545V484H224.469V478.455C224.469 476.227 223.282 475.159 221.515 475.159C220.197 475.159 219.379 475.75 218.969 476.636H218.856V475.273H217.56V484H218.901V478.75ZM230.602 487.455C232.693 487.455 234.375 486.5 234.375 484.25V475.273H233.08V476.659H232.943C232.648 476.205 232.102 475.159 230.398 475.159C228.193 475.159 226.671 476.909 226.671 479.591C226.671 482.318 228.262 483.864 230.375 483.864C232.08 483.864 232.625 482.864 232.921 482.386H233.034V484.159C233.034 485.614 232.012 486.273 230.602 486.273C229.017 486.273 228.46 485.438 228.102 484.955L227.034 485.705C227.58 486.619 228.654 487.455 230.602 487.455ZM230.557 482.659C228.875 482.659 228.012 481.386 228.012 479.568C228.012 477.795 228.852 476.364 230.557 476.364C232.193 476.364 233.057 477.682 233.057 479.568C233.057 481.5 232.171 482.659 230.557 482.659Z" fill="white"/>
<path d="M90.4038 1164.57H93.9407C93.8896 1161.45 91.3327 1159.31 87.4464 1159.31C83.6197 1159.31 80.8157 1161.42 80.8327 1164.59C80.8242 1167.16 82.6396 1168.64 85.5884 1169.35L87.489 1169.82C89.3896 1170.28 90.4464 1170.83 90.4549 1172.01C90.4464 1173.28 89.2362 1174.15 87.3612 1174.15C85.4435 1174.15 84.0629 1173.27 83.9435 1171.52H80.3725C80.4663 1175.3 83.168 1177.25 87.4038 1177.25C91.6651 1177.25 94.1708 1175.21 94.1793 1172.01C94.1708 1169.11 91.9805 1167.57 88.9464 1166.88L87.3782 1166.51C85.8612 1166.16 84.5913 1165.6 84.6168 1164.34C84.6168 1163.22 85.614 1162.39 87.4208 1162.39C89.185 1162.39 90.2674 1163.19 90.4038 1164.57ZM102.508 1177.26C106.48 1177.26 108.951 1174.54 108.951 1170.51C108.951 1166.45 106.48 1163.74 102.508 1163.74C98.5366 1163.74 96.065 1166.45 96.065 1170.51C96.065 1174.54 98.5366 1177.26 102.508 1177.26ZM102.525 1174.44C100.693 1174.44 99.7553 1172.76 99.7553 1170.48C99.7553 1168.2 100.693 1166.51 102.525 1166.51C104.324 1166.51 105.261 1168.2 105.261 1170.48C105.261 1172.76 104.324 1174.44 102.525 1174.44ZM118.352 1163.91H115.752V1163.03C115.752 1162.14 116.11 1161.62 117.176 1161.62C117.61 1161.62 118.054 1161.72 118.343 1161.81L118.983 1159.09C118.531 1158.95 117.534 1158.73 116.417 1158.73C113.954 1158.73 112.122 1160.12 112.122 1162.96V1163.91H110.272V1166.64H112.122V1177H115.752V1166.64H118.352V1163.91ZM127.533 1163.91H125.07V1160.77H121.439V1163.91H119.65V1166.64H121.439V1173.45C121.422 1176.02 123.169 1177.29 125.803 1177.18C126.74 1177.14 127.405 1176.96 127.772 1176.84L127.201 1174.14C127.022 1174.17 126.638 1174.26 126.297 1174.26C125.573 1174.26 125.07 1173.98 125.07 1172.98V1166.64H127.533V1163.91ZM132.48 1177H136.316L138.566 1168.77H138.728L140.978 1177H144.821L148.375 1163.91H144.711L142.716 1172.65H142.605L140.458 1163.91H136.853L134.739 1172.7H134.62L132.591 1163.91H128.918L132.48 1177ZM154.045 1177.25C155.98 1177.25 157.233 1176.4 157.872 1175.18H157.974V1177H161.417V1168.17C161.417 1165.05 158.775 1163.74 155.86 1163.74C152.724 1163.74 150.662 1165.24 150.159 1167.62L153.517 1167.9C153.764 1167.03 154.539 1166.39 155.843 1166.39C157.079 1166.39 157.787 1167.01 157.787 1168.09V1168.14C157.787 1168.98 156.892 1169.09 154.616 1169.31C152.025 1169.55 149.699 1170.42 149.699 1173.34C149.699 1175.93 151.548 1177.25 154.045 1177.25ZM155.085 1174.74C153.968 1174.74 153.167 1174.22 153.167 1173.22C153.167 1172.2 154.011 1171.7 155.289 1171.52C156.082 1171.41 157.377 1171.22 157.812 1170.93V1172.32C157.812 1173.69 156.679 1174.74 155.085 1174.74ZM164.234 1177H167.865V1169.59C167.865 1167.98 169.041 1166.88 170.643 1166.88C171.146 1166.88 171.836 1166.96 172.177 1167.07V1163.85C171.853 1163.77 171.402 1163.72 171.035 1163.72C169.569 1163.72 168.368 1164.57 167.89 1166.19H167.754V1163.91H164.234V1177ZM179.411 1177.26C182.65 1177.26 184.831 1175.68 185.343 1173.25L181.985 1173.03C181.618 1174.03 180.681 1174.55 179.471 1174.55C177.655 1174.55 176.505 1173.34 176.505 1171.39V1171.38H185.419V1170.39C185.419 1165.94 182.726 1163.74 179.266 1163.74C175.414 1163.74 172.917 1166.47 172.917 1170.51C172.917 1174.66 175.38 1177.26 179.411 1177.26ZM176.505 1169.13C176.581 1167.64 177.715 1166.45 179.326 1166.45C180.902 1166.45 181.993 1167.57 182.002 1169.13H176.505ZM202.88 1164.57H206.417C206.366 1161.45 203.809 1159.31 199.923 1159.31C196.096 1159.31 193.292 1161.42 193.309 1164.59C193.301 1167.16 195.116 1168.64 198.065 1169.35L199.966 1169.82C201.866 1170.28 202.923 1170.83 202.931 1172.01C202.923 1173.28 201.713 1174.15 199.838 1174.15C197.92 1174.15 196.539 1173.27 196.42 1171.52H192.849C192.943 1175.3 195.645 1177.25 199.88 1177.25C204.142 1177.25 206.647 1175.21 206.656 1172.01C206.647 1169.11 204.457 1167.57 201.423 1166.88L199.855 1166.51C198.338 1166.16 197.068 1165.6 197.093 1164.34C197.093 1163.22 198.091 1162.39 199.897 1162.39C201.662 1162.39 202.744 1163.19 202.88 1164.57ZM211.311 1181.88C214.013 1181.88 215.453 1180.51 216.186 1178.41L221.275 1163.93L217.431 1163.91L214.695 1173.52H214.559L211.848 1163.91H208.03L212.726 1177.38L212.513 1177.93C212.002 1179.11 211.124 1179.2 209.846 1178.8L209.027 1181.52C209.547 1181.73 210.391 1181.88 211.311 1181.88ZM234.025 1167.64C233.701 1165.23 231.757 1163.74 228.451 1163.74C225.101 1163.74 222.894 1165.29 222.902 1167.81C222.894 1169.77 224.13 1171.04 226.686 1171.55L228.953 1172.01C230.096 1172.24 230.615 1172.65 230.632 1173.31C230.615 1174.09 229.772 1174.64 228.502 1174.64C227.206 1174.64 226.346 1174.09 226.124 1173.02L222.553 1173.21C222.894 1175.71 225.025 1177.26 228.493 1177.26C231.885 1177.26 234.314 1175.53 234.323 1172.94C234.314 1171.05 233.078 1169.92 230.539 1169.4L228.169 1168.92C226.951 1168.66 226.499 1168.24 226.507 1167.61C226.499 1166.82 227.385 1166.31 228.51 1166.31C229.772 1166.31 230.522 1167 230.701 1167.85L234.025 1167.64ZM243.572 1163.91H241.109V1160.77H237.478V1163.91H235.689V1166.64H237.478V1173.45C237.461 1176.02 239.208 1177.29 241.842 1177.18C242.779 1177.14 243.444 1176.96 243.811 1176.84L243.24 1174.14C243.061 1174.17 242.677 1174.26 242.336 1174.26C241.612 1174.26 241.109 1173.98 241.109 1172.98V1166.64H243.572V1163.91ZM251.762 1177.26C255.001 1177.26 257.183 1175.68 257.694 1173.25L254.336 1173.03C253.97 1174.03 253.032 1174.55 251.822 1174.55C250.007 1174.55 248.856 1173.34 248.856 1171.39V1171.38H257.771V1170.39C257.771 1165.94 255.078 1163.74 251.618 1163.74C247.765 1163.74 245.268 1166.47 245.268 1170.51C245.268 1174.66 247.731 1177.26 251.762 1177.26ZM248.856 1169.13C248.933 1167.64 250.066 1166.45 251.677 1166.45C253.254 1166.45 254.345 1167.57 254.353 1169.13H248.856ZM260.14 1177H263.771V1169.14C263.771 1167.69 264.691 1166.73 265.902 1166.73C267.095 1166.73 267.896 1167.55 267.896 1168.84V1177H271.416V1169.01C271.416 1167.65 272.191 1166.73 273.512 1166.73C274.672 1166.73 275.541 1167.45 275.541 1168.91V1177H279.163V1168.2C279.163 1165.36 277.475 1163.74 275.038 1163.74C273.12 1163.74 271.629 1164.72 271.092 1166.22H270.956C270.538 1164.7 269.2 1163.74 267.402 1163.74C265.637 1163.74 264.299 1164.68 263.754 1166.22H263.6V1163.91H260.14V1177Z" fill="#0EBDF1"/>
<rect x="38" y="1392" width="12" height="4" rx="2" fill="#0EBDF1"/>
<path d="M81.4091 1400H82.8182V1395.45H85.3636C85.4659 1395.45 85.5625 1395.45 85.6591 1395.45L88.1136 1400H89.75L87.1193 1395.19C88.6023 1394.69 89.2955 1393.48 89.2955 1391.93C89.2955 1389.88 88.0682 1388.36 85.3409 1388.36H81.4091V1400ZM82.8182 1394.18V1389.61H85.2955C87.1818 1389.61 87.9091 1390.53 87.9091 1391.93C87.9091 1393.33 87.1818 1394.18 85.3182 1394.18H82.8182ZM95.187 1400.18C96.9597 1400.18 98.2552 1399.3 98.6643 1397.98L97.3688 1397.61C97.0279 1398.52 96.2381 1398.98 95.187 1398.98C93.6131 1398.98 92.5279 1397.96 92.4654 1396.09H98.8006V1395.52C98.8006 1392.27 96.8688 1391.16 95.0506 1391.16C92.687 1391.16 91.1188 1393.02 91.1188 1395.7C91.1188 1398.39 92.6643 1400.18 95.187 1400.18ZM92.4654 1394.93C92.5563 1393.57 93.5165 1392.36 95.0506 1392.36C96.5052 1392.36 97.437 1393.45 97.437 1394.93H92.4654ZM101 1403.27H102.341V1398.66H102.455C102.75 1399.14 103.319 1400.18 105 1400.18C107.182 1400.18 108.705 1398.43 108.705 1395.66C108.705 1392.91 107.182 1391.16 104.978 1391.16C103.273 1391.16 102.75 1392.2 102.455 1392.66H102.296V1391.27H101V1403.27ZM102.319 1395.64C102.319 1393.68 103.182 1392.36 104.819 1392.36C106.523 1392.36 107.364 1393.8 107.364 1395.64C107.364 1397.5 106.5 1398.98 104.819 1398.98C103.205 1398.98 102.319 1397.61 102.319 1395.64ZM114.456 1400.18C116.819 1400.18 118.41 1398.39 118.41 1395.68C118.41 1392.95 116.819 1391.16 114.456 1391.16C112.092 1391.16 110.501 1392.95 110.501 1395.68C110.501 1398.39 112.092 1400.18 114.456 1400.18ZM114.456 1398.98C112.66 1398.98 111.842 1397.43 111.842 1395.68C111.842 1393.93 112.66 1392.36 114.456 1392.36C116.251 1392.36 117.069 1393.93 117.069 1395.68C117.069 1397.43 116.251 1398.98 114.456 1398.98ZM120.617 1400H121.958V1394.48C121.958 1393.3 122.89 1392.43 124.163 1392.43C124.521 1392.43 124.89 1392.5 124.981 1392.52V1391.16C124.827 1391.15 124.475 1391.14 124.276 1391.14C123.231 1391.14 122.322 1391.73 122.004 1392.59H121.913V1391.27H120.617V1400ZM131.073 1391.27H129.209V1389.18H127.868V1391.27H126.55V1392.41H127.868V1397.86C127.868 1399.39 129.095 1400.11 130.232 1400.11C130.732 1400.11 131.05 1400.02 131.232 1399.95L130.959 1398.75C130.845 1398.77 130.664 1398.82 130.368 1398.82C129.777 1398.82 129.209 1398.64 129.209 1397.5V1392.41H131.073V1391.27ZM133.25 1400H134.591V1391.27H133.25V1400ZM133.932 1389.82C134.454 1389.82 134.886 1389.41 134.886 1388.91C134.886 1388.41 134.454 1388 133.932 1388C133.409 1388 132.977 1388.41 132.977 1388.91C132.977 1389.41 133.409 1389.82 133.932 1389.82ZM138.548 1394.75C138.548 1393.23 139.491 1392.36 140.775 1392.36C142.019 1392.36 142.775 1393.18 142.775 1394.55V1400H144.116V1394.45C144.116 1392.23 142.928 1391.16 141.161 1391.16C139.843 1391.16 139.025 1391.75 138.616 1392.64H138.502V1391.27H137.207V1400H138.548V1394.75ZM150.249 1403.45C152.34 1403.45 154.021 1402.5 154.021 1400.25V1391.27H152.726V1392.66H152.59C152.294 1392.2 151.749 1391.16 150.044 1391.16C147.84 1391.16 146.317 1392.91 146.317 1395.59C146.317 1398.32 147.908 1399.86 150.021 1399.86C151.726 1399.86 152.271 1398.86 152.567 1398.39H152.681V1400.16C152.681 1401.61 151.658 1402.27 150.249 1402.27C148.664 1402.27 148.107 1401.44 147.749 1400.95L146.681 1401.7C147.226 1402.62 148.3 1403.45 150.249 1403.45ZM150.203 1398.66C148.521 1398.66 147.658 1397.39 147.658 1395.57C147.658 1393.8 148.499 1392.36 150.203 1392.36C151.84 1392.36 152.703 1393.68 152.703 1395.57C152.703 1397.5 151.817 1398.66 150.203 1398.66Z" fill="white"/>
<rect x="38" y="1336" width="12" height="4" rx="2" fill="#0EBDF1"/>
<path d="M89.3636 1336H90.8182C90.3864 1333.75 88.5 1332.2 86.0455 1332.2C83.0625 1332.2 80.9545 1334.5 80.9545 1338.18C80.9545 1341.86 83.0455 1344.16 86.1364 1344.16C88.9091 1344.16 90.8864 1342.31 90.8864 1339.43V1338.18H86.4545V1339.43H89.5227C89.483 1341.52 88.108 1342.84 86.1364 1342.84C83.9773 1342.84 82.3182 1341.2 82.3182 1338.18C82.3182 1335.16 83.9773 1333.52 86.0455 1333.52C87.7273 1333.52 88.8693 1334.47 89.3636 1336ZM96.8234 1344.18C99.187 1344.18 100.778 1342.39 100.778 1339.68C100.778 1336.95 99.187 1335.16 96.8234 1335.16C94.4597 1335.16 92.8688 1336.95 92.8688 1339.68C92.8688 1342.39 94.4597 1344.18 96.8234 1344.18ZM96.8234 1342.98C95.0279 1342.98 94.2097 1341.43 94.2097 1339.68C94.2097 1337.93 95.0279 1336.36 96.8234 1336.36C98.6188 1336.36 99.437 1337.93 99.437 1339.68C99.437 1341.43 98.6188 1342.98 96.8234 1342.98ZM104.326 1332.36H102.985V1344H104.326V1332.36ZM110.237 1344.18C111.919 1344.18 112.487 1343.14 112.783 1342.66H112.942V1344H114.237V1332.36H112.896V1336.66H112.783C112.487 1336.2 111.964 1335.16 110.26 1335.16C108.055 1335.16 106.533 1336.91 106.533 1339.66C106.533 1342.43 108.055 1344.18 110.237 1344.18ZM110.419 1342.98C108.737 1342.98 107.873 1341.5 107.873 1339.64C107.873 1337.8 108.714 1336.36 110.419 1336.36C112.055 1336.36 112.919 1337.68 112.919 1339.64C112.919 1341.61 112.033 1342.98 110.419 1342.98ZM127.881 1337.23C127.461 1335.99 126.517 1335.16 124.79 1335.16C122.949 1335.16 121.586 1336.2 121.586 1337.68C121.586 1338.89 122.301 1339.69 123.904 1340.07L125.358 1340.41C126.239 1340.61 126.654 1341.03 126.654 1341.64C126.654 1342.39 125.858 1343 124.608 1343C123.512 1343 122.824 1342.53 122.586 1341.59L121.313 1341.91C121.625 1343.39 122.847 1344.18 124.631 1344.18C126.659 1344.18 128.04 1343.07 128.04 1341.57C128.04 1340.35 127.279 1339.59 125.722 1339.2L124.426 1338.89C123.392 1338.63 122.926 1338.28 122.926 1337.61C122.926 1336.86 123.722 1336.32 124.79 1336.32C125.961 1336.32 126.443 1336.97 126.676 1337.57L127.881 1337.23ZM134.014 1335.27H132.15V1333.18H130.809V1335.27H129.491V1336.41H130.809V1341.86C130.809 1343.39 132.037 1344.11 133.173 1344.11C133.673 1344.11 133.991 1344.02 134.173 1343.95L133.9 1342.75C133.787 1342.77 133.605 1342.82 133.309 1342.82C132.719 1342.82 132.15 1342.64 132.15 1341.5V1336.41H134.014V1335.27ZM138.759 1344.2C140.282 1344.2 141.077 1343.39 141.35 1342.82H141.418V1344H142.759V1338.25C142.759 1335.48 140.646 1335.16 139.532 1335.16C138.214 1335.16 136.714 1335.61 136.032 1337.2L137.305 1337.66C137.6 1337.02 138.299 1336.34 139.577 1336.34C140.81 1336.34 141.418 1336.99 141.418 1338.11V1338.16C141.418 1338.81 140.759 1338.75 139.168 1338.95C137.549 1339.16 135.782 1339.52 135.782 1341.52C135.782 1343.23 137.1 1344.2 138.759 1344.2ZM138.964 1343C137.896 1343 137.123 1342.52 137.123 1341.59C137.123 1340.57 138.055 1340.25 139.1 1340.11C139.668 1340.05 141.191 1339.89 141.418 1339.61V1340.84C141.418 1341.93 140.555 1343 138.964 1343ZM146.708 1338.75C146.708 1337.23 147.651 1336.36 148.935 1336.36C150.179 1336.36 150.935 1337.18 150.935 1338.55V1344H152.276V1338.45C152.276 1336.23 151.088 1335.16 149.321 1335.16C148.003 1335.16 147.185 1335.75 146.776 1336.64H146.662V1335.27H145.367V1344H146.708V1338.75ZM158.181 1344.18C159.863 1344.18 160.431 1343.14 160.727 1342.66H160.886V1344H162.181V1332.36H160.841V1336.66H160.727C160.431 1336.2 159.909 1335.16 158.204 1335.16C156 1335.16 154.477 1336.91 154.477 1339.66C154.477 1342.43 156 1344.18 158.181 1344.18ZM158.363 1342.98C156.681 1342.98 155.818 1341.5 155.818 1339.64C155.818 1337.8 156.659 1336.36 158.363 1336.36C160 1336.36 160.863 1337.68 160.863 1339.64C160.863 1341.61 159.977 1342.98 158.363 1342.98ZM167.552 1344.2C169.074 1344.2 169.87 1343.39 170.143 1342.82H170.211V1344H171.552V1338.25C171.552 1335.48 169.438 1335.16 168.324 1335.16C167.006 1335.16 165.506 1335.61 164.824 1337.2L166.097 1337.66C166.393 1337.02 167.091 1336.34 168.37 1336.34C169.603 1336.34 170.211 1336.99 170.211 1338.11V1338.16C170.211 1338.81 169.552 1338.75 167.961 1338.95C166.341 1339.16 164.574 1339.52 164.574 1341.52C164.574 1343.23 165.893 1344.2 167.552 1344.2ZM167.756 1343C166.688 1343 165.915 1342.52 165.915 1341.59C165.915 1340.57 166.847 1340.25 167.893 1340.11C168.461 1340.05 169.984 1339.89 170.211 1339.61V1340.84C170.211 1341.93 169.347 1343 167.756 1343ZM174.159 1344H175.5V1338.48C175.5 1337.3 176.432 1336.43 177.705 1336.43C178.063 1336.43 178.432 1336.5 178.523 1336.52V1335.16C178.369 1335.15 178.017 1335.14 177.818 1335.14C176.773 1335.14 175.864 1335.73 175.546 1336.59H175.455V1335.27H174.159V1344ZM183.302 1344.18C184.984 1344.18 185.552 1343.14 185.848 1342.66H186.007V1344H187.302V1332.36H185.961V1336.66H185.848C185.552 1336.2 185.029 1335.16 183.325 1335.16C181.12 1335.16 179.598 1336.91 179.598 1339.66C179.598 1342.43 181.12 1344.18 183.302 1344.18ZM183.484 1342.98C181.802 1342.98 180.938 1341.5 180.938 1339.64C180.938 1337.8 181.779 1336.36 183.484 1336.36C185.12 1336.36 185.984 1337.68 185.984 1339.64C185.984 1341.61 185.098 1342.98 183.484 1342.98ZM198.31 1344.18C200.241 1344.18 201.514 1343 201.741 1341.45H200.401C200.151 1342.41 199.355 1342.98 198.31 1342.98C196.719 1342.98 195.696 1341.66 195.696 1339.64C195.696 1337.66 196.741 1336.36 198.31 1336.36C199.491 1336.36 200.196 1337.09 200.401 1337.89H201.741C201.514 1336.25 200.128 1335.16 198.287 1335.16C195.923 1335.16 194.355 1337.02 194.355 1339.68C194.355 1342.3 195.855 1344.18 198.31 1344.18ZM207.407 1344.18C209.771 1344.18 211.362 1342.39 211.362 1339.68C211.362 1336.95 209.771 1335.16 207.407 1335.16C205.043 1335.16 203.453 1336.95 203.453 1339.68C203.453 1342.39 205.043 1344.18 207.407 1344.18ZM207.407 1342.98C205.612 1342.98 204.793 1341.43 204.793 1339.68C204.793 1337.93 205.612 1336.36 207.407 1336.36C209.203 1336.36 210.021 1337.93 210.021 1339.68C210.021 1341.43 209.203 1342.98 207.407 1342.98ZM213.569 1344H214.909V1338.48C214.909 1337.3 215.841 1336.43 217.114 1336.43C217.472 1336.43 217.841 1336.5 217.932 1336.52V1335.16C217.779 1335.15 217.426 1335.14 217.228 1335.14C216.182 1335.14 215.273 1335.73 214.955 1336.59H214.864V1335.27H213.569V1344ZM219.682 1344H221.023V1338.48C221.023 1337.3 221.954 1336.43 223.227 1336.43C223.585 1336.43 223.954 1336.5 224.045 1336.52V1335.16C223.892 1335.15 223.54 1335.14 223.341 1335.14C222.295 1335.14 221.386 1335.73 221.068 1336.59H220.977V1335.27H219.682V1344ZM229.188 1344.18C230.961 1344.18 232.256 1343.3 232.666 1341.98L231.37 1341.61C231.029 1342.52 230.239 1342.98 229.188 1342.98C227.614 1342.98 226.529 1341.96 226.467 1340.09H232.802V1339.52C232.802 1336.27 230.87 1335.16 229.052 1335.16C226.688 1335.16 225.12 1337.02 225.12 1339.7C225.12 1342.39 226.666 1344.18 229.188 1344.18ZM226.467 1338.93C226.558 1337.57 227.518 1336.36 229.052 1336.36C230.506 1336.36 231.438 1337.45 231.438 1338.93H226.467ZM236.343 1332.36H235.002V1344H236.343V1332.36ZM241.527 1344.2C243.049 1344.2 243.845 1343.39 244.118 1342.82H244.186V1344H245.527V1338.25C245.527 1335.48 243.413 1335.16 242.299 1335.16C240.981 1335.16 239.481 1335.61 238.799 1337.2L240.072 1337.66C240.368 1337.02 241.066 1336.34 242.345 1336.34C243.578 1336.34 244.186 1336.99 244.186 1338.11V1338.16C244.186 1338.81 243.527 1338.75 241.936 1338.95C240.316 1339.16 238.549 1339.52 238.549 1341.52C238.549 1343.23 239.868 1344.2 241.527 1344.2ZM241.731 1343C240.663 1343 239.89 1342.52 239.89 1341.59C239.89 1340.57 240.822 1340.25 241.868 1340.11C242.436 1340.05 243.959 1339.89 244.186 1339.61V1340.84C244.186 1341.93 243.322 1343 241.731 1343ZM251.93 1335.27H250.066V1333.18H248.725V1335.27H247.407V1336.41H248.725V1341.86C248.725 1343.39 249.952 1344.11 251.089 1344.11C251.589 1344.11 251.907 1344.02 252.089 1343.95L251.816 1342.75C251.702 1342.77 251.521 1342.82 251.225 1342.82C250.634 1342.82 250.066 1342.64 250.066 1341.5V1336.41H251.93V1335.27ZM254.107 1344H255.448V1335.27H254.107V1344ZM254.788 1333.82C255.311 1333.82 255.743 1333.41 255.743 1332.91C255.743 1332.41 255.311 1332 254.788 1332C254.266 1332 253.834 1332.41 253.834 1332.91C253.834 1333.41 254.266 1333.82 254.788 1333.82ZM261.609 1344.18C263.973 1344.18 265.564 1342.39 265.564 1339.68C265.564 1336.95 263.973 1335.16 261.609 1335.16C259.245 1335.16 257.654 1336.95 257.654 1339.68C257.654 1342.39 259.245 1344.18 261.609 1344.18ZM261.609 1342.98C259.814 1342.98 258.995 1341.43 258.995 1339.68C258.995 1337.93 259.814 1336.36 261.609 1336.36C263.404 1336.36 264.223 1337.93 264.223 1339.68C264.223 1341.43 263.404 1342.98 261.609 1342.98ZM269.111 1338.75C269.111 1337.23 270.054 1336.36 271.339 1336.36C272.583 1336.36 273.339 1337.18 273.339 1338.55V1344H274.679V1338.45C274.679 1336.23 273.492 1335.16 271.725 1335.16C270.407 1335.16 269.589 1335.75 269.179 1336.64H269.066V1335.27H267.77V1344H269.111V1338.75Z" fill="white"/>
<rect x="38" y="1280" width="12" height="4" rx="2" fill="#0EBDF1"/>
<path d="M81.8864 1288L83.0568 1284.7H87.7614L88.9318 1288H90.4091L86.1364 1276.36H84.6818L80.4091 1288H81.8864ZM83.5 1283.45L85.3636 1278.2H85.4545L87.3182 1283.45H83.5ZM93.5407 1282.75C93.5407 1281.23 94.4839 1280.36 95.768 1280.36C97.0123 1280.36 97.768 1281.18 97.768 1282.55V1288H99.1089V1282.45C99.1089 1280.23 97.9214 1279.16 96.1543 1279.16C94.8361 1279.16 94.018 1279.75 93.6089 1280.64H93.4952V1279.27H92.1998V1288H93.5407V1282.75ZM104.287 1288.2C105.81 1288.2 106.606 1287.39 106.878 1286.82H106.946V1288H108.287V1282.25C108.287 1279.48 106.174 1279.16 105.06 1279.16C103.742 1279.16 102.242 1279.61 101.56 1281.2L102.833 1281.66C103.128 1281.02 103.827 1280.34 105.106 1280.34C106.338 1280.34 106.946 1280.99 106.946 1282.11V1282.16C106.946 1282.81 106.287 1282.75 104.696 1282.95C103.077 1283.16 101.31 1283.52 101.31 1285.52C101.31 1287.23 102.628 1288.2 104.287 1288.2ZM104.492 1287C103.424 1287 102.651 1286.52 102.651 1285.59C102.651 1284.57 103.583 1284.25 104.628 1284.11C105.196 1284.05 106.719 1283.89 106.946 1283.61V1284.84C106.946 1285.93 106.083 1287 104.492 1287ZM112.236 1276.36H110.895V1288H112.236V1276.36ZM115.715 1291.25C116.926 1291.25 117.783 1290.61 118.283 1289.27L121.999 1279.3L120.533 1279.27L118.124 1286.23H118.033L115.624 1279.27H114.17L117.397 1288.05L117.147 1288.73C116.67 1290.03 116.056 1290.16 115.079 1289.91L114.738 1291.09C114.874 1291.16 115.261 1291.25 115.715 1291.25ZM130.115 1281.23C129.695 1279.99 128.752 1279.16 127.024 1279.16C125.184 1279.16 123.82 1280.2 123.82 1281.68C123.82 1282.89 124.536 1283.69 126.138 1284.07L127.593 1284.41C128.473 1284.61 128.888 1285.03 128.888 1285.64C128.888 1286.39 128.093 1287 126.843 1287C125.746 1287 125.059 1286.53 124.82 1285.59L123.547 1285.91C123.86 1287.39 125.081 1288.18 126.865 1288.18C128.894 1288.18 130.274 1287.07 130.274 1285.57C130.274 1284.35 129.513 1283.59 127.956 1283.2L126.661 1282.89C125.627 1282.63 125.161 1282.28 125.161 1281.61C125.161 1280.86 125.956 1280.32 127.024 1280.32C128.195 1280.32 128.678 1280.97 128.911 1281.57L130.115 1281.23ZM132.453 1288H133.794V1279.27H132.453V1288ZM133.135 1277.82C133.657 1277.82 134.089 1277.41 134.089 1276.91C134.089 1276.41 133.657 1276 133.135 1276C132.612 1276 132.18 1276.41 132.18 1276.91C132.18 1277.41 132.612 1277.82 133.135 1277.82ZM142.592 1281.23C142.171 1279.99 141.228 1279.16 139.501 1279.16C137.66 1279.16 136.296 1280.2 136.296 1281.68C136.296 1282.89 137.012 1283.69 138.614 1284.07L140.069 1284.41C140.95 1284.61 141.364 1285.03 141.364 1285.64C141.364 1286.39 140.569 1287 139.319 1287C138.222 1287 137.535 1286.53 137.296 1285.59L136.023 1285.91C136.336 1287.39 137.557 1288.18 139.342 1288.18C141.37 1288.18 142.751 1287.07 142.751 1285.57C142.751 1284.35 141.989 1283.59 140.432 1283.2L139.137 1282.89C138.103 1282.63 137.637 1282.28 137.637 1281.61C137.637 1280.86 138.432 1280.32 139.501 1280.32C140.671 1280.32 141.154 1280.97 141.387 1281.57L142.592 1281.23Z" fill="white"/>
<rect x="38" y="1224" width="12" height="4" rx="2" fill="#0EBDF1"/>
<path d="M85 1232C88.5455 1232 90.5455 1229.8 90.5455 1226.16C90.5455 1222.55 88.5455 1220.36 85.1591 1220.36H81.4091V1232H85ZM82.8182 1230.75V1221.61H85.0682C87.7955 1221.61 89.1818 1223.34 89.1818 1226.16C89.1818 1229 87.7955 1230.75 84.9091 1230.75H82.8182ZM96.5464 1232.18C98.3191 1232.18 99.6145 1231.3 100.024 1229.98L98.7282 1229.61C98.3873 1230.52 97.5975 1230.98 96.5464 1230.98C94.9725 1230.98 93.8873 1229.96 93.8248 1228.09H100.16V1227.52C100.16 1224.27 98.2282 1223.16 96.41 1223.16C94.0464 1223.16 92.4782 1225.02 92.4782 1227.7C92.4782 1230.39 94.0236 1232.18 96.5464 1232.18ZM93.8248 1226.93C93.9157 1225.57 94.8759 1224.36 96.41 1224.36C97.8645 1224.36 98.7964 1225.45 98.7964 1226.93H93.8248ZM106.155 1223.27H104.292V1221.18H102.951V1223.27H101.632V1224.41H102.951V1229.86C102.951 1231.39 104.178 1232.11 105.314 1232.11C105.814 1232.11 106.132 1232.02 106.314 1231.95L106.042 1230.75C105.928 1230.77 105.746 1230.82 105.451 1230.82C104.86 1230.82 104.292 1230.64 104.292 1229.5V1224.41H106.155V1223.27ZM111.898 1232.18C113.67 1232.18 114.966 1231.3 115.375 1229.98L114.079 1229.61C113.739 1230.52 112.949 1230.98 111.898 1230.98C110.324 1230.98 109.239 1229.96 109.176 1228.09H115.511V1227.52C115.511 1224.27 113.579 1223.16 111.761 1223.16C109.398 1223.16 107.829 1225.02 107.829 1227.7C107.829 1230.39 109.375 1232.18 111.898 1232.18ZM109.176 1226.93C109.267 1225.57 110.227 1224.36 111.761 1224.36C113.216 1224.36 114.148 1225.45 114.148 1226.93H109.176ZM121.256 1232.18C123.188 1232.18 124.461 1231 124.688 1229.45H123.347C123.097 1230.41 122.302 1230.98 121.256 1230.98C119.666 1230.98 118.643 1229.66 118.643 1227.64C118.643 1225.66 119.688 1224.36 121.256 1224.36C122.438 1224.36 123.143 1225.09 123.347 1225.89H124.688C124.461 1224.25 123.075 1223.16 121.234 1223.16C118.87 1223.16 117.302 1225.02 117.302 1227.68C117.302 1230.3 118.802 1232.18 121.256 1232.18ZM130.604 1223.27H128.74V1221.18H127.399V1223.27H126.081V1224.41H127.399V1229.86C127.399 1231.39 128.627 1232.11 129.763 1232.11C130.263 1232.11 130.581 1232.02 130.763 1231.95L130.49 1230.75C130.377 1230.77 130.195 1230.82 129.899 1230.82C129.309 1230.82 128.74 1230.64 128.74 1229.5V1224.41H130.604V1223.27ZM132.781 1232H134.122V1223.27H132.781V1232ZM133.463 1221.82C133.986 1221.82 134.417 1221.41 134.417 1220.91C134.417 1220.41 133.986 1220 133.463 1220C132.94 1220 132.508 1220.41 132.508 1220.91C132.508 1221.41 132.94 1221.82 133.463 1221.82ZM140.283 1232.18C142.647 1232.18 144.238 1230.39 144.238 1227.68C144.238 1224.95 142.647 1223.16 140.283 1223.16C137.92 1223.16 136.329 1224.95 136.329 1227.68C136.329 1230.39 137.92 1232.18 140.283 1232.18ZM140.283 1230.98C138.488 1230.98 137.67 1229.43 137.67 1227.68C137.67 1225.93 138.488 1224.36 140.283 1224.36C142.079 1224.36 142.897 1225.93 142.897 1227.68C142.897 1229.43 142.079 1230.98 140.283 1230.98ZM147.786 1226.75C147.786 1225.23 148.729 1224.36 150.013 1224.36C151.257 1224.36 152.013 1225.18 152.013 1226.55V1232H153.354V1226.45C153.354 1224.23 152.166 1223.16 150.399 1223.16C149.081 1223.16 148.263 1223.75 147.854 1224.64H147.74V1223.27H146.445V1232H147.786V1226.75Z" fill="white"/>
<path d="M111.788 741.42H116.504C116.436 737.273 113.027 734.409 107.845 734.409C102.743 734.409 99.0043 737.227 99.027 741.455C99.0156 744.886 101.436 746.852 105.368 747.795L107.902 748.432C110.436 749.045 111.845 749.773 111.857 751.341C111.845 753.045 110.232 754.205 107.732 754.205C105.175 754.205 103.334 753.023 103.175 750.693H98.4134C98.5384 755.727 102.141 758.33 107.788 758.33C113.47 758.33 116.811 755.614 116.822 751.352C116.811 747.477 113.891 745.42 109.845 744.511L107.754 744.011C105.732 743.545 104.038 742.795 104.072 741.125C104.072 739.625 105.402 738.523 107.811 738.523C110.163 738.523 111.607 739.591 111.788 741.42ZM120.041 758H124.882V740.545H120.041V758ZM122.473 738.295C123.916 738.295 125.098 737.193 125.098 735.841C125.098 734.5 123.916 733.398 122.473 733.398C121.041 733.398 119.859 734.5 119.859 735.841C119.859 737.193 121.041 738.295 122.473 738.295ZM133.601 747.909C133.612 745.659 134.953 744.341 136.908 744.341C138.851 744.341 140.021 745.614 140.01 747.75V758H144.851V746.886C144.851 742.818 142.464 740.318 138.828 740.318C136.237 740.318 134.362 741.591 133.578 743.625H133.374V740.545H128.76V758H133.601V747.909ZM156.53 764.795C161.518 764.795 165.064 762.523 165.064 758.17V740.545H160.257V743.477H160.075C159.428 742.057 158.007 740.318 155.087 740.318C151.257 740.318 148.018 743.295 148.018 749.239C148.018 755.045 151.166 757.75 155.098 757.75C157.882 757.75 159.439 756.352 160.075 754.909H160.28V758.102C160.28 760.386 158.746 761.318 156.643 761.318C154.507 761.318 153.428 760.386 153.03 759.443L148.553 760.045C149.132 762.682 151.825 764.795 156.53 764.795ZM156.632 754.114C154.257 754.114 152.962 752.227 152.962 749.216C152.962 746.25 154.234 744.17 156.632 744.17C158.984 744.17 160.303 746.159 160.303 749.216C160.303 752.295 158.962 754.114 156.632 754.114ZM173.757 734.727H168.916V758H173.757V734.727ZM185.589 758.341C189.908 758.341 192.817 756.239 193.499 753L189.021 752.705C188.533 754.034 187.283 754.727 185.669 754.727C183.249 754.727 181.714 753.125 181.714 750.523V750.511H193.601V749.182C193.601 743.25 190.01 740.318 185.396 740.318C180.26 740.318 176.93 743.966 176.93 749.352C176.93 754.886 180.214 758.341 185.589 758.341ZM181.714 747.511C181.817 745.523 183.328 743.932 185.476 743.932C187.578 743.932 189.033 745.432 189.044 747.511H181.714ZM224.791 742.875C224.143 737.5 220.075 734.409 214.689 734.409C208.541 734.409 203.848 738.75 203.848 746.364C203.848 753.955 208.462 758.318 214.689 758.318C220.655 758.318 224.257 754.352 224.791 750.068L219.814 750.045C219.348 752.534 217.393 753.966 214.768 753.966C211.234 753.966 208.837 751.341 208.837 746.364C208.837 741.523 211.2 738.761 214.803 738.761C217.496 738.761 219.439 740.318 219.814 742.875H224.791ZM236.183 758.341C240.501 758.341 243.411 756.239 244.092 753L239.615 752.705C239.126 754.034 237.876 754.727 236.263 754.727C233.842 754.727 232.308 753.125 232.308 750.523V750.511H244.195V749.182C244.195 743.25 240.604 740.318 235.99 740.318C230.854 740.318 227.524 743.966 227.524 749.352C227.524 754.886 230.808 758.341 236.183 758.341ZM232.308 747.511C232.411 745.523 233.922 743.932 236.07 743.932C238.172 743.932 239.626 745.432 239.638 747.511H232.308ZM252.195 734.727H247.354V758H252.195V734.727ZM260.913 734.727H256.072V758H260.913V734.727Z" fill="white"/>
<path opacity="0.6" d="M104.629 817C104.058 813.787 101.433 811.307 97.7173 811.307C93.3111 811.307 90.1747 814.81 90.1747 820.273C90.1747 825.736 93.3111 829.239 97.7173 829.239C101.433 829.239 104.058 826.75 104.629 823.545H103.027C102.541 825.94 100.453 827.739 97.7173 827.739C94.4105 827.739 91.7173 825.122 91.7173 820.273C91.7173 815.44 94.4105 812.807 97.7173 812.807C100.453 812.807 102.541 814.614 103.027 817H104.629ZM113.146 829.273C116.538 829.273 118.907 826.503 118.907 822.514C118.907 818.5 116.538 815.73 113.146 815.73C109.754 815.73 107.384 818.5 107.384 822.514C107.384 826.503 109.754 829.273 113.146 829.273ZM113.146 827.884C110.427 827.884 108.91 825.446 108.91 822.514C108.91 819.582 110.427 817.111 113.146 817.111C115.864 817.111 117.381 819.582 117.381 822.514C117.381 825.446 115.864 827.884 113.146 827.884ZM122.237 829H123.754V820.614C123.754 818.577 125.109 817.128 126.925 817.128C128.714 817.128 129.754 818.321 129.754 820.094V829H131.305V820.384C131.305 818.5 132.43 817.128 134.425 817.128C136.155 817.128 137.305 818.168 137.305 820.23V829H138.822V820.23C138.822 817.298 137.314 815.739 134.885 815.739C132.976 815.739 131.595 816.668 131.007 818.116H130.896C130.317 816.634 129.166 815.739 127.359 815.739C125.646 815.739 124.368 816.565 123.848 817.92H123.712V815.909H122.237V829ZM142.813 833.909H144.339V826.571H144.475C144.995 827.773 146.12 829.273 148.498 829.273C151.702 829.273 153.884 826.545 153.884 822.489C153.884 818.449 151.711 815.73 148.472 815.73C146.069 815.73 145.004 817.23 144.475 818.406H144.288V815.909H142.813V833.909ZM144.313 822.463C144.313 819.327 145.754 817.111 148.31 817.111C150.944 817.111 152.359 819.446 152.359 822.463C152.359 825.514 150.918 827.884 148.31 827.884C145.779 827.884 144.313 825.625 144.313 822.463ZM165.524 823.997C165.524 826.401 163.717 827.696 161.945 827.696C160.053 827.696 158.723 826.341 158.723 824.295V815.909H157.206V824.389C157.206 827.491 158.996 829.17 161.51 829.17C163.428 829.17 164.791 828.173 165.405 826.827H165.524V829H167.041V815.909H165.524V823.997ZM176.214 815.909H173.444V812.773H171.918V815.909H169.967V817.23H171.918V825.94C171.918 828.08 173.606 829.196 175.285 829.196C175.915 829.196 176.342 829.077 176.631 828.966L176.308 827.594C176.094 827.653 175.822 827.713 175.421 827.713C174.39 827.713 173.444 827.227 173.444 825.582V817.23H176.214V815.909ZM184.811 829.273C187.436 829.273 189.2 827.849 189.797 826.205L188.357 825.736C187.854 826.912 186.669 827.884 184.811 827.884C182.135 827.884 180.439 825.932 180.371 822.906H190.121V822.156C190.121 817.784 187.419 815.73 184.581 815.73C181.189 815.73 178.845 818.568 178.845 822.531C178.845 826.503 181.146 829.273 184.811 829.273ZM180.379 821.568C180.541 819.131 182.186 817.111 184.581 817.111C186.925 817.111 188.57 819.045 188.57 821.568H180.379ZM193.464 829H194.981V820.545C194.981 818.602 196.472 817.196 198.518 817.196C198.918 817.196 199.293 817.264 199.43 817.281V815.739C199.225 815.73 198.876 815.713 198.629 815.713C196.984 815.713 195.577 816.599 195.049 817.92H194.938V815.909H193.464V829ZM218.902 815.909H217.257L213.371 826.997H213.251L209.365 815.909H207.72L212.501 829H214.121L218.902 815.909ZM221.887 829H223.413V815.909H221.887V829ZM222.663 813.659C223.285 813.659 223.805 813.165 223.805 812.568C223.805 811.972 223.285 811.477 222.663 811.477C222.04 811.477 221.529 811.972 221.529 812.568C221.529 813.165 222.04 813.659 222.663 813.659ZM236.22 818.781C235.581 816.889 234.183 815.73 231.788 815.73C229.146 815.73 227.229 817.239 227.229 819.395C227.229 821.151 228.294 822.344 230.57 822.889L232.709 823.401C234.149 823.741 234.839 824.483 234.839 825.531C234.839 826.895 233.536 827.909 231.524 827.909C229.734 827.909 228.618 827.099 228.251 825.548L226.794 825.906C227.254 828.088 228.984 829.273 231.55 829.273C234.43 829.273 236.408 827.688 236.408 825.463C236.408 823.716 235.308 822.548 233.118 822.011L231.141 821.526C229.513 821.116 228.754 820.46 228.754 819.327C228.754 817.997 230.024 817.068 231.788 817.068C233.553 817.068 234.422 817.997 234.831 819.173L236.22 818.781ZM239.746 829H241.272V815.909H239.746V829ZM240.522 813.659C241.144 813.659 241.664 813.165 241.664 812.568C241.664 811.972 241.144 811.477 240.522 811.477C239.9 811.477 239.388 811.972 239.388 812.568C239.388 813.165 239.9 813.659 240.522 813.659ZM250.372 829.273C253.764 829.273 256.134 826.503 256.134 822.514C256.134 818.5 253.764 815.73 250.372 815.73C246.98 815.73 244.611 818.5 244.611 822.514C244.611 826.503 246.98 829.273 250.372 829.273ZM250.372 827.884C247.653 827.884 246.136 825.446 246.136 822.514C246.136 819.582 247.653 817.111 250.372 817.111C253.091 817.111 254.608 819.582 254.608 822.514C254.608 825.446 253.091 827.884 250.372 827.884ZM260.981 820.818C260.981 818.534 262.481 817.128 264.543 817.128C266.555 817.128 267.85 818.474 267.85 820.614V829H269.367V820.52C269.367 817.418 267.569 815.739 264.927 815.739C263.009 815.739 261.688 816.625 261.075 817.963H260.938V815.909H259.464V829H260.981V820.818Z" fill="white"/>
<path opacity="0.6" d="M83.1307 862.545V880H84.6307V865.912H84.767L90.6562 880H92.1051L97.9943 865.912H98.1307V880H99.6307V862.545H97.7898L91.4574 877.75H91.304L84.9716 862.545H83.1307ZM109.249 880.273C111.874 880.273 113.638 878.849 114.234 877.205L112.794 876.736C112.291 877.912 111.107 878.884 109.249 878.884C106.572 878.884 104.876 876.932 104.808 873.906H114.558V873.156C114.558 868.784 111.857 866.73 109.018 866.73C105.626 866.73 103.283 869.568 103.283 873.531C103.283 877.503 105.584 880.273 109.249 880.273ZM104.817 872.568C104.979 870.131 106.624 868.111 109.018 868.111C111.362 868.111 113.007 870.045 113.007 872.568H104.817ZM123.058 866.909H120.288V863.773H118.762V866.909H116.81V868.23H118.762V876.94C118.762 879.08 120.45 880.196 122.129 880.196C122.759 880.196 123.185 880.077 123.475 879.966L123.151 878.594C122.938 878.653 122.665 878.713 122.265 878.713C121.234 878.713 120.288 878.227 120.288 876.582V868.23H123.058V866.909ZM130.159 880.298C132.341 880.298 133.67 879.088 134.216 877.929H134.31V880H135.827V871.111C135.827 867.599 133.185 866.73 131.182 866.73C129.179 866.73 127.116 867.523 126.23 869.662L127.67 870.182C128.148 869.057 129.332 868.094 131.224 868.094C133.21 868.094 134.31 869.185 134.31 870.974V871.281C134.31 872.27 133.082 872.287 130.884 872.56C127.926 872.926 125.855 873.753 125.855 876.344C125.855 878.866 127.781 880.298 130.159 880.298ZM130.364 878.909C128.651 878.909 127.372 877.997 127.372 876.412C127.372 874.827 128.668 874.162 130.884 873.889C131.957 873.761 133.866 873.523 134.31 873.088V874.98C134.31 877.128 132.784 878.909 130.364 878.909ZM140.178 880H141.652V877.571H141.839C142.368 878.773 143.476 880.273 145.862 880.273C149.075 880.273 151.249 877.554 151.249 873.489C151.249 869.457 149.067 866.73 145.837 866.73C143.442 866.73 142.359 868.23 141.839 869.406H141.703V862.545H140.178V880ZM141.678 873.463C141.678 870.327 143.118 868.111 145.675 868.111C148.3 868.111 149.723 870.446 149.723 873.463C149.723 876.514 148.283 878.884 145.675 878.884C143.135 878.884 141.678 876.625 141.678 873.463ZM159.669 880.273C163.061 880.273 165.43 877.503 165.43 873.514C165.43 869.5 163.061 866.73 159.669 866.73C156.277 866.73 153.908 869.5 153.908 873.514C153.908 877.503 156.277 880.273 159.669 880.273ZM159.669 878.884C156.95 878.884 155.433 876.446 155.433 873.514C155.433 870.582 156.95 868.111 159.669 868.111C162.388 868.111 163.905 870.582 163.905 873.514C163.905 876.446 162.388 878.884 159.669 878.884ZM170.278 862.545H168.761V880H170.278V862.545ZM174.309 880H175.835V866.909H174.309V880ZM175.085 864.659C175.707 864.659 176.227 864.165 176.227 863.568C176.227 862.972 175.707 862.477 175.085 862.477C174.462 862.477 173.951 862.972 173.951 863.568C173.951 864.165 174.462 864.659 175.085 864.659ZM184.96 880.273C187.688 880.273 189.605 878.551 189.955 876.182H188.42C188.071 877.852 186.699 878.884 184.96 878.884C182.395 878.884 180.699 876.651 180.699 873.463C180.699 870.293 182.446 868.111 184.96 868.111C186.827 868.111 188.088 869.312 188.412 870.795H189.946C189.588 868.366 187.56 866.73 184.935 866.73C181.509 866.73 179.173 869.577 179.173 873.514C179.173 877.418 181.44 880.273 184.96 880.273ZM203.612 880.298C205.794 880.298 207.124 879.088 207.669 877.929H207.763V880H209.28V871.111C209.28 867.599 206.638 866.73 204.635 866.73C202.632 866.73 200.57 867.523 199.683 869.662L201.124 870.182C201.601 869.057 202.786 868.094 204.678 868.094C206.663 868.094 207.763 869.185 207.763 870.974V871.281C207.763 872.27 206.536 872.287 204.337 872.56C201.379 872.926 199.308 873.753 199.308 876.344C199.308 878.866 201.234 880.298 203.612 880.298ZM203.817 878.909C202.104 878.909 200.825 877.997 200.825 876.412C200.825 874.827 202.121 874.162 204.337 873.889C205.411 873.761 207.32 873.523 207.763 873.088V874.98C207.763 877.128 206.237 878.909 203.817 878.909ZM218.429 880.273C221.156 880.273 223.074 878.551 223.423 876.182H221.889C221.54 877.852 220.168 878.884 218.429 878.884C215.864 878.884 214.168 876.651 214.168 873.463C214.168 870.293 215.915 868.111 218.429 868.111C220.295 868.111 221.557 869.312 221.881 870.795H223.415C223.057 868.366 221.028 866.73 218.403 866.73C214.977 866.73 212.642 869.577 212.642 873.514C212.642 877.418 214.909 880.273 218.429 880.273ZM231.831 866.909H229.061V863.773H227.536V866.909H225.584V868.23H227.536V876.94C227.536 879.08 229.223 880.196 230.902 880.196C231.533 880.196 231.959 880.077 232.249 879.966L231.925 878.594C231.712 878.653 231.439 878.713 231.038 878.713C230.007 878.713 229.061 878.227 229.061 876.582V868.23H231.831V866.909ZM235.293 880H236.819V866.909H235.293V880ZM236.069 864.659C236.691 864.659 237.211 864.165 237.211 863.568C237.211 862.972 236.691 862.477 236.069 862.477C235.447 862.477 234.935 862.972 234.935 863.568C234.935 864.165 235.447 864.659 236.069 864.659ZM250.964 866.909H249.32L245.433 877.997H245.314L241.428 866.909H239.783L244.564 880H246.183L250.964 866.909ZM253.95 880H255.475V866.909H253.95V880ZM254.725 864.659C255.347 864.659 255.867 864.165 255.867 863.568C255.867 862.972 255.347 862.477 254.725 862.477C254.103 862.477 253.592 862.972 253.592 863.568C253.592 864.165 254.103 864.659 254.725 864.659ZM264.643 866.909H261.874V863.773H260.348V866.909H258.396V868.23H260.348V876.94C260.348 879.08 262.036 880.196 263.714 880.196C264.345 880.196 264.771 880.077 265.061 879.966L264.737 878.594C264.524 878.653 264.251 878.713 263.851 878.713C262.82 878.713 261.874 878.227 261.874 876.582V868.23H264.643V866.909ZM269.146 884.901C270.782 884.901 271.984 883.963 272.683 882.071L278.231 866.935L276.577 866.909L272.691 877.997H272.572L268.685 866.909H267.04L271.856 880.128L271.379 881.457C270.663 883.426 269.631 883.776 268.089 883.281L267.68 884.628C267.987 884.764 268.549 884.901 269.146 884.901ZM122.354 912H123.871V903.614C123.871 901.577 125.227 900.128 127.042 900.128C128.832 900.128 129.871 901.321 129.871 903.094V912H131.423V903.384C131.423 901.5 132.548 900.128 134.542 900.128C136.272 900.128 137.423 901.168 137.423 903.23V912H138.94V903.23C138.94 900.298 137.431 898.739 135.002 898.739C133.093 898.739 131.712 899.668 131.124 901.116H131.013C130.434 899.634 129.283 898.739 127.477 898.739C125.763 898.739 124.485 899.565 123.965 900.92H123.829V898.909H122.354V912ZM148.044 912.273C151.436 912.273 153.805 909.503 153.805 905.514C153.805 901.5 151.436 898.73 148.044 898.73C144.652 898.73 142.283 901.5 142.283 905.514C142.283 909.503 144.652 912.273 148.044 912.273ZM148.044 910.884C145.325 910.884 143.808 908.446 143.808 905.514C143.808 902.582 145.325 900.111 148.044 900.111C150.763 900.111 152.28 902.582 152.28 905.514C152.28 908.446 150.763 910.884 148.044 910.884ZM158.653 903.818C158.653 901.534 160.153 900.128 162.215 900.128C164.227 900.128 165.522 901.474 165.522 903.614V912H167.039V903.52C167.039 900.418 165.241 898.739 162.599 898.739C160.681 898.739 159.36 899.625 158.746 900.963H158.61V898.909H157.136V912H158.653V903.818ZM171.051 912H172.577V898.909H171.051V912ZM171.827 896.659C172.449 896.659 172.969 896.165 172.969 895.568C172.969 894.972 172.449 894.477 171.827 894.477C171.205 894.477 170.693 894.972 170.693 895.568C170.693 896.165 171.205 896.659 171.827 896.659ZM181.745 898.909H178.975V895.773H177.45V898.909H175.498V900.23H177.45V908.94C177.45 911.08 179.137 912.196 180.816 912.196C181.447 912.196 181.873 912.077 182.163 911.966L181.839 910.594C181.626 910.653 181.353 910.713 180.952 910.713C179.921 910.713 178.975 910.227 178.975 908.582V900.23H181.745V898.909ZM190.138 912.273C193.53 912.273 195.899 909.503 195.899 905.514C195.899 901.5 193.53 898.73 190.138 898.73C186.746 898.73 184.376 901.5 184.376 905.514C184.376 909.503 186.746 912.273 190.138 912.273ZM190.138 910.884C187.419 910.884 185.902 908.446 185.902 905.514C185.902 902.582 187.419 900.111 190.138 900.111C192.857 900.111 194.374 902.582 194.374 905.514C194.374 908.446 192.857 910.884 190.138 910.884ZM199.229 912H200.746V903.545C200.746 901.602 202.238 900.196 204.283 900.196C204.684 900.196 205.059 900.264 205.195 900.281V898.739C204.991 898.73 204.641 898.713 204.394 898.713C202.749 898.713 201.343 899.599 200.815 900.92H200.704V898.909H199.229V912ZM207.801 912H209.327V898.909H207.801V912ZM208.577 896.659C209.199 896.659 209.719 896.165 209.719 895.568C209.719 894.972 209.199 894.477 208.577 894.477C207.955 894.477 207.443 894.972 207.443 895.568C207.443 896.165 207.955 896.659 208.577 896.659ZM214.856 903.818C214.856 901.534 216.356 900.128 218.418 900.128C220.43 900.128 221.725 901.474 221.725 903.614V912H223.242V903.52C223.242 900.418 221.444 898.739 218.802 898.739C216.884 898.739 215.563 899.625 214.95 900.963H214.813V898.909H213.339V912H214.856V903.818ZM232.232 917.182C235.334 917.182 237.635 915.665 237.635 912.341V898.909H236.152V901.406H235.999C235.462 900.23 234.379 898.73 231.976 898.73C228.737 898.73 226.564 901.44 226.564 905.42C226.564 909.435 228.814 911.864 231.95 911.864C234.303 911.864 235.453 910.5 235.973 909.298H236.109V912.247C236.109 914.685 234.55 915.818 232.232 915.818C229.99 915.818 228.916 914.736 228.362 913.739L227.118 914.557C227.885 916.057 229.555 917.182 232.232 917.182ZM232.129 910.474C229.53 910.474 228.089 908.395 228.089 905.395C228.089 902.446 229.504 900.111 232.129 900.111C234.695 900.111 236.135 902.327 236.135 905.395C236.135 908.557 234.652 910.474 232.129 910.474Z" fill="white"/>
<defs>
<filter id="filter0_f" x="-156.693" y="500.625" width="672.387" height="642.828" filterUnits="userSpaceOnUse" color-interpolation-filters="sRGB">
<feFlood flood-opacity="0" result="BackgroundImageFix"/>
<feBlend mode="normal" in="SourceGraphic" in2="BackgroundImageFix" result="shape"/>
<feGaussianBlur stdDeviation="21" result="effect1_foregroundBlur"/>
</filter>
<filter id="filter1_d" x="160.659" y="1068.66" width="37" height="37" filterUnits="userSpaceOnUse" color-interpolation-filters="sRGB">
<feFlood flood-opacity="0" result="BackgroundImageFix"/>
<feColorMatrix in="SourceAlpha" type="matrix" values="0 0 0 0 0 0 0 0 0 0 0 0 0 0 0 0 0 0 127 0"/>
<feOffset/>
<feGaussianBlur stdDeviation="4"/>
<feColorMatrix type="matrix" values="0 0 0 0 0.054902 0 0 0 0 0.741176 0 0 0 0 0.945098 0 0 0 0.8 0"/>
<feBlend mode="normal" in2="BackgroundImageFix" result="effect1_dropShadow"/>
<feBlend mode="normal" in="SourceGraphic" in2="effect1_dropShadow" result="shape"/>
</filter>
<filter id="filter2_d" x="311.659" y="1023.66" width="37" height="37" filterUnits="userSpaceOnUse" color-interpolation-filters="sRGB">
<feFlood flood-opacity="0" result="BackgroundImageFix"/>
<feColorMatrix in="SourceAlpha" type="matrix" values="0 0 0 0 0 0 0 0 0 0 0 0 0 0 0 0 0 0 127 0"/>
<feOffset/>
<feGaussianBlur stdDeviation="4"/>
<feColorMatrix type="matrix" values="0 0 0 0 0.054902 0 0 0 0 0.741176 0 0 0 0 0.945098 0 0 0 0.8 0"/>
<feBlend mode="normal" in2="BackgroundImageFix" result="effect1_dropShadow"/>
<feBlend mode="normal" in="SourceGraphic" in2="effect1_dropShadow" result="shape"/>
</filter>
<filter id="filter3_d" x="9.65942" y="1023.66" width="37" height="37" filterUnits="userSpaceOnUse" color-interpolation-filters="sRGB">
<feFlood flood-opacity="0" result="BackgroundImageFix"/>
<feColorMatrix in="SourceAlpha" type="matrix" values="0 0 0 0 0 0 0 0 0 0 0 0 0 0 0 0 0 0 127 0"/>
<feOffset/>
<feGaussianBlur stdDeviation="4"/>
<feColorMatrix type="matrix" values="0 0 0 0 0.054902 0 0 0 0 0.741176 0 0 0 0 0.945098 0 0 0 0.8 0"/>
<feBlend mode="normal" in2="BackgroundImageFix" result="effect1_dropShadow"/>
<feBlend mode="normal" in="SourceGraphic" in2="effect1_dropShadow" result="shape"/>
</filter>
<filter id="filter4_d" x="183.659" y="538.659" width="37" height="37" filterUnits="userSpaceOnUse" color-interpolation-filters="sRGB">
<feFlood flood-opacity="0" result="BackgroundImageFix"/>
<feColorMatrix in="SourceAlpha" type="matrix" values="0 0 0 0 0 0 0 0 0 0 0 0 0 0 0 0 0 0 127 0"/>
<feOffset/>
<feGaussianBlur stdDeviation="4"/>
<feColorMatrix type="matrix" values="0 0 0 0 0.360784 0 0 0 0 0.780392 0 0 0 0 0.552941 0 0 0 1 0"/>
<feBlend mode="normal" in2="BackgroundImageFix" result="effect1_dropShadow"/>
<feBlend mode="normal" in="SourceGraphic" in2="effect1_dropShadow" result="shape"/>
</filter>
<filter id="filter5_d" x="327.659" y="594.659" width="37" height="37" filterUnits="userSpaceOnUse" color-interpolation-filters="sRGB">
<feFlood flood-opacity="0" result="BackgroundImageFix"/>
<feColorMatrix in="SourceAlpha" type="matrix" values="0 0 0 0 0 0 0 0 0 0 0 0 0 0 0 0 0 0 127 0"/>
<feOffset/>
<feGaussianBlur stdDeviation="4"/>
<feColorMatrix type="matrix" values="0 0 0 0 0.360784 0 0 0 0 0.780392 0 0 0 0 0.552941 0 0 0 1 0"/>
<feBlend mode="normal" in2="BackgroundImageFix" result="effect1_dropShadow"/>
<feBlend mode="normal" in="SourceGraphic" in2="effect1_dropShadow" result="shape"/>
</filter>
<filter id="filter6_d" x="23.6594" y="574.659" width="37" height="37" filterUnits="userSpaceOnUse" color-interpolation-filters="sRGB">
<feFlood flood-opacity="0" result="BackgroundImageFix"/>
<feColorMatrix in="SourceAlpha" type="matrix" values="0 0 0 0 0 0 0 0 0 0 0 0 0 0 0 0 0 0 127 0"/>
<feOffset/>
<feGaussianBlur stdDeviation="4"/>
<feColorMatrix type="matrix" values="0 0 0 0 0.360784 0 0 0 0 0.780392 0 0 0 0 0.552941 0 0 0 1 0"/>
<feBlend mode="normal" in2="BackgroundImageFix" result="effect1_dropShadow"/>
<feBlend mode="normal" in="SourceGraphic" in2="effect1_dropShadow" result="shape"/>
</filter>
<linearGradient id="paint0_linear" x1="389.723" y1="822.039" x2="-30.7234" y2="822.039" gradientUnits="userSpaceOnUse">
<stop stop-color="#0EBDF1"/>
<stop offset="1" stop-color="#5CC78D"/>
</linearGradient>
<radialGradient id="paint1_radial" cx="0" cy="0" r="1" gradientUnits="userSpaceOnUse" gradientTransform="translate(179.502 600.039) rotate(90) scale(444.091 277.557)">
<stop stop-color="#0EBDF1" stop-opacity="0.2"/>
<stop offset="1" stop-color="#FF26C2" stop-opacity="0"/>
</radialGradient>
<linearGradient id="paint2_linear" x1="401.547" y1="822.085" x2="-42.5437" y2="822.085" gradientUnits="userSpaceOnUse">
<stop stop-color="#0EBDF1"/>
<stop offset="1" stop-color="#5CC78D"/>
</linearGradient>
</defs>
</svg>
