<svg width="69" height="18" viewBox="0 0 69 18" fill="none" xmlns="http://www.w3.org/2000/svg">
<path d="M1.22727 16.2727H2.56818V11.6591H2.68182C2.97727 12.1364 3.54545 13.1818 5.22727 13.1818C7.40909 13.1818 8.93182 11.4318 8.93182 8.65909C8.93182 5.90909 7.40909 4.15909 5.20455 4.15909C3.5 4.15909 2.97727 5.20455 2.68182 5.65909H2.52273V4.27273H1.22727V16.2727ZM2.54545 8.63636C2.54545 6.68182 3.40909 5.36364 5.04545 5.36364C6.75 5.36364 7.59091 6.79545 7.59091 8.63636C7.59091 10.5 6.72727 11.9773 5.04545 11.9773C3.43182 11.9773 2.54545 10.6136 2.54545 8.63636ZM11.1373 13H12.4782V7.47727C12.4782 6.29545 13.41 5.43182 14.6827 5.43182C15.0407 5.43182 15.41 5.5 15.5009 5.52273V4.15909C15.3475 4.14773 14.9952 4.13636 14.7964 4.13636C13.7509 4.13636 12.8418 4.72727 12.5236 5.59091H12.4327V4.27273H11.1373V13ZM20.5302 13.1818C22.8939 13.1818 24.4848 11.3864 24.4848 8.68182C24.4848 5.95455 22.8939 4.15909 20.5302 4.15909C18.1666 4.15909 16.5757 5.95455 16.5757 8.68182C16.5757 11.3864 18.1666 13.1818 20.5302 13.1818ZM20.5302 11.9773C18.7348 11.9773 17.9166 10.4318 17.9166 8.68182C17.9166 6.93182 18.7348 5.36364 20.5302 5.36364C22.3257 5.36364 23.1439 6.93182 23.1439 8.68182C23.1439 10.4318 22.3257 11.9773 20.5302 11.9773ZM30.578 4.27273H28.6235V3.38636C28.6235 2.52273 28.9871 2.06818 29.8735 2.06818C30.2598 2.06818 30.4871 2.15909 30.6235 2.20455L31.0098 1.04545C30.8053 0.954545 30.3962 0.818181 29.7371 0.818181C28.4871 0.818181 27.2826 1.56818 27.2826 3.06818V4.27273H25.8735V5.40909H27.2826V13H28.6235V5.40909H30.578V4.27273ZM32.6173 13H33.9582V4.27273H32.6173V13ZM33.2991 2.81818C33.8218 2.81818 34.2536 2.40909 34.2536 1.90909C34.2536 1.40909 33.8218 1 33.2991 1C32.7764 1 32.3445 1.40909 32.3445 1.90909C32.3445 2.40909 32.7764 2.81818 33.2991 2.81818ZM37.9151 1.36364H36.5741V13H37.9151V1.36364ZM44.1901 13.1818C45.9628 13.1818 47.2583 12.2955 47.6674 10.9773L46.3719 10.6136C46.031 11.5227 45.2412 11.9773 44.1901 11.9773C42.6162 11.9773 41.531 10.9602 41.4685 9.09091H47.8037V8.52273C47.8037 5.27273 45.8719 4.15909 44.0537 4.15909C41.6901 4.15909 40.1219 6.02273 40.1219 8.70455C40.1219 11.3864 41.6674 13.1818 44.1901 13.1818ZM41.4685 7.93182C41.5594 6.57386 42.5197 5.36364 44.0537 5.36364C45.5083 5.36364 46.4401 6.45455 46.4401 7.93182H41.4685ZM62.0385 13L67.1294 7.90909L62.0385 2.81818L61.1635 3.69318L64.7658 7.28409H55.4362V8.53409H64.7658L61.1635 12.1364L62.0385 13Z" fill="#4381BB"/>
<path d="M0 16.1818H68.709V17.2727H0V16.1818Z" fill="#4381BB"/>
</svg>
